<svg width="402" height="280" viewBox="0 0 402 280" fill="none" xmlns="http://www.w3.org/2000/svg">
<path d="M307.855 188.928C307.685 188.928 307.515 188.919 307.345 188.908C307.845 185.969 308.365 183.019 309.055 180.059C309.715 182.908 310.225 185.739 310.705 188.579C309.771 188.8 308.815 188.918 307.855 188.928Z" fill="#282828"/>
<path d="M311.075 190.749C311.055 192.449 311.055 194.149 311.055 195.849C311.055 197.708 311.065 199.579 311.055 201.439V254.869C310.445 258.439 309.855 261.999 309.055 265.559C308.255 261.999 307.665 258.439 307.055 254.869V196.099C307.055 194.319 307.055 192.529 307.035 190.749C307.105 190.349 307.165 189.959 307.235 189.559C308.439 189.7 309.657 189.677 310.855 189.489C310.935 189.908 311.005 190.329 311.075 190.749Z" fill="#282828"/>
<path d="M243.205 100.388C243.205 100.388 243.415 100.759 243.825 101.339L243.805 101.359L240.865 104.509C239.665 105.359 238.465 106.209 237.175 106.969C237.855 105.638 238.625 104.388 239.385 103.129L241.615 100.759C242.585 100.559 243.205 100.388 243.205 100.388Z" fill="#282828"/>
<path d="M260.775 81.7886C260.085 83.1086 259.315 84.3687 258.555 85.6187L255.605 88.7686L255.065 89.3386C254.346 89.0983 253.611 88.9078 252.865 88.7686L254.145 87.3987L257.095 84.2485C258.295 83.4084 259.495 82.5686 260.775 81.7886Z" fill="#282828"/>
<path d="M293.463 106.015C293.618 105.668 293.857 105.366 294.157 105.134C294.383 104.964 294.647 104.854 294.926 104.813C295.205 104.775 295.489 104.809 295.751 104.914C296.102 105.054 296.411 105.281 296.65 105.574H296.652L296.665 105.593L296.652 105.611L296.655 105.611C296.5 105.956 296.261 106.256 295.958 106.483C295.733 106.651 295.468 106.759 295.189 106.794C294.908 106.828 294.624 106.79 294.363 106.685C294.012 106.539 293.703 106.309 293.463 106.015Z" fill="#282828"/>
<path d="M252.728 111.426L230.847 114.13C223.553 115.026 216.256 115.897 208.956 116.744C194.356 118.422 179.766 120.198 165.154 121.78L121.333 126.64L77.4868 131.27L77.4814 131.27C77.3603 131.282 77.238 131.27 77.122 131.233C70.8708 129.207 64.6128 127.202 58.3789 125.122L39.6604 118.934C33.4167 116.884 27.1833 114.802 20.9602 112.689L2.28998 106.35L21.1706 112.031C27.4638 113.926 33.7473 115.851 40.0212 117.807L58.8535 123.639C65.1365 125.566 71.3955 127.568 77.6611 129.549L77.2966 129.512L121.119 124.66L164.966 120.037C179.577 118.458 194.21 117.073 208.832 115.59C216.142 114.846 223.457 114.137 230.775 113.463L252.728 111.426Z" fill="#282828"/>
<path d="M2.28711 115.668C8.48291 117.825 14.6397 120.084 20.8149 122.295L39.2783 129.09L48.5061 132.498L57.7041 135.983L76.1003 142.952L75.6306 142.896C84.3975 141.712 93.1821 140.665 101.96 139.565L128.299 136.314L154.662 133.242C163.457 132.278 172.247 131.275 181.052 130.388C172.307 131.745 163.548 132.987 154.793 134.268L128.506 137.93L102.197 141.415C93.4246 142.56 84.6592 143.758 75.8765 144.818L75.8655 144.82C75.71 144.838 75.5524 144.818 75.4063 144.762L57.0694 137.637L47.9009 134.075L38.762 130.436L20.4922 123.136C14.4231 120.648 8.33545 118.209 2.28711 115.668Z" fill="#282828"/>
<path d="M75.0087 233.413C74.821 224.818 74.7605 216.227 74.8273 207.639C74.8664 199.049 75.0224 190.463 75.2011 181.877C75.4169 173.292 75.6581 164.708 76.0158 156.126C76.3449 147.543 76.8035 138.964 77.3915 130.388C77.5817 138.982 77.6432 147.573 77.5761 156.162C77.5363 164.751 77.3803 173.337 77.1991 181.923C76.9806 190.508 76.7396 199.093 76.3815 207.675C76.0514 216.257 75.5938 224.836 75.0087 233.413Z" fill="#282828"/>
<path d="M343.237 37.8248C342.007 37.2748 340.877 36.5218 339.897 35.5972C338.925 34.6451 338.084 33.5678 337.396 32.3939C336.722 31.2136 336.163 29.9704 335.729 28.682C335.292 27.3799 334.977 26.04 334.787 24.6795C334.779 24.6172 334.78 24.5541 334.792 24.4923L334.813 24.3799C335.122 22.9821 335.28 21.5553 335.286 20.1238C335.296 18.6985 335.146 17.2765 334.838 15.8848C334.225 13.1111 333.072 10.4851 331.445 8.15635L331.555 8.27183C329.825 6.61779 327.898 5.18263 325.817 3.99862C323.706 2.83977 321.413 2.04729 319.037 1.65487C314.161 1.03912 309.217 2.01035 304.936 4.42466C303.86 5.00045 302.823 5.64534 301.83 6.35531C301.335 6.70883 300.85 7.0748 300.382 7.45591C300.163 7.63706 299.888 7.86216 299.741 8.01475C299.555 8.21519 299.364 8.44907 299.181 8.67588C297.749 10.5826 296.671 12.7306 295.998 15.0179C295.321 17.2937 294.966 19.6529 294.942 22.0272C294.967 24.4093 295.252 26.7816 295.794 29.1014C295.83 29.2671 295.833 29.4381 295.803 29.605C295.576 30.8555 295.332 32.0787 295.056 33.3145C294.791 34.5734 294.456 35.8165 294.053 37.0379C293.865 37.6097 293.416 38.608 293.516 38.4002C293.475 38.3287 293.539 38.5162 293.892 38.7623C294.694 39.2501 295.609 39.5202 296.547 39.5457L296.643 39.542C296.852 39.5348 297.061 39.579 297.249 39.6708C297.438 39.7625 297.602 39.8992 297.726 40.0687C299.127 42.0086 300.609 43.9217 302.079 45.8165C303.512 47.6979 305.067 49.4833 306.734 51.1612C306.94 51.3484 307.145 51.525 307.346 51.6785C307.442 51.7457 307.543 51.8177 307.625 51.8672L307.737 51.9292C307.77 51.9471 307.762 51.9346 307.775 51.949C307.814 51.971 307.688 51.9278 307.653 51.9629C307.623 51.9815 307.752 51.9424 307.794 51.9353C307.925 51.9078 308.054 51.8736 308.181 51.8328C308.444 51.7596 308.717 51.6631 308.987 51.5721C310.082 51.1687 311.142 50.6782 312.159 50.1051C314.24 49.0344 316.031 47.476 317.379 45.5631L317.411 45.5128C317.439 45.4705 317.474 45.4341 317.515 45.4054C317.556 45.3768 317.603 45.3566 317.652 45.346C317.701 45.3353 317.751 45.3344 317.801 45.3433C317.85 45.3523 317.897 45.3709 317.94 45.398L317.981 45.4288C318.58 45.935 319.137 46.4887 319.646 47.0843C319.905 47.3821 320.136 47.7025 320.337 48.0416C320.555 48.3819 320.705 48.7612 320.778 49.1585C320.782 49.1893 320.775 49.2207 320.757 49.2464C320.74 49.2721 320.713 49.2902 320.683 49.2972C320.653 49.3043 320.621 49.2997 320.594 49.2843C320.566 49.269 320.546 49.244 320.537 49.2144L320.534 49.2071C320.249 48.5315 319.806 47.9346 319.241 47.4669C318.697 46.9608 318.113 46.499 317.496 46.0858L318.098 45.9515C316.891 48.1871 315.121 50.0689 312.964 51.4107C311.916 52.1117 310.813 52.7269 309.665 53.2503C309.369 53.3753 309.079 53.5081 308.763 53.6153C308.612 53.6732 308.451 53.7269 308.28 53.7747C308.182 53.808 308.082 53.8335 307.98 53.8509C307.79 53.8808 307.596 53.8782 307.407 53.8433C306.98 53.744 306.576 53.563 306.217 53.3101C305.923 53.1134 305.657 52.9095 305.401 52.7032C303.538 51.0535 301.808 49.2596 300.227 47.3382C298.623 45.4815 297.125 43.5657 295.629 41.6163L296.807 42.1387C296.022 42.188 295.236 42.1027 294.48 41.8865C293.737 41.6955 293.031 41.3799 292.392 40.9532C292.001 40.694 291.66 40.3656 291.386 39.9842C291.03 39.4996 290.848 38.9089 290.869 38.3079C290.876 38.0144 290.936 37.7244 291.045 37.4517L291.185 37.0987L291.261 36.929C291.364 36.7118 291.463 36.4349 291.557 36.1707C292.292 33.8631 292.901 31.5173 293.381 29.1436L293.39 29.6468C292.873 27.1227 292.638 24.5491 292.688 21.9732C292.792 19.3857 293.299 16.8302 294.192 14.3992C294.41 13.7925 294.689 13.2068 294.946 12.6175C295.256 12.0501 295.516 11.4605 295.867 10.9178C296.517 9.80263 297.279 8.7567 298.141 7.79621C298.364 7.55621 298.58 7.32232 298.832 7.08477C299.087 6.86637 299.354 6.66143 299.63 6.47077C300.149 6.10187 300.677 5.75544 301.214 5.42341C302.285 4.75666 303.404 4.1778 304.531 3.62409C309.055 1.34812 314.102 0.31603 319.157 0.633612C321.708 0.847945 324.206 1.48806 326.546 2.52741C328.891 3.58439 331.063 4.98712 332.991 6.68879C333.028 6.72075 333.062 6.75579 333.093 6.79352L333.101 6.80453C334.089 8.06875 334.911 9.4543 335.546 10.9273C336.189 12.3745 336.661 13.8912 336.955 15.4471C337.277 16.9997 337.399 18.5871 337.319 20.1707C337.249 21.7484 337.002 23.3132 336.584 24.836L336.61 24.5369C336.706 25.7866 336.915 27.0251 337.234 28.2369C337.544 29.4665 337.964 30.6657 338.489 31.8199C339.021 32.9726 339.693 34.0555 340.49 35.0443C341.312 36.0343 342.277 36.897 343.352 37.6046L343.36 37.61C343.385 37.6276 343.403 37.6542 343.41 37.6845C343.417 37.7149 343.412 37.7467 343.397 37.7737C343.382 37.8007 343.357 37.8209 343.327 37.8304C343.297 37.8399 343.265 37.8379 343.237 37.8248L343.237 37.8248Z" fill="#282828"/>
<path d="M298.019 36.4241C297.803 36.4244 297.59 36.3683 297.403 36.2612C297.215 36.1541 297.059 35.9999 296.949 35.8137L293.523 30.0051C293.44 29.8647 293.385 29.7093 293.362 29.5477C293.339 29.3861 293.348 29.2215 293.388 29.0633C293.429 28.9052 293.5 28.7566 293.598 28.6261C293.696 28.4955 293.819 28.3856 293.96 28.3027C294.1 28.2197 294.256 28.1652 294.417 28.1425C294.579 28.1197 294.744 28.1291 294.902 28.17C295.06 28.211 295.208 28.2827 295.338 28.3811C295.469 28.4795 295.578 28.6026 295.661 28.7434L299.087 34.552C299.198 34.7404 299.257 34.9549 299.259 35.1737C299.261 35.3925 299.204 35.6079 299.096 35.7979C298.988 35.988 298.831 36.146 298.642 36.256C298.452 36.366 298.238 36.4239 298.019 36.4241Z" fill="#282828"/>
<path d="M295.344 31.2698C295.212 31.2696 295.084 31.2274 294.978 31.1492C294.871 31.0711 294.792 30.961 294.753 30.8351C294.713 30.7091 294.715 30.5739 294.757 30.4488C294.8 30.3238 294.881 30.2156 294.989 30.1399C296.79 28.884 312.686 17.8948 316.067 18.0305C316.149 18.0343 316.228 18.054 316.302 18.0886C316.376 18.1232 316.442 18.172 316.497 18.2322C316.552 18.2924 316.595 18.3628 316.623 18.4395C316.65 18.5162 316.663 18.5975 316.659 18.679C316.649 18.8426 316.576 18.996 316.455 19.1065C316.334 19.217 316.174 19.276 316.011 19.2708C315.995 19.2698 315.979 19.2698 315.963 19.2698C313.621 19.2698 302.321 26.5393 295.699 31.1575C295.595 31.2303 295.471 31.2695 295.344 31.2698Z" fill="#282828"/>
<path d="M314.252 21.6294C314.23 20.7027 314.528 19.7968 315.096 19.064C315.267 18.8648 315.477 18.702 315.712 18.5852C315.947 18.4684 316.204 18.3999 316.466 18.3838L316.865 18.3774C316.993 18.3921 317.113 18.429 317.237 18.4556C317.481 18.5026 317.717 18.5851 317.936 18.7004C318.368 18.8977 318.775 19.1431 319.151 19.4319C319.495 19.7349 319.857 20.0105 320.186 20.3418C320.843 21.0123 321.385 21.786 321.792 22.6321C322.569 24.3349 322.789 26.2395 322.421 28.0747C322.254 28.9876 321.9 29.856 321.381 30.6255C321.115 31.025 320.749 31.3478 320.32 31.562C320.106 31.6704 319.862 31.7045 319.626 31.6589C319.39 31.6133 319.176 31.4907 319.018 31.3103C319.189 31.4212 319.39 31.4761 319.593 31.4673C319.797 31.4586 319.992 31.3866 320.153 31.2615C320.462 31.007 320.704 30.6808 320.859 30.3113C321.195 29.5581 321.399 28.7529 321.463 27.9307C321.623 26.2973 321.348 24.6507 320.668 23.1572C320.33 22.423 319.88 21.7454 319.336 21.1482C319.07 20.8416 318.753 20.566 318.463 20.2698C318.161 20.0098 317.84 19.7732 317.502 19.562C317.224 19.334 316.878 19.2045 316.519 19.1936C316.159 19.1827 315.806 19.291 315.515 19.5017C314.905 20.0802 314.467 20.8168 314.252 21.6294Z" fill="#282828"/>
<path d="M299.175 44.5571C300.126 44.4517 301.067 44.2742 301.991 44.0264C302.415 43.9084 302.825 43.7479 303.217 43.5471C303.638 43.3557 304.031 43.0864 304.545 42.8257C304.462 43.3872 304.203 43.9081 303.807 44.3147C303.411 44.742 302.906 45.0532 302.346 45.2148C301.797 45.3759 301.217 45.4034 300.654 45.2949C300.099 45.2008 299.584 44.944 299.175 44.5571Z" fill="#282828"/>
<path d="M295.344 26.9557C295.299 26.1052 295.577 25.2691 296.122 24.6146C296.664 23.9403 297.378 23.4251 298.189 23.1234C298.974 22.8345 299.808 22.7011 300.644 22.7306C301.049 22.7608 301.453 22.8128 301.852 22.8861C302.245 22.9871 302.631 23.1145 303.006 23.2677C302.621 23.3666 302.23 23.4427 301.836 23.4955C301.456 23.5651 301.084 23.6478 300.716 23.6964C300.007 23.8354 299.311 24.0309 298.634 24.2809C297.262 24.766 296.099 25.7111 295.344 26.9557Z" fill="#282828"/>
<path d="M300.55 32.2596C300.911 32.2471 301.254 32.0945 301.506 31.834C301.758 31.5735 301.898 31.2255 301.898 30.8633C301.898 30.5012 301.758 30.1531 301.506 29.8926C301.254 29.6322 300.911 29.4796 300.55 29.467C300.188 29.4796 299.845 29.6322 299.593 29.8926C299.341 30.1531 299.201 30.5012 299.201 30.8633C299.201 31.2255 299.341 31.5735 299.593 31.834C299.845 32.0945 300.188 32.2471 300.55 32.2596Z" fill="#282828"/>
<path d="M328.699 67.6509C327.279 66.468 325.668 65.5358 323.935 64.8941C322.225 64.2531 320.451 63.7994 318.644 63.5408C316.826 63.2675 314.991 63.1165 313.153 63.0889L310.366 63.1019C309.435 63.1443 308.5 63.1907 307.55 63.1829C308.455 62.919 309.376 62.7093 310.302 62.4959C311.235 62.3543 312.175 62.2112 313.121 62.1209C315.027 61.9681 316.944 62.0333 318.835 62.3153C320.742 62.5945 322.595 63.1671 324.327 64.0128C326.073 64.8292 327.579 66.0823 328.699 67.6509Z" fill="#282828"/>
<path d="M259.049 118.568C259.58 116.809 260.284 115.108 261.153 113.489C262 111.851 262.992 110.293 264.116 108.831C265.234 107.344 266.541 106.009 268.003 104.859C269.45 103.678 271.165 102.869 272.996 102.502C271.391 103.304 269.92 104.348 268.632 105.596C267.347 106.829 266.165 108.164 265.098 109.589C262.895 112.409 261.011 115.478 259.049 118.568Z" fill="#282828"/>
<path d="M303.006 137.652C303.565 137.793 304.146 137.823 304.717 137.738C305.283 137.675 305.84 137.549 306.378 137.361L307.17 137.048C307.431 136.937 307.674 136.783 307.926 136.653C308.426 136.384 308.904 136.076 309.356 135.732C311.172 134.353 312.789 132.729 314.161 130.907C314.826 129.976 315.501 129.053 316.136 128.102C316.732 127.122 317.373 126.172 317.932 125.17L319.596 122.155L321.112 119.056C323.115 114.891 325.075 110.681 327.146 106.539L330.247 100.32C331.322 98.2674 332.357 96.1963 333.465 94.1619C332.609 96.322 331.682 98.4458 330.793 100.588L328.006 106.953C326.137 111.194 324.218 115.396 322.231 119.59C320.294 123.851 317.831 127.854 314.901 131.504C313.395 133.317 311.642 134.91 309.693 136.234C309.196 136.553 308.674 136.833 308.133 137.07C307.86 137.185 307.599 137.322 307.319 137.416L306.472 137.675C305.341 138.017 304.133 138.009 303.006 137.652Z" fill="#282828"/>
<path d="M301.86 109.677C301.785 109.677 301.712 109.663 301.642 109.637L296.087 107.551C295.933 107.493 295.809 107.376 295.742 107.226C295.674 107.077 295.668 106.906 295.726 106.753C295.784 106.599 295.9 106.474 296.05 106.406C296.199 106.338 296.369 106.332 296.523 106.389L302.078 108.475C302.214 108.526 302.328 108.623 302.4 108.75C302.471 108.876 302.496 109.024 302.47 109.167C302.445 109.31 302.369 109.439 302.258 109.532C302.146 109.626 302.005 109.677 301.86 109.677V109.677Z" fill="#282828"/>
<path d="M256.236 108.131C254.9 108.548 253.485 108.642 252.106 108.404C250.706 108.15 249.366 107.639 248.153 106.896C246.95 106.163 245.842 105.282 244.855 104.276C243.867 103.259 242.989 102.14 242.237 100.938L243.499 101.462C240.936 102.12 238.292 102.405 235.648 102.31C234.295 102.289 232.954 102.061 231.67 101.635C230.985 101.403 230.377 100.984 229.916 100.426C229.677 100.14 229.494 99.8097 229.378 99.4545C229.294 99.0796 229.293 98.6907 229.378 98.3158C229.564 97.6303 229.926 97.0055 230.429 96.5036C230.875 96.0068 231.366 95.5513 231.894 95.1425C232.916 94.3203 233.992 93.5668 235.114 92.8871C237.323 91.5196 239.626 90.3087 242.005 89.2633C243.203 88.7723 244.325 88.1993 245.701 87.777C247.042 87.3684 248.433 87.1511 249.835 87.1315C251.22 87.1255 252.599 87.3107 253.933 87.6818C255.253 88.0112 256.535 88.4738 257.761 89.0626C260.149 90.2296 262.362 91.7246 264.335 93.5043C266.301 95.2233 268.046 97.1797 269.53 99.3285C269.547 99.3534 269.555 99.3837 269.551 99.4137C269.547 99.4437 269.533 99.4714 269.511 99.4917C269.488 99.5119 269.459 99.5233 269.429 99.5238C269.399 99.5242 269.369 99.5136 269.346 99.494L269.34 99.4889C265.612 96.1115 261.365 93.3552 256.762 91.3251C255.653 90.8526 254.5 90.4924 253.319 90.2501C252.178 89.9423 251.003 89.7809 249.821 89.7699C248.655 89.7335 247.49 89.8561 246.357 90.1344C245.261 90.3993 244.051 90.9202 242.856 91.3426C240.482 92.2484 238.092 93.109 235.773 94.1236C234.625 94.636 233.514 95.2273 232.449 95.8934C231.937 96.2334 231.457 96.6201 231.016 97.0484C230.594 97.4388 230.282 97.9337 230.112 98.4832C230.044 98.7383 230.047 99.0071 230.121 99.2607C230.194 99.5143 230.335 99.743 230.529 99.9224C230.904 100.346 231.406 100.637 231.961 100.752C233.157 100.996 234.387 101.028 235.595 100.848C238.058 100.464 240.5 99.9523 242.911 99.3152C243.149 99.2599 243.4 99.2807 243.626 99.3747C243.852 99.4687 244.044 99.6312 244.173 99.8394C244.826 100.904 245.57 101.91 246.398 102.844C247.218 103.8 248.134 104.67 249.132 105.439C250.122 106.208 251.224 106.821 252.4 107.256C253.616 107.694 254.902 107.907 256.194 107.886C256.227 107.886 256.26 107.898 256.284 107.921C256.308 107.944 256.322 107.976 256.323 108.009C256.323 108.036 256.314 108.062 256.299 108.084C256.283 108.106 256.261 108.122 256.236 108.131Z" fill="#282828"/>
<path d="M277.224 195.416L280.011 202.226C280.024 202.257 280.028 202.292 280.021 202.325C280.015 202.358 279.999 202.389 279.976 202.413C279.953 202.438 279.923 202.455 279.89 202.463C279.857 202.47 279.822 202.468 279.791 202.457L279.78 202.453C278.381 201.907 276.916 201.55 275.422 201.391C273.937 201.266 272.442 201.378 270.992 201.721C268.109 202.533 265.49 204.089 263.397 206.233C261.279 208.365 259.451 210.767 257.958 213.376C256.427 215.964 255.139 218.69 254.111 221.517L254.108 221.523C254.073 221.62 254.01 221.703 253.926 221.763C253.843 221.822 253.743 221.855 253.64 221.856C253.537 221.857 253.437 221.827 253.352 221.77C253.267 221.712 253.201 221.63 253.164 221.534L247.753 207.553L242.432 193.538L243.42 193.299L245.324 212.681C245.94 219.143 246.61 225.6 247.283 232.056C247.288 232.099 247.279 232.142 247.258 232.179C245.795 234.48 243.582 236.204 240.994 237.062C238.459 237.935 235.809 238.43 233.13 238.532C230.464 238.659 227.792 238.597 225.134 238.346C222.475 238.107 219.832 237.711 217.218 237.16C217.156 237.147 217.099 237.115 217.056 237.069C217.012 237.023 216.983 236.964 216.973 236.901L216.972 236.893C215.452 227.09 214.175 217.256 213.143 207.391C212.139 197.523 211.373 187.624 211.117 177.691C211.096 175.206 211.073 172.721 211.109 170.235L211.233 166.505L211.302 164.64L211.455 162.776L211.77 159.048L212.334 155.335C212.531 154.094 212.803 152.867 213.149 151.66C213.307 151.052 213.446 150.438 213.622 149.835L214.285 148.062L214.957 146.293C215.235 145.726 215.541 145.171 215.833 144.61C216.135 144.055 216.407 143.482 216.735 142.942L217.827 141.385C218.561 140.351 219.381 139.381 220.278 138.485C220.729 138.037 221.204 137.616 221.702 137.224C222.171 136.796 222.675 136.409 223.209 136.066L224.806 135.032L226.508 134.186C227.08 133.915 227.667 133.678 228.267 133.478C228.857 133.248 229.461 133.06 230.076 132.915C232.523 132.245 235.067 132.002 237.596 132.197L237.189 132.429C237.719 131.288 238.374 130.211 239.143 129.216C239.932 128.241 240.824 127.355 241.803 126.572C243.787 125.063 246.022 123.915 248.403 123.178C250.764 122.451 253.197 121.986 255.659 121.792C258.11 121.578 260.575 121.585 263.024 121.815C263.04 121.816 263.055 121.824 263.066 121.837C263.076 121.85 263.081 121.866 263.08 121.882C263.077 121.899 263.069 121.914 263.056 121.924C263.043 121.934 263.027 121.939 263.011 121.938C260.571 121.781 258.122 121.845 255.693 122.129C253.271 122.39 250.884 122.918 248.578 123.703C246.278 124.457 244.127 125.605 242.222 127.097C241.297 127.86 240.458 128.721 239.718 129.664C239.003 130.621 238.395 131.655 237.908 132.746C237.875 132.819 237.821 132.88 237.752 132.922C237.683 132.963 237.604 132.983 237.524 132.979L237.502 132.978C232.621 132.703 227.791 134.085 223.794 136.899C219.894 139.824 216.982 143.871 215.448 148.499L214.812 150.208C214.644 150.793 214.512 151.39 214.36 151.98C214.025 153.155 213.764 154.349 213.577 155.556L213.034 159.192L212.734 162.871L212.587 164.711L212.524 166.559L212.41 170.257C212.377 172.725 212.42 175.195 212.429 177.665C212.611 187.548 213.322 197.428 214.234 207.284C215.128 217.143 216.255 226.98 217.615 236.794L217.369 236.528C219.947 237.113 222.557 237.546 225.186 237.825C227.815 238.123 230.463 238.212 233.106 238.093C235.745 238.008 238.357 237.537 240.858 236.693C243.37 235.889 245.513 234.217 246.904 231.977L246.879 232.1C246.163 225.648 245.444 219.196 244.672 212.751L242.401 193.409C242.387 193.285 242.418 193.161 242.489 193.058C242.56 192.956 242.665 192.883 242.786 192.853C242.907 192.823 243.035 192.838 243.145 192.895C243.256 192.953 243.342 193.048 243.387 193.164L243.389 193.171L248.795 207.154L254.104 221.174L253.158 221.192C254.229 218.308 255.567 215.53 257.153 212.895C258.719 210.239 260.637 207.807 262.855 205.665C265.075 203.476 267.832 201.908 270.849 201.121C272.368 200.79 273.931 200.715 275.475 200.899C277.003 201.109 278.496 201.523 279.915 202.127L279.683 202.354L277.109 195.462C277.103 195.447 277.103 195.43 277.11 195.415C277.117 195.4 277.129 195.388 277.144 195.382C277.159 195.376 277.176 195.377 277.191 195.383C277.206 195.389 277.218 195.401 277.224 195.416H277.224Z" fill="#282828"/>
<path d="M242.911 193.354L244.016 203.581L237.177 164.795L244.648 197.884L242.911 193.354Z" fill="#282828"/>
<path d="M293.571 138.731C279.771 138.731 239.392 133.456 237.469 133.203C237.388 133.193 237.309 133.167 237.239 133.126C237.168 133.085 237.106 133.031 237.056 132.967C237.006 132.902 236.969 132.828 236.948 132.749C236.927 132.67 236.922 132.588 236.932 132.507C236.943 132.426 236.969 132.348 237.01 132.278C237.051 132.207 237.105 132.145 237.17 132.095C237.235 132.046 237.309 132.009 237.388 131.988C237.466 131.967 237.549 131.962 237.63 131.973C238.158 132.041 290.582 138.886 297.11 137.25C297.189 137.23 297.271 137.226 297.352 137.237C297.433 137.249 297.51 137.276 297.581 137.318C297.651 137.36 297.712 137.415 297.761 137.481C297.809 137.546 297.845 137.621 297.865 137.7C297.885 137.779 297.889 137.861 297.877 137.942C297.865 138.023 297.837 138.1 297.795 138.17C297.753 138.24 297.698 138.301 297.632 138.35C297.566 138.399 297.492 138.434 297.412 138.453C296.145 138.682 294.857 138.775 293.571 138.731Z" fill="#282828"/>
<path d="M387.675 70.6288C387.675 70.6288 342.995 60.2086 331.975 113.529C320.955 166.839 318.145 162.969 318.145 162.969C298.035 192.119 258.815 174.239 249.915 169.649C248.904 169.101 247.751 168.874 246.608 168.997C245.464 169.12 244.386 169.588 243.515 170.339C241.125 172.529 241.495 176.069 241.495 176.069L241.665 180.079C241.695 180.725 241.865 181.357 242.161 181.931C242.458 182.506 242.876 183.01 243.385 183.409C257.885 194.929 283.695 197.319 307.055 196.099C308.395 196.029 309.735 195.949 311.055 195.849C331.245 194.439 348.955 190.479 354.915 187.699C368.315 181.439 372.185 184.119 393.035 129.009C413.895 73.9086 387.675 70.6288 387.675 70.6288ZM396.565 85.3187L396.555 85.3087C390.696 82.1161 383.95 80.9356 377.355 81.9486C370.875 83.0387 365.205 86.8288 360.865 91.6986C358.677 94.1614 356.728 96.8267 355.045 99.6586C353.323 102.5 351.793 105.453 350.465 108.499C347.845 114.649 345.656 120.974 343.915 127.429C343.065 130.669 342.175 133.919 341.415 137.199C341.015 138.839 340.545 140.459 340.125 142.089C339.705 143.719 339.255 145.339 338.795 146.959C337.097 153.501 334.989 159.93 332.485 166.209C331.855 167.779 331.095 169.299 330.365 170.829C329.545 172.329 328.795 173.849 327.865 175.279C326.11 178.229 324.012 180.962 321.615 183.419C319.211 185.932 316.247 187.84 312.965 188.989C312.276 189.212 311.571 189.379 310.855 189.489C309.657 189.677 308.439 189.7 307.235 189.559C305.72 189.373 304.261 188.869 302.955 188.079C302.944 188.072 302.934 188.063 302.926 188.052C302.918 188.041 302.913 188.028 302.91 188.015C302.907 188.002 302.907 187.989 302.91 187.976C302.912 187.962 302.917 187.95 302.925 187.939C302.937 187.919 302.956 187.904 302.978 187.896C303 187.889 303.024 187.89 303.045 187.899L303.055 187.909C304.403 188.528 305.862 188.868 307.345 188.909C307.515 188.919 307.685 188.929 307.855 188.929C308.815 188.918 309.771 188.8 310.705 188.579C311.356 188.425 311.998 188.231 312.625 187.999C315.643 186.727 318.336 184.793 320.505 182.339C322.727 179.895 324.684 177.224 326.345 174.369C327.225 172.959 327.975 171.469 328.775 170.019C329.485 168.509 330.305 167.059 330.965 165.529C333.819 159.463 336.226 153.196 338.165 146.779C339.165 143.569 339.935 140.299 340.725 137.039C341.485 133.759 342.115 130.469 342.855 127.169C344.231 120.536 346.199 114.04 348.735 107.759C351.238 101.374 354.806 95.4607 359.285 90.2687C361.607 87.6873 364.32 85.4871 367.325 83.7487C370.349 82.0183 373.675 80.8814 377.125 80.3988C383.994 79.6209 390.916 81.3001 396.665 85.1386C396.676 85.1457 396.686 85.155 396.694 85.166C396.701 85.1769 396.707 85.1893 396.71 85.2023C396.712 85.2154 396.713 85.2289 396.71 85.242C396.708 85.2551 396.702 85.2676 396.695 85.2787C396.681 85.2991 396.661 85.3141 396.637 85.3214C396.614 85.3287 396.588 85.3277 396.565 85.3187H396.565Z" fill="#282828"/>
<path d="M352.653 264.896C352.632 265.923 352.307 266.921 351.719 267.763C351.142 268.592 350.444 269.332 349.649 269.956C348.069 271.198 346.345 272.245 344.514 273.074C340.86 274.74 337.049 276.039 333.138 276.95C325.324 278.803 317.303 279.637 309.276 279.43C301.276 279.222 293.312 278.268 285.49 276.581C281.565 275.787 277.719 274.644 273.999 273.163C272.112 272.409 270.324 271.428 268.675 270.241C267.821 269.622 267.069 268.873 266.447 268.022C265.777 267.112 265.393 266.024 265.343 264.896C265.344 263.752 265.682 262.634 266.317 261.683C266.911 260.784 267.641 259.982 268.48 259.306C270.09 258.004 271.872 256.929 273.774 256.112C277.488 254.489 281.363 253.265 285.336 252.461C293.209 250.82 301.234 250.019 309.276 250.071C317.312 250.034 325.325 250.951 333.145 252.805C337.056 253.728 340.866 255.033 344.522 256.699C346.354 257.531 348.078 258.58 349.658 259.825C350.453 260.451 351.15 261.193 351.725 262.025C352.312 262.869 352.634 263.868 352.653 264.896ZM352.405 264.896C352.369 262.916 350.963 261.271 349.429 260.112C347.839 258.949 346.096 258.013 344.248 257.331C340.549 255.965 336.718 254.984 332.817 254.405C325.026 253.232 317.155 252.668 309.276 252.718C301.407 252.682 293.551 253.362 285.805 254.749C281.964 255.449 278.199 256.51 274.558 257.918C272.781 258.616 271.095 259.527 269.536 260.631C268.047 261.722 266.764 263.199 266.702 264.896C266.65 266.598 267.88 268.213 269.341 269.406C270.859 270.627 272.54 271.631 274.334 272.39C277.968 273.943 281.764 275.084 285.651 275.793C289.541 276.523 293.476 276.989 297.429 277.187C301.376 277.428 305.331 277.451 309.276 277.364C317.16 277.245 325.027 276.597 332.825 275.424C336.725 274.833 340.555 273.846 344.256 272.479C346.105 271.796 347.849 270.857 349.437 269.691C350.971 268.529 352.375 266.876 352.405 264.896Z" fill="#282828"/>
<path d="M244.826 234.715C245.479 235.908 245.961 237.187 246.259 238.514C246.604 239.824 246.869 241.151 247.096 242.483C247.539 245.148 247.9 247.826 248.15 250.513C248.268 251.87 248.4 253.171 248.465 254.574C248.498 255.992 248.257 257.403 247.755 258.729C247.501 259.398 247.169 260.033 246.766 260.624C246.358 261.194 245.911 261.736 245.429 262.245C244.468 263.262 243.36 264.127 242.14 264.812C239.715 266.139 237.034 266.929 234.277 267.131C232.913 267.25 231.54 267.218 230.183 267.034C229.501 266.952 228.828 266.812 228.169 266.616C227.515 266.414 226.886 266.186 226.25 265.955C221.154 264.104 216.519 261.286 211.508 259.363C206.529 257.379 201.391 255.707 196.457 253.459C193.938 252.38 191.545 251.027 189.322 249.425C188.199 248.585 187.187 247.608 186.308 246.516C185.805 245.901 185.479 245.16 185.368 244.373C185.31 243.969 185.32 243.557 185.396 243.156C185.484 242.768 185.622 242.393 185.805 242.04C186.571 240.764 187.702 239.747 189.051 239.119C190.319 238.488 191.683 238.073 193.087 237.89C193.783 237.797 194.483 237.752 195.185 237.754C195.881 237.783 196.6 237.835 197.237 237.887C198.548 237.998 199.886 237.997 201.22 237.979C206.569 237.871 211.935 237.353 217.284 236.783C217.3 236.781 217.317 236.785 217.33 236.795C217.343 236.805 217.351 236.82 217.353 236.837C217.355 236.852 217.351 236.868 217.341 236.881C217.332 236.893 217.318 236.902 217.303 236.905C212 237.922 206.639 238.604 201.251 238.949C199.897 239.005 198.54 239.045 197.165 238.968C196.46 238.93 195.835 238.905 195.187 238.894C194.542 238.91 193.9 238.97 193.264 239.073C192.001 239.275 190.777 239.672 189.636 240.25C188.534 240.772 187.611 241.606 186.98 242.649C186.723 243.135 186.62 243.688 186.687 244.233C186.753 244.779 186.985 245.291 187.351 245.701C188.165 246.705 189.093 247.611 190.114 248.402C192.239 249.98 194.53 251.32 196.947 252.399C201.785 254.684 206.845 256.517 211.775 258.738C214.245 259.829 216.644 261.073 219.043 262.292C221.406 263.566 223.864 264.656 226.395 265.55C227.63 266.039 228.924 266.368 230.243 266.528C231.563 266.646 232.892 266.618 234.206 266.444C236.826 266.133 239.351 265.274 241.616 263.922C242.727 263.254 243.74 262.435 244.624 261.488C245.523 260.577 246.241 259.505 246.742 258.328C247.215 257.137 247.453 255.866 247.444 254.585C247.406 253.299 247.295 251.918 247.202 250.593C246.994 247.917 246.797 245.239 246.452 242.579C246.236 239.912 245.653 237.286 244.719 234.778L244.716 234.772C244.71 234.757 244.709 234.741 244.714 234.726C244.72 234.711 244.73 234.699 244.744 234.692C244.758 234.685 244.774 234.683 244.79 234.687C244.805 234.691 244.818 234.701 244.826 234.715L244.826 234.715Z" fill="#282828"/>
<path d="M222.179 237.725C222.302 239.159 222.512 240.584 222.808 241.993C223.077 243.381 223.485 244.74 224.025 246.047C224.502 247.302 225.326 248.397 226.4 249.202C226.921 249.551 227.519 249.767 228.142 249.833C228.788 249.882 229.437 249.814 230.059 249.633C231.377 249.242 232.621 248.635 233.741 247.837C234.904 247.076 235.942 246.141 236.82 245.064C238.615 242.85 239.643 240.114 239.749 237.266C240.12 240.233 239.348 243.23 237.591 245.649C235.796 248.098 233.269 249.913 230.376 250.832C229.606 251.043 228.804 251.112 228.009 251.037C227.191 250.945 226.41 250.647 225.739 250.17C224.508 249.207 223.597 247.894 223.128 246.403C222.224 243.605 221.902 240.652 222.179 237.725Z" fill="#282828"/>
<path d="M200.761 245.557C200.423 244.771 200.308 243.907 200.429 243.06C200.533 242.188 200.845 241.354 201.341 240.629C201.834 239.905 202.493 239.309 203.263 238.891C203.635 238.684 204.028 238.519 204.436 238.398C204.843 238.295 205.259 238.229 205.678 238.201C205.356 238.489 205.017 238.698 204.707 238.943C204.411 239.207 204.084 239.409 203.82 239.684C203.685 239.816 203.547 239.941 203.406 240.06L203.036 240.471C202.787 240.735 202.564 241.021 202.367 241.326C201.538 242.607 200.991 244.049 200.761 245.557Z" fill="#282828"/>
<path d="M207.464 245.557C207.119 244.785 207.011 243.928 207.154 243.095C207.279 242.258 207.562 241.451 207.989 240.72C208.42 240.004 208.965 239.363 209.602 238.823C209.92 238.562 210.254 238.322 210.603 238.105C210.964 237.906 211.338 237.734 211.724 237.59C211.501 237.927 211.261 238.251 211.005 238.563L210.306 239.489C209.858 240.087 209.442 240.707 209.059 241.348C208.278 242.644 207.738 244.069 207.464 245.557Z" fill="#282828"/>
<path d="M219.143 268.915C216.819 268.159 214.578 267.169 212.453 265.961C208.829 263.888 202.499 260.326 200.712 259.631C195.077 257.422 188.389 255.139 185.979 251.44C181.873 245.135 185.978 241.879 185.978 241.879C187.277 248.815 195.4 252.706 207.017 257.174C218.634 261.642 220.074 263.752 228.017 266.333C232.237 267.711 241.806 266.892 246.311 260.301C246.633 259.833 246.907 259.334 247.131 258.812L247.956 252.335C254.053 276.515 228.079 271.807 219.143 268.915Z" fill="#282828"/>
<path d="M255.691 250.346C254.45 249.941 253.368 249.156 252.598 248.102C251.827 247.048 251.408 245.779 251.398 244.473C251.287 242.602 251.776 240.745 252.794 239.171C253.813 237.598 255.307 236.391 257.06 235.727C263.35 233.078 266.329 225.386 267.45 221.578C268.388 218.341 269.84 215.276 271.749 212.499C274.881 207.985 279.795 203.47 285.791 206.695C287.87 207.88 289.447 209.779 290.23 212.039C291.732 216.067 294.139 220.044 287.623 228.906C286.567 230.323 285.425 231.674 284.205 232.953C282.316 234.992 280.837 237.375 279.847 239.972C278.942 242.503 270.081 254.924 255.691 250.346Z" fill="#282828"/>
<path d="M256.879 214.304C257.507 217.517 257.503 220.821 256.866 224.032C256.265 227.265 255.149 230.38 253.561 233.259C252.768 234.676 251.897 236.047 250.951 237.367C250.531 238.009 250.199 238.704 249.963 239.433C249.756 240.176 249.671 240.946 249.711 241.716C249.708 243.3 249.991 244.872 250.546 246.356C250.79 247.114 251.227 247.795 251.815 248.332C252.402 248.869 253.12 249.243 253.896 249.418C253.074 249.351 252.294 249.026 251.668 248.489C251.05 247.936 250.552 247.263 250.202 246.511C249.51 245.011 249.112 243.392 249.03 241.742C248.956 240.899 249.004 240.05 249.173 239.221C249.367 238.394 249.676 237.598 250.092 236.857C250.943 235.409 251.785 234.135 252.501 232.696C253.975 229.884 255.092 226.9 255.829 223.812C256.603 220.704 256.956 217.506 256.879 214.304Z" fill="#282828"/>
<path d="M277.191 201.436C277.782 201.474 278.361 201.618 278.901 201.859C279.434 202.084 279.938 202.373 280.402 202.719C280.875 203.071 281.293 203.49 281.643 203.964C282.022 204.443 282.256 205.022 282.316 205.63C281.828 205.258 281.391 204.963 280.956 204.647L279.656 203.71C278.745 203.055 277.917 202.291 277.191 201.436Z" fill="#282828"/>
<path d="M261.165 120.249C261.167 120.268 261.165 120.287 261.16 120.305C261.154 120.324 261.145 120.341 261.133 120.355C261.121 120.37 261.106 120.383 261.089 120.392C261.073 120.401 261.054 120.407 261.035 120.408L221.125 126.009L182.125 131.309L182.385 174.208L182.505 196.119L182.565 218.029C182.567 218.392 182.437 218.744 182.2 219.019C181.963 219.295 181.635 219.476 181.275 219.529H181.265L128.255 227.289L75.2151 234.859H75.2052C74.9174 234.9 74.6239 234.851 74.3651 234.718L37.8951 216.529L1.47515 198.239H1.46515C1.29504 198.153 1.15237 198.021 1.05336 197.859C0.954349 197.696 0.902973 197.509 0.905092 197.319L1.46515 151.839C1.67515 136.669 1.69516 121.509 1.82503 106.349C1.82601 106.234 1.86943 106.123 1.94698 106.038C2.02453 105.953 2.13073 105.9 2.24518 105.888L31.9151 102.749L33.1451 102.619L33.4151 102.589C33.2552 102.969 33.095 103.349 32.9451 103.739L32.075 103.829L2.75516 106.769C2.76516 121.799 2.66507 136.819 2.75516 151.839L2.95516 196.689L39.0453 214.208L75.2352 231.908L127.805 224.158L179.535 216.719L179.595 196.119L179.725 174.209L179.995 130.388V130.379C179.995 130.123 180.089 129.876 180.259 129.685C180.428 129.493 180.661 129.37 180.915 129.339L220.945 124.649L261.005 120.119C261.024 120.117 261.043 120.119 261.062 120.124C261.08 120.129 261.097 120.138 261.112 120.151C261.127 120.163 261.139 120.177 261.148 120.194C261.157 120.211 261.163 120.23 261.165 120.249Z" fill="#282828"/>
<path d="M34.5251 102.469C34.665 102.829 34.8151 103.189 34.9551 103.539C34.4151 103.589 33.8752 103.649 33.3352 103.698C33.5452 103.309 33.7551 102.919 33.9551 102.529L34.5251 102.469Z" fill="#282828"/>
<path d="M35.2852 102.388C36.175 102.299 37.0652 102.208 37.9551 102.109C37.7952 102.499 37.635 102.899 37.4751 103.289C36.915 103.339 36.3552 103.399 35.7952 103.458C35.6253 103.099 35.4551 102.749 35.2852 102.388Z" fill="#282828"/>
<path d="M38.8752 102.489L39.135 103.119C38.9551 103.138 38.7751 103.158 38.6052 103.178C38.6951 102.948 38.7851 102.719 38.8752 102.489Z" fill="#282828"/>
<path d="M42.3052 101.638H42.405L41.955 102.849C41.3351 102.908 40.715 102.969 40.1052 103.029L39.695 101.919C40.5652 101.829 41.435 101.729 42.3052 101.638Z" fill="#282828"/>
<path d="M42.945 102.138L43.155 102.729C43.0151 102.749 42.865 102.759 42.7251 102.769L42.945 102.138Z" fill="#282828"/>
<path d="M46.7251 101.469L46.3152 102.429L43.7952 102.669L43.4451 101.619C44.5351 101.589 45.635 101.539 46.7251 101.469Z" fill="#282828"/>
<path d="M47.0251 101.569L47.3352 102.329C47.1252 102.349 46.9152 102.369 46.7051 102.388L47.0251 101.569Z" fill="#282828"/>
<path d="M300.205 92.3386C300.196 92.3753 300.174 92.4072 300.142 92.4276C300.111 92.4481 300.072 92.4556 300.035 92.4485L274.695 87.0987C266.295 85.3187 257.905 83.5154 249.525 81.6887L218.755 85.1384L187.865 88.4485L156.965 91.7485L126.055 94.8786C115.745 95.9284 105.435 96.8884 95.1253 97.8586L64.185 100.749C59.425 101.189 54.6684 101.635 49.915 102.089C49.145 102.158 48.3752 102.229 47.6052 102.309L47.2852 101.429C48.2051 101.359 49.1252 101.279 50.0551 101.159C49.5051 101.089 48.945 101.029 48.395 100.969C48.9751 100.909 49.5451 100.839 50.115 100.779C54.7551 100.259 59.3918 99.7353 64.0251 99.2086L94.905 95.7386C105.195 94.5687 115.485 93.4085 125.785 92.3487L156.695 89.0987L187.615 86.0286L218.535 82.9685L249.465 80.0586H249.485C249.566 80.0549 249.646 80.0616 249.725 80.0786C258.135 82.0386 266.535 84.0353 274.925 86.0686L300.095 92.1585C300.114 92.1625 300.133 92.1705 300.149 92.1819C300.165 92.1933 300.179 92.2079 300.189 92.2247C300.199 92.2416 300.206 92.2604 300.209 92.28C300.212 92.2996 300.21 92.3196 300.205 92.3386Z" fill="#282828"/>
<path d="M90.0552 188.579V223.638L168.695 213.509V179.549L90.0552 188.579ZM134.735 203.559C128.935 203.559 128.945 194.559 134.735 194.559C140.535 194.559 140.525 203.559 134.735 203.559V203.559Z" fill="#282828"/>
<path d="M90.0552 147.229V182.289L168.695 172.158V138.198L90.0552 147.229ZM134.735 162.209C128.935 162.209 128.945 153.209 134.735 153.209C140.535 153.209 140.525 162.209 134.735 162.209V162.209Z" fill="#282828"/>
<path d="M264.085 94.3978L264.097 94.3968C265.747 93.9747 267.411 93.6282 269.067 93.2425C270.729 92.8834 272.391 92.5311 274.057 92.2029C274.145 92.1854 274.237 92.1956 274.319 92.232L274.343 92.2423C277.836 93.7811 281.296 95.3907 284.741 97.0308C288.182 98.6807 291.608 100.361 295.001 102.111L295.029 102.126C295.129 102.178 295.205 102.267 295.24 102.376C295.274 102.484 295.265 102.601 295.213 102.702C295.179 102.765 295.131 102.82 295.071 102.86C295.011 102.9 294.943 102.925 294.871 102.932C293.447 103.061 292.025 103.207 290.597 103.307C289.17 103.411 287.745 103.537 286.313 103.607C287.716 103.309 289.125 103.066 290.532 102.802C291.938 102.534 293.35 102.312 294.76 102.073L294.629 102.893C291.13 101.367 287.664 99.7708 284.212 98.1441C280.765 96.5077 277.333 94.8404 273.934 93.1029L274.219 93.1422C272.538 93.3893 270.854 93.6117 269.168 93.8277C267.478 94.017 265.794 94.2457 264.097 94.3985H264.097L264.085 94.3978Z" fill="#282828"/>
<path d="M256.849 107.455L256.836 107.455L248.5 108.791C245.722 109.244 242.935 109.622 240.153 110.041C237.368 110.442 234.588 110.879 231.8 111.25L223.438 112.385C223.348 112.396 223.258 112.387 223.173 112.358C219.812 111.201 216.437 110.084 213.092 108.881L203.04 105.326C202.972 105.303 202.91 105.266 202.856 105.218C202.803 105.171 202.759 105.113 202.728 105.049C202.697 104.984 202.678 104.914 202.674 104.843C202.67 104.771 202.68 104.7 202.704 104.632C202.736 104.54 202.792 104.458 202.867 104.395C202.941 104.332 203.031 104.29 203.127 104.273C207.628 103.505 212.149 102.851 216.662 102.145C221.174 101.442 225.698 100.807 230.226 100.194C225.752 101.119 221.273 102.023 216.784 102.86C212.293 103.693 207.812 104.578 203.311 105.348L203.398 104.296L213.489 107.74C216.859 108.871 220.199 110.088 223.553 111.264L223.288 111.237L231.662 110.192C234.453 109.836 237.252 109.546 240.046 109.22C242.842 108.912 245.634 108.564 248.435 108.29C251.235 108.005 254.032 107.701 256.836 107.454H256.836L256.849 107.455Z" fill="#282828"/>
<path d="M224.368 89.7089C221.359 90.5831 218.333 91.3805 215.314 92.2108C214.558 92.411 213.807 92.6378 213.044 92.8085L210.75 93.2882L206.166 94.2792L203.875 94.7748C203.042 95.0008 202.173 95.053 201.319 94.9281C200.414 94.7894 199.572 94.38 198.904 93.7538C198.566 93.4129 198.306 93.0026 198.143 92.5513C197.979 92.0999 197.916 91.6184 197.957 91.14C198.147 89.4208 198.931 87.8217 200.173 86.618C200.768 86.0255 201.442 85.5176 202.175 85.1088C202.536 84.9079 202.908 84.7275 203.289 84.5685C203.638 84.4198 203.982 84.2608 204.322 84.0914C207.067 82.8199 209.379 80.7707 210.97 78.1979C211.718 76.9078 212.214 75.4873 212.43 74.0121C212.626 72.5631 212.628 70.9537 212.706 69.4025L213.471 50.662L213.485 50.8197C213.41 50.613 213.304 50.4186 213.172 50.2425C213.019 50.0329 212.845 49.8396 212.652 49.6659C212.23 49.3182 211.775 49.0114 211.294 48.7494C210.266 48.2073 209.166 47.8144 208.027 47.5826C206.852 47.3544 205.662 47.2105 204.467 47.152C203.262 47.0848 202.052 47.0924 200.836 47.1127C202.038 46.9479 203.244 46.7662 204.467 46.7113C205.696 46.6415 206.928 46.66 208.155 46.7667C209.417 46.8882 210.655 47.1906 211.832 47.6644C212.446 47.9231 213.01 48.2893 213.496 48.746C214.052 49.2299 214.467 49.8546 214.698 50.5543C214.709 50.5929 214.715 50.6331 214.713 50.6735L214.711 50.7125L213.947 69.454C213.864 71.0231 213.875 72.5492 213.657 74.2006C213.417 75.8281 212.87 77.3952 212.045 78.8187C210.332 81.6039 207.837 83.8242 204.873 85.2037C204.513 85.3834 204.147 85.552 203.777 85.7096C203.437 85.8512 203.105 86.012 202.783 86.1913C202.149 86.5443 201.566 86.9827 201.052 87.4943C200.027 88.4854 199.372 89.7972 199.196 91.2118C199.163 91.5142 199.199 91.82 199.299 92.1071C199.4 92.3941 199.563 92.6551 199.777 92.8712C200.263 93.3154 200.871 93.6051 201.522 93.7037C202.221 93.8034 202.933 93.755 203.612 93.5617L205.904 93.066L210.487 92.0751L212.775 91.564C213.541 91.4044 214.318 91.3009 215.089 91.1705C218.181 90.6796 221.266 90.1559 224.368 89.7089Z" fill="#282828"/>
<path d="M205.385 33.7186C206.715 35.2286 207.945 36.8287 209.575 38.3787L192.145 59.9686C191.845 39.4187 177.555 38.3787 177.555 38.3787L201.045 29.4387C201.861 30.087 202.639 30.7814 203.375 31.5186C204.075 32.2286 204.725 32.9686 205.385 33.7186Z" fill="#282828"/>
<path d="M217.025 38.3787H209.575C209.47 37.2709 209.169 36.1906 208.685 35.1887C208.221 34.183 207.618 33.2472 206.895 32.4084C206.163 31.551 205.291 30.824 204.315 30.2585C203.326 29.678 202.191 29.3934 201.045 29.4387L204.365 23.1785L217.025 38.3787Z" fill="#282828"/>
<path d="M192.148 59.9709C189.922 59.2849 187.846 58.1845 186.029 56.7275C184.17 55.2894 182.548 53.5671 181.225 51.624C180.881 51.146 180.571 50.645 180.295 50.1248C180.018 49.6052 179.697 49.1096 179.46 48.571C178.967 47.5046 178.563 46.3992 178.252 45.2661C177.608 43.0296 177.37 40.6955 177.552 38.375C178.143 40.543 178.869 42.672 179.725 44.7495C180.565 46.7718 181.621 48.6977 182.874 50.4939C184.102 52.3137 185.504 54.0108 187.058 55.5618C188.645 57.1531 190.346 58.6267 192.148 59.9709Z" fill="#282828"/>
<path d="M186.041 53.0453C193.229 53.0453 193.241 41.875 186.041 41.875C178.854 41.875 178.842 53.0453 186.041 53.0453Z" fill="#282828"/>
<path d="M133.877 98.6291L152.253 95.446C158.513 94.3805 164.851 93.287 171.175 92.4687L171.195 92.466C171.288 92.4537 171.384 92.4713 171.467 92.5163L178.819 96.4802C181.263 97.8149 183.732 99.1013 186.198 100.392C188.656 101.7 191.152 102.933 193.633 104.196C196.112 105.462 198.621 106.669 201.114 107.908C201.177 107.94 201.229 107.99 201.262 108.052C201.295 108.115 201.307 108.186 201.298 108.256C201.288 108.326 201.256 108.39 201.208 108.441C201.159 108.492 201.095 108.527 201.026 108.54L201.013 108.542C194.741 109.676 188.464 110.783 182.176 111.824C175.891 112.883 169.607 113.947 163.307 114.91L163.301 114.911C163.163 114.932 163.022 114.908 162.899 114.842C157.934 112.177 153.016 109.393 148.149 106.662C143.317 103.906 138.561 101.211 133.877 98.6291ZM134 98.6501C139.071 101.279 144.07 103.794 148.993 106.248C153.882 108.727 158.719 111.154 163.51 113.699L163.102 113.631C169.387 112.574 175.688 111.616 181.989 110.655C188.286 109.675 194.594 108.762 200.907 107.875L200.806 108.509C198.346 107.204 195.904 105.866 193.431 104.589C190.959 103.308 188.503 101.996 186.009 100.76C183.523 99.5065 181.04 98.2487 178.532 97.039L171.028 93.3703L171.319 93.4179C165.206 94.4982 159.109 95.3034 152.932 96.1369L143.568 97.3608L134 98.6501Z" fill="#282828"/>
<path d="M155.832 102.55C157.181 102.25 158.543 102.018 159.916 101.856C161.215 102.063 162.521 102.229 163.824 102.417L171.643 103.512L179.462 104.609L183.372 105.156C184.622 105.713 185.875 106.258 187.109 106.934C185.737 107.244 184.383 107.424 183.027 107.615L179.117 107.067L171.298 105.971L163.479 104.875C162.175 104.698 160.874 104.497 159.568 104.339C158.293 103.806 157.046 103.209 155.832 102.55Z" fill="#282828"/>
<path d="M54.2451 105.569L72.6216 102.386C78.8809 101.321 85.2195 100.227 91.5427 99.4089L91.563 99.4062C91.6566 99.3938 91.7517 99.4114 91.8347 99.4565L99.187 103.42C101.631 104.755 104.1 106.041 106.566 107.332C109.024 108.64 111.52 109.873 114.001 111.136C116.48 112.403 118.99 113.609 121.482 114.849C121.546 114.88 121.597 114.93 121.63 114.993C121.663 115.055 121.675 115.126 121.666 115.196C121.656 115.266 121.625 115.331 121.576 115.382C121.527 115.433 121.464 115.467 121.394 115.48L121.382 115.482C115.109 116.616 108.832 117.723 102.544 118.764C96.2595 119.823 89.9753 120.887 83.6753 121.85L83.6692 121.851C83.5313 121.872 83.3902 121.848 83.2673 121.782C78.3023 119.117 73.3845 116.333 68.5176 113.602C63.685 110.846 58.929 108.151 54.2451 105.569ZM54.3677 105.59C59.4392 108.219 64.4385 110.734 69.3613 113.189C74.2495 115.668 79.0874 118.094 83.8777 120.639L83.47 120.571C89.7551 119.514 96.0561 118.557 102.356 117.595C108.654 116.616 114.962 115.702 121.275 114.816L121.174 115.449C118.715 114.144 116.272 112.807 113.799 111.529C111.327 110.248 108.872 108.936 106.377 107.7C103.892 106.447 101.408 105.189 98.8999 103.979L91.396 100.31L91.6875 100.358C85.5745 101.438 79.477 102.244 73.3 103.077L63.9358 104.301L54.3677 105.59Z" fill="#282828"/>
<path d="M99.698 103.98C101.951 103.519 104.208 103.085 106.469 102.677C108.732 102.284 110.989 101.851 113.257 101.489C117.791 100.756 122.318 99.974 126.874 99.3793L126.897 99.3764C126.996 99.3633 127.096 99.382 127.184 99.4299L134.512 103.441C136.954 104.779 139.423 106.065 141.895 107.345C144.38 108.6 146.864 109.856 149.375 111.062L156.888 114.712C156.981 114.757 157.057 114.83 157.105 114.921C157.154 115.012 157.172 115.116 157.158 115.218C157.144 115.32 157.098 115.415 157.027 115.489C156.955 115.563 156.862 115.613 156.761 115.631L156.741 115.635L147.321 117.265C144.18 117.803 141.038 118.335 137.891 118.833C134.742 119.323 131.594 119.815 128.438 120.257C125.282 120.705 122.131 121.178 118.969 121.583L118.947 121.585C118.871 121.595 118.795 121.58 118.729 121.543C116.042 120.023 113.37 118.477 110.712 116.905C110.698 116.896 110.688 116.883 110.684 116.868C110.68 116.853 110.682 116.836 110.689 116.822C110.697 116.808 110.709 116.797 110.724 116.792C110.74 116.787 110.756 116.788 110.771 116.795C113.559 118.122 116.331 119.481 119.087 120.87L118.848 120.83C121.978 120.225 125.119 119.688 128.256 119.127C131.393 118.56 134.537 118.042 137.681 117.522C140.826 117.011 143.977 116.534 147.128 116.062L156.586 114.664L156.439 115.587L149.096 111.604C146.654 110.266 144.186 108.977 141.719 107.688C139.239 106.424 136.756 105.165 134.246 103.959L126.718 100.337L127.027 100.387C122.502 101.179 117.948 101.782 113.401 102.435C111.129 102.767 108.845 103.027 106.568 103.326C104.289 103.614 102.005 103.872 99.7168 104.103C99.7009 104.104 99.685 104.1 99.6725 104.09C99.6599 104.08 99.6515 104.066 99.6491 104.05C99.6467 104.034 99.6504 104.018 99.6595 104.005C99.6686 103.992 99.6824 103.983 99.698 103.98L99.698 103.98Z" fill="#282828"/>
<path d="M253.085 43.9285C252.565 45.3987 251.975 46.8386 251.385 48.2786L249.035 52.2386L244.525 59.8587H242.785L243.055 59.4085L247.745 51.4786L250.095 47.5086C251.075 46.3086 252.045 45.0986 253.085 43.9285Z" fill="#282828"/>
<path d="M242.105 48.9085L241.545 53.8086L240.855 59.8586H239.345L240.055 53.6384L240.605 48.7385C241.015 47.1287 241.415 45.5185 241.915 43.9285C242.035 45.5987 242.075 47.2486 242.105 48.9085Z" fill="#282828"/>
<path d="M235.915 59.8587H236.865L236.335 56.1487L235.905 53.1687L235.245 48.4887C234.795 46.9687 234.355 45.4387 233.825 43.9287C233.755 45.2387 233.735 46.5387 233.745 47.8387V48.7087L233.935 49.9987L234.425 53.3787L235.355 59.8587H235.915Z" fill="#282828"/>
<path d="M232.745 59.8586H231.235L230.295 53.3786L229.625 48.7085C229.615 47.1186 229.615 45.5285 229.705 43.9285C230.235 45.4387 230.675 46.9685 231.125 48.4885L231.785 53.1687L232.425 57.6287L232.745 59.8586Z" fill="#282828"/>
<path d="M233.935 49.1186V49.9985L233.925 53.7185V59.8586H232.425V49.1187C232.645 47.5887 232.865 46.0586 233.175 44.5186C233.395 45.6287 233.585 46.7386 233.745 47.8386C233.815 48.2685 233.875 48.6887 233.935 49.1186Z" fill="#282828"/>
<path d="M238.555 49.8885L238.035 54.4586L237.425 59.8587H235.915L236.335 56.1487L236.545 54.2886L237.055 49.7185C237.445 48.2185 237.835 46.7185 238.315 45.2385C238.455 46.7886 238.505 48.3387 238.555 49.8885Z" fill="#282828"/>
<path d="M228.115 65.9786V71.3788C228.375 71.3488 228.635 71.3288 228.895 71.2987L231.145 66.2487C230.135 66.1786 229.125 66.0988 228.115 65.9786ZM231.425 66.3387L229.015 71.2888C230.465 71.1386 231.925 71.0388 233.375 70.9787L231.425 66.3387ZM231.745 66.2888L233.805 70.7287L235.445 66.4389C234.215 66.4188 232.975 66.3588 231.745 66.2887L231.745 66.2888ZM235.965 66.8688L234.275 70.9487C235.345 70.9087 236.405 70.8886 237.475 70.8788L235.965 66.8688ZM238.095 66.4787C237.575 66.4687 237.045 66.4587 236.525 66.4587L238.055 70.2287L239.355 66.4587C238.935 66.4686 238.515 66.4686 238.095 66.4786L238.095 66.4787ZM240.025 67.4287L238.715 70.8789C239.555 70.8887 240.395 70.8989 241.235 70.9287C240.815 69.7587 240.415 68.5988 240.025 67.4286V67.4287ZM240.725 66.4389C241.155 67.6289 241.565 68.8188 241.965 70.0088C242.505 68.7788 243.035 67.5588 243.585 66.3389C242.635 66.3886 241.685 66.4188 240.725 66.4388L240.725 66.4389ZM244.145 66.8989C243.645 68.2588 243.125 69.6089 242.605 70.9688C243.755 71.0088 244.905 71.0789 246.045 71.1788C245.385 69.7587 244.765 68.3388 244.145 66.8988L244.145 66.8989ZM228.115 59.8589V65.9788C231.429 65.6176 234.761 65.4506 238.095 65.4788C238.705 65.4788 239.315 65.4888 239.925 65.4988C240.013 65.4738 240.107 65.4738 240.195 65.4988C241.475 65.5188 242.745 65.5689 244.015 65.6387C244.047 65.6275 244.081 65.6208 244.115 65.6189C244.167 65.6192 244.218 65.6294 244.265 65.6489C245.535 65.7288 246.805 65.8289 248.075 65.9788V59.8589L228.115 59.8589ZM230.445 64.3289C230.056 64.3161 229.687 64.1524 229.416 63.8725C229.145 63.5926 228.994 63.2184 228.994 62.8289C228.994 62.4395 229.145 62.0653 229.416 61.7854C229.687 61.5055 230.056 61.3418 230.445 61.3289C230.834 61.3426 231.202 61.5066 231.472 61.7864C231.742 62.0662 231.893 62.4399 231.893 62.8289C231.893 63.2178 231.742 63.5916 231.472 63.8714C231.202 64.1512 230.834 64.3151 230.445 64.3287L230.445 64.3289ZM235.845 64.3289C235.456 64.3161 235.087 64.1524 234.816 63.8725C234.545 63.5926 234.394 63.2184 234.394 62.8289C234.394 62.4395 234.545 62.0653 234.816 61.7854C235.087 61.5055 235.456 61.3418 235.845 61.3289C236.234 61.3426 236.602 61.5065 236.872 61.7863C237.142 62.0661 237.293 62.4399 237.293 62.8289C237.293 63.2178 237.142 63.5916 236.872 63.8714C236.602 64.1511 236.234 64.3151 235.845 64.3287L235.845 64.3289ZM241.065 64.149C240.676 64.1361 240.307 63.9725 240.036 63.6926C239.765 63.4127 239.614 63.0385 239.614 62.649C239.614 62.2596 239.765 61.8854 240.036 61.6055C240.307 61.3256 240.676 61.1619 241.065 61.149C241.454 61.1626 241.822 61.3266 242.092 61.6064C242.363 61.8862 242.513 62.26 242.513 62.6489C242.513 63.0379 242.362 63.4116 242.092 63.6914C241.822 63.9712 241.454 64.1352 241.065 64.1488L241.065 64.149ZM246.195 64.3289C245.806 64.3161 245.437 64.1524 245.166 63.8725C244.895 63.5926 244.744 63.2184 244.744 62.8289C244.744 62.4395 244.895 62.0653 245.166 61.7854C245.437 61.5055 245.806 61.3418 246.195 61.3289C246.584 61.3426 246.952 61.5066 247.222 61.7864C247.492 62.0662 247.643 62.4399 247.643 62.8289C247.643 63.2178 247.492 63.5916 247.222 63.8714C246.952 64.1512 246.584 64.3151 246.195 64.3287L246.195 64.3289ZM244.585 66.2789C245.145 67.9088 245.685 69.5389 246.185 71.1891C246.815 71.2489 247.445 71.299 248.075 71.3791V65.9789C246.915 66.1088 245.755 66.2086 244.585 66.2787L244.585 66.2789ZM231.425 66.339L229.015 71.289C230.465 71.1389 231.925 71.039 233.375 70.9789L231.425 66.339ZM231.745 66.289L233.805 70.7289L235.445 66.4391C234.215 66.4188 232.975 66.3588 231.745 66.2887L231.745 66.289ZM235.965 66.8691L234.275 70.9489C235.345 70.9089 236.405 70.8888 237.475 70.8791L235.965 66.8691ZM238.095 66.4789C237.575 66.4689 237.045 66.4589 236.525 66.4589L238.055 70.2289L239.355 66.4589C238.935 66.4686 238.515 66.4686 238.095 66.4786L238.095 66.4789ZM240.025 67.4289L238.715 70.8791C239.555 70.8889 240.395 70.8991 241.235 70.9289C240.815 69.7587 240.415 68.5988 240.025 67.4286L240.025 67.4289ZM240.725 66.4392C241.155 67.6292 241.565 68.8191 241.965 70.009C242.505 68.779 243.035 67.559 243.585 66.3391C242.635 66.3885 241.685 66.4188 240.725 66.4388L240.725 66.4392ZM244.145 66.8992C243.645 68.259 243.125 69.6092 242.605 70.969C243.755 71.009 244.905 71.0791 246.045 71.179C245.385 69.7587 244.765 68.3388 244.145 66.8988L244.145 66.8992ZM231.425 66.3391L229.015 71.2891C230.465 71.139 231.925 71.0391 233.375 70.9791L231.425 66.3391ZM231.745 66.2891L233.805 70.7291L235.445 66.4393C234.215 66.4188 232.975 66.3588 231.745 66.2887L231.745 66.2891ZM235.965 66.8692L234.275 70.949C235.345 70.909 236.405 70.889 237.475 70.8792L235.965 66.8692ZM238.095 66.4791C237.575 66.4691 237.045 66.4591 236.525 66.4591L238.055 70.2291L239.355 66.4591C238.935 66.4686 238.515 66.4686 238.095 66.4786L238.095 66.4791ZM240.025 67.4291L238.715 70.8793C239.555 70.889 240.395 70.8993 241.235 70.9291C240.815 69.7587 240.415 68.5988 240.025 67.4286L240.025 67.4291ZM240.725 66.4393C241.155 67.6293 241.565 68.8192 241.965 70.0092C242.505 68.7792 243.035 67.5592 243.585 66.3392C242.635 66.3886 241.685 66.4188 240.725 66.4388L240.725 66.4393ZM244.145 66.8993C243.645 68.2592 243.125 69.6093 242.605 70.9691C243.755 71.0091 244.905 71.0792 246.045 71.1791C245.385 69.7587 244.765 68.3388 244.145 66.8988L244.145 66.8993ZM228.115 77.2292V78.4691C228.115 81.116 229.167 83.6545 231.038 85.5261C232.91 87.3977 235.448 88.4492 238.095 88.4492C240.742 88.4492 243.281 87.3977 245.152 85.5261C247.024 83.6545 248.075 81.116 248.075 78.4691V77.2292C241.439 77.8958 234.752 77.8958 228.115 77.2292ZM242.175 71.7992C242.111 71.8421 242.038 71.8691 241.961 71.8778C241.885 71.8865 241.807 71.8767 241.735 71.8492C241.714 71.8371 241.694 71.8237 241.675 71.8092C240.485 71.8492 239.285 71.8693 238.095 71.8793C234.762 71.8975 231.43 71.7305 228.115 71.3793V77.2291C234.752 76.5625 241.439 76.5625 248.075 77.2291V71.3788C246.105 71.6088 244.145 71.7286 242.175 71.7987L242.175 71.7992ZM230.895 75.8492C230.506 75.8364 230.137 75.6727 229.866 75.3928C229.595 75.1129 229.444 74.7387 229.444 74.3492C229.444 73.9598 229.595 73.5856 229.866 73.3057C230.137 73.0258 230.506 72.8621 230.895 72.8492C231.283 72.8638 231.651 73.0282 231.92 73.3079C232.189 73.5876 232.34 73.9608 232.34 74.3491C232.34 74.7374 232.189 75.1106 231.92 75.3903C231.65 75.6699 231.283 75.8343 230.895 75.8488L230.895 75.8492ZM235.485 75.7591C235.096 75.7463 234.727 75.5826 234.456 75.3027C234.185 75.0228 234.034 74.6486 234.034 74.2591C234.034 73.8697 234.185 73.4955 234.456 73.2156C234.727 72.9357 235.096 72.772 235.485 72.7591C235.873 72.7737 236.241 72.9381 236.51 73.2178C236.779 73.4974 236.93 73.8707 236.93 74.259C236.93 74.6473 236.779 75.0205 236.51 75.3002C236.24 75.5798 235.873 75.7442 235.485 75.7587L235.485 75.7591ZM240.525 75.7591C240.136 75.7463 239.767 75.5826 239.496 75.3027C239.225 75.0228 239.074 74.6486 239.074 74.2591C239.074 73.8697 239.225 73.4955 239.496 73.2156C239.767 72.9357 240.136 72.772 240.525 72.7591C240.913 72.7737 241.281 72.9381 241.55 73.2177C241.819 73.4974 241.97 73.8706 241.97 74.259C241.97 74.6473 241.819 75.0205 241.55 75.3002C241.281 75.5798 240.913 75.7442 240.525 75.7587L240.525 75.7591ZM245.565 75.5792C245.176 75.5663 244.807 75.4027 244.536 75.1228C244.265 74.8429 244.114 74.4687 244.114 74.0792C244.114 73.6898 244.265 73.3155 244.536 73.0356C244.807 72.7557 245.176 72.5921 245.565 72.5792C245.953 72.5937 246.321 72.7581 246.59 73.0378C246.859 73.3175 247.01 73.6907 247.01 74.079C247.01 74.4673 246.859 74.8406 246.59 75.1202C246.321 75.3999 245.953 75.5642 245.565 75.5787L245.565 75.5792ZM246.045 71.179C245.385 69.7591 244.765 68.3392 244.145 66.8993C243.645 68.2591 243.125 69.6093 242.605 70.9691C243.755 71.0087 244.905 71.0787 246.045 71.1786L246.045 71.179ZM243.585 66.3392C242.635 66.389 241.685 66.4193 240.725 66.4393C241.155 67.6293 241.565 68.8192 241.965 70.0091C242.505 68.7787 243.035 67.5587 243.585 66.3387L243.585 66.3392ZM241.235 70.929C240.815 69.7591 240.415 68.5992 240.025 67.429L238.715 70.8793C239.555 70.8886 240.395 70.8988 241.235 70.9286L241.235 70.929ZM239.355 66.459C238.935 66.469 238.515 66.469 238.095 66.479C237.575 66.469 237.045 66.459 236.525 66.459L238.055 70.229L239.355 66.459ZM237.475 70.8792L235.965 66.8692L234.275 70.9491C235.345 70.9086 236.405 70.8885 237.475 70.8788L237.475 70.8792ZM235.445 66.4392C234.215 66.4192 232.975 66.3591 231.745 66.2891L233.805 70.729L235.445 66.4392ZM231.425 66.3391L229.015 71.2891C230.465 71.139 231.925 71.0391 233.375 70.9791L231.425 66.3391ZM244.145 66.8992C243.645 68.259 243.125 69.6092 242.605 70.969C243.755 71.009 244.905 71.0791 246.045 71.179C245.385 69.7587 244.765 68.3388 244.145 66.8988L244.145 66.8992ZM240.725 66.4392C241.155 67.6292 241.565 68.8191 241.965 70.009C242.505 68.779 243.035 67.559 243.585 66.3391C242.635 66.3885 241.685 66.4188 240.725 66.4388L240.725 66.4392ZM240.025 67.4289L238.715 70.8791C239.555 70.8889 240.395 70.8991 241.235 70.9289C240.815 69.7587 240.415 68.5988 240.025 67.4286L240.025 67.4289ZM238.095 66.4789C237.575 66.4689 237.045 66.4589 236.525 66.4589L238.055 70.2289L239.355 66.4589C238.935 66.4686 238.515 66.4686 238.095 66.4786L238.095 66.4789ZM235.965 66.8691L234.275 70.9489C235.345 70.9089 236.405 70.8888 237.475 70.8791L235.965 66.8691ZM231.745 66.289L233.805 70.7289L235.445 66.4391C234.215 66.4188 232.975 66.3588 231.745 66.2887L231.745 66.289ZM231.425 66.339L229.015 71.289C230.465 71.1389 231.925 71.039 233.375 70.9789L231.425 66.339ZM244.145 66.8991C243.645 68.2589 243.125 69.6091 242.605 70.9689C243.755 71.0089 244.905 71.079 246.045 71.1789C245.385 69.7587 244.765 68.3388 244.145 66.8988L244.145 66.8991ZM240.725 66.4391C241.155 67.6291 241.565 68.819 241.965 70.0089C242.505 68.7789 243.035 67.5589 243.585 66.339C242.635 66.3886 241.685 66.4188 240.725 66.4388L240.725 66.4391ZM240.025 67.4288L238.715 70.879C239.555 70.8888 240.395 70.899 241.235 70.9288C240.815 69.7587 240.415 68.5988 240.025 67.4286L240.025 67.4288ZM238.095 66.4788C237.575 66.4688 237.045 66.4588 236.525 66.4588L238.055 70.2288L239.355 66.4588C238.935 66.4686 238.515 66.4686 238.095 66.4786L238.095 66.4788ZM235.965 66.869L234.275 70.9488C235.345 70.9088 236.405 70.8887 237.475 70.879L235.965 66.869ZM231.745 66.2889L233.805 70.7288L235.445 66.439C234.215 66.4188 232.975 66.3588 231.745 66.2887L231.745 66.2889ZM231.425 66.3389L229.015 71.2889C230.465 71.1387 231.925 71.0389 233.375 70.9788L231.425 66.3389Z" fill="#282828"/>
<path d="M65.6738 230.396C65.8594 232.866 65.9544 235.335 66.085 237.804C66.2212 240.274 66.2827 242.743 66.3718 245.212C66.428 247.682 66.519 250.151 66.5461 252.62C66.5779 255.09 66.6411 257.559 66.6416 260.028L65.9297 259.095L72.8884 260.973L72.3911 260.966L79.3254 259.322L78.594 260.252C78.6543 255.669 78.738 251.086 78.8831 246.503C78.9705 244.211 79.0349 241.92 79.1648 239.628C79.2844 237.337 79.3787 235.045 79.5513 232.754C79.7239 235.045 79.8181 237.337 79.9377 239.628C80.0676 241.92 80.1321 244.211 80.2195 246.503C80.3645 251.086 80.4482 255.669 80.5085 260.252C80.5113 260.464 80.4424 260.671 80.3128 260.839C80.1832 261.007 80.0006 261.127 79.7947 261.178L79.7769 261.182L72.8604 262.899C72.6966 262.939 72.5253 262.937 72.3628 262.892L65.4185 260.962C65.2144 260.905 65.0344 260.783 64.9059 260.615C64.7774 260.446 64.7073 260.24 64.7063 260.029C64.7068 257.559 64.77 255.09 64.8018 252.621C64.8289 250.151 64.9199 247.682 64.9761 245.213C65.0652 242.743 65.1267 240.274 65.2629 237.805C65.3936 235.335 65.4885 232.866 65.6738 230.396Z" fill="#282828"/>
<path d="M72.6125 232.639C73.1028 237.521 73.217 242.403 73.2393 247.285C73.2241 252.167 73.1145 257.05 72.6257 261.932C72.1326 257.05 72.0186 252.168 71.999 247.286C72.0169 242.403 72.1267 237.521 72.6125 232.639Z" fill="#282828"/>
<path d="M2.13036 197.417C2.32641 199.886 2.42186 202.356 2.56175 204.825C2.68797 207.294 2.7744 209.764 2.8496 212.233C2.99291 217.172 3.09105 222.11 3.10643 227.049L2.38817 226.108C4.70946 226.728 7.03124 227.346 9.34203 228.004L8.85008 227.997C11.1628 227.453 13.47 226.889 15.7908 226.379L15.0881 227.272C15.1279 225.291 15.1389 223.31 15.2026 221.329C15.2639 219.348 15.2971 217.366 15.3835 215.385C15.4531 213.404 15.5356 211.423 15.6518 209.441C15.7578 207.46 15.8511 205.479 16.0078 203.498C16.1643 205.479 16.2576 207.46 16.3638 209.441C16.4798 211.423 16.5623 213.404 16.6319 215.385C16.7183 217.366 16.7516 219.348 16.8128 221.329C16.8766 223.31 16.8875 225.291 16.9276 227.272C16.9316 227.473 16.8682 227.669 16.7477 227.829C16.6271 227.989 16.4563 228.105 16.2626 228.156L16.2245 228.166C13.9283 228.777 11.6188 229.332 9.31433 229.909C9.15956 229.948 8.99741 229.948 8.84288 229.908L8.82213 229.902C6.49865 229.291 4.18614 228.639 1.87268 227.991L1.86412 227.988C1.6595 227.93 1.47935 227.808 1.3512 227.638C1.22304 227.468 1.15393 227.261 1.15442 227.049C1.1698 222.11 1.26793 217.172 1.41124 212.233C1.48644 209.764 1.57287 207.294 1.6991 204.825C1.83886 202.356 1.93432 199.886 2.13036 197.417Z" fill="#282828"/>
<path d="M9.06909 199.659C9.55933 204.541 9.67358 209.423 9.6958 214.306C9.68042 219.188 9.5708 224.07 9.08203 228.953C8.58887 224.071 8.4751 219.188 8.45532 214.306C8.47315 209.424 8.58325 204.542 9.06909 199.659Z" fill="#282828"/>
<path d="M167.449 219.822C167.616 222.017 167.71 224.212 167.825 226.407C167.951 228.603 168.021 230.798 168.103 232.993C168.249 237.383 168.336 241.774 168.394 246.164L167.873 245.32L174.149 248.42L173.443 248.35C175.894 247.653 178.362 247.02 180.821 246.351L180.108 247.285C180.109 244.863 180.168 242.44 180.202 240.018C180.229 237.595 180.319 235.173 180.376 232.75C180.464 230.328 180.528 227.905 180.663 225.483C180.795 223.06 180.89 220.638 181.077 218.215C181.264 220.638 181.359 223.06 181.49 225.483C181.625 227.905 181.69 230.328 181.778 232.75C181.835 235.173 181.925 237.595 181.952 240.018C181.985 242.44 182.045 244.863 182.046 247.285C182.045 247.498 181.975 247.704 181.846 247.872C181.718 248.041 181.537 248.163 181.333 248.22C178.877 248.898 176.43 249.611 173.966 250.26L173.951 250.264C173.719 250.325 173.473 250.299 173.26 250.19L167.025 247.009L167.009 247.001C166.855 246.922 166.726 246.802 166.637 246.654C166.548 246.507 166.502 246.337 166.504 246.164C166.562 241.774 166.649 237.383 166.795 232.993C166.877 230.798 166.947 228.603 167.073 226.407C167.188 224.212 167.282 222.017 167.449 219.822Z" fill="#282828"/>
<path d="M174.263 219.013C174.658 224.071 174.677 229.121 174.604 234.17C174.493 239.219 174.289 244.265 173.705 249.305C173.307 244.247 173.288 239.197 173.364 234.147C173.477 229.099 173.682 224.053 174.263 219.013Z" fill="#282828"/>
<path d="M248.087 168.669C247.096 168.612 246.122 168.381 245.211 167.986C242.484 166.883 240.049 165.167 238.092 162.971C239.001 163.32 239.885 163.732 240.737 164.205C241.589 164.649 242.405 165.142 243.226 165.62C244.034 166.124 244.849 166.606 245.646 167.126C246.455 167.63 247.24 168.161 248.087 168.669Z" fill="#282828"/>
<path d="M43.655 51.2285C44.4643 52.557 45.4313 53.7826 46.5351 54.8787C45.417 54.9173 44.3069 54.6766 43.3051 54.1785C42.5815 53.8056 41.9705 53.2464 41.5351 52.5586C41.1106 51.8612 40.8762 51.0647 40.8552 50.2486C40.8347 49.1317 41.096 48.0277 41.615 47.0386C42.1196 48.514 42.8048 49.9213 43.655 51.2285Z" fill="#282828"/>
<path d="M47.3052 51.6688C47.3251 52.7868 47.0601 53.8914 46.5352 54.8787C46.0306 53.4033 45.3454 51.9959 44.4952 50.6888C43.6834 49.362 42.7166 48.1367 41.6151 47.0386C42.7313 46.9988 43.8393 47.2431 44.8353 47.7486C45.559 48.1207 46.1726 48.6758 46.6151 49.3587C47.0486 50.0527 47.287 50.8507 47.3052 51.6688Z" fill="#282828"/>
<path d="M40.9851 60.7686C41.7947 62.0995 42.7654 63.3255 43.8752 64.4187C42.7569 64.4585 41.6465 64.2178 40.645 63.7185C39.9187 63.3457 39.3044 62.7867 38.865 62.0987C38.4406 61.4012 38.2062 60.6048 38.1851 59.7886C38.1647 58.6717 38.4261 57.5678 38.9451 56.5786C39.4539 58.0523 40.1388 59.4592 40.9851 60.7686Z" fill="#282828"/>
<path d="M44.635 61.2085C44.6544 62.3253 44.3932 63.4292 43.8752 64.4187C43.362 62.9468 42.6773 61.5404 41.8352 60.2286C41.0198 58.9017 40.0496 57.6765 38.9451 56.5787C40.0613 56.5376 41.1696 56.782 42.1651 57.2887C42.8958 57.6537 43.5125 58.2122 43.948 58.9034C44.3835 59.5945 44.6211 60.3918 44.6351 61.2086L44.635 61.2085Z" fill="#282828"/>
<path d="M37.9751 71.2686C38.7873 72.5977 39.7576 73.8234 40.865 74.9187C39.7454 74.9608 38.6337 74.7164 37.635 74.2085C36.9072 73.8425 36.2922 73.2862 35.8552 72.5987C35.4307 71.9012 35.1962 71.1048 35.175 70.2886C35.1536 69.1716 35.4151 68.0674 35.935 67.0786C36.4439 68.5523 37.1288 69.9592 37.9751 71.2686Z" fill="#282828"/>
<path d="M41.6252 71.6985C41.6457 72.8187 41.3843 73.926 40.865 74.9188C40.3529 73.4446 39.6647 72.0377 38.8152 70.7286C38.0034 69.402 37.0365 68.1767 35.9351 67.0787C37.0513 67.0376 38.1596 67.2819 39.1551 67.7887C39.8789 68.1606 40.4927 68.7157 40.9351 69.3988C41.3672 70.0896 41.6056 70.8839 41.6252 71.6985Z" fill="#282828"/>
<path d="M36.5051 82.4486C37.3177 83.7804 38.288 85.0093 39.395 86.1087C38.2755 86.1509 37.1637 85.9065 36.165 85.3987C35.4394 85.0281 34.8276 84.468 34.3945 83.7778C33.9614 83.0877 33.7231 82.2932 33.705 81.4786C33.6885 80.3621 33.9497 79.2591 34.465 78.2686C34.9781 79.7374 35.6628 81.1404 36.5051 82.4486Z" fill="#282828"/>
<path d="M40.155 82.8885C40.1807 84.0092 39.9191 85.1178 39.395 86.1087C38.3396 83.1688 36.6574 80.4936 34.4651 78.2686C35.5813 78.2275 36.6896 78.4719 37.6851 78.9786C38.413 79.3447 39.0281 79.9011 39.4651 80.5887C39.9029 81.2769 40.1417 82.0729 40.155 82.8885Z" fill="#282828"/>
<path d="M36.0661 89.2817C37.1826 89.2438 38.2907 89.4875 39.2883 89.9904C40.0143 90.3615 40.6288 90.9186 41.0691 91.6049C41.5015 92.2958 41.7396 93.0906 41.7583 93.9054C41.7794 95.0246 41.516 96.1308 40.9926 97.1203C39.874 97.1627 38.763 96.9204 37.7636 96.4159C37.0375 96.0456 36.4247 95.4863 35.9897 94.797C35.5623 94.1027 35.3269 93.3073 35.3076 92.4921C35.287 91.3752 35.5478 90.2712 36.0661 89.2817Z" fill="#282828"/>
<path d="M50.345 54.1687C49.0069 54.8003 47.7168 55.5289 46.4851 56.3487C46.6565 55.286 47.0482 54.271 47.635 53.3687C48.0392 52.7584 48.5937 52.2624 49.2451 51.9285C49.8779 51.6187 50.5832 51.4873 51.2851 51.5486C52.3176 51.6518 53.3326 51.887 54.3051 52.2486L50.345 54.1687Z" fill="#282828"/>
<path d="M53.7451 55.5686C53.3249 56.3101 52.6934 56.9097 51.9312 57.2908C51.1689 57.6719 50.3104 57.8173 49.4651 57.7085C48.3608 57.5544 47.3252 57.0818 46.4851 56.3487C47.2394 56.2808 47.9839 56.1299 48.7051 55.8987C49.4201 55.6704 50.1184 55.3931 50.7952 55.0686C51.4729 54.7345 52.1189 54.3395 52.7251 53.8884C53.3466 53.4418 53.882 52.8862 54.3052 52.2485C54.5443 53.3863 54.3442 54.5723 53.7451 55.5686Z" fill="#282828"/>
<path d="M48.7851 63.1687C47.135 63.7686 45.4551 64.2986 43.7651 65.0086C44.2499 63.9351 44.9355 62.9644 45.7851 62.1487C46.407 61.5629 47.142 61.1103 47.9451 60.8186C48.7064 60.543 49.5179 60.4339 50.3249 60.4986C51.4385 60.6103 52.5419 60.8076 53.6252 61.0886C52.0776 61.9258 50.4577 62.622 48.7851 63.1687Z" fill="#282828"/>
<path d="M52.4951 64.6888C51.8407 65.4863 50.9842 66.0936 50.015 66.4471C49.0457 66.8006 47.9994 66.8874 46.9851 66.6985C45.7671 66.4695 44.6456 65.8809 43.7651 65.0086C44.6769 65.0443 45.5897 64.9739 46.4851 64.7986C47.3796 64.6429 48.2593 64.4121 49.115 64.1086C49.9822 63.8111 50.8139 63.4187 51.595 62.9387C52.393 62.4698 53.0845 61.8397 53.6253 61.0886C53.6953 61.7342 53.6311 62.3873 53.4366 63.0068C53.2421 63.6264 52.9216 64.199 52.4951 64.6888Z" fill="#282828"/>
<path d="M46.905 70.9485C45.2551 71.5486 43.5749 72.0786 41.885 72.7886C42.3694 71.7124 43.059 70.7409 43.915 69.9285C44.5319 69.3411 45.2641 68.8882 46.0652 68.5987C46.8265 68.3231 47.638 68.2139 48.445 68.2786C49.5585 68.3904 50.6618 68.5876 51.745 68.8687C50.1975 69.7059 48.5776 70.402 46.905 70.9485Z" fill="#282828"/>
<path d="M50.615 72.4686C49.9607 73.2662 49.1042 73.8735 48.135 74.2271C47.1658 74.5806 46.1195 74.6675 45.1052 74.4786C43.8871 74.2495 42.7655 73.6609 41.885 72.7886C42.7968 72.8244 43.7097 72.7539 44.6052 72.5786C45.4997 72.4229 46.3794 72.192 47.2351 71.8884C48.1023 71.591 48.934 71.1986 49.7151 70.7185C50.513 70.2497 51.2044 69.6197 51.7451 68.8687C51.8152 69.5142 51.751 70.1673 51.5565 70.7868C51.362 71.4063 51.0415 71.9789 50.615 72.4686Z" fill="#282828"/>
<path d="M45.325 80.4785C43.655 81.2385 41.905 81.8586 40.155 82.6384C40.6444 81.5356 41.3325 80.5322 42.185 79.6784C42.7995 79.0576 43.5212 78.5529 44.3152 78.1887C45.0448 77.8663 45.8283 77.6831 46.6252 77.6487C47.4851 77.5686 48.365 77.7385 49.915 77.5286C49.2985 78.2169 48.572 78.7981 47.7651 79.2486C46.9798 79.7121 46.1647 80.123 45.325 80.4785Z" fill="#282828"/>
<path d="M50.2051 78.6187C50.2167 78.9734 50.1932 79.3284 50.135 79.6785C49.9943 80.3248 49.7331 80.9389 49.365 81.4885C48.7198 82.4547 47.8104 83.2149 46.7451 83.6785C45.7564 84.1159 44.6699 84.285 43.595 84.1687C42.3191 84.0212 41.1189 83.4873 40.155 82.6384C41.1158 82.6381 42.0729 82.5206 43.0051 82.2886C43.9418 82.0764 44.856 81.775 45.7351 81.3884C46.6325 81.0057 47.4709 80.4974 48.2251 79.8787C49.012 79.2831 49.6009 78.4641 49.9151 77.5286C49.9904 77.7041 50.054 77.8845 50.1053 78.0686C50.149 78.2499 50.1823 78.4335 50.2051 78.6187Z" fill="#282828"/>
<path d="M40.115 94.0288C40.1694 92.9282 40.4104 91.8449 40.8276 90.825C41.1012 90.1525 41.5119 89.5443 42.0334 89.0393C42.5024 88.6113 43.0672 88.302 43.6804 88.1375C44.6484 87.9562 45.5843 87.6331 46.458 87.1787C46.6032 87.2866 46.7414 87.4035 46.8718 87.5288C46.9889 87.6615 47.0982 87.8009 47.199 87.9463C47.3685 88.237 47.5008 88.5478 47.5925 88.8716C47.7405 89.4778 47.7527 90.1092 47.6282 90.7207C47.4278 91.7738 46.89 92.733 46.0962 93.4534C45.3805 94.1147 44.4809 94.5431 43.5164 94.6819C42.3416 94.8433 41.1464 94.6138 40.115 94.0288Z" fill="#282828"/>
<path d="M49.7852 45.0786C49.2034 46.6779 48.8074 48.3388 48.6052 50.0286C47.8795 49.1102 47.3978 48.0232 47.2051 46.8687C47.0642 45.9944 47.1362 45.0991 47.4151 44.2586C47.7051 43.42 48.2002 42.6672 48.8553 42.0686C49.721 41.2828 50.7693 40.7259 51.9051 40.4485C51.0253 41.9066 50.3141 43.4599 49.7852 45.0786Z" fill="#282828"/>
<path d="M53.095 46.2185C52.7995 47.054 52.3013 47.8031 51.645 48.3987C50.7853 49.1894 49.7396 49.7501 48.6052 50.0286C49.4771 48.5664 50.1879 47.0141 50.7251 45.3987C51.3058 43.799 51.7017 42.1381 51.905 40.4485C52.6331 41.3667 53.1181 42.4535 53.3152 43.6086C53.4576 44.4835 53.3819 45.3799 53.095 46.2185Z" fill="#282828"/>
<path d="M36.0664 89.2815C37.1722 90.3786 38.1413 91.6054 38.9526 92.9351C39.8007 94.2418 40.4858 95.6473 40.9926 97.1204C39.8852 96.0247 38.9159 94.7978 38.1064 93.4668C37.2601 92.1591 36.5751 90.7538 36.0664 89.2815Z" fill="white"/>
<path d="M40.115 94.0288C41.3328 92.907 42.5847 91.9443 43.7265 90.8787C44.3048 90.3689 44.8403 89.8127 45.3279 89.2156C45.8348 88.6175 46.2188 87.9253 46.458 87.1787C46.5979 88.0307 46.4287 88.9046 45.981 89.6428C45.5702 90.3843 45.0368 91.0508 44.4034 91.614C43.7895 92.1727 43.1157 92.6617 42.3944 93.0723C41.6815 93.4931 40.9147 93.8149 40.115 94.0288Z" fill="white"/>
<path d="M34.825 101.448C34.9851 101.759 35.135 102.079 35.2852 102.388C35.4551 102.748 35.6252 103.099 35.7952 103.458C36.095 104.089 36.395 104.708 36.685 105.339C36.945 104.649 37.2151 103.968 37.4751 103.289C37.635 102.899 37.7951 102.499 37.955 102.109C38.0151 101.939 38.0852 101.779 38.155 101.609C37.0452 101.579 35.935 101.529 34.825 101.448ZM39.1349 103.119L38.8752 102.488C38.7851 102.718 38.6951 102.948 38.6052 103.178C38.2151 104.169 37.8249 105.158 37.415 106.138C38.395 106.099 39.3752 106.069 40.3552 106.059L39.1349 103.119ZM42.3051 101.638C41.8249 101.638 41.3449 101.649 40.8551 101.658C40.4349 101.649 40.015 101.649 39.5851 101.638L39.695 101.919L40.1051 103.029L40.995 105.399L41.955 102.849L42.405 101.638L42.3051 101.638ZM43.155 102.728L42.945 102.138L42.725 102.769L41.5948 106.069C42.525 106.079 43.455 106.099 44.3949 106.138L43.155 102.728ZM43.445 101.619L43.7951 102.669L44.8449 105.839L46.3151 102.428L46.725 101.468C45.635 101.539 44.5352 101.589 43.4451 101.619H43.445ZM47.3351 102.329L47.0251 101.569L46.705 102.388L45.235 106.178C46.495 106.249 47.765 106.359 49.035 106.539L47.3351 102.329ZM34.8249 101.448C34.985 101.759 35.1349 102.079 35.2851 102.388C35.455 102.749 35.6251 103.099 35.7951 103.458C36.0949 104.089 36.3949 104.708 36.685 105.339C36.945 104.649 37.215 103.969 37.475 103.289C37.6349 102.899 37.795 102.499 37.955 102.109C38.015 101.939 38.0851 101.779 38.155 101.609C37.0452 101.579 35.935 101.529 34.825 101.448L34.8249 101.448ZM39.1349 103.119L38.8751 102.489C38.785 102.719 38.695 102.949 38.6051 103.178C38.215 104.169 37.8248 105.158 37.4149 106.138C38.3949 106.099 39.3751 106.069 40.3551 106.059L39.1349 103.119ZM42.305 101.638C41.8248 101.638 41.3448 101.649 40.855 101.658C40.4349 101.649 40.0149 101.649 39.585 101.638L39.6949 101.919L40.1051 103.029L40.9949 105.399L41.9549 102.849L42.4049 101.638L42.305 101.638ZM43.1549 102.729L42.9449 102.138L42.7249 102.769L41.5948 106.069C42.5249 106.079 43.4549 106.099 44.3948 106.138L43.1549 102.729ZM43.4449 101.619L43.795 102.669L44.8448 105.839L46.315 102.428L46.7249 101.468C45.635 101.539 44.5352 101.589 43.4451 101.619L43.4449 101.619ZM47.335 102.329L47.025 101.569L46.7049 102.388L45.2349 106.178C46.4949 106.249 47.7649 106.359 49.0349 106.539L47.335 102.329ZM34.295 101.888C34.1849 102.099 34.065 102.319 33.9549 102.529L34.525 102.469C34.4451 102.279 34.3752 102.079 34.2952 101.888L34.295 101.888ZM34.8248 101.449C34.985 101.759 35.1348 102.079 35.285 102.388C35.4549 102.749 35.6251 103.099 35.795 103.459C36.3551 103.399 36.9149 103.339 37.4749 103.289C37.6349 102.899 37.795 102.499 37.9549 102.109C38.015 101.939 38.0851 101.779 38.1549 101.609C37.0452 101.579 35.935 101.529 34.825 101.448L34.8248 101.449ZM38.8751 102.489C38.785 102.719 38.695 102.949 38.6051 103.178C38.775 103.158 38.955 103.138 39.1349 103.119L38.8751 102.489ZM40.8551 101.658C40.4349 101.649 40.015 101.649 39.5851 101.638L39.695 101.919C40.5651 101.829 41.435 101.729 42.3051 101.638C41.8249 101.638 41.345 101.649 40.8552 101.658L40.8551 101.658ZM29.4449 86.9187L31.6649 101.158C32.505 101.049 33.3449 100.969 34.1749 100.899C34.2134 100.871 34.258 100.853 34.305 100.846C34.352 100.839 34.4 100.843 34.4449 100.859L34.465 100.879C35.8849 100.779 37.295 100.709 38.7049 100.678C38.8096 100.649 38.9204 100.649 39.025 100.678C39.6349 100.669 40.245 100.658 40.8551 100.658C43.3751 100.669 45.8849 100.729 48.3949 100.969C48.9449 101.029 49.505 101.089 50.055 101.158L50.1149 100.779L52.265 86.9187L29.4449 86.9187ZM32.9749 100.329C32.5866 100.314 32.2189 100.15 31.9492 99.8704C31.6794 99.5907 31.5287 99.2172 31.5287 98.8286C31.5287 98.44 31.6794 98.0665 31.9492 97.7868C32.2189 97.507 32.5866 97.3428 32.9749 97.3286C33.3632 97.3429 33.7308 97.5072 34.0004 97.7869C34.27 98.0666 34.4207 98.44 34.4207 98.8285C34.4207 99.217 34.2701 99.5904 34.0005 99.8702C33.7309 100.15 33.3633 100.314 32.9751 100.329L32.9749 100.329ZM38.3751 100.329C37.9867 100.314 37.619 100.15 37.3493 99.8704C37.0796 99.5907 36.9289 99.2172 36.9289 98.8286C36.9289 98.44 37.0796 98.0665 37.3493 97.7868C37.619 97.507 37.9867 97.3428 38.3751 97.3286C38.7636 97.3426 39.1315 97.5067 39.4014 97.7865C39.6713 98.0662 39.8222 98.4398 39.8222 98.8285C39.8222 99.2173 39.6714 99.5908 39.4015 99.8706C39.1316 100.15 38.7637 100.315 38.3752 100.329L38.3751 100.329ZM43.5948 100.149C43.2065 100.134 42.8388 99.9703 42.569 99.6905C42.2993 99.4108 42.1486 99.0373 42.1486 98.6487C42.1486 98.2601 42.2993 97.8866 42.569 97.6069C42.8388 97.3271 43.2065 97.1629 43.5948 97.1487C43.9831 97.163 44.3507 97.3273 44.6203 97.607C44.8899 97.8867 45.0406 98.2601 45.0406 98.6486C45.0406 99.0371 44.89 99.4105 44.6204 99.6902C44.3508 99.97 43.9833 100.134 43.595 100.149L43.5948 100.149ZM48.7249 100.329C48.3366 100.314 47.9689 100.15 47.6992 99.8704C47.4294 99.5907 47.2787 99.2172 47.2787 98.8286C47.2787 98.44 47.4294 98.0665 47.6992 97.7868C47.9689 97.507 48.3366 97.3428 48.7249 97.3286C49.1132 97.3429 49.4808 97.5072 49.7504 97.7869C50.02 98.0666 50.1707 98.44 50.1707 98.8285C50.1707 99.217 50.0201 99.5904 49.7505 99.8702C49.4809 100.15 49.1133 100.314 48.7251 100.329L48.7249 100.329ZM47.3351 102.329L47.025 101.569L46.7049 102.388L45.2349 106.178C46.4949 106.249 47.7649 106.359 49.0349 106.539L47.3351 102.329ZM43.4449 101.619L43.795 102.669L44.8448 105.839L46.315 102.428L46.7249 101.468C45.635 101.539 44.5352 101.589 43.4451 101.619H43.4449ZM43.1549 102.728L42.9449 102.138L42.7249 102.769L41.5948 106.069C42.525 106.079 43.4549 106.099 44.3948 106.138L43.1549 102.728ZM42.3051 101.638C41.8248 101.638 41.3449 101.649 40.8551 101.658C40.4349 101.649 40.015 101.649 39.5851 101.638L39.6949 101.919L40.1051 103.029L40.995 105.399L41.955 102.849L42.405 101.638L42.3051 101.638ZM39.1349 103.119L38.8751 102.488C38.7851 102.718 38.695 102.948 38.6051 103.178C38.215 104.169 37.8249 105.158 37.4149 106.138C38.3949 106.099 39.3752 106.069 40.3551 106.059L39.1349 103.119ZM34.8249 101.448C34.985 101.759 35.1349 102.079 35.2851 102.388C35.455 102.748 35.6252 103.099 35.7951 103.458C36.0949 104.089 36.3949 104.708 36.685 105.339C36.945 104.649 37.215 103.968 37.475 103.289C37.6349 102.899 37.7951 102.499 37.955 102.109C38.015 101.939 38.0851 101.779 38.155 101.609C37.0452 101.579 35.935 101.529 34.825 101.448H34.8249ZM47.3351 102.329L47.0251 101.569L46.705 102.388L45.235 106.178C46.495 106.248 47.765 106.359 49.035 106.538L47.3351 102.329ZM43.445 101.619L43.7951 102.669L44.8449 105.839L46.3151 102.428L46.725 101.468C45.635 101.539 44.5352 101.589 43.4451 101.619L43.445 101.619ZM43.155 102.728L42.945 102.138L42.725 102.768L41.5949 106.068C42.525 106.078 43.455 106.098 44.3949 106.138L43.155 102.728ZM42.3052 101.638C41.8249 101.638 41.3449 101.649 40.8551 101.658C40.435 101.649 40.0151 101.649 39.5852 101.638L39.695 101.919L40.1052 103.028L40.9951 105.399L41.9551 102.849L42.4051 101.638L42.3052 101.638ZM39.135 103.119L38.8752 102.488C38.7851 102.718 38.6951 102.948 38.6052 103.178C38.2151 104.169 37.825 105.158 37.415 106.138C38.395 106.099 39.3752 106.069 40.3552 106.059L39.135 103.119ZM34.825 101.448C34.9851 101.758 35.135 102.079 35.2852 102.388C35.4551 102.748 35.6253 103.099 35.7952 103.458C36.095 104.089 36.395 104.708 36.6851 105.339C36.9451 104.649 37.2151 103.968 37.4751 103.289C37.635 102.899 37.7951 102.499 37.9551 102.109C38.0151 101.939 38.0852 101.779 38.1551 101.609C37.0452 101.579 35.935 101.529 34.825 101.448L34.825 101.448ZM42.3052 101.638C41.4351 101.728 40.5652 101.829 39.6951 101.919L40.1053 103.028C40.7151 102.968 41.3353 102.908 41.9551 102.849L42.4051 101.638H42.3052ZM42.9451 102.138L42.7251 102.768C42.865 102.758 43.0151 102.748 43.155 102.728L42.9451 102.138ZM43.4451 101.619L43.7952 102.669L46.3152 102.428L46.7251 101.468C45.635 101.539 44.5352 101.589 43.4451 101.619L43.4451 101.619ZM47.0252 101.569L46.7051 102.388C46.9151 102.369 47.1251 102.349 47.3352 102.329L47.0252 101.569ZM47.2852 101.428L47.6052 102.309L49.135 106.539V106.549C49.1621 106.547 49.1893 106.55 49.2151 106.559L49.9151 102.089L50.0553 101.158C49.1253 101.279 48.2051 101.359 47.2852 101.428L47.2852 101.428ZM49.1253 106.569C49.1253 106.579 49.1253 106.599 49.1053 106.599C49.0945 106.603 49.0825 106.604 49.0715 106.6C49.0604 106.596 49.0511 106.589 49.0452 106.579C46.3282 106.913 43.5927 107.073 40.8553 107.059C39.5653 107.049 38.2752 107.019 36.9851 106.958C36.9212 107.006 36.8459 107.035 36.7669 107.044C36.6878 107.053 36.6079 107.041 36.5351 107.008C36.4929 106.985 36.4527 106.959 36.415 106.928C35.115 106.849 33.8052 106.738 32.5051 106.559L33.175 110.859H48.5452L49.2151 106.559C49.1848 106.557 49.1544 106.56 49.1252 106.569L49.1253 106.569ZM36.385 110.478C35.9958 110.466 35.6268 110.302 35.356 110.022C35.0852 109.742 34.9338 109.368 34.9338 108.978C34.9338 108.589 35.0852 108.215 35.356 107.935C35.6268 107.655 35.9958 107.491 36.385 107.478C36.7743 107.491 37.1433 107.655 37.414 107.935C37.6848 108.215 37.8362 108.589 37.8362 108.978C37.8362 109.368 37.6848 109.742 37.414 110.022C37.1433 110.302 36.7743 110.466 36.385 110.478ZM41.425 110.478C41.0358 110.466 40.6668 110.302 40.396 110.022C40.1252 109.742 39.9738 109.368 39.9738 108.978C39.9738 108.589 40.1252 108.215 40.396 107.935C40.6668 107.655 41.0358 107.491 41.425 107.478C41.8143 107.491 42.1832 107.655 42.454 107.935C42.7248 108.215 42.8762 108.589 42.8762 108.978C42.8762 109.368 42.7248 109.742 42.454 110.022C42.1832 110.302 41.8143 110.466 41.425 110.478ZM46.465 110.299C46.0758 110.286 45.7068 110.122 45.436 109.842C45.1652 109.562 45.0138 109.188 45.0138 108.799C45.0138 108.409 45.1652 108.035 45.436 107.755C45.7068 107.475 46.0758 107.311 46.465 107.299C46.8543 107.311 47.2232 107.475 47.494 107.755C47.7649 108.035 47.9163 108.409 47.9163 108.799C47.9163 109.188 47.7649 109.562 47.4941 109.842C47.2233 110.122 46.8543 110.286 46.4651 110.299H46.465ZM47.3351 102.329L47.0251 101.569L46.705 102.388L45.235 106.178C46.495 106.248 47.765 106.359 49.035 106.538L47.3351 102.329ZM43.445 101.619L43.7951 102.669L44.8449 105.838L46.3151 102.428L46.725 101.468C45.635 101.539 44.5352 101.589 43.4451 101.619L43.445 101.619ZM43.155 102.728L42.945 102.138L42.725 102.768L41.5949 106.068C42.525 106.078 43.455 106.098 44.3949 106.138L43.155 102.728ZM42.3051 101.638C41.8249 101.638 41.3449 101.649 40.8551 101.658C40.435 101.649 40.0151 101.649 39.5851 101.638L39.695 101.919L40.1052 103.028L40.9951 105.399L41.9551 102.849L42.4051 101.638L42.3051 101.638ZM39.135 103.119L38.8752 102.488C38.7851 102.718 38.6951 102.948 38.6052 103.178C38.2151 104.169 37.8249 105.158 37.415 106.138C38.395 106.099 39.3752 106.069 40.3552 106.059L39.135 103.119ZM34.825 101.448C34.9851 101.758 35.135 102.079 35.2852 102.388C35.4551 102.748 35.6253 103.099 35.7952 103.458C36.095 104.089 36.395 104.708 36.6851 105.339C36.9451 104.649 37.2151 103.968 37.4751 103.289C37.635 102.899 37.7951 102.499 37.9551 102.109C38.0151 101.939 38.0852 101.779 38.1551 101.609C37.0452 101.579 35.935 101.529 34.825 101.448L34.825 101.448ZM34.9551 103.538C34.8152 103.189 34.6651 102.828 34.5252 102.468C34.4451 102.278 34.3753 102.079 34.2952 101.888C34.1851 102.099 34.0652 102.318 33.9551 102.528C33.7551 102.919 33.5452 103.308 33.3352 103.698C33.0251 104.288 32.7051 104.878 32.3752 105.468C32.3712 105.472 32.3664 105.475 32.3612 105.477C32.356 105.479 32.3504 105.479 32.3449 105.478L32.5051 106.558C33.685 106.388 34.8752 106.288 36.0551 106.208C35.6951 105.319 35.325 104.428 34.9551 103.539L34.9551 103.538ZM35.7952 103.458C36.095 104.089 36.395 104.708 36.6851 105.339C36.9451 104.649 37.2151 103.968 37.4751 103.289C36.915 103.339 36.3552 103.399 35.7952 103.458L35.7952 103.458ZM39.135 103.119C38.9551 103.138 38.7752 103.158 38.6052 103.178C38.2151 104.169 37.825 105.158 37.4151 106.138C38.3951 106.099 39.3753 106.069 40.3552 106.059L39.135 103.119ZM40.1052 103.028L40.9951 105.399L41.9551 102.849C41.3352 102.908 40.7151 102.968 40.1052 103.029L40.1052 103.028ZM43.155 102.728C43.0152 102.748 42.865 102.758 42.7251 102.768L41.595 106.068C42.5252 106.078 43.4551 106.098 44.395 106.138L43.155 102.728ZM43.7952 102.669L44.845 105.839L46.3152 102.428L43.7952 102.669ZM47.3352 102.329C47.1252 102.349 46.9152 102.368 46.7051 102.388L45.2351 106.178C46.4951 106.248 47.765 106.359 49.035 106.538L47.3352 102.329ZM31.665 101.158L31.915 102.748L32.0749 103.829L32.3152 105.339C32.5252 104.799 32.7351 104.269 32.945 103.738C33.0949 103.349 33.2551 102.968 33.415 102.589C33.575 102.189 33.7351 101.789 33.905 101.388C33.155 101.329 32.415 101.248 31.665 101.158Z" fill="#282828"/>
<path d="M42.2429 98.8845C41.4082 98.134 40.7901 97.1733 40.4531 96.1025C40.2959 95.5686 40.092 95.0398 39.9721 94.4941L39.6337 92.8486C39.3576 90.6329 39.2733 88.3975 39.3818 86.1672C39.4211 83.9331 39.7551 81.7319 40.0138 79.5217C40.4188 77.3396 40.7308 75.1326 41.2607 72.9785C41.7577 70.8157 42.2548 68.6533 42.883 66.5278C43.4882 64.3955 44.0695 62.2576 44.8153 60.1707C45.5365 58.0769 46.1838 55.9602 46.9858 53.897C47.7973 51.8367 48.5676 49.7642 49.413 47.7207C48.2367 51.9897 46.8747 56.1868 45.7294 60.4468L44.8385 63.6301L44.0185 66.8303C43.7536 67.8984 43.4338 68.9536 43.1957 70.0273L42.4721 73.2456C41.9223 75.3784 41.6127 77.553 41.1711 79.7058C40.8469 81.8735 40.5058 84.043 40.3305 86.2253C40.1148 88.4026 40.0827 90.5942 40.2343 92.7768L40.4287 94.4013C40.5007 94.9426 40.6547 95.4648 40.7644 96.0017C41.0139 97.0691 41.5216 98.059 42.2429 98.8845Z" fill="#282828"/>
<path d="M32.3352 105.448L32.3152 105.339L32.2852 105.428C32.2752 105.448 32.2852 105.468 32.3052 105.489C32.325 105.499 32.3352 105.489 32.345 105.479L32.3352 105.448Z" fill="white"/>
<path d="M67.7227 107.375C71.0021 106.473 74.3291 105.752 77.6882 105.217C81.0401 104.638 84.4218 104.246 87.8174 104.045C84.5384 104.95 81.2114 105.671 77.8518 106.203C74.4997 106.781 71.1181 107.172 67.7227 107.375Z" fill="#282828"/>
<path d="M107.415 106.937C110.694 106.034 114.021 105.314 117.38 104.779C120.732 104.199 124.113 103.808 127.509 103.607C124.23 104.512 120.903 105.232 117.543 105.765C114.191 106.342 110.81 106.734 107.415 106.937Z" fill="#282828"/>
<path d="M148.115 99.8836C151.394 98.9807 154.721 98.2603 158.08 97.7256C161.432 97.1459 164.814 96.7546 168.209 96.5535C164.93 97.4585 161.603 98.179 158.244 98.7115C154.892 99.2889 151.51 99.6802 148.115 99.8836Z" fill="#282828"/>
<path d="M318.078 163.074C315.99 161.657 314.151 159.904 312.635 157.887C311.08 155.909 309.679 153.815 308.443 151.623C307.2 149.439 306.077 147.191 305.041 144.906C304.005 142.615 303.038 140.315 302.175 137.926L303.125 138.519C298.113 139.168 293.019 138.727 288.192 137.227C285.795 136.524 283.451 135.65 281.178 134.612C278.905 133.602 276.692 132.462 274.55 131.198C270.28 128.687 266.22 125.835 262.41 122.669C258.601 119.521 254.998 116.131 251.624 112.52L251.608 112.502C251.489 112.373 251.424 112.203 251.425 112.027C251.427 111.851 251.496 111.683 251.618 111.556C253.075 110.049 254.582 108.65 256.145 107.288C257.7 105.922 259.341 104.656 261.016 103.439C262.691 102.206 264.475 101.129 266.345 100.219C268.215 99.2228 270.283 98.6525 272.4 98.5492C272.441 98.5492 272.482 98.5559 272.521 98.5689C274.508 99.2564 276.51 99.894 278.504 100.559L284.492 102.534C288.478 103.868 292.491 105.124 296.496 106.403L295.725 106.822L300.977 84.8329C302.748 77.5084 304.552 70.1925 306.389 62.8851L306.365 63.0006C306.494 62.3729 306.691 61.7612 306.953 61.1769C307.182 60.6312 307.453 60.1222 307.722 59.6114C308.285 58.6264 308.915 57.6813 309.608 56.7831C310.969 55.0196 312.487 53.3822 314.141 51.8907C317.407 48.9519 320.958 46.3471 324.742 44.1151C326.634 42.9782 328.595 41.9597 330.614 41.0655C332.641 40.1895 334.719 39.4382 336.838 38.8158C341.077 37.56 345.472 36.9064 349.894 36.8741C354.309 36.828 358.708 37.4171 362.955 38.6234C365.083 39.231 367.153 40.0232 369.142 40.991C369.634 41.2481 370.112 41.533 370.597 41.8028L371.321 42.2132L372.01 42.6849C372.466 43.0035 372.933 43.306 373.378 43.638L374.66 44.7105C378.011 47.6634 380.39 51.5605 381.486 55.8902C382.439 60.1492 382.56 64.552 381.844 68.857C381.841 68.8731 381.836 68.8886 381.827 68.9026C381.819 68.9166 381.808 68.9288 381.795 68.9385C381.782 68.9482 381.767 68.9552 381.751 68.9592C381.735 68.9631 381.719 68.9639 381.703 68.9615C381.672 68.9564 381.643 68.94 381.624 68.9153C381.604 68.8906 381.595 68.8596 381.597 68.8282C382.014 64.576 381.642 60.2834 380.502 56.1659C379.283 52.1435 376.894 48.5752 373.639 45.9156L372.405 44.9647C371.976 44.672 371.526 44.4073 371.089 44.1273L370.429 43.7125L369.732 43.3563C369.267 43.1222 368.81 42.8731 368.339 42.6507C366.43 41.79 364.452 41.0923 362.425 40.5653C358.35 39.5178 354.146 39.0618 349.942 39.2113C347.845 39.2755 345.756 39.488 343.689 39.847C341.619 40.1845 339.575 40.6612 337.569 41.2738C335.564 41.8884 333.598 42.6247 331.683 43.4786C329.774 44.3478 327.914 45.3188 326.109 46.3875C322.478 48.5403 319.052 51.0212 315.874 53.7989C314.309 55.1681 312.871 56.6752 311.577 58.3021C310.943 59.099 310.365 59.9384 309.847 60.8145C309.609 61.2528 309.367 61.69 309.174 62.1356C308.991 62.5315 308.844 62.943 308.734 63.3651L308.71 63.4811C306.796 70.7689 304.852 78.0488 302.877 85.3207L296.884 107.119L296.879 107.138C296.859 107.213 296.824 107.283 296.776 107.344C296.729 107.405 296.669 107.456 296.602 107.495C296.535 107.533 296.461 107.557 296.384 107.567C296.307 107.577 296.229 107.571 296.154 107.55L296.114 107.538C292.15 106.136 288.195 104.711 284.213 103.365L278.249 101.318C276.258 100.643 274.278 99.9398 272.28 99.287L272.4 99.3065C270.403 99.4284 268.457 99.988 266.7 100.946C264.895 101.87 263.181 102.962 261.58 104.206C259.959 105.437 258.407 106.757 256.933 108.16C255.455 109.555 254.01 111.012 252.671 112.513L252.665 111.549C256.123 114.965 259.794 118.157 263.657 121.107C267.481 124.086 271.493 126.815 275.67 129.275C277.76 130.488 279.888 131.629 282.078 132.627C284.253 133.648 286.498 134.511 288.796 135.209C293.333 136.705 298.132 137.242 302.887 136.784L302.922 136.781C303.12 136.76 303.319 136.808 303.486 136.916C303.653 137.025 303.777 137.188 303.838 137.378C304.581 139.705 305.457 142.037 306.39 144.322C307.325 146.611 308.349 148.866 309.489 151.057C310.578 153.273 311.832 155.405 313.24 157.435C314.618 159.485 316.296 161.316 318.218 162.868C318.245 162.888 318.262 162.917 318.268 162.949C318.273 162.982 318.265 163.015 318.246 163.042C318.226 163.067 318.199 163.084 318.168 163.09C318.137 163.096 318.105 163.09 318.078 163.074Z" fill="#282828"/>
</svg>
