<svg width="641" height="302" viewBox="0 0 641 302" fill="none" xmlns="http://www.w3.org/2000/svg">
<g clip-path="url(#clip0)">
<path d="M197.406 202.504C197.199 202.814 197.095 203.021 196.888 203.331L197.406 202.504Z" fill="#282828"/>
<path d="M213.356 40.0876C212.838 34.9217 211.077 29.9624 208.177 25.7263C208.177 25.8296 208.177 26.0363 208.177 26.1396V26.2429C208.488 26.8628 208.902 27.4827 209.213 28.1026C209.834 29.3425 210.352 30.6856 210.767 32.0287C211.699 34.715 212.217 37.4013 212.32 40.1909C212.32 42.9805 212.113 45.7701 211.699 48.4564L210.663 56.8252V57.1351C211.077 58.1683 211.284 59.2015 211.181 60.2347C211.181 60.648 211.077 61.0612 210.767 61.4745C210.456 61.7845 210.042 62.0944 209.627 62.0944C209.42 62.1978 209.317 62.3011 209.213 62.4044C209.109 62.5077 209.006 62.7143 209.006 62.921C209.006 63.1276 209.006 63.4376 209.006 63.6442C209.109 63.6442 209.109 63.7475 209.213 63.7475C209.834 64.3674 210.145 65.8139 210.456 66.6404C211.595 65.5039 210.559 64.1608 210.663 63.3343C211.181 63.1276 211.595 62.8177 212.009 62.3011C212.527 61.6812 212.734 60.9579 212.838 60.1314C212.838 59.4082 212.838 58.7882 212.631 58.065C212.527 57.4451 212.32 56.9285 212.113 56.4119L212.838 48.1464C213.459 45.7701 213.563 42.9805 213.356 40.0876Z" fill="#282828"/>
<path d="M188.81 43.7038C191.399 43.2905 194.092 43.1872 196.681 43.4971C199.27 43.7038 201.859 44.427 204.242 45.5635C201.652 45.0469 199.167 44.7369 196.577 44.427C194.092 44.2203 191.502 44.0137 188.81 43.7038Z" fill="#282828"/>
<path d="M197.82 52.5891C198.235 52.5891 198.545 52.3825 198.752 52.1759C198.96 51.8659 199.167 51.556 199.167 51.246C199.167 50.8327 199.063 50.5228 198.752 50.3161C198.545 50.0062 198.131 49.9029 197.82 49.9029C197.406 49.9029 197.095 50.1095 196.888 50.3161C196.681 50.6261 196.474 50.936 196.474 51.246C196.474 51.556 196.577 51.9692 196.888 52.1759C197.095 52.3825 197.406 52.5891 197.82 52.5891Z" fill="#282828"/>
<path d="M211.492 52.6924C211.906 52.6924 212.217 52.4858 212.424 52.2792C212.631 51.9692 212.838 51.6593 212.838 51.3493C212.838 50.936 212.735 50.6261 212.424 50.4194C212.217 50.1095 211.802 50.0062 211.492 50.0062C211.077 50.0062 210.767 50.2128 210.56 50.4194C210.352 50.7294 210.145 51.0394 210.145 51.3493C210.145 51.6593 210.249 52.0725 210.56 52.2792C210.87 52.4858 211.181 52.6924 211.492 52.6924Z" fill="#282828"/>
<path d="M202.584 57.8584C202.274 58.4783 201.859 59.0982 201.549 59.7181C201.238 60.4413 201.134 61.0612 201.134 61.7845C200.824 61.4745 200.513 61.1646 200.617 60.648C200.513 60.2347 200.617 59.8214 200.72 59.3048C200.824 58.8916 201.134 58.5816 201.549 58.2716C201.756 58.065 202.17 57.9617 202.584 57.8584Z" fill="#282828"/>
<path d="M445.251 118.196C444.526 114.374 443.076 110.757 441.108 107.451C440.279 105.798 438.829 104.558 437.069 103.938C435.308 103.525 433.444 103.422 431.58 103.835C429.715 104.145 427.851 104.662 425.883 104.972C424.847 105.178 423.915 105.282 422.88 105.385C421.74 105.488 420.601 105.178 419.669 104.765C418.633 104.248 417.805 103.422 417.287 102.389C416.769 101.459 416.458 100.426 416.251 99.3924C416.147 98.8758 416.044 98.3592 416.044 97.946C415.94 97.5327 415.733 97.2227 415.526 96.8095C415.008 95.9829 414.49 95.363 413.869 94.6398L414.387 93.3999H414.49C414.594 93.3999 414.697 93.2966 414.697 93.1933C414.905 93.09 415.112 92.8834 415.215 92.6767C415.63 92.3668 415.94 91.9535 416.251 91.5402C416.976 90.7137 417.597 89.8871 418.322 89.0606L419.047 89.7838C418.944 89.8871 418.84 89.8871 418.633 89.9904H418.322C418.115 89.9904 418.012 89.9904 417.805 89.9904C417.494 89.9904 417.183 89.9904 416.872 89.9904C416.251 89.9904 415.733 89.9904 415.112 89.8871C413.972 89.7838 412.833 89.6805 411.694 89.5772C411.59 89.5772 411.59 89.5772 411.487 89.4738C411.383 89.4738 411.383 89.3705 411.383 89.2672C411.176 88.7506 410.969 88.3373 410.762 87.9241C410.555 87.5108 410.244 86.9942 409.933 86.8909C409.001 86.5809 404.962 87.6141 404.03 87.2008C403.926 87.0975 403.719 86.9942 403.615 86.8909C403.512 86.7876 403.408 86.5809 403.408 86.4776C403.305 86.1676 403.305 85.8577 403.408 85.5477C403.512 85.0312 403.719 84.5146 403.926 83.998C404.858 82.1382 404.858 78.3154 406.101 76.559C406.723 75.7325 406.101 74.9059 406.412 73.8727C406.723 72.9429 406.826 72.013 406.619 71.0831C405.998 69.4301 407.655 67.6736 407.344 65.9172C407.033 64.1608 406.93 62.4044 406.826 60.648C406.722 57.1351 406.723 53.6223 407.033 50.1095C407.033 49.9029 407.137 49.6962 407.24 49.5929C407.344 49.4896 407.551 49.3863 407.758 49.3863C407.965 49.3863 408.173 49.3863 408.276 49.4896C408.483 49.5929 408.587 49.6962 408.69 49.9029C409.726 52.4858 428.887 40.9141 430.337 43.2905C431.683 45.6668 433.237 44.6336 435.101 46.7C436.862 48.7663 421.637 62.921 424.122 64.0575C426.505 65.194 428.783 70.3599 431.372 69.5334L430.44 66.8471C430.647 65.6073 431.372 67.8803 431.787 66.7438C432.201 65.5039 433.03 64.4708 433.962 63.6442C434.272 63.4376 434.583 63.2309 434.894 63.1276C435.204 63.0243 435.619 62.921 435.929 62.8177C436.24 62.8177 436.654 62.8177 436.965 62.8177C437.276 62.921 437.587 62.921 437.897 63.1276C438.208 63.2309 438.519 63.3343 438.726 63.5409L439.554 64.0575C440.072 64.4708 440.487 64.884 440.901 65.194C441.004 65.2973 441.004 65.2973 441.004 65.4006C441.626 66.8471 442.04 68.3969 442.454 69.9466C442.869 71.4964 443.076 73.0462 443.076 74.6993C443.179 75.5258 442.972 76.3524 442.765 77.1789C442.454 78.0055 442.04 78.7287 441.522 79.2453C440.901 79.7619 440.072 80.0719 439.347 80.2785C438.519 80.4851 437.69 80.3818 436.965 80.1752C436.965 80.1752 436.965 80.1752 436.965 80.0719C436.965 80.0719 436.965 80.0719 437.069 80.0719C437.794 80.1752 438.622 80.1752 439.347 79.9685C440.072 79.7619 440.797 79.452 441.315 78.9354C441.729 78.3154 442.144 77.6955 442.247 76.9723C442.454 76.2491 442.454 75.5258 442.351 74.8026C442.247 73.2528 441.937 71.8064 441.522 70.3599C441.108 68.9135 440.487 67.467 439.865 66.0205L439.969 66.2272L438.726 65.194L438.104 64.7807C437.897 64.6774 437.69 64.5741 437.379 64.4708C436.965 64.2641 436.551 64.2641 436.137 64.2641C435.722 64.3674 435.308 64.4708 434.997 64.7807C434.272 65.5039 433.754 66.3305 433.34 67.2604C432.926 68.2935 432.719 69.3267 432.512 70.3599C432.512 70.5666 432.408 70.6699 432.305 70.7732C432.201 70.8765 432.097 70.9798 431.89 71.0831C428.99 72.1163 425.676 72.013 422.88 70.7732C420.187 69.5334 420.601 58.9949 418.737 56.7219C416.872 54.5522 432.822 46.5967 431.372 44.117C429.922 41.5341 408.173 53.1057 407.137 50.4194L408.794 50.2128C408.38 53.6223 408.276 57.1351 408.276 60.5447C408.276 62.3011 408.38 63.9542 408.587 65.7106C408.69 67.3637 407.033 69.1201 407.551 70.6699C407.655 71.8064 407.551 72.8396 407.24 73.8727C406.93 74.9059 407.448 75.8358 406.723 76.7657C405.48 78.4188 405.48 82.1382 404.548 83.998C404.34 84.4112 404.133 84.9278 404.03 85.3411C403.926 85.7544 404.03 86.271 404.34 86.3743C405.273 86.6842 409.208 85.6511 410.244 85.961C410.762 86.271 411.176 86.6842 411.383 87.2008C411.59 87.7174 411.901 88.1307 412.108 88.6473L411.797 88.4407C412.937 88.544 414.076 88.544 415.215 88.544C415.837 88.544 416.355 88.544 416.872 88.544C417.183 88.544 417.39 88.544 417.701 88.4407C417.805 88.4407 418.012 88.4407 418.115 88.3373H418.322L419.047 88.7506L419.151 88.8539C419.151 88.9572 419.151 88.9572 419.151 89.0606C418.53 89.9904 417.908 90.817 417.183 91.7469C416.872 92.1601 416.458 92.5734 416.044 92.9867C415.837 93.1933 415.63 93.3999 415.422 93.6066C415.319 93.7099 415.112 93.8132 415.008 93.9165C414.801 94.0199 414.594 94.1232 414.283 94.1232L414.801 92.8834C415.63 93.6066 416.251 94.3298 416.872 95.2597C417.183 95.7763 417.39 96.2929 417.597 96.8095C417.701 97.4294 417.805 97.8426 417.908 98.2559C418.012 99.0825 418.219 99.909 418.737 100.632C419.151 101.355 419.772 101.975 420.497 102.492C422.155 103.112 424.019 103.215 425.676 102.699C427.54 102.389 429.508 101.872 431.476 101.665C433.547 101.252 435.619 101.355 437.587 101.975C438.104 102.182 438.622 102.389 439.037 102.699C439.451 103.009 439.865 103.319 440.279 103.732C440.694 104.145 441.004 104.455 441.212 104.972C441.522 105.385 441.729 105.798 442.04 106.211C443.076 107.968 443.801 109.724 444.319 111.687C444.837 113.547 445.251 115.51 445.458 117.473C445.354 118.3 445.354 118.3 445.251 118.196C445.354 118.3 445.354 118.3 445.251 118.196Z" fill="#282828"/>
<path d="M461.822 40.2942C455.712 33.6819 452.605 33.5785 448.255 31.2022C427.437 20.1471 383.73 44.7369 406.619 53.1057C415.319 60.2347 419.462 49.9029 429.198 49.0763C429.198 49.0763 421.637 53.2091 422.88 58.7883C424.433 65.4006 415.941 62.921 431.787 70.8765C431.787 70.8765 433.34 59.7181 440.59 66.3305C452.915 70.9798 461.408 85.6511 465.033 80.1752C469.28 73.6661 467.001 45.8734 461.822 40.2942Z" fill="#282828"/>
<path d="M409.105 70.9798C409.933 69.74 412.419 68.6035 413.869 67.9836C414.594 67.5703 415.319 67.3637 416.148 67.2604C416.976 67.1571 417.805 67.2604 418.53 67.467C417.183 67.6737 415.63 68.1902 414.387 68.8102C413.04 69.6367 410.555 70.2566 409.105 70.9798Z" fill="#282828"/>
<path d="M414.283 75.8358C414.594 75.8358 415.008 75.6292 415.216 75.4225C415.423 75.1126 415.63 74.8026 415.63 74.4927C415.63 74.0794 415.526 73.7694 415.216 73.5628C415.008 73.2528 414.594 73.1495 414.283 73.1495C413.973 73.1495 413.558 73.3562 413.351 73.5628C413.144 73.8728 412.937 74.1827 412.937 74.4927C412.937 74.8026 413.041 75.2159 413.351 75.4225C413.558 75.7325 413.973 75.8358 414.283 75.8358Z" fill="#282828"/>
<path d="M474.769 87.0975C481.19 87.5108 502.526 92.0568 508.533 94.5365C514.54 96.9128 520.236 99.909 525.519 103.628C535.979 111.171 544.783 120.779 551.411 131.731L553.897 135.864L556.175 140.1C557.004 141.443 557.625 142.89 558.35 144.336C559.075 145.782 559.8 147.229 560.422 148.675C561.665 151.568 563.011 154.565 564.15 157.561C565.393 160.557 566.325 163.553 567.361 166.653C567.879 168.203 568.293 169.752 568.811 171.199L570.158 175.848C570.986 178.948 581.136 210.77 581.861 213.869C586.832 244.968 586.211 242.695 580.929 214.076C580.204 210.976 570.054 179.154 569.329 176.055L568.086 171.405C567.672 169.856 567.258 168.306 566.74 166.859C563.115 154.565 557.833 142.89 551.1 132.041C547.683 126.669 543.747 121.606 539.397 116.957C535.047 112.307 530.283 108.071 525.001 104.352C519.822 100.632 514.229 97.5327 508.326 95.0531C505.322 93.8132 487.301 89.7838 484.194 88.9573C481.087 88.0274 477.979 87.4075 474.769 87.0975C474.769 87.2009 474.769 87.2009 474.769 87.0975Z" fill="#282828"/>
<path d="M485.851 128.425C486.99 125.842 488.44 123.259 490.201 120.986C491.858 118.61 493.826 116.543 496.001 114.58C498.176 112.721 500.765 111.171 503.458 110.138C504.804 109.621 506.254 109.311 507.704 109.208C509.154 109.104 510.604 109.104 512.054 109.311C509.258 109.208 506.358 109.724 503.769 110.757C501.179 111.894 498.797 113.34 496.622 115.2C494.447 117.06 492.479 119.126 490.719 121.296C488.958 123.672 487.301 125.945 485.851 128.425Z" fill="#282828"/>
<path d="M531.318 155.288C530.8 158.181 529.868 161.487 528.625 164.896C527.383 168.409 525.725 172.025 523.861 175.745C521.893 179.464 519.718 183.287 517.026 187.213C514.436 191.036 511.64 194.859 508.533 198.475C509.776 196.615 511.329 194.755 512.572 192.792L514.436 190.003L516.197 187.213C518.579 183.494 520.65 179.774 522.515 176.158C524.379 172.542 526.036 168.926 527.59 165.516C529.04 162.003 530.283 158.594 531.318 155.288Z" fill="#282828"/>
<path d="M449.704 169.546C450.015 169.752 450.326 169.856 450.637 170.062C450.222 168.203 449.704 166.239 449.394 164.38C448.772 161.487 448.151 158.491 447.633 155.598C447.115 152.705 446.701 149.812 446.287 146.816C445.872 143.819 445.562 140.926 445.458 137.93C445.562 143.923 446.079 149.812 447.115 155.804C447.84 160.247 448.669 164.896 449.704 169.546Z" fill="#282828"/>
<path d="M421.637 176.985C421.948 177.088 425.573 175.745 427.126 175.125C428.058 174.712 428.99 174.505 429.923 174.195C430.44 174.092 430.855 173.885 431.373 173.782L432.823 173.472C433.755 173.265 434.687 173.059 435.723 172.955L438.726 172.749C439.348 172.645 439.969 172.645 440.59 172.645C440.694 172.335 431.062 172.955 431.062 172.955C430.544 173.059 430.13 173.265 429.612 173.368C428.68 173.782 427.644 173.988 426.712 174.402C424.951 175.125 423.294 176.055 421.637 176.985Z" fill="#282828"/>
<path d="M412.419 194.239C412.212 193.206 409.726 186.077 409.726 185.043C409.726 183.184 409.001 181.737 409.312 179.878C410.037 176.261 410.969 172.645 412.108 169.132L415.526 158.491C416.665 154.978 417.597 151.362 418.426 147.745C420.083 140.513 421.637 133.178 423.087 125.945C424.537 118.61 425.987 111.377 427.23 104.042L417.701 147.539C416.976 151.155 416.147 154.771 415.112 158.284C414.076 161.797 412.937 165.413 411.901 168.926C410.762 172.439 409.83 176.055 409.105 179.671C408.69 181.531 408.69 183.7 408.898 185.56C409.312 188.35 411.798 193.309 412.005 194.445C412.108 194.445 412.315 194.342 412.419 194.239Z" fill="#282828"/>
<path d="M409.105 185.043C410.244 188.556 411.383 191.862 411.798 192.896C412.523 194.549 413.04 195.169 413.662 196.408C414.283 197.752 424.744 200.955 425.676 202.091C426.608 203.228 432.615 201.988 433.962 202.608C432.512 202.298 425.883 203.331 424.848 202.298C423.812 201.264 413.455 198.165 412.833 196.822C412.212 195.479 411.694 194.032 411.383 192.586C411.073 191.139 410.969 189.693 409.519 187.42L409.105 185.043Z" fill="#282828"/>
<path d="M450.948 172.955C452.915 173.885 454.883 175.022 456.644 176.261C458.508 177.501 460.269 178.844 461.822 180.291C459.855 179.361 457.887 178.224 456.126 176.985C454.262 175.848 452.501 174.505 450.948 172.955Z" fill="#282828"/>
<path d="M73.1209 251.581C61.3139 257.676 49.5068 263.669 37.6997 269.661L19.8855 278.65L2.07135 287.535L1.44992 284.643L21.3355 284.436L41.2211 284.333L81.0959 284.126C107.61 284.023 134.228 284.023 160.742 284.436L200.617 284.849L220.502 285.056L240.388 285.159C266.902 285.262 293.52 285.056 320.034 284.952L399.68 284.023L439.555 283.713L479.429 283.506C532.561 283.093 585.59 283.093 638.721 283.506L637.686 287.432L606.2 268.731C595.636 262.532 585.279 256.127 574.715 249.927L543.333 231.02L512.054 211.906L511.951 211.803C511.951 211.7 511.951 211.7 511.951 211.596C511.951 211.493 512.054 211.493 512.054 211.493C512.158 211.493 512.158 211.493 512.261 211.493L544.265 229.367L576.165 247.448C586.832 253.44 597.397 259.433 608.064 265.632L639.861 283.919C640.275 284.126 640.586 284.539 640.793 284.952C641 285.366 641 285.882 640.896 286.296C640.793 286.709 640.482 287.122 640.171 287.432C639.757 287.742 639.343 287.845 638.929 287.845C585.797 288.362 532.768 288.465 479.637 288.155L439.762 288.052L399.887 287.742L320.034 286.812C293.52 286.709 266.902 286.606 240.388 286.709L220.502 286.916L200.617 287.225L160.742 287.742C134.228 288.155 107.61 288.259 81.0959 288.155L41.2211 288.052L21.3355 287.949L1.44992 287.742C1.13921 287.742 0.724928 287.639 0.517786 287.432C0.207073 287.225 0.103503 286.915 -6.82995e-05 286.606C-0.103639 286.296 -6.82957e-05 285.882 0.103503 285.572C0.207073 285.262 0.517786 285.056 0.828498 284.849L18.8498 276.377L36.8711 267.905C48.8854 262.326 60.8996 256.643 73.0174 251.167C73.1209 251.167 73.1209 251.167 73.2245 251.167C73.3281 251.167 73.3281 251.271 73.3281 251.271C73.3281 251.374 73.3281 251.374 73.3281 251.477C73.2245 251.581 73.1209 251.581 73.1209 251.581Z" fill="#282828"/>
<path d="M1.44995 300.657L81.0959 299.934L160.742 299.52L320.034 299.21L479.326 299.52L558.972 299.934L638.618 300.657L558.972 301.38L479.326 301.793L320.034 302L160.742 301.69L81.0959 301.277L1.44995 300.657Z" fill="#282828"/>
<path d="M351.209 232.467C351.727 231.847 352.348 231.33 353.073 231.02C353.798 230.607 354.73 230.4 355.559 230.607C356.387 230.917 357.112 231.433 357.527 232.26C357.734 232.673 357.941 232.983 358.044 233.397L358.459 234.533C358.459 234.636 358.459 234.74 358.459 234.843C358.355 234.946 358.251 235.05 358.148 235.05C358.044 235.05 357.941 235.05 357.837 235.05C357.734 234.946 357.63 234.843 357.63 234.74L357.319 233.603C357.216 233.19 357.009 232.88 356.905 232.467C356.594 231.743 356.077 231.227 355.352 230.917C354.627 230.71 353.798 230.814 353.073 231.124C352.452 231.433 351.83 231.95 351.209 232.467Z" fill="#282828"/>
<path d="M341.784 233.603C343.027 231.95 344.269 230.297 345.305 228.541C345.823 227.611 346.444 226.681 346.859 225.854C347.273 224.924 347.687 223.995 347.894 222.961C347.791 223.995 347.48 225.028 347.169 225.958C346.755 226.991 346.341 227.817 345.823 228.747C344.787 230.607 343.752 232.363 342.509 234.12L342.405 234.223C342.405 234.223 342.302 234.326 342.198 234.326C342.095 234.326 342.095 234.326 341.991 234.326C341.887 234.326 341.887 234.326 341.784 234.223L341.68 234.12C341.68 234.016 341.577 234.016 341.577 233.913C341.577 233.81 341.68 233.81 341.784 233.603C341.68 233.706 341.68 233.603 341.784 233.603Z" fill="#282828"/>
<path d="M340.023 230.504L347.791 217.485L340.748 231.02C340.644 231.124 340.541 231.227 340.437 231.227C340.334 231.227 340.23 231.227 340.127 231.227C340.023 231.124 339.919 231.02 339.919 230.917C340.023 230.607 340.023 230.607 340.023 230.504Z" fill="#282828"/>
<path d="M343.855 219.449L349.034 212.32L344.58 219.965C344.58 220.068 344.477 220.068 344.477 220.068C344.477 220.068 344.373 220.172 344.269 220.172C344.166 220.172 344.166 220.172 344.062 220.172C343.959 220.172 343.959 220.172 343.855 220.068C343.752 219.965 343.752 219.965 343.752 219.965C343.752 219.965 343.648 219.862 343.648 219.758C343.752 219.552 343.752 219.552 343.855 219.449Z" fill="#282828"/>
<path d="M395.951 236.599C394.501 236.393 393.155 236.186 391.705 235.979C387.148 235.256 380.105 240.526 375.548 241.559L372.959 242.075C372.026 242.179 371.198 242.385 370.369 242.385C368.609 242.489 366.951 242.179 365.294 241.662C363.637 241.042 362.291 240.112 361.151 238.872C360.012 237.633 359.287 236.186 358.666 234.533C358.666 234.43 358.459 234.223 358.355 234.12C358.251 234.016 358.044 233.913 357.941 233.913C357.734 233.913 357.63 233.913 357.527 234.016C357.319 234.12 357.216 234.223 357.112 234.43C356.698 235.36 355.973 236.186 355.248 236.909C354.419 237.633 353.591 238.253 352.659 238.769C351.623 239.182 350.691 239.699 349.552 239.906C348.619 240.216 347.48 240.422 346.444 240.629C345.719 240.525 345.098 240.319 344.477 240.009C343.855 239.596 343.337 239.182 343.027 238.562C342.612 237.943 342.509 237.219 342.509 236.496C342.509 235.773 342.612 234.946 342.819 234.223C342.923 234.016 342.923 233.81 342.819 233.706C342.302 232.467 341.68 231.227 340.955 230.194C340.748 229.78 340.644 229.16 340.644 228.644C340.748 228.024 340.955 227.507 341.059 226.887C341.577 225.751 342.198 224.511 342.819 223.478C343.544 222.341 344.166 221.205 344.891 220.172C344.891 220.068 344.994 219.862 344.994 219.758C345.409 216.452 346.755 213.456 348.827 210.976C349.344 210.46 349.966 209.84 350.587 209.323C350.898 209.117 351.105 208.91 351.519 208.807C351.623 208.807 351.83 208.703 351.934 208.703L352.244 208.807C353.694 209.323 355.352 210.047 356.905 210.666C363.223 213.249 369.334 216.039 375.651 218.725C375.859 218.829 375.962 218.829 376.066 218.829L389.841 219.139C389.737 219.139 389.737 219.035 389.633 219.035C388.805 218.519 375.962 216.969 375.962 216.969C369.851 214.283 363.637 211.596 357.423 209.013C355.766 208.393 354.316 207.774 352.555 207.154L352.141 207.05H351.519C351.209 207.154 351.002 207.257 350.691 207.36C350.277 207.67 349.759 207.877 349.448 208.187C348.723 208.703 348.102 209.323 347.584 210.047C345.305 212.733 343.855 216.039 343.441 219.449C342.716 220.585 341.991 221.618 341.369 222.858C340.644 223.995 340.127 225.234 339.505 226.474C339.194 227.094 339.091 227.817 338.987 228.541C338.987 229.367 339.091 230.194 339.402 230.917C340.127 232.26 340.748 233.087 341.266 234.223C341.162 235.05 341.059 235.876 341.059 236.599C341.059 237.633 341.266 238.459 341.68 239.389C342.094 240.319 342.819 241.042 343.752 241.455C344.58 241.869 345.512 242.179 346.444 242.282C346.548 242.282 346.548 242.282 346.652 242.282C347.791 242.179 349.034 241.869 350.173 241.559C351.312 241.249 352.452 240.835 353.487 240.319C354.626 239.802 355.559 239.079 356.491 238.253C357.009 237.736 357.423 237.219 357.734 236.703C358.355 237.943 359.08 239.079 360.012 240.112C361.359 241.559 363.016 242.695 364.88 243.418C366.744 244.038 368.609 244.348 370.473 244.245C371.405 244.245 372.337 244.038 373.269 243.935C378.344 242.592 386.63 237.013 391.498 237.839C393.051 237.943 396.055 237.219 395.951 236.599Z" fill="#282828"/>
<path d="M585.589 255.093L557.522 238.666L581.032 241.352C581.032 241.352 586.936 240.835 585.589 255.093Z" fill="#282828"/>
<path d="M237.074 126.359C235.002 91.9535 213.77 82.0349 207.349 79.7619C204.76 86.5809 200.824 92.4701 194.817 89.7838C191.606 88.3373 187.67 86.5809 183.942 84.6179C182.285 85.961 180.42 88.234 179.385 92.1601C177.52 99.4957 164.781 102.595 164.781 102.492C160.121 103.009 151.938 101.562 145.206 87.4075C145.206 87.4075 136.403 70.9798 135.574 69.1201C134.642 67.3637 139.821 75.0093 115.067 80.6918C115.067 80.6918 100.982 81.9316 85.9638 98.2559C71.0496 114.477 38.9427 210.047 35.6284 269.868L96.3209 245.485C90.2103 229.47 75.5032 188.453 77.7817 192.379C83.8924 206.224 137.749 199.818 138.474 189.176C138.992 182.564 135.056 157.044 133.917 150.535C133.399 147.332 132.674 144.026 131.949 140.823C131.224 137.62 130.189 134.417 129.049 131.318C131.949 137.31 134.124 143.716 135.367 150.225C136.092 153.428 142.824 222.651 140.442 223.478C140.442 223.478 196.163 204.157 196.888 203.331C200.824 175.332 205.692 158.697 205.692 158.697C205.07 155.494 204.76 123.052 205.692 119.849C205.485 123.156 205.485 126.359 205.485 129.561C205.485 132.764 206.106 136.484 206.21 139.687C206.313 146.196 205.899 152.085 205.692 158.697C214.495 160.247 239.767 145.782 239.767 145.782C238.109 143.406 237.074 126.359 237.074 126.359ZM109.474 100.012C108.749 99.909 108.024 99.8057 107.299 99.909H105.124C104.399 99.909 103.674 100.116 102.949 100.219C100.049 100.736 97.2531 101.769 94.7674 103.319C92.1781 104.868 90.0031 106.728 87.9317 108.898C85.8603 111.067 84.2031 113.444 82.6496 116.027C83.7889 113.237 85.446 110.654 87.4138 108.381C89.3817 106.108 91.6602 104.042 94.2495 102.492C96.8388 100.839 99.8423 99.8057 102.846 99.4957C105.849 99.1858 108.957 99.3924 111.753 100.219L109.474 100.012Z" fill="#282828"/>
<path d="M209.835 63.4376C210.042 63.3343 210.249 63.231 210.56 63.231C210.974 63.231 211.492 63.5409 211.595 63.7475C211.906 64.2641 211.906 64.5741 211.906 64.8841C211.906 65.4006 211.906 65.8139 211.802 66.3305C211.699 67.1571 211.492 67.9836 211.388 68.8102C211.077 70.3599 210.663 71.9097 210.249 73.4595C209.42 76.559 208.488 79.6586 207.038 82.6548C206.313 84.1013 205.588 85.5477 204.656 86.9942C203.724 88.3373 202.481 89.6805 200.927 90.507C199.374 91.4369 197.406 91.6435 195.645 91.1269C195.231 91.0236 194.817 90.817 194.403 90.7137L193.263 90.1971L191.088 89.1639C185.288 86.4776 179.488 83.688 174.31 79.7619C173.067 78.7287 171.824 77.6955 170.685 76.4557C169.546 75.2159 168.613 73.9761 167.681 72.7363C166.749 71.3931 165.817 70.05 164.988 68.7068C164.574 67.9836 164.263 67.2604 163.953 66.4338C163.849 66.0206 163.642 65.6073 163.642 65.194C163.642 64.9874 163.538 64.7807 163.642 64.4708C163.642 64.3675 163.746 64.1608 163.746 64.0575C163.746 64.0575 163.746 63.9542 163.849 63.8509C164.056 62.3011 164.16 60.7513 164.263 59.0982L164.574 54.3456L164.885 49.5929L164.988 48.3531L165.092 47.7332V47.4232C165.092 47.3199 165.092 47.3199 165.196 47.2166C165.196 47.2166 165.196 47.2166 165.299 47.01C165.403 46.8033 166.024 47.2166 165.817 47.1133C165.921 47.2166 165.817 47.2166 165.921 47.3199C166.128 48.1465 166.231 48.8697 166.438 49.6962C167.163 52.7958 167.992 55.8953 169.338 58.7883C170.581 61.6812 172.238 64.4708 174.517 66.6405C175.656 67.6737 177.003 68.6035 178.349 69.2234C179.074 69.5334 179.799 69.74 180.524 69.8433C181.249 69.8433 182.078 69.8433 182.906 69.74C186.013 69.2234 189.12 68.1902 192.124 67.1571C193.574 66.6405 195.128 66.0206 196.578 65.4006C197.303 65.0907 198.027 64.7807 198.752 64.4708C199.477 64.1608 200.306 63.8509 201.135 63.8509C202.792 63.9542 204.138 64.9874 205.692 65.2973C207.245 65.7106 208.902 65.2973 210.249 64.5741L209.835 63.4376ZM210.352 64.2641C209.006 64.9874 207.349 65.504 205.692 65.0907C204.138 64.7807 202.792 63.7475 201.135 63.6442C200.306 63.6442 199.581 63.8509 198.856 64.2641C198.131 64.5741 197.406 64.9874 196.681 65.2973C195.231 65.9172 193.781 66.5371 192.228 67.1571C189.224 68.2936 186.22 69.3267 183.01 69.9467C182.181 70.05 181.353 70.1533 180.524 70.1533C179.695 70.05 178.867 69.8433 178.142 69.5334C176.588 68.9135 175.242 67.9836 174.103 66.8471C171.721 64.6774 169.96 61.7845 168.717 58.8916C167.371 55.9987 166.438 52.8991 165.713 49.6962C165.506 48.8697 165.403 48.1465 165.196 47.3199C164.988 47.3199 165.61 47.6299 165.713 47.4232C165.921 47.2166 165.817 47.3199 165.817 47.3199C165.817 47.3199 165.817 47.3199 165.817 47.4232V47.7332V48.3531L165.713 49.4896L165.506 54.2422L165.299 58.9949C165.196 60.648 165.092 62.1978 164.885 63.8509C164.885 63.9542 164.885 64.0575 164.781 64.1608C164.781 64.2641 164.781 64.2641 164.781 64.3675C164.781 64.4708 164.781 64.6774 164.781 64.8841C164.885 65.194 164.988 65.6073 165.092 65.9172C165.403 66.6405 165.713 67.3637 166.128 67.9836C166.956 69.3267 167.785 70.6699 168.821 71.9097C169.753 73.1495 170.788 74.3894 171.824 75.5259C172.86 76.6624 174.103 77.6955 175.345 78.6254C180.42 82.3449 186.22 85.0312 192.02 87.7174L194.195 88.6473L195.231 89.1639C195.542 89.2672 195.956 89.4739 196.267 89.4739C197.613 89.8871 199.063 89.6805 200.306 88.9573C201.549 88.234 202.585 87.0975 203.413 85.8577C204.242 84.6179 204.967 83.1714 205.588 81.8283C206.831 78.9354 207.763 75.9391 208.488 72.8396C208.902 71.2898 209.213 69.74 209.524 68.1902C209.731 67.3637 209.835 66.6405 209.938 65.9172C209.938 65.6073 210.042 65.194 209.938 64.8841C209.938 64.7807 209.835 64.6774 209.938 64.8841C210.042 64.9874 210.352 65.194 210.56 65.194C210.767 65.194 210.767 65.194 210.767 65.194L210.352 64.2641Z" fill="#282828"/>
<path d="M204.76 74.3893C203.62 74.596 202.377 74.596 201.238 74.596H199.581C198.96 74.596 198.442 74.596 197.82 74.6993C198.338 74.286 198.856 74.0794 199.477 73.9761C200.099 73.8727 200.72 73.7694 201.238 73.7694C202.481 73.6661 203.724 73.8727 204.76 74.3893Z" fill="#282828"/>
<path d="M181.56 4.23609C183.838 3.92613 186.013 4.44273 188.188 4.856C190.363 5.26927 192.435 5.9925 194.506 6.71573C198.649 8.16219 202.688 9.91861 206.624 12.1916C207.556 12.8115 208.592 13.3281 209.524 14.1547C209.731 14.3613 210.042 14.5679 210.249 14.7746C210.456 14.9812 210.767 15.1879 210.974 15.3945C211.388 15.8078 211.802 16.221 212.113 16.7376C213.667 18.5974 214.702 20.6637 215.531 22.8334C216.256 25.0031 216.774 27.3794 216.67 29.7558C216.67 30.3757 216.67 30.8923 216.567 31.5122L216.463 32.3387C216.463 32.6487 216.359 32.9586 216.256 33.3719C216.049 33.9918 215.738 34.6117 215.324 35.2316C215.117 35.5416 214.702 35.8516 214.288 36.0582C213.874 36.2648 213.356 36.3681 212.942 36.2648L212.32 36.1615L212.217 35.7482L211.388 32.9586C211.077 32.0288 210.87 31.0989 210.559 30.169L210.767 30.0657L213.252 35.2316L213.149 35.1283C213.667 35.1283 214.081 34.9217 214.392 34.5084C214.702 34.0951 214.909 33.5785 215.013 33.062C215.22 32.0288 215.117 30.8923 215.117 29.8591C215.013 27.6894 214.495 25.623 213.77 23.5567C212.217 19.5272 209.524 15.9111 205.692 13.8447C201.963 11.5717 198.027 9.71197 194.092 7.95556C192.124 7.12901 190.052 6.40578 187.981 5.68255C185.91 5.06264 183.838 4.44273 181.663 4.44273L181.56 4.23609Z" fill="#282828"/>
<path d="M211.077 56.6186C210.249 54.9655 209.627 53.3124 209.11 51.6593C208.799 50.8327 208.592 49.9029 208.385 49.0763C208.177 48.1464 207.97 47.3199 207.867 46.39L207.763 45.7701H208.281C209.731 45.7701 211.077 45.7701 212.527 45.9767V46.0801C211.181 46.4933 209.731 46.7 208.385 46.8033L208.902 46.1834L209.213 48.7664C209.317 49.5929 209.524 50.5228 209.731 51.3493C210.042 53.209 210.56 54.9655 211.077 56.6186Z" fill="#282828"/>
<path d="M207.97 25.933C207.349 24.2799 206.21 22.9367 204.863 21.8002C203.517 20.767 201.86 19.9405 200.202 19.4239C196.888 18.3907 193.367 18.2874 189.845 17.7708C182.803 16.7376 176.07 13.0182 171.306 7.54227C170.995 7.23231 171.099 6.71572 171.41 6.40577C171.72 6.09581 172.135 6.19913 172.445 6.40577C176.588 10.0219 179.695 14.7746 181.353 19.9405C181.456 20.3538 181.249 20.8704 180.835 21.077C180.42 21.1803 180.11 21.077 179.903 20.767C179.488 20.2504 178.556 19.9405 177.624 19.8372C176.588 19.7339 175.553 19.8372 174.517 20.0438C173.481 20.2504 172.445 20.5604 171.513 20.8704C170.995 21.077 170.581 21.2836 170.063 21.4903C169.649 21.6969 169.235 22.0069 168.924 22.2135C168.51 21.8002 169.235 23.1434 169.856 23.8666C170.478 24.6931 171.306 25.4164 172.031 26.3462C172.756 27.2761 173.481 28.3093 173.895 29.4458C174.31 30.5823 174.413 32.1321 173.688 33.3719C173.585 33.6819 173.274 33.7852 172.963 33.7852C170.478 33.8885 168.199 35.4383 166.749 37.5046C165.299 39.571 164.574 42.2573 165.299 44.6336C165.403 45.0469 165.195 45.4602 164.781 45.6668C164.367 45.7701 163.953 45.5635 163.745 45.1502C162.503 41.3274 161.467 37.5046 160.224 33.5785L160.742 33.9918C158.36 33.3719 155.771 33.8885 153.596 35.335C151.524 36.6781 149.867 38.9511 149.556 41.4307C149.142 43.9104 150.074 46.5967 151.731 48.5597C153.388 50.5228 155.874 51.9692 158.567 51.9692C158.567 51.9692 158.567 51.9692 158.567 52.0725C155.874 52.0725 153.285 50.7294 151.524 48.7664C149.763 46.8033 148.728 44.117 149.038 41.4307C149.349 38.7445 151.006 36.3681 153.285 34.9217C155.46 33.3719 158.36 32.752 160.949 33.3719C160.949 33.3719 160.949 33.3719 161.053 33.3719L164.678 44.8403H164.47C163.642 42.154 164.47 39.1577 166.024 36.8847C167.578 34.6117 170.167 32.9586 172.963 32.752H172.86C173.378 31.8221 173.274 30.5823 172.963 29.6524C172.653 28.6192 172.031 27.6894 171.306 26.8628C170.581 26.0363 169.856 25.2097 169.131 24.3832C168.82 23.9699 168.51 23.4533 168.199 22.9367C168.095 22.6268 167.888 22.4201 167.888 22.1102C167.888 21.8002 168.095 21.4903 168.303 21.2836C169.131 20.4571 170.167 20.0438 171.203 19.6305C172.238 19.2173 173.274 19.0106 174.413 18.804C175.553 18.5974 176.588 18.494 177.728 18.5974C178.867 18.7007 180.006 19.0106 180.731 19.9405L180.524 20.0438C178.867 14.9812 175.863 10.4352 171.928 6.92236L172.031 6.81904C176.588 12.1916 183.01 15.9111 189.949 17.0476C193.367 17.6675 196.992 17.8741 200.306 18.9073C201.963 19.4239 203.62 20.2504 204.967 21.387C206.417 22.7301 207.556 24.1766 207.97 25.933C208.074 25.8296 208.074 25.933 207.97 25.933C208.074 25.933 207.97 25.933 207.97 25.933Z" fill="black"/>
<path d="M136.921 68.6035C139.406 61.3712 140.131 53.6223 140.753 46.0801C141.374 38.4345 141.996 30.7889 144.171 23.35C145.206 19.6305 146.76 16.0144 148.831 12.7082C149.867 11.0551 151.006 9.50532 152.353 8.05886C153.699 6.6124 155.253 5.37258 156.806 4.23607C160.121 2.06638 163.746 0.619926 167.681 0.103333C169.649 -0.103304 171.617 -0.103304 173.481 0.206652C175.345 0.619926 177.21 1.23984 178.867 2.1697C178.867 2.1697 178.867 2.1697 178.867 2.27302C178.867 2.27302 178.867 2.27302 178.763 2.27302C177.003 1.44647 175.242 0.929881 173.274 0.619926C171.41 0.413289 169.442 0.413289 167.578 0.723244C165.713 1.0332 163.849 1.54979 162.192 2.27302C160.638 3.09957 158.981 4.02944 157.428 5.16594C155.874 6.19912 154.424 7.43895 153.181 8.78209C151.938 10.1252 150.799 11.675 149.763 13.2248C147.692 16.4277 146.242 19.9405 145.103 23.5566C142.824 30.7889 142.099 38.5378 141.374 46.0801C140.546 53.7256 139.717 61.3712 136.921 68.6035C137.024 68.7068 137.024 68.7068 136.921 68.6035C137.024 68.7068 136.921 68.6035 136.921 68.6035Z" fill="black"/>
<path d="M141.892 56.9285C141.271 56.8252 140.649 56.6186 140.028 56.4119C139.924 56.4119 139.821 56.3086 139.924 56.102C139.924 55.9986 140.028 55.8953 140.131 55.9986C143.031 56.4119 145.828 57.0318 148.728 57.6517L148.106 58.065C148.624 55.4821 149.246 53.0024 149.971 50.5228C149.867 53.1057 149.453 55.6887 149.038 58.2717C149.038 58.5816 148.728 58.6849 148.417 58.6849C145.621 58.065 142.721 57.3418 139.924 56.4119L140.028 55.9986C140.753 56.3086 141.271 56.6186 141.892 56.9285Z" fill="black"/>
<path d="M451.258 130.491C453.744 126.669 456.022 122.742 458.405 118.713C460.787 114.684 463.169 110.448 465.758 106.315C467.001 104.248 468.244 102.182 469.59 100.116C470.833 98.1526 471.972 96.1896 472.594 94.0199C472.904 92.9867 473.008 91.8502 472.904 90.817C472.801 89.7838 472.49 88.8539 471.869 87.9241C470.729 86.1677 468.658 85.0312 466.897 85.6511L467.415 85.2378L460.787 96.2929C458.612 100.012 456.437 103.732 454.158 107.348L452.501 110.138C451.983 111.067 451.362 111.997 450.74 112.824C449.601 114.58 448.462 116.44 447.84 118.403C447.737 118.92 447.633 119.436 447.633 119.953C447.53 120.469 447.737 120.883 447.84 121.399C448.151 122.329 448.669 123.362 449.187 124.292C449.705 125.222 450.119 126.255 450.637 127.185C450.844 127.702 451.051 128.218 451.258 128.735C451.362 129.045 451.465 129.251 451.465 129.561C451.465 129.665 451.465 129.871 451.465 129.975C451.465 130.181 451.465 130.388 451.258 130.491ZM451.362 130.491C451.465 130.078 451.258 129.458 451.155 129.045C450.947 128.528 450.74 128.012 450.533 127.598C450.015 126.669 449.497 125.739 448.98 124.705C448.462 123.776 447.944 122.846 447.53 121.813C447.012 120.779 447.219 119.643 447.426 118.61C447.944 116.44 449.083 114.58 450.222 112.824C451.362 111.067 452.501 109.104 453.537 107.348L466.587 85.0312C467.726 84.6179 469.072 84.7212 470.108 85.3411C471.144 85.8577 472.076 86.7876 472.697 87.7174C473.319 88.7506 473.733 89.8871 473.837 91.0236C473.94 92.1601 473.733 93.4 473.422 94.5365C472.801 96.8095 471.558 98.8758 470.315 100.839L466.587 106.831L451.362 130.491Z" fill="black"/>
<path d="M445.044 118.093C445.355 118.816 445.562 119.643 445.665 120.469C445.769 121.296 445.769 122.123 445.665 122.949C445.458 124.602 444.837 126.255 443.905 127.598L442.765 129.148L442.455 127.288C442.144 125.739 441.937 124.189 441.73 122.639C441.522 121.089 441.522 119.54 441.419 117.99C441.315 116.44 441.419 114.89 441.522 113.34C441.626 111.791 441.833 110.241 442.04 108.691H442.558C442.455 109.311 442.455 109.931 442.351 110.551H442.247V108.691H442.351C441.937 114.787 442.351 120.986 443.283 127.082H443.18C444.94 124.499 445.665 121.193 445.044 118.093Z" fill="black"/>
<path d="M438.933 173.162C439.14 173.575 439.347 173.988 439.555 174.402C439.555 174.505 439.555 174.608 439.451 174.712C439.451 174.712 439.451 174.712 439.348 174.712H439.244C438.105 174.815 436.862 174.918 435.723 175.228C434.583 175.435 433.444 175.745 432.305 176.055C431.165 176.365 430.026 176.881 429.094 177.501C428.058 178.121 427.23 178.948 426.401 179.878L425.987 179.258C427.023 178.844 428.058 178.534 429.094 178.224C430.13 177.914 431.165 177.501 432.305 177.295C433.34 176.985 434.48 176.778 435.515 176.468C436.551 176.261 437.69 175.951 438.83 175.848H438.933C438.933 175.848 438.933 175.848 438.933 175.951C437.897 176.468 436.862 176.778 435.826 177.191C434.79 177.604 433.755 177.914 432.719 178.328C431.683 178.638 430.648 178.948 429.508 179.258C428.473 179.568 427.333 179.878 426.298 180.084C426.09 180.084 425.883 179.981 425.883 179.774C425.883 179.671 425.883 179.464 425.987 179.361C426.919 178.534 427.955 177.914 428.99 177.295C430.026 176.675 431.062 176.055 432.201 175.538C433.34 175.022 434.48 174.608 435.723 174.402C436.965 174.195 438.208 174.195 439.348 174.298L439.14 174.608C438.933 174.092 438.83 173.678 438.933 173.162C438.83 173.162 438.83 173.162 438.933 173.162C438.933 173.059 438.933 173.162 438.933 173.162Z" fill="black"/>
<path d="M396.158 239.906C399.265 238.976 402.165 238.046 405.169 237.013L413.765 234.326L413.247 234.946C413.455 232.467 413.351 229.884 413.247 227.301C413.04 224.718 412.73 222.238 412.212 219.758C411.901 218.519 411.59 217.382 411.072 216.246C410.865 215.729 410.555 215.212 410.14 214.902C409.83 214.593 409.519 214.489 409.208 214.489C409.105 214.489 409.001 214.489 408.897 214.593L408.483 214.799C408.173 214.902 407.862 215.006 407.551 215.109C406.93 215.316 406.205 215.419 405.583 215.626C404.237 215.936 402.994 216.039 401.648 216.246C399.162 216.556 396.469 216.866 394.605 218.209C394.19 218.519 393.776 218.932 393.465 219.448C393.362 219.552 393.258 219.758 393.258 219.758C393.258 219.758 393.155 219.862 393.155 220.068C393.155 220.275 393.051 220.585 393.051 220.895C393.051 222.135 393.258 223.375 393.465 224.614C393.88 227.094 394.501 229.677 395.019 232.157C395.226 233.397 395.537 234.74 395.744 235.979C396.055 237.323 396.262 238.666 396.158 239.906ZM396.158 240.009C396.158 238.666 395.848 237.426 395.537 236.186C395.226 234.946 394.915 233.706 394.605 232.363C393.983 229.884 393.362 227.301 392.844 224.821C392.637 223.581 392.326 222.238 392.326 220.998C392.326 220.378 392.326 219.655 392.74 219.139C393.051 218.622 393.569 218.105 394.087 217.692C395.123 216.866 396.365 216.452 397.712 216.142C398.955 215.832 400.301 215.626 401.544 215.522C402.787 215.316 404.133 215.109 405.376 214.902C405.998 214.799 406.619 214.593 407.24 214.386C407.862 214.179 408.38 213.869 409.105 213.766C409.83 213.663 410.451 213.973 410.969 214.489C411.487 215.006 411.797 215.522 412.108 216.142C412.626 217.279 413.04 218.622 413.351 219.862C413.869 222.445 414.18 225.028 414.387 227.611C414.49 230.194 414.594 232.777 414.283 235.36L396.158 240.009Z" fill="black"/>
<path d="M399.473 215.936C406.723 214.179 413.973 212.01 420.912 209.427C427.955 206.844 434.79 203.847 441.419 200.541C444.733 198.888 448.047 197.028 451.258 195.169C454.469 193.309 457.783 191.346 461.408 190.106C463.272 189.486 465.137 189.073 467.104 188.97C469.072 188.866 471.144 189.176 473.008 189.899C474.872 190.623 476.633 191.656 478.083 193.102C479.533 194.549 480.465 196.512 480.776 198.578L480.983 200.128L479.533 199.611C476.219 198.372 473.112 196.718 470.212 194.755C468.762 193.722 467.312 192.586 466.172 191.243C465.551 190.519 465.033 189.796 464.619 188.97C464.204 188.143 463.894 187.11 463.894 186.077C463.894 185.043 464.308 184.01 464.929 183.184C465.551 182.357 466.483 181.634 467.519 181.427C468.554 181.221 469.59 181.324 470.522 181.531C471.454 181.737 472.283 182.151 473.111 182.564C476.322 184.32 478.911 186.593 481.397 189.176L480.051 189.486C480.258 188.66 480.154 187.833 479.636 187.007C479.119 186.283 478.29 185.56 477.461 184.94C475.804 183.597 473.837 182.46 472.283 180.704C471.869 180.291 471.558 179.774 471.247 179.258C471.04 178.741 470.729 178.121 470.729 177.501C470.522 176.261 470.729 175.125 471.04 173.988L472.801 167.686L476.426 155.081L480.051 142.476H480.154L473.422 167.789L471.765 174.092C471.558 175.125 471.351 176.261 471.558 177.295C471.661 177.811 471.869 178.328 472.076 178.844C472.386 179.258 472.594 179.774 473.008 180.187C474.458 181.841 476.322 182.977 478.083 184.217C478.911 184.837 479.844 185.56 480.465 186.49C481.086 187.42 481.397 188.556 481.086 189.693V189.796L480.983 189.693C478.601 187.213 475.908 184.94 472.904 183.287C471.454 182.564 469.694 181.841 468.037 182.254C466.379 182.667 465.24 184.32 465.24 185.973C465.137 187.73 466.172 189.28 467.312 190.519C468.451 191.759 469.797 192.896 471.247 193.826C474.044 195.789 477.151 197.338 480.361 198.475L480.258 198.578C480.051 196.718 479.222 194.962 477.876 193.722C476.633 192.379 474.976 191.346 473.215 190.726C471.454 190.106 469.59 189.796 467.726 189.796C465.862 189.899 463.997 190.313 462.237 190.829C458.715 192.069 455.401 193.929 452.19 195.789C448.98 197.648 445.665 199.405 442.247 201.058C428.472 207.877 414.18 212.836 399.473 215.936Z" fill="black"/>
<path d="M411.28 235.463L417.908 236.393L424.64 236.806H431.373L438.001 236.393C446.908 235.463 455.608 233.5 463.894 230.4C472.283 227.404 480.258 223.271 487.508 218.209L492.894 214.283L497.969 209.943L502.836 205.294L507.29 200.335L507.394 200.438C496.311 214.593 481.087 225.234 464.204 231.433C447.426 237.426 428.887 239.182 411.28 235.463Z" fill="black"/>
<path d="M447.323 134.211C448.669 141.96 450.43 149.502 452.605 157.044C453.744 160.764 454.987 164.483 456.23 168.203C457.369 171.922 458.715 175.641 459.958 179.361H459.855C458.094 175.848 456.644 172.232 455.297 168.513C453.951 164.793 452.915 161.074 451.88 157.251C449.808 149.709 448.255 141.96 447.323 134.211Z" fill="black"/>
<path d="M400.301 236.289C401.159 236.289 401.855 235.457 401.855 234.43C401.855 233.403 401.159 232.57 400.301 232.57C399.443 232.57 398.748 233.403 398.748 234.43C398.748 235.457 399.443 236.289 400.301 236.289Z" fill="black"/>
<path d="M405.48 235.256C406.338 235.256 407.033 234.424 407.033 233.397C407.033 232.369 406.338 231.537 405.48 231.537C404.622 231.537 403.926 232.369 403.926 233.397C403.926 234.424 404.622 235.256 405.48 235.256Z" fill="black"/>
<path d="M237.902 145.679C239.87 154.048 241.631 162.52 243.391 170.992C244.22 175.228 245.152 179.464 245.981 183.7C246.706 187.936 247.534 192.172 248.156 196.512H248.052C246.809 192.379 245.877 188.143 244.945 183.907C244.013 179.671 243.288 175.435 242.563 171.199C241.009 162.623 239.456 154.151 237.902 145.679Z" fill="#282828"/>
<path d="M200.409 183.08C202.481 185.663 204.345 188.453 205.795 191.449C206.52 192.896 207.245 194.445 207.763 196.099C208.281 197.752 208.592 199.301 208.695 201.058H208.592C207.97 199.508 207.349 197.958 206.831 196.408C206.209 194.859 205.692 193.309 205.07 191.759C203.827 188.763 202.17 185.87 200.409 183.08Z" fill="#282828"/>
<path d="M290.205 204.674C291.138 204.054 291.759 203.021 291.966 201.988C292.173 200.851 291.966 199.715 291.759 198.681C291.138 196.512 290.102 194.549 288.859 192.689C287.616 190.829 286.27 189.073 284.82 187.42C283.266 185.767 281.713 184.217 279.848 182.977H279.745C278.813 184.32 278.295 185.87 278.191 187.523C278.088 189.073 278.191 190.726 278.295 192.276C278.398 193.826 278.502 195.479 278.191 197.028C277.88 198.578 277.155 200.025 275.913 200.954C273.323 200.231 270.838 198.785 268.973 196.718C267.109 194.652 266.177 191.862 266.488 189.073C266.591 187.73 267.213 186.387 267.73 185.147C268.041 184.527 268.248 183.804 268.248 183.08C268.248 182.357 268.145 181.634 267.938 181.014C267.731 180.394 267.523 179.671 267.005 179.154C266.591 178.534 265.763 178.224 265.141 178.328C264.416 178.328 263.795 178.534 263.07 178.844C262.448 179.051 261.827 179.568 261.309 179.981C257.27 183.907 254.473 188.763 250.952 193.102C250.123 194.239 249.295 195.375 248.777 196.615C248.156 197.855 247.948 199.301 247.741 200.645C247.534 201.678 247.12 202.711 246.602 203.744C246.706 203.744 246.706 203.847 246.809 203.847C247.327 202.918 247.741 201.884 248.052 200.748C248.363 199.405 248.466 198.062 249.191 196.822C249.813 195.582 250.641 194.445 251.47 193.412C253.231 191.243 254.888 188.97 256.545 186.8C258.202 184.63 259.963 182.357 261.931 180.601C262.448 180.187 262.966 179.774 263.484 179.568C264.106 179.361 264.727 179.154 265.348 179.154C265.97 179.154 266.28 179.258 266.591 179.671C266.902 180.084 267.109 180.704 267.316 181.324C267.731 182.564 267.627 183.7 267.109 184.837C266.591 185.973 265.866 187.523 265.763 189.073C265.452 192.069 266.488 195.169 268.456 197.442C270.423 199.715 273.116 201.161 275.913 201.988C276.12 202.091 276.43 201.988 276.638 201.884C277.363 201.368 277.984 200.645 278.398 199.818C278.813 198.991 279.123 198.165 279.33 197.338C279.641 195.582 279.538 193.929 279.434 192.379C279.33 190.829 279.227 189.28 279.33 187.73C279.434 186.593 279.745 185.457 280.263 184.527C281.713 185.56 283.059 186.903 284.302 188.246C285.752 189.796 287.098 191.553 288.341 193.309C289.48 195.065 290.516 197.028 291.138 198.991C291.448 200.025 291.552 200.954 291.345 201.884C291.241 202.814 290.723 203.537 289.998 204.054C289.895 204.157 289.791 204.157 289.791 204.261C289.584 204.674 289.688 205.191 290.102 205.397C291.759 206.43 292.587 208.91 291.862 210.77C291.241 212.629 288.963 213.973 286.995 213.663C286.788 213.663 286.477 213.766 286.27 213.973C285.959 214.283 286.063 214.799 286.373 215.109C287.513 216.142 287.927 217.899 287.513 219.449C287.202 220.998 286.166 222.445 284.613 222.961C284.405 223.065 284.302 223.168 284.198 223.271C283.991 223.581 284.095 224.098 284.509 224.201C285.338 224.614 285.648 225.648 285.441 226.784C285.234 227.817 284.613 228.851 283.784 229.47C283.37 229.78 282.852 229.987 282.334 230.194C281.816 230.297 281.195 230.4 280.573 230.504C279.434 230.607 278.191 230.4 276.948 230.194C275.705 229.987 274.463 229.78 273.116 229.677C271.873 229.574 270.527 229.677 269.284 229.78C266.695 229.987 264.209 230.607 261.827 231.227C256.959 232.57 252.298 234.43 247.638 236.186C247.431 236.289 247.327 236.289 247.12 236.393C247.12 236.496 247.12 236.599 247.12 236.703C247.327 236.599 247.534 236.496 247.741 236.496C252.402 234.74 257.166 232.983 262.034 231.743C266.902 230.504 271.977 229.677 276.845 230.917C278.088 231.124 279.33 231.33 280.573 231.227C281.816 231.124 283.163 230.917 284.198 230.194C285.234 229.47 285.959 228.231 286.166 226.991C286.27 226.371 286.27 225.751 286.063 225.131C285.855 224.614 285.545 224.098 285.027 223.685C285.855 223.375 286.58 222.858 287.202 222.135C287.823 221.412 288.238 220.585 288.445 219.655C288.652 218.725 288.652 217.795 288.445 216.866C288.238 216.039 287.823 215.212 287.202 214.593C289.584 214.799 291.966 213.353 292.795 211.08C293.105 208.807 292.173 206.017 290.205 204.674Z" fill="#282828"/>
<path d="M241.838 238.253C238.938 239.389 236.038 240.422 233.034 241.352C233.034 241.352 233.034 241.352 233.034 241.455C233.034 241.455 233.034 241.455 233.138 241.455C236.038 240.629 238.938 239.596 241.838 238.459C241.838 238.356 241.838 238.253 241.838 238.253Z" fill="#282828"/>
<path d="M238.524 210.77L237.799 211.183L231.791 214.076L225.681 216.762L219.467 219.035C211.077 221.928 202.481 223.995 193.781 225.234C185.081 226.578 176.174 227.094 167.37 226.887L160.742 226.681L154.113 226.164L147.485 225.544L140.856 224.614H140.753V224.718C158.153 228.127 176.174 228.851 193.781 226.268C209.42 223.995 224.645 219.035 238.42 211.183C238.524 210.976 238.524 210.873 238.524 210.77Z" fill="#282828"/>
<path d="M96.4244 242.385C98.8065 248.274 102.017 253.957 106.471 258.296C108.749 260.466 111.235 262.429 113.928 263.979C116.621 265.529 119.521 266.975 122.524 267.698C128.531 269.248 134.953 269.041 141.167 268.112C147.485 267.182 153.699 265.942 159.913 264.599C166.128 263.256 172.238 261.602 178.349 259.743C184.46 257.883 190.363 255.713 196.37 253.544C202.377 251.374 208.384 249.101 214.392 247.035C220.399 244.968 226.509 243.108 232.62 241.352H232.724V241.455C226.613 243.418 220.606 245.381 214.599 247.551C208.592 249.721 202.688 251.994 196.681 254.267C190.674 256.54 184.667 258.71 178.66 260.569C172.549 262.429 166.438 264.185 160.12 265.529C153.906 266.872 147.588 268.112 141.271 268.938C134.953 269.765 128.428 270.075 122.214 268.422C119.106 267.595 116.206 266.045 113.514 264.495C110.821 262.842 108.231 260.879 106.056 258.606C101.603 254.164 98.5993 248.378 96.4244 242.385C96.3208 242.385 96.3208 242.385 96.4244 242.385C96.3208 242.385 96.4244 242.385 96.4244 242.385Z" fill="#282828"/>
<path d="M276.12 153.635C279.02 152.291 282.748 154.255 283.473 157.251C284.405 161.383 280.78 162.83 279.123 166.859C277.57 170.682 277.88 177.088 277.984 181.221C278.191 188.453 277.88 194.652 274.463 200.954C271.977 200.851 268.663 198.372 267.834 197.235C266.384 195.169 267.42 192.172 267.834 189.693C269.077 181.841 272.391 174.402 274.877 166.756C274.877 166.756 273.323 154.978 276.12 153.635Z" fill="#282828"/>
<path d="M277.156 170.062C278.088 170.269 279.02 170.476 279.848 170.269C280.781 170.062 281.609 169.546 281.816 168.616C279.227 167.583 273.634 166.136 270.838 166.859C266.695 168.099 276.12 169.856 277.156 170.062Z" fill="#282828"/>
<path d="M343.234 219.552C338.987 219.449 334.844 219.345 330.598 219.242C317.652 218.829 304.291 218.415 291.138 219.242H289.998C303.152 218.519 317.652 217.795 330.598 218.209C334.844 218.312 338.987 218.415 343.234 218.519V219.552Z" fill="#282828"/>
<path d="M246.499 246.311C254.266 241.249 262.241 236.186 270.009 231.02C270.216 230.814 270.32 230.504 270.113 230.297C269.906 230.09 269.595 229.987 269.388 230.194C261.827 235.256 254.163 240.216 246.602 245.071C246.499 245.485 246.499 245.898 246.499 246.311Z" fill="#282828"/>
<path d="M440.694 265.012C440.694 265.012 440.694 264.909 440.59 264.909C440.59 264.909 440.59 264.909 440.487 264.805C435.723 260.569 431.165 256.023 426.712 251.684C422.362 247.345 417.908 242.902 413.248 238.769C413.041 238.562 412.73 238.562 412.523 238.769C412.316 238.976 412.316 239.286 412.523 239.492C417.183 243.625 421.637 248.068 425.987 252.407C430.026 256.437 434.169 260.569 438.415 264.392C437.587 264.392 436.965 264.495 436.448 264.599C436.344 264.599 436.24 264.702 436.137 264.702C399.576 265.219 362.498 265.425 326.662 265.632C290.102 265.839 252.299 266.149 215.117 266.665C215.427 266.458 215.842 266.252 216.152 266.045C216.256 266.045 216.256 265.942 216.359 265.839C224.542 260.363 232.931 254.99 241.113 249.721C241.113 249.514 241.113 249.204 241.216 248.998C241.113 249.101 241.113 249.101 241.216 248.998V248.688C241.216 248.584 241.216 248.481 241.216 248.378C231.999 254.37 222.367 260.466 213.149 266.665C213.045 266.768 213.045 266.872 212.942 266.872V266.975C212.942 267.078 212.942 267.182 213.045 267.182C213.045 267.182 213.045 267.285 213.149 267.285C213.252 267.388 213.252 267.388 213.356 267.388H213.46C213.46 267.388 213.459 267.388 213.563 267.388C251.366 266.872 289.791 266.562 326.973 266.355C363.844 266.148 401.958 265.839 439.451 265.322C439.658 265.322 439.762 265.322 439.969 265.322H440.383C440.487 265.322 440.59 265.322 440.59 265.219C440.59 265.219 440.59 265.219 440.694 265.115C440.694 265.012 440.798 265.012 440.798 264.909V264.805C440.694 265.115 440.694 265.012 440.694 265.012Z" fill="#282828"/>
<path d="M263.484 231.02L246.706 240.939C246.706 241.042 246.706 241.145 246.706 241.145L263.484 231.02Z" fill="#282828"/>
<path d="M453.64 268.938C453.64 268.835 453.64 268.835 453.537 268.731C450.119 266.045 446.805 263.256 443.594 260.466L433.858 251.891L424.123 243.315C420.808 240.526 417.494 237.736 414.18 235.05C417.598 237.736 420.808 240.629 424.123 243.418L433.858 252.097L443.594 260.776C446.597 263.359 449.601 265.942 452.708 268.525C451.672 268.422 450.637 268.422 449.705 268.628C449.601 268.628 449.601 268.731 449.497 268.731L325.212 269.558L260.999 270.178L198.027 270.798L199.892 269.765C199.995 269.765 199.995 269.661 199.995 269.558L230.342 251.374L241.32 244.762C241.32 244.658 241.216 244.555 241.216 244.555L230.134 251.064L196.992 270.695L196.577 270.901C196.474 270.901 196.474 271.004 196.474 271.108C196.474 271.108 196.474 271.108 196.474 271.211V271.314C196.474 271.314 196.474 271.314 196.474 271.418L196.577 271.521C196.577 271.521 196.577 271.521 196.681 271.521C196.681 271.521 196.681 271.521 196.785 271.521L260.999 271.108L325.212 270.695L453.64 269.455C453.433 269.248 453.537 269.145 453.64 268.938C453.64 269.041 453.64 268.938 453.64 268.938Z" fill="#282828"/>
<path d="M202.688 202.091C204.552 201.884 206.313 201.781 208.177 201.678L213.667 201.368C217.291 201.161 221.02 201.161 224.645 200.954C228.27 200.954 231.895 200.748 235.624 200.748H241.113C242.977 200.851 244.738 200.748 246.602 200.851V200.954C239.249 201.368 231.999 201.678 224.645 201.884C217.291 202.091 210.042 202.091 202.688 202.091Z" fill="#282828"/>
<path d="M356.802 266.149L301.288 266.562L304.913 244.142L346.652 243.935L356.802 266.149Z" fill="#282828"/>
<path d="M440.176 265.115L400.301 266.045L389.219 244.142H418.426L440.176 265.115Z" fill="#282828"/>
<path d="M304.912 244.142H261.309L269.18 231.02L304.602 231.743L304.912 244.142Z" fill="#282828"/>
<path d="M389.219 244.142H346.134L346.237 240.939L350.173 240.629L357.63 235.876L361.048 239.906C361.048 239.906 364.569 243.212 371.198 243.108C375.237 243.108 384.144 238.666 384.144 238.666L389.219 244.142Z" fill="#282828"/>
<path d="M304.291 223.891L284.406 223.581L286.891 221.102L287.409 218.415H304.291V223.891Z" fill="#282828"/>
<path d="M310.609 238.562C308.641 237.943 314.13 231.33 316.202 231.02C322.623 230.09 320.241 226.887 320.966 220.378C321.691 213.973 322.416 208.187 321.795 199.095C319.102 198.991 316.305 199.715 316.72 197.132C317.237 194.239 319.309 194.962 322.105 194.032C317.652 192.172 315.995 185.56 319.102 181.841C322.209 178.121 327.387 178.534 329.977 182.667C332.566 186.8 330.08 193.102 325.316 194.342C328.112 194.755 332.359 193.929 332.462 196.822C332.462 197.855 327.18 198.888 327.18 199.921C326.662 208.29 327.595 218.519 327.18 223.375C326.766 228.334 326.973 229.057 331.634 230.607C334.016 231.433 336.191 234.843 336.709 237.323C337.33 240.525 312.059 238.976 310.609 238.562Z" fill="#282828"/>
<path d="M326.559 224.511L321.38 224.408C321.38 224.511 321.38 224.718 321.38 224.821C321.484 228.437 321.484 230.71 316.305 231.537C315.995 231.537 315.58 231.847 315.166 232.157L332.67 231.847C332.255 231.537 331.841 231.33 331.53 231.227C326.87 229.677 326.248 228.644 326.559 224.511Z" fill="#282828"/>
<path d="M328.63 224.511C328.32 228.334 328.734 228.851 332.877 230.194C333.705 230.504 334.534 231.02 335.259 231.847L339.919 231.743L340.127 224.924L328.63 224.511Z" fill="#282828"/>
<path d="M315.062 230.504C319.309 229.884 319.309 228.334 319.205 224.821C319.205 224.614 319.205 224.511 319.205 224.304L304.188 223.891L304.291 232.363L312.37 232.26C313.405 231.227 314.441 230.607 315.062 230.504Z" fill="#282828"/>
<path d="M248.984 244.142L246.499 245.795C246.291 249.824 246.602 250.547 250.331 251.891C252.299 252.614 254.059 255.92 254.577 258.296C255.095 261.293 234.07 259.846 232.931 259.329C231.274 258.71 235.934 252.407 237.592 252.097C240.181 251.684 241.009 250.651 241.32 249.101L213.356 267.182L254.784 266.975L262.863 243.315L248.984 244.142Z" fill="#282828"/>
<path d="M232.724 259.433C232.516 259.329 232.309 259.123 232.309 258.916C232.309 258.71 232.309 258.503 232.413 258.296C232.516 257.883 232.724 257.47 232.931 257.056C233.345 256.23 233.863 255.507 234.381 254.887C234.899 254.164 235.52 253.544 236.141 252.924C236.452 252.614 236.866 252.304 237.281 252.2C237.695 252.097 238.109 251.994 238.524 251.891C239.352 251.684 240.181 251.271 240.595 250.444C241.009 249.721 241.113 248.791 241.113 247.964C241.113 246.208 241.009 244.452 241.113 242.695C241.424 239.182 241.734 235.773 241.838 232.26C241.941 228.747 241.941 225.234 241.631 221.825L241.838 222.031C240.906 222.031 239.974 222.135 238.938 222.031C238.42 221.928 237.799 221.825 237.488 221.308C237.177 220.792 237.281 220.172 237.384 219.758C237.488 219.242 237.591 218.725 237.902 218.312C238.213 217.899 238.731 217.589 239.249 217.485C240.181 217.176 241.113 217.072 241.941 216.762V217.279C241.216 216.866 240.491 216.349 239.974 215.832C239.456 215.212 239.041 214.489 238.731 213.766C238.109 212.32 237.799 210.666 238.006 209.013C238.109 207.36 238.731 205.81 239.87 204.571C241.009 203.331 242.666 202.504 244.324 202.711C246.084 202.918 247.534 203.951 248.466 205.294C249.399 206.637 249.916 208.29 249.916 209.943C249.916 211.596 249.502 213.249 248.674 214.593C248.259 215.316 247.741 215.936 247.12 216.556C246.499 217.072 245.774 217.589 244.945 217.795L244.841 216.866C246.291 217.072 247.845 216.866 249.502 217.382C249.916 217.589 250.331 217.795 250.641 218.209C250.952 218.622 251.056 219.139 251.159 219.552V219.758C251.159 219.862 251.159 219.965 251.056 220.068C250.952 220.275 250.849 220.378 250.745 220.482C250.538 220.688 250.331 220.792 250.227 220.895C249.813 221.102 249.502 221.308 249.191 221.412C248.466 221.722 247.741 222.031 247.12 222.341C247.016 222.445 246.809 222.548 246.809 222.651C246.809 222.651 246.706 222.755 246.809 222.651C246.809 222.548 246.809 222.755 246.809 222.858L246.706 223.995C246.602 225.544 246.602 227.094 246.602 228.644C246.602 231.743 246.706 234.843 246.809 237.943C246.809 239.492 246.913 241.042 246.913 242.592C246.913 244.142 246.706 245.691 246.706 247.241C246.706 247.964 246.706 248.791 246.913 249.411C247.12 250.031 247.638 250.444 248.259 250.857C248.881 251.271 249.606 251.477 250.331 251.787C251.159 252.2 251.781 252.717 252.299 253.337C253.334 254.577 253.956 256.023 254.473 257.573C254.473 257.78 254.577 257.986 254.577 258.193L254.681 258.503C254.681 258.606 254.681 258.813 254.681 258.916C254.473 259.433 253.956 259.639 253.645 259.743C252.92 260.053 252.091 260.156 251.263 260.259C248.156 260.569 245.049 260.466 241.941 260.363C240.388 260.259 238.834 260.259 237.281 260.156C235.831 259.846 234.277 259.743 232.724 259.433ZM232.724 259.329C234.174 259.639 235.831 259.639 237.281 259.743C238.834 259.846 240.388 259.846 241.941 259.949C245.049 260.053 248.156 259.949 251.159 259.536C251.884 259.433 252.713 259.226 253.334 259.02C253.645 258.916 253.956 258.71 254.059 258.503V258.4L253.956 258.09C253.956 257.883 253.852 257.78 253.852 257.573C253.438 256.127 252.713 254.783 251.677 253.647C251.159 253.13 250.641 252.614 250.02 252.304C249.295 251.994 248.57 251.787 247.845 251.374C247.534 251.167 247.12 250.961 246.809 250.651C246.499 250.341 246.188 249.927 246.084 249.514C245.774 248.688 245.774 247.861 245.774 247.035C246.188 240.835 245.67 234.74 245.67 228.541C245.67 226.991 245.67 225.441 245.774 223.891L245.877 222.755C245.877 222.651 245.877 222.548 245.981 222.341C246.084 222.135 246.188 222.031 246.291 221.928C246.499 221.722 246.706 221.618 246.809 221.515C247.534 221.102 248.259 220.792 248.984 220.482C249.295 220.378 249.709 220.172 250.02 219.965C250.124 219.862 250.331 219.758 250.434 219.655C250.434 219.655 250.538 219.552 250.434 219.552V219.449C250.434 219.139 250.331 218.829 250.124 218.622C249.916 218.415 249.709 218.209 249.399 218.105C248.052 217.692 246.499 217.899 244.841 217.589L242.874 217.279L244.738 216.659C245.463 216.452 246.084 216.039 246.602 215.626C247.12 215.109 247.638 214.593 247.949 213.869C248.674 212.63 249.088 211.08 249.088 209.633C249.088 208.083 248.674 206.637 247.845 205.397C247.016 204.157 245.774 203.228 244.324 203.124C242.874 202.918 241.424 203.641 240.491 204.777C239.456 205.914 238.834 207.257 238.731 208.807C238.524 210.253 238.834 211.803 239.456 213.249C239.766 213.973 240.181 214.593 240.595 215.212C241.113 215.729 241.631 216.246 242.356 216.556L242.977 216.866L242.356 217.072C241.424 217.485 240.388 217.589 239.559 217.795C239.145 217.899 238.731 218.105 238.524 218.415C238.316 218.725 238.109 219.139 238.109 219.655C238.006 220.068 238.006 220.585 238.213 220.895C238.316 221.205 238.731 221.308 239.249 221.412C240.181 221.515 241.113 221.412 242.045 221.412H242.252V221.618C242.459 225.131 242.459 228.644 242.252 232.157C242.045 235.67 241.631 239.182 241.32 242.592C241.216 244.348 241.32 246.105 241.216 247.861C241.216 248.688 241.113 249.618 240.595 250.444C240.077 251.271 239.249 251.684 238.42 251.891C236.556 251.994 235.416 253.44 234.277 254.783C233.759 255.507 233.241 256.23 232.827 256.953C232.62 257.366 232.413 257.78 232.309 258.193C232.413 258.606 232.309 259.226 232.724 259.329Z" fill="#282828"/>
<path d="M395.226 201.574C382.073 201.471 368.816 201.471 355.455 201.368C341.68 201.471 327.802 201.471 313.923 201.574L293.105 201.884C290.413 202.091 313.923 203.021 313.923 203.021C327.698 203.124 341.577 203.124 355.455 203.228C368.609 203.124 381.969 203.124 395.226 203.021C395.226 202.608 395.226 202.194 395.226 201.574Z" fill="#282828"/>
<path d="M417.805 201.884L398.23 201.574C398.23 202.091 398.126 202.608 398.126 203.021L417.701 202.711C424.64 202.608 431.58 202.504 438.519 202.298C431.683 202.091 424.744 201.988 417.805 201.884Z" fill="#282828"/>
<path d="M390.255 210.047C389.944 209.943 390.048 209.53 390.048 209.323C390.151 209.117 390.255 208.807 390.359 208.6C390.566 208.187 390.876 207.67 391.187 207.257C391.498 206.844 391.809 206.43 392.223 206.12C392.43 205.914 392.637 205.81 392.948 205.707C393.259 205.604 393.466 205.604 393.673 205.501C394.191 205.397 394.605 205.087 394.812 204.674C395.019 204.261 395.019 203.744 395.019 203.331C395.019 202.298 394.916 201.264 394.916 200.231C395.019 198.165 395.226 196.099 395.33 194.135C395.434 192.069 395.434 190.106 395.33 188.04L395.744 188.453C395.226 188.453 394.709 188.453 394.087 188.453C393.776 188.453 393.362 188.35 393.155 187.833C392.948 187.42 393.051 187.11 393.051 186.8C393.155 186.49 393.155 186.18 393.466 185.87C393.673 185.56 393.984 185.353 394.294 185.353C394.916 185.25 395.433 185.147 395.951 184.94V185.457C395.019 185.043 394.398 184.217 394.087 183.287C393.776 182.357 393.569 181.427 393.673 180.497C393.776 179.568 394.191 178.638 394.812 177.914C395.434 177.191 396.366 176.675 397.401 176.778C398.437 176.881 399.266 177.501 399.783 178.224C400.405 178.948 400.716 179.981 400.612 180.911C400.612 181.841 400.405 182.874 399.887 183.7C399.369 184.527 398.644 185.353 397.608 185.663L397.505 184.94C398.333 185.043 399.266 184.94 400.301 185.25C400.612 185.353 400.819 185.457 401.026 185.767C401.233 186.077 401.337 186.387 401.337 186.593V186.697C401.337 186.8 401.337 186.903 401.337 186.903C401.233 187.007 401.233 187.11 401.13 187.213C401.026 187.316 400.923 187.42 400.819 187.523C400.612 187.626 400.405 187.73 400.198 187.833C399.783 188.04 399.369 188.246 399.058 188.35C398.955 188.35 398.955 188.453 398.851 188.453C398.851 188.35 398.851 188.453 398.851 188.453V189.073C398.851 190.003 398.851 190.829 398.851 191.759L398.955 197.132C398.955 198.062 398.955 198.991 398.955 199.818C398.955 200.748 398.851 201.678 398.851 202.504C398.851 202.918 398.851 203.331 398.955 203.641C399.058 203.951 399.266 204.157 399.576 204.364C399.887 204.571 400.301 204.777 400.716 204.881C401.233 205.087 401.648 205.501 401.958 205.914C402.58 206.74 402.994 207.567 403.201 208.497C403.201 208.6 403.305 208.703 403.305 208.807V209.013C403.305 209.117 403.305 209.22 403.305 209.323C403.098 209.737 402.787 209.84 402.58 209.943C402.062 210.15 401.648 210.15 401.13 210.253C399.266 210.46 397.505 210.356 395.641 210.253C393.88 210.46 392.016 210.46 390.255 210.047ZM390.255 210.047C393.776 210.46 397.505 210.563 401.026 210.047C401.441 209.943 401.855 209.84 402.269 209.737C402.683 209.53 402.58 209.633 402.476 209.117C402.166 208.29 401.751 207.567 401.233 206.947C400.923 206.637 400.612 206.327 400.301 206.224C399.887 206.017 399.473 205.914 398.955 205.707C398.541 205.501 398.023 205.087 397.816 204.467C397.608 203.951 397.608 203.434 397.608 202.918C397.919 199.301 397.505 195.685 397.608 192.069C397.608 191.139 397.608 190.209 397.712 189.383V188.66C397.712 188.556 397.712 188.556 397.712 188.35C397.816 188.143 397.816 188.143 397.919 188.04C398.023 187.936 398.126 187.833 398.333 187.73C398.748 187.42 399.266 187.316 399.576 187.11C399.783 187.007 399.991 186.903 400.094 186.8C400.198 186.8 400.198 186.697 400.301 186.697V186.8V186.697C400.301 186.387 400.198 186.18 399.783 186.077C399.058 185.87 398.126 185.87 397.194 185.767L395.433 185.457L397.194 184.94C398.748 184.527 399.783 182.667 399.783 180.911C399.783 180.084 399.576 179.154 399.058 178.431C398.541 177.708 397.816 177.191 396.987 177.088C396.158 176.985 395.226 177.398 394.709 178.018C394.087 178.638 393.776 179.568 393.673 180.394C393.569 181.324 393.776 182.151 394.087 182.977C394.398 183.804 395.019 184.424 395.848 184.837L396.366 185.043L395.848 185.25C395.33 185.457 394.709 185.56 394.191 185.767C393.673 185.87 393.569 186.283 393.466 186.8C393.466 187.007 393.466 187.316 393.466 187.42C393.466 187.523 393.673 187.523 393.88 187.626C394.398 187.626 394.916 187.626 395.537 187.626H395.951V188.04C396.055 190.106 396.158 192.172 396.055 194.239C395.951 196.305 395.744 198.372 395.433 200.335C395.33 201.368 395.33 202.298 395.33 203.434C395.33 203.951 395.226 204.467 394.916 204.984C394.605 205.501 394.087 205.707 393.569 205.914C393.362 206.017 393.051 206.017 392.844 206.12C392.637 206.224 392.43 206.327 392.223 206.534C391.809 206.844 391.498 207.257 391.187 207.67C390.876 208.083 390.566 208.497 390.359 208.91C390.255 209.117 390.151 209.323 390.048 209.633C390.048 209.633 390.048 209.943 390.255 210.047Z" fill="#282828"/>
</g>
<defs>
<clipPath id="clip0">
<rect width="641" height="302" fill="white"/>
</clipPath>
</defs>
</svg>
