<svg width="526" height="220" viewBox="0 0 526 220" fill="none" xmlns="http://www.w3.org/2000/svg">
<path d="M480.752 91.7896C480.102 90.9395 479.532 90.0396 478.962 89.1294C467.972 71.8496 419.952 80.0396 419.952 80.0396C414.522 121.699 405.072 116.79 403.322 114.169C401.572 111.55 398.412 85.8196 396.322 82.3196C390.282 81.7896 377.942 81.8794 377.942 81.8794C366.032 82.1597 354.832 92.6397 343.812 109.709C332.792 126.77 313.362 141.209 313.362 141.209C313.362 141.209 319.132 141.739 321.232 154.34C322.522 154.739 326.392 153.03 329.212 151.649C331.728 150.419 334.534 149.903 337.322 150.16C341.862 150.58 348.392 152.03 353.612 156.969C354.254 157.568 354.936 158.123 355.652 158.629C356.312 158.26 356.682 158.01 356.682 158.01C367.442 153.55 373.742 138.06 373.742 138.06C372.87 136.112 372.361 134.021 372.242 131.89C372.072 129.768 372.102 127.635 372.332 125.52C372.562 123.449 372.722 121.399 372.782 119.34C372.887 117.262 372.797 115.18 372.513 113.12C373.37 115.077 373.858 117.175 373.952 119.31C374.099 121.429 374.056 123.558 373.822 125.669C373.592 127.73 373.462 129.78 373.412 131.85C373.338 133.925 373.449 136.003 373.743 138.06C374.346 143.587 375.653 149.014 377.632 154.21C380.475 155.152 383.407 155.798 386.382 156.14C387.846 156.306 389.321 156.353 390.792 156.28C392.3 156.196 393.801 156.035 395.292 155.8C393.947 156.606 392.466 157.161 390.922 157.439C390.15 157.589 389.368 157.682 388.582 157.719C387.795 157.73 387.007 157.7 386.222 157.629C384.661 157.46 383.129 157.09 381.662 156.53C380.2 155.985 378.838 155.201 377.632 154.209C378.475 156.522 379.593 158.725 380.962 160.77C388.38 161.197 395.65 163.019 402.392 166.14C404.102 166.93 405.672 167.99 407.252 168.77C408.861 169.572 410.546 170.212 412.282 170.68C415.778 171.631 419.38 172.141 423.002 172.199C424.842 172.26 426.592 172.16 428.492 172.1C430.36 172.079 432.226 172.169 434.082 172.37C437.763 172.75 441.432 173.169 445.072 173.81C446.462 174.05 447.842 174.31 449.222 174.58C448.583 173.711 448.033 172.78 447.582 171.8C446.88 170.323 446.353 168.769 446.013 167.169C445.663 165.571 445.452 163.945 445.382 162.31C445.292 160.661 445.355 159.007 445.572 157.37L445.582 157.32L445.602 157.25C446.151 155.475 446.49 153.643 446.612 151.79C446.767 149.91 446.787 148.022 446.672 146.14C446.542 144.255 446.312 142.379 445.982 140.52C445.622 138.689 445.142 136.78 444.882 134.85C444.358 131.003 444.238 127.112 444.523 123.24C444.622 121.31 444.822 119.379 445.112 117.48C445.379 115.572 445.743 113.68 446.202 111.81C445.728 115.612 445.468 119.438 445.422 123.27C445.367 127.073 445.645 130.874 446.253 134.629C446.382 135.57 446.612 136.49 446.802 137.41L447.422 140.25C447.791 142.168 448.035 144.109 448.152 146.06C448.448 149.969 447.997 153.899 446.822 157.64C446.574 159.177 446.447 160.732 446.442 162.29C446.431 163.874 446.555 165.456 446.812 167.02C447.064 168.588 447.466 170.128 448.013 171.62C448.398 172.667 448.883 173.675 449.463 174.629C451.632 175.07 453.782 175.57 455.912 176.16C459.494 177.096 462.936 178.498 466.152 180.33C462.829 178.766 459.331 177.605 455.733 176.87C453.882 176.439 452.019 176.066 450.142 175.75C450.137 175.744 450.13 175.741 450.122 175.74C448.393 175.44 446.652 175.18 444.902 174.95C441.263 174.48 437.612 174.07 433.963 173.78C432.154 173.61 430.338 173.54 428.523 173.57C426.753 173.629 424.813 173.76 422.973 173.7C419.223 173.623 415.5 173.065 411.893 172.04C410.082 171.51 408.327 170.807 406.652 169.939C405.812 169.53 404.993 168.979 404.223 168.53C403.453 168.06 402.683 167.57 401.872 167.169C398.639 165.472 395.233 164.124 391.713 163.149C388.192 162.095 384.599 161.299 380.963 160.77L372.693 161.56C372.948 161.911 373.135 162.308 373.243 162.73C375.372 169.62 372.303 196.61 372.303 196.61C384.112 205.27 449.483 218.66 449.483 218.66C491.622 225.75 492.013 188.33 492.013 188.33C499.552 121.18 484.732 96.9495 480.752 91.7896ZM428.022 160.24C427.25 160.389 426.468 160.482 425.682 160.52C424.895 160.53 424.107 160.5 423.322 160.43C421.761 160.26 420.229 159.89 418.762 159.33C417.3 158.785 415.938 158.001 414.732 157.01C417.575 157.952 420.507 158.598 423.482 158.939C424.946 159.106 426.421 159.153 427.892 159.08C429.399 158.996 430.901 158.835 432.392 158.6C431.047 159.406 429.566 159.961 428.022 160.24V160.24Z" fill="#282828"/>
<path d="M396.234 82.3667C395.946 81.9326 395.626 81.5207 395.276 81.1348C394.928 80.7552 394.545 80.4085 394.132 80.0992C393.723 79.7967 393.281 79.5408 392.815 79.3362C392.366 79.135 391.889 79.0058 391.4 78.9534L391.556 78.9229C390.552 79.4059 389.491 79.7603 388.399 79.9776C387.289 80.2167 386.146 80.2542 385.024 80.0882C383.858 79.9156 382.759 79.4356 381.84 78.6973C380.995 77.941 380.254 77.0764 379.636 76.126C378.429 74.2965 377.355 72.3823 376.424 70.3982C375.485 68.428 374.641 66.4361 373.854 64.3894L374.662 64.9231C373.73 65.0178 372.79 64.8749 371.929 64.5078C371.427 64.2723 371.004 63.8971 370.709 63.4273C370.438 62.9732 370.277 62.4622 370.237 61.9348C370.19 61.0308 370.319 60.1262 370.616 59.271C370.876 58.4552 371.22 57.6683 371.642 56.9226C372.432 55.7662 372.803 54.3741 372.693 52.9776C372.63 52.2977 372.443 51.6352 372.141 51.0227L371.596 50.0022C371.407 49.6404 371.224 49.2725 371.054 48.8962C370.7 48.1433 370.418 47.3586 370.212 46.5527C369.986 45.7681 369.804 44.9717 369.665 44.1672C369.491 43.3689 369.437 42.5508 369.337 41.7419C369.305 40.9255 369.255 40.1111 369.299 39.2956C369.367 36.0163 370.17 32.794 371.648 29.866C371.699 29.7674 371.777 29.6855 371.873 29.6297C371.969 29.5739 372.079 29.5465 372.19 29.5507C372.301 29.555 372.409 29.5907 372.5 29.6537C372.592 29.7166 372.663 29.8043 372.707 29.9065L372.716 29.9287C373.937 32.7469 375.494 35.4067 377.355 37.8498C379.208 40.3168 381.434 42.4803 383.952 44.2627C386.464 46.0493 389.333 47.2707 392.361 47.8428C395.385 48.4002 398.492 48.3169 401.481 47.5984L401.503 47.5935C401.573 47.5776 401.646 47.582 401.714 47.6062C401.782 47.6305 401.842 47.6736 401.886 47.7305C403.093 49.3911 403.933 51.2888 404.352 53.2981C404.797 55.261 405.025 57.267 405.03 59.2798C405.041 61.2831 404.898 63.2842 404.603 65.2657C404.251 67.1468 404.119 69.0624 404.208 70.9742C404.299 72.8217 404.798 74.6261 405.671 76.2569C406.542 77.8279 407.874 79.0945 409.486 79.8863C411.13 80.653 412.945 80.9759 414.753 80.8228C416.604 80.6732 418.416 80.2067 420.11 79.4436C420.273 79.3728 420.452 79.3463 420.629 79.3668C420.806 79.3872 420.974 79.454 421.117 79.5602C421.259 79.6665 421.371 79.8085 421.441 79.9719C421.512 80.1353 421.538 80.3144 421.516 80.491L421.515 80.5039C420.78 86.8775 419.639 93.1976 418.097 99.4253C417.298 102.569 416.247 105.643 414.956 108.618C414.293 110.138 413.478 111.587 412.525 112.943C412.026 113.643 411.46 114.291 410.836 114.881C410.187 115.516 409.425 116.025 408.588 116.379C407.692 116.763 406.702 116.873 405.744 116.692C404.795 116.498 403.923 116.032 403.233 115.353C402.864 115.003 402.57 114.583 402.368 114.117C402.207 113.715 402.07 113.303 401.959 112.884C401.734 112.084 401.565 111.298 401.396 110.509C400.736 107.361 400.282 104.206 399.779 101.058L398.298 91.6225C398.044 90.0522 397.778 88.4843 397.471 86.9265C397.222 85.367 396.807 83.8384 396.234 82.3667L396.228 82.3525C396.217 82.3291 396.216 82.3023 396.225 82.278C396.233 82.2537 396.251 82.2336 396.274 82.2221C396.297 82.2106 396.324 82.2085 396.348 82.2162C396.373 82.224 396.394 82.241 396.406 82.2636C397.103 83.7141 397.627 85.2412 397.967 86.8137C398.364 88.362 398.719 89.9187 399.062 91.4768C399.755 94.5922 400.339 97.726 400.966 100.848C401.581 103.971 402.218 107.094 402.92 110.169C403.102 110.933 403.289 111.7 403.514 112.429C403.616 112.777 403.738 113.119 403.88 113.453C404.003 113.716 404.18 113.95 404.398 114.142C404.852 114.581 405.429 114.872 406.053 114.976C406.676 115.079 407.316 114.989 407.888 114.719C409.148 114.046 410.206 113.051 410.955 111.835C411.795 110.558 412.517 109.206 413.111 107.798C414.322 104.912 415.3 101.934 416.036 98.8913C417.523 92.7409 418.681 86.5158 419.507 80.2424L420.911 81.3027C418.995 82.1325 416.951 82.6262 414.867 82.7622C412.728 82.9082 410.588 82.4915 408.66 81.5537C406.722 80.5778 405.136 79.022 404.124 77.103C403.171 75.2292 402.647 73.1668 402.59 71.0654C402.537 69.0393 402.726 67.0141 403.153 65.0327C403.51 63.1307 403.72 61.2042 403.783 59.27C403.853 57.343 403.705 55.4142 403.341 53.5207C403.012 51.6527 402.303 49.8723 401.256 48.2905L401.66 48.4223C398.553 49.066 395.35 49.093 392.233 48.5017C390.68 48.1987 389.168 47.7187 387.725 47.0713C386.278 46.442 384.895 45.6748 383.596 44.7803C381.008 42.9784 378.691 40.8143 376.718 38.3543C374.7 35.9162 372.987 33.2407 371.617 30.3873L372.686 30.45C371.431 33.2344 370.808 36.2618 370.861 39.3152C370.867 40.8387 371.026 42.3577 371.336 43.8492C371.481 44.5963 371.667 45.3349 371.893 46.0616C372.093 46.7806 372.353 47.4814 372.67 48.1568C372.827 48.4979 372.997 48.836 373.174 49.1724C373.352 49.5179 373.534 49.8128 373.747 50.2366C374.147 51.0413 374.396 51.9122 374.483 52.8065C374.619 54.5847 374.147 56.3563 373.144 57.8311C372.406 59.0234 371.991 60.3874 371.94 61.7889C371.936 62.0415 372.003 62.2902 372.134 62.5063C372.265 62.7225 372.454 62.8974 372.679 63.011C373.277 63.2599 373.927 63.3598 374.572 63.3021L374.583 63.3016C374.756 63.2939 374.926 63.3417 375.07 63.4379C375.213 63.5341 375.322 63.6737 375.38 63.8362C376.096 65.8336 376.904 67.8304 377.765 69.7808C378.595 71.737 379.564 73.631 380.666 75.4481C381.191 76.3296 381.83 77.1389 382.565 77.8555C383.316 78.5011 384.225 78.9357 385.199 79.1151C387.258 79.4421 389.367 79.1792 391.283 78.3568L391.324 78.3401C391.361 78.3255 391.4 78.3206 391.439 78.326C391.999 78.4117 392.54 78.5891 393.041 78.8509C393.529 79.0996 393.987 79.4021 394.407 79.7527C394.816 80.1066 395.19 80.4996 395.523 80.9261C395.85 81.349 396.146 81.7962 396.406 82.2637C396.413 82.2751 396.417 82.2877 396.418 82.3007C396.42 82.3137 396.419 82.3269 396.416 82.3396C396.412 82.3523 396.407 82.3642 396.399 82.3746C396.391 82.385 396.381 82.3937 396.369 82.4002C396.346 82.4122 396.32 82.4154 396.295 82.4092C396.27 82.403 396.249 82.3879 396.234 82.3667Z" fill="#282828"/>
<path d="M372.566 63.8765C372.362 65.467 372.149 67.0447 371.983 68.6248C371.826 70.2053 371.674 71.7822 371.626 73.3589C371.548 74.9263 371.613 76.4976 371.82 78.0532C371.923 78.8237 372.129 79.5767 372.435 80.2912C372.722 81.0247 373.2 81.6681 373.82 82.1548C373.087 81.7778 372.482 81.192 372.082 80.4714C371.686 79.7499 371.392 78.9767 371.21 78.174C370.867 76.5835 370.736 74.9549 370.818 73.33C370.883 71.7203 371.068 70.1176 371.369 68.5351C371.651 66.9544 372.051 65.3972 372.566 63.8765Z" fill="#282828"/>
<path d="M372.085 30.2154C371.879 29.8562 371.748 29.4588 371.701 29.0475C371.654 28.6362 371.691 28.2195 371.81 27.823L371.975 27.2278L372.233 26.6761C372.323 26.4937 372.405 26.3037 372.503 26.1261L372.843 25.6256C373.294 24.9578 373.805 24.3328 374.37 23.7584C374.943 23.2025 375.552 22.69 376.15 22.1576C378.672 20.2505 381.373 18.5926 384.215 17.2071C385.633 16.534 387.067 15.8902 388.5 15.2501C389.949 14.6551 391.408 14.0807 392.869 13.516C394.334 12.9796 395.822 12.5165 397.301 12.0253C398.05 11.8002 398.771 11.5446 399.571 11.3234C400.347 11.115 401.133 10.9478 401.926 10.8224C405.076 10.3041 408.298 10.4354 411.396 11.2081C414.481 11.9855 417.333 13.4963 419.709 15.6121C422.053 17.7603 423.984 20.3193 425.408 23.1627C426.837 25.9943 427.93 28.9837 428.663 32.0697L428.678 32.1526C429.45 36.3879 430.809 40.4948 432.715 44.3548C433.656 46.2808 434.745 48.1305 435.973 49.8873C437.181 51.6475 438.545 53.2957 440.048 54.8121L442.426 57.0147C443.282 57.7632 444.086 58.5685 444.833 59.4251C446.363 61.1149 447.624 63.0289 448.574 65.1004C450.544 69.1936 451.036 73.8421 449.969 78.2572C449.962 78.2817 449.947 78.3029 449.925 78.3163C449.904 78.3298 449.878 78.3345 449.853 78.3295C449.828 78.3245 449.806 78.3102 449.791 78.2895C449.776 78.2688 449.77 78.2433 449.774 78.2181L449.775 78.2069C450.056 76.0512 449.969 73.8635 449.518 71.7369C449.109 69.6304 448.368 67.6024 447.322 65.7288C446.809 64.7975 446.237 63.8993 445.61 63.0398C444.968 62.1922 444.271 61.3873 443.524 60.6301C442.794 59.8553 442.013 59.1311 441.185 58.4624L438.644 56.2627C435.381 53.1107 432.731 49.3797 430.831 45.2598C429.885 43.2198 429.084 41.1155 428.435 38.9624C427.762 36.8081 427.272 34.6005 426.971 32.3635L426.986 32.446C426.388 29.4437 425.495 26.5076 424.321 23.6804C423.145 20.8489 421.42 18.2787 419.244 16.1184C418.125 15.0739 416.879 14.1738 415.536 13.4392C414.183 12.7211 412.736 12.195 411.238 11.876C408.239 11.278 405.144 11.3517 402.176 12.0918C401.44 12.2618 400.715 12.4704 400.001 12.7168C399.315 12.9583 398.587 13.2727 397.862 13.5484L393.495 15.1826C392.061 15.7603 390.624 16.3281 389.177 16.8755L384.926 18.7029C382.126 19.9588 379.427 21.4278 376.852 23.0969C376.251 23.5549 375.628 23.9987 375.044 24.4812C374.471 24.9693 373.938 25.5014 373.448 26.0727L373.082 26.5027C372.976 26.6545 372.887 26.8159 372.787 26.9729L372.496 27.4504L372.294 27.9633C372.006 28.6432 371.989 29.4081 372.248 30.0998L372.258 30.1208C372.268 30.1435 372.27 30.1694 372.262 30.1931C372.254 30.2168 372.237 30.2366 372.215 30.2486C372.193 30.2606 372.168 30.2638 372.144 30.2576C372.119 30.2515 372.098 30.2363 372.085 30.2153V30.2154Z" fill="#282828"/>
<path d="M374.559 49.5371C375.942 48.5426 377.451 47.7362 379.047 47.1392C379.845 46.8325 380.664 46.5866 381.499 46.4033C382.338 46.1905 383.213 46.1502 384.068 46.2849C383.251 46.4616 382.449 46.7044 381.671 47.0108L379.335 47.8948C377.772 48.482 376.212 49.0872 374.559 49.5371Z" fill="#282828"/>
<path d="M378.934 55.1262C379.249 55.1153 379.547 54.9826 379.766 54.7561C379.985 54.5297 380.107 54.2271 380.107 53.9122C380.107 53.5973 379.985 53.2947 379.766 53.0682C379.547 52.8418 379.249 52.7091 378.934 52.6982C378.62 52.7091 378.321 52.8418 378.103 53.0682C377.884 53.2947 377.761 53.5973 377.761 53.9122C377.761 54.2271 377.884 54.5297 378.103 54.7561C378.321 54.9826 378.62 55.1153 378.934 55.1262Z" fill="#282828"/>
<path d="M376.977 69.8335C377.585 69.8525 378.194 69.8356 378.801 69.783C379.393 69.729 379.976 69.6575 380.555 69.5471C381.133 69.4346 381.71 69.3054 382.288 69.147C382.868 68.9907 383.45 68.8184 384.068 68.6636C383.608 69.1004 383.083 69.4629 382.511 69.738C381.937 70.0176 381.329 70.2208 380.702 70.3425C379.439 70.6149 378.12 70.4347 376.977 69.8335Z" fill="#282828"/>
<path d="M372.472 193.024C369.466 191.917 366.374 191.054 363.228 190.446C360.131 189.815 356.95 189.714 353.819 190.146L352.667 190.34L351.541 190.646C350.794 190.854 350.061 191.107 349.344 191.403C347.911 192.02 346.537 192.766 345.239 193.632C343.917 194.499 342.662 195.492 341.186 196.349C339.707 197.179 338.116 197.79 336.462 198.163C334.819 198.553 333.133 198.723 331.445 198.669C329.678 198.671 327.936 198.248 326.366 197.437C325.933 197.173 325.547 196.838 325.223 196.447C324.933 196.091 324.754 195.831 324.501 195.54C324.024 194.991 323.473 194.513 322.863 194.119C321.522 193.34 320.106 192.697 318.636 192.201C317.05 191.698 315.529 191.008 314.106 190.146C313.385 189.659 312.751 189.053 312.231 188.355C311.976 188.026 311.747 187.711 311.501 187.42C311.381 187.269 311.253 187.14 311.124 186.994C310.983 186.827 310.821 186.66 310.701 186.492C309.746 185.167 308.869 183.788 308.075 182.361C307.272 180.957 306.472 179.559 305.705 178.136L305.939 178.309L303.88 177.86C303.169 177.738 302.471 177.547 301.796 177.289C300.444 176.724 299.257 175.826 298.345 174.678C297.846 174.104 297.504 173.411 297.351 172.665C297.292 172.273 297.317 171.872 297.424 171.49C297.531 171.108 297.718 170.752 297.972 170.447C298.458 169.874 299.053 169.403 299.722 169.061C300.391 168.719 301.122 168.513 301.871 168.455C302.595 168.414 303.322 168.443 304.041 168.544L306.136 168.695C307.535 168.783 308.933 168.849 310.333 168.892C313.13 168.978 315.93 168.958 318.711 168.784C321.472 168.641 324.216 168.257 326.91 167.635C328.213 167.326 329.474 166.864 330.669 166.259C331.229 165.967 331.75 165.605 332.22 165.183C332.692 164.751 333.12 164.273 333.499 163.757C333.816 163.399 334.014 162.95 334.065 162.475C334.049 162.372 334.032 162.332 333.9 162.218C333.704 162.093 333.489 161.997 333.264 161.936C332.014 161.682 330.727 161.665 329.47 161.884C328.827 161.974 328.193 162.113 327.572 162.301C327.319 162.376 327.074 162.479 326.844 162.608L326.628 162.748C326.534 162.813 326.439 162.866 326.344 162.92C326.158 163.024 325.966 163.117 325.769 163.198C325.035 163.49 324.268 163.689 323.485 163.791C323.109 163.844 322.735 163.882 322.362 163.908C321.931 163.947 321.496 163.931 321.068 163.86C320.163 163.707 319.325 163.283 318.665 162.646C318.036 162.015 317.58 161.234 317.341 160.376C316.922 158.732 317.143 156.99 317.959 155.503C318.364 154.674 319.004 153.982 319.8 153.515C320.065 153.375 320.353 153.281 320.65 153.24C320.824 153.217 321 153.215 321.174 153.235C321.264 153.245 321.354 153.262 321.442 153.284L321.555 153.314L321.568 153.312C321.773 153.332 321.979 153.319 322.179 153.273C323.465 152.978 324.719 152.556 325.923 152.014C326.555 151.745 327.186 151.464 327.814 151.17L328.753 150.725C329.091 150.564 329.433 150.413 329.782 150.27C331.175 149.712 332.64 149.351 334.134 149.199C335.611 149.066 337.098 149.117 338.562 149.352C339.993 149.548 341.41 149.835 342.805 150.212C345.614 150.952 348.284 152.141 350.713 153.733C351.918 154.541 353.046 155.458 354.082 156.472C355.083 157.393 356.153 158.236 357.283 158.992C362.104 161.803 367.67 163.072 373.233 162.629L373.242 162.628C373.268 162.627 373.293 162.635 373.313 162.652C373.332 162.669 373.345 162.693 373.347 162.718C373.35 162.744 373.342 162.77 373.326 162.79C373.31 162.81 373.287 162.824 373.261 162.827C367.574 163.7 361.757 162.708 356.68 159.998C355.438 159.248 354.257 158.4 353.149 157.463C350.079 154.736 346.37 152.829 342.366 151.918C341.037 151.598 339.689 151.363 338.33 151.215C337.011 151.036 335.674 151.024 334.351 151.18C333.047 151.333 331.769 151.666 330.556 152.168C330.254 152.296 329.957 152.432 329.662 152.577L328.702 153.046C328.06 153.355 327.411 153.655 326.755 153.945C325.404 154.58 323.988 155.063 322.531 155.386C322.042 155.489 321.538 155.489 321.049 155.388L320.932 155.361C320.894 155.352 320.925 155.36 320.918 155.358L320.928 155.36C320.933 155.361 320.934 155.359 320.926 155.36C320.875 155.37 320.826 155.389 320.78 155.414C320.374 155.689 320.049 156.069 319.839 156.512C319.284 157.514 319.123 158.687 319.387 159.802C319.525 160.305 319.782 160.768 320.138 161.15C320.491 161.501 320.942 161.736 321.431 161.826C321.697 161.874 321.968 161.886 322.237 161.861C322.566 161.844 322.891 161.816 323.212 161.775C323.825 161.707 324.428 161.563 325.006 161.346C325.135 161.297 325.261 161.238 325.382 161.172C325.44 161.143 325.496 161.111 325.551 161.075L325.779 160.931C326.159 160.712 326.565 160.54 326.987 160.42C327.714 160.21 328.457 160.058 329.208 159.964C330.732 159.725 332.287 159.784 333.789 160.138C334.24 160.269 334.666 160.478 335.045 160.756C335.282 160.939 335.479 161.168 335.625 161.429C335.771 161.691 335.863 161.979 335.895 162.276C335.936 162.789 335.835 163.303 335.605 163.764C335.432 164.143 335.214 164.5 334.957 164.828C334.495 165.438 333.968 165.998 333.388 166.497C332.798 167.001 332.148 167.428 331.453 167.77C330.122 168.404 328.72 168.878 327.278 169.181C324.476 169.758 321.625 170.059 318.765 170.078C315.929 170.137 313.103 170.041 310.287 169.861C308.879 169.769 307.473 169.653 306.07 169.513L303.967 169.288C303.295 169.184 302.614 169.145 301.934 169.173C301.278 169.214 300.636 169.385 300.046 169.674C299.455 169.964 298.928 170.367 298.493 170.86C298.291 171.093 298.141 171.365 298.052 171.66C297.964 171.955 297.94 172.265 297.981 172.57C298.111 173.208 298.4 173.803 298.823 174.298C299.662 175.367 300.769 176.197 302.03 176.703C302.672 176.941 303.335 177.115 304.011 177.222L306.08 177.626C306.128 177.635 306.172 177.654 306.212 177.682C306.251 177.709 306.284 177.745 306.308 177.787L306.315 177.798C307.863 180.59 309.602 183.272 311.52 185.824C311.641 185.98 311.769 186.093 311.892 186.23C312.036 186.379 312.197 186.531 312.335 186.689C312.623 187.001 312.882 187.327 313.133 187.623C313.601 188.201 314.163 188.695 314.796 189.084C316.166 189.827 317.618 190.407 319.123 190.812C320.728 191.274 322.278 191.911 323.746 192.71C324.501 193.173 325.187 193.741 325.783 194.396C326.067 194.703 326.361 195.097 326.587 195.356C326.789 195.576 327.021 195.765 327.278 195.917C328.593 196.561 330.041 196.888 331.506 196.875C333.04 196.923 334.575 196.78 336.074 196.448C337.568 196.129 339.009 195.595 340.35 194.862C341.665 194.113 342.983 193.155 344.368 192.282C345.77 191.392 347.25 190.633 348.791 190.014C349.575 189.728 350.375 189.488 351.187 189.296L352.404 189.02L353.64 188.862C356.913 188.528 360.22 188.775 363.408 189.591C366.549 190.386 369.61 191.474 372.549 192.839C372.572 192.849 372.591 192.868 372.601 192.892C372.611 192.915 372.611 192.942 372.602 192.966C372.593 192.99 372.575 193.009 372.552 193.021C372.529 193.032 372.502 193.033 372.478 193.025L372.472 193.024Z" fill="#282828"/>
<path d="M306.007 177.967C307.955 177.8 309.902 177.721 311.849 177.657C313.797 177.583 315.744 177.572 317.691 177.562L320.612 177.583C321.616 177.583 322.615 177.721 323.581 177.993C325.431 178.65 327.234 179.43 328.979 180.329C328.039 180.06 327.118 179.742 326.187 179.45C325.289 179.104 324.369 178.82 323.432 178.597C322.505 178.406 321.559 178.323 320.612 178.35L317.691 178.371C315.744 178.361 313.797 178.35 311.849 178.276C309.902 178.212 307.955 178.133 306.007 177.967Z" fill="#282828"/>
<path d="M306.997 179.708C308.306 180.717 309.557 181.794 310.8 182.881C311.443 183.404 312.014 184.02 312.64 184.455C313.271 184.909 313.979 185.247 314.729 185.452C315.452 185.669 316.289 185.702 317.114 185.855C317.935 185.991 318.75 186.169 319.553 186.388C321.197 186.733 322.725 187.494 323.991 188.599C323.311 188.146 322.564 187.803 321.778 187.58C321.003 187.332 320.213 187.137 319.412 186.995C318.61 186.856 317.809 186.711 316.999 186.613C316.163 186.533 315.332 186.406 314.511 186.231C313.671 185.991 312.883 185.597 312.187 185.07C311.545 184.527 310.938 183.945 310.369 183.327C309.22 182.15 308.08 180.962 306.997 179.708Z" fill="#282828"/>
<path d="M288.594 153.818C287.949 152.51 287.16 151.279 286.244 150.145L286.398 150.246C284.864 150.004 283.434 149.319 282.286 148.273C281.688 147.668 281.319 146.873 281.244 146.025C281.206 145.604 281.225 145.18 281.3 144.764C281.402 144.368 281.526 143.978 281.671 143.595C282.371 142.104 283.604 140.928 285.127 140.3C285.889 139.938 286.719 139.739 287.562 139.717C288.471 139.712 289.358 139.991 290.101 140.515L288.785 140.935C288.986 140.39 289.261 139.876 289.603 139.406C289.927 138.946 290.306 138.528 290.732 138.16C291.593 137.425 292.614 136.902 293.714 136.635C294.776 136.38 295.876 136.323 296.959 136.467L297.732 136.566C298.033 136.611 298.33 136.684 298.617 136.785C299.151 136.967 299.663 137.209 300.143 137.506C301.955 138.677 303.404 140.331 304.328 142.281C305.234 144.127 305.893 146.085 306.29 148.103L304.403 148.219C304.566 146.935 304.953 145.689 305.545 144.538C306.135 143.352 307.015 142.334 308.102 141.578C309.214 140.85 310.507 140.449 311.834 140.421C312.152 140.408 312.469 140.417 312.785 140.449L313.258 140.479C313.443 140.487 313.626 140.517 313.804 140.568C314.443 140.758 315.045 141.052 315.588 141.438C317.536 142.968 318.975 145.051 319.718 147.414C320.503 149.651 321.012 151.975 321.233 154.335C320.714 152.06 319.969 149.842 319.011 147.713C318.137 145.638 316.7 143.85 314.861 142.552C314.426 142.285 313.955 142.084 313.461 141.956C313.356 141.93 313.247 141.92 313.138 141.926L312.731 141.922C311.428 141.857 310.14 142.225 309.068 142.969C308.266 143.637 307.608 144.46 307.133 145.39C306.658 146.319 306.377 147.336 306.306 148.377L306.306 148.384C306.281 148.609 306.178 148.819 306.014 148.975C305.849 149.131 305.635 149.224 305.409 149.237C305.182 149.251 304.959 149.183 304.777 149.046C304.596 148.91 304.469 148.714 304.42 148.493C304.037 146.654 303.418 144.872 302.578 143.192C301.793 141.577 300.599 140.195 299.116 139.184C298.762 138.959 298.384 138.774 297.989 138.634C297.814 138.568 297.632 138.52 297.448 138.49L296.76 138.394C295.891 138.269 295.007 138.297 294.148 138.479C293.325 138.65 292.554 139.013 291.897 139.538C291.255 140.06 290.745 140.726 290.41 141.482L290.369 141.578C290.283 141.78 290.121 141.939 289.917 142.021C289.713 142.103 289.486 142.101 289.284 142.015C289.216 141.986 289.152 141.948 289.094 141.902C288.602 141.568 288.03 141.372 287.436 141.335C286.843 141.297 286.25 141.42 285.72 141.69C284.485 142.126 283.451 142.995 282.808 144.136C282.474 144.67 282.313 145.294 282.344 145.923C282.376 146.552 282.599 147.156 282.984 147.655C283.932 148.675 285.152 149.402 286.5 149.75L286.534 149.76C286.584 149.774 286.627 149.806 286.655 149.85C287.479 151.078 288.132 152.413 288.594 153.818Z" fill="#282828"/>
<path d="M281.846 153.138C281.31 152.034 280.359 151.188 279.2 150.784C278.074 150.461 276.871 150.552 275.806 151.039C275.293 151.197 274.833 151.49 274.473 151.888C274.113 152.286 273.868 152.773 273.762 153.299C273.713 154.399 274.013 155.487 274.618 156.408C275.227 157.424 275.953 158.367 276.779 159.217C276.979 159.437 277.191 159.638 277.399 159.844L278.077 160.436C278.561 160.854 279.029 161.281 279.492 161.71C281.347 163.427 283.08 165.229 284.809 167.058C284.939 167.195 285.025 167.368 285.055 167.555L285.065 167.619C285.179 168.2 285.368 168.764 285.629 169.297C286.177 170.439 286.955 171.456 287.916 172.282C288.404 172.724 288.891 173.02 289.543 173.52C290.739 174.458 291.747 175.612 292.516 176.922C293.29 178.21 293.864 179.607 294.217 181.068L294.171 180.925C294.627 182.187 295.483 183.265 296.608 183.996C297.81 184.697 299.175 185.072 300.566 185.083C302.026 185.115 303.484 184.964 304.906 184.634C306.36 184.317 307.787 183.883 309.172 183.337C307.872 184.102 306.497 184.732 305.069 185.22C303.619 185.728 302.107 186.038 300.574 186.139C298.963 186.256 297.35 185.934 295.905 185.21C295.175 184.805 294.52 184.278 293.966 183.653C293.431 183.023 292.984 182.323 292.64 181.571L292.622 181.525L292.594 181.428C292.224 180.176 291.678 178.982 290.971 177.884C290.272 176.799 289.392 175.842 288.369 175.054C287.91 174.702 287.197 174.26 286.64 173.764C286.053 173.271 285.519 172.717 285.047 172.113C284.565 171.507 284.155 170.847 283.824 170.147C283.474 169.415 283.232 168.637 283.106 167.836L283.362 168.396C281.687 166.575 279.959 164.78 278.226 163.026C277.789 162.591 277.349 162.161 276.902 161.748L276.194 161.083C275.965 160.843 275.734 160.604 275.523 160.356C274.658 159.366 273.915 158.277 273.309 157.111C272.603 155.887 272.336 154.458 272.552 153.062C272.63 152.695 272.769 152.343 272.961 152.021C273.168 151.717 273.402 151.432 273.661 151.171L274.53 150.573L275.463 150.19C276.738 149.739 278.136 149.779 279.383 150.303C279.967 150.581 280.487 150.976 280.911 151.464C281.335 151.951 281.653 152.522 281.846 153.138Z" fill="#282828"/>
<path d="M284.085 167.728C283.78 166.621 283.801 165.449 284.146 164.354C284.312 163.783 284.606 163.256 285.005 162.815C285.201 162.589 285.443 162.407 285.714 162.281C285.985 162.155 286.28 162.087 286.579 162.083C286.135 162.361 285.766 162.745 285.506 163.2C285.253 163.64 285.055 164.11 284.917 164.599C284.597 165.588 284.402 166.635 284.085 167.728Z" fill="#282828"/>
<path d="M286.448 150C287.136 149.831 287.697 149.713 288.293 149.596C288.916 149.456 289.551 149.374 290.189 149.35C289.756 149.899 289.136 150.269 288.447 150.39C288.105 150.47 287.75 150.477 287.406 150.41C287.061 150.342 286.735 150.203 286.448 150Z" fill="#282828"/>
<path d="M290.099 141.207C290.087 142.076 290.201 142.942 290.438 143.777C290.647 144.612 291.092 145.368 291.72 145.957C292.052 146.236 292.437 146.446 292.853 146.571C293.268 146.697 293.705 146.736 294.136 146.687C294.585 146.65 295.03 146.577 295.467 146.467L296.753 146.003L295.506 146.586C295.068 146.739 294.618 146.856 294.161 146.936C293.688 147.029 293.2 147.026 292.727 146.926C292.255 146.825 291.808 146.63 291.413 146.352C290.639 145.753 290.055 144.944 289.729 144.021C289.382 143.122 289.17 142.177 289.099 141.215C289.093 141.149 289.1 141.083 289.12 141.019C289.14 140.956 289.172 140.897 289.215 140.847C289.258 140.796 289.31 140.754 289.369 140.724C289.428 140.694 289.493 140.676 289.559 140.67C289.625 140.665 289.692 140.673 289.755 140.694C289.818 140.715 289.876 140.748 289.926 140.791C289.976 140.835 290.017 140.888 290.047 140.947C290.076 141.007 290.093 141.071 290.098 141.138C290.099 141.153 290.099 141.168 290.099 141.183L290.099 141.207Z" fill="#282828"/>
<path d="M294.127 146.856C294.821 147.913 295.434 149.021 295.961 150.171C296.551 151.328 296.954 152.571 297.157 153.854C297.214 154.093 297.327 154.314 297.488 154.499C297.649 154.684 297.853 154.828 298.081 154.917C298.604 155.18 299.165 155.359 299.744 155.449C300.335 155.557 300.941 155.563 301.534 155.465C302.145 155.413 302.713 155.127 303.119 154.666C302.966 154.956 302.755 155.211 302.498 155.415C302.241 155.619 301.945 155.767 301.628 155.85C300.996 156.037 300.336 156.111 299.678 156.068C299.007 156.039 298.347 155.88 297.735 155.601C297.378 155.461 297.064 155.232 296.821 154.935C296.578 154.639 296.416 154.285 296.35 153.907C296.149 152.71 295.826 151.536 295.387 150.404L294.127 146.856Z" fill="#282828"/>
<path d="M306.338 148.137C306.559 149.699 307.055 151.209 307.802 152.597C307.99 152.929 308.202 153.246 308.438 153.546C308.739 153.906 309.005 154.293 309.232 154.703C309.462 155.118 309.645 155.556 309.78 156.011C309.917 156.49 309.981 156.887 310.077 157.283C310.125 157.636 310.221 157.981 310.364 158.307C310.559 158.601 310.806 158.858 311.092 159.066C311.374 159.287 311.697 159.45 312.043 159.545C312.389 159.64 312.75 159.665 313.105 159.62C313.854 159.464 314.528 159.058 315.015 158.467C315.562 157.86 316.029 157.184 316.402 156.456L316.381 156.52C316.63 155.343 316.797 154.15 316.878 152.95C316.987 151.744 316.907 150.53 316.64 149.349C316.994 150.518 317.163 151.735 317.142 152.957C317.148 154.181 317.067 155.405 316.899 156.618C316.897 156.636 316.892 156.654 316.884 156.671L316.878 156.683C316.536 157.489 316.089 158.247 315.549 158.937C314.994 159.7 314.195 160.25 313.285 160.497C312.806 160.597 312.311 160.601 311.831 160.509C311.35 160.416 310.892 160.229 310.484 159.959C310.064 159.697 309.695 159.362 309.396 158.968C309.232 158.75 309.113 158.502 309.044 158.238L308.857 157.614C308.688 156.847 308.394 156.113 307.987 155.441C307.78 155.125 307.542 154.83 307.279 154.559C306.964 154.216 306.676 153.849 306.418 153.462C305.438 151.933 304.742 150.239 304.364 148.462C304.335 148.333 304.331 148.201 304.353 148.071C304.375 147.941 304.422 147.817 304.491 147.706C304.561 147.594 304.652 147.498 304.759 147.421C304.867 147.345 304.988 147.291 305.116 147.261C305.244 147.232 305.377 147.228 305.506 147.25C305.636 147.272 305.76 147.319 305.872 147.388C305.983 147.458 306.08 147.549 306.156 147.656C306.232 147.764 306.287 147.885 306.316 148.013C306.321 148.036 306.326 148.06 306.33 148.084L306.338 148.137Z" fill="#282828"/>
<path d="M304.492 165.66C304.532 165.66 304.562 165.669 304.602 165.669L304.692 165.73L304.492 165.66Z" fill="#282828"/>
<path d="M324.782 164.309C307.602 161.699 291.412 155.039 287.392 153.309C286.696 153.004 285.951 152.825 285.192 152.779C281.532 152.589 280.272 153.779 279.932 155.009C279.78 155.603 279.823 156.231 280.055 156.798C280.288 157.366 280.697 157.843 281.222 158.159L299.092 169.399L299.102 169.389C300.002 168.307 301.045 167.352 302.202 166.549C301.78 167.438 301.26 168.276 300.652 169.049C302.316 168.593 304.073 168.6 305.732 169.069C326.422 171.029 331.622 166.709 331.622 166.709C329.402 164.639 324.782 164.309 324.782 164.309ZM309.692 162.599L313.892 165.659L304.262 164.219L295.592 158.409L309.692 162.599ZM315.092 167.789C311.512 167.459 307.942 167.049 304.372 166.649C304.302 166.637 304.235 166.613 304.172 166.579C300.872 164.589 297.582 162.579 294.322 160.519L289.432 157.41C287.832 156.339 286.202 155.309 284.612 154.209C286.322 155.109 288.002 156.059 289.692 156.979L294.722 159.849C298.042 161.739 301.322 163.699 304.602 165.669C308.122 166.099 311.662 166.539 315.182 167.039C318.732 167.539 322.292 168.059 325.832 168.68C322.242 168.459 318.662 168.129 315.092 167.789H315.092Z" fill="#282828"/>
<path d="M304.692 165.73L304.492 165.66C304.532 165.66 304.562 165.669 304.602 165.669L304.692 165.73Z" fill="white"/>
<path d="M182.871 22.2791C182.871 22.2791 180.304 20.7384 177.907 23.4774C177.907 23.4774 173.628 17.3965 155.482 22.6624C155.482 22.6624 157.879 27.2435 159.59 27.2435C161.302 27.2435 156.338 35.1179 151.716 34.7756C151.716 34.7756 143.842 46.2449 149.833 57.3718C155.738 68.3386 159.981 71.8223 165.838 64.7087C166.018 64.488 166.218 64.2851 166.436 64.1028C168.121 62.7137 175.578 56.9379 178.221 61.2447C178.784 62.2014 178.945 63.3422 178.669 64.4174C177.463 69.4701 171.822 88.0799 155.482 80.6528C155.482 80.6528 136.44 73.5121 140.932 56.5958C141.412 54.8753 142.108 53.2226 143.004 51.6773C143.868 50.0986 144.401 48.3602 144.569 46.5686C144.737 44.7769 144.538 42.9698 143.983 41.2579C143.295 38.8174 141.742 36.7107 139.614 35.331C137.552 34.0444 134.833 33.4692 132.773 37.0669C131.92 38.5635 131.471 40.2558 131.469 41.9782C131.465 43.5547 131.758 45.4882 133.057 46.416L131.469 49.4974C130.605 47.7398 129.5 46.1112 128.187 44.6587C125.987 42.4309 124.574 39.5466 124.162 36.4432C123.581 31.52 124.281 24.1693 130.147 15.603C130.147 15.603 138.021 -0.14594 152.743 0.19642C167.465 0.53878 180.132 4.47596 182.871 22.2791Z" fill="#282828"/>
<path d="M158.221 42.821C160.778 42.2363 163.406 42.0198 166.024 42.1782C167.343 42.2438 168.652 42.4423 169.931 42.7707C171.236 43.0508 172.449 43.657 173.456 44.5329C172.293 43.9928 171.051 43.6429 169.777 43.4968C168.519 43.3159 167.249 43.1843 165.968 43.1269C163.408 42.9682 160.835 42.956 158.221 42.821Z" fill="#282828"/>
<path d="M182.871 42.5767C181.935 42.8613 181.068 43.3387 180.328 43.9783C179.976 44.268 179.69 44.6286 179.488 45.0364C179.286 45.4442 179.171 45.8901 179.153 46.345C179.222 47.2782 179.467 48.19 179.874 49.0325L180.994 51.7844C181.829 53.6465 182.314 55.6464 182.425 57.6841C182.423 58.2209 182.325 58.753 182.134 59.2549C181.929 59.7629 181.594 60.2081 181.163 60.5457C180.287 61.0975 179.252 61.3433 178.221 61.2447C179.188 61.1622 180.108 60.7942 180.865 60.1873C181.175 59.8561 181.409 59.4608 181.551 59.0294C181.692 58.5979 181.737 58.1407 181.683 57.69C181.609 56.7368 181.416 55.7967 181.107 54.8918C180.819 53.9651 180.475 53.0469 180.109 52.1319C179.757 51.2102 179.377 50.2937 179.034 49.3499C178.87 48.8733 178.704 48.3982 178.575 47.8958C178.415 47.3763 178.361 46.8301 178.416 46.2893C178.473 45.7515 178.648 45.233 178.929 44.7708C179.21 44.3085 179.589 43.9138 180.04 43.615C180.887 43.0482 181.858 42.6922 182.871 42.5767Z" fill="#282828"/>
<path d="M182.872 22.2793C183.192 24.198 183.431 26.1271 183.587 28.0667C183.765 30.0029 183.875 31.945 183.917 33.8928C183.948 35.8403 183.919 37.7915 183.767 39.7441C183.677 41.7345 183.233 43.6928 182.454 45.5266C182.443 45.5494 182.428 45.5704 182.411 45.5891C181.81 46.236 181.246 46.9162 180.722 47.6265C180.461 47.9821 180.23 48.358 180.029 48.7505C179.806 49.1326 179.717 49.5782 179.776 50.0168C179.638 49.5756 179.663 49.0998 179.846 48.6753C180.003 48.247 180.195 47.832 180.418 47.4343C180.865 46.6416 181.382 45.8902 181.962 45.1891L181.92 45.2514C182.251 44.3756 182.472 43.4618 182.577 42.5312C182.726 41.5925 182.786 40.6337 182.856 39.6784C182.97 37.7607 182.989 35.8315 183 33.9013C183 30.0378 182.915 26.1672 182.872 22.2793Z" fill="#282828"/>
<path d="M172.6 55.8311C172.42 56.2027 172.274 56.5901 172.164 56.9885C172.053 57.3566 172.029 57.7454 172.093 58.1245C172.146 58.5001 172.31 58.8513 172.565 59.1331C172.833 59.4441 173.132 59.728 173.456 59.9807C173.249 59.9192 173.045 59.8462 172.846 59.762C172.652 59.6552 172.469 59.5294 172.301 59.3862C171.947 59.0803 171.709 58.6632 171.625 58.2036C171.565 57.7484 171.633 57.2854 171.821 56.8667C171.997 56.4657 172.264 56.1112 172.6 55.8311Z" fill="#282828"/>
<path d="M133.057 46.416C133.649 47.1597 134.122 47.9913 134.458 48.8809C134.638 49.3349 134.768 49.8072 134.846 50.2893C134.888 50.5421 134.905 50.7984 134.896 51.0545L134.891 51.2514L134.903 51.3584C134.899 51.428 134.914 51.4974 134.947 51.5588C135.094 51.8719 135.353 52.1183 135.673 52.249C136.054 52.4433 136.454 52.595 136.868 52.7014C137.747 52.9384 138.651 53.0697 139.562 53.0923C138.663 53.4447 137.688 53.5612 136.731 53.4309C136.231 53.38 135.742 53.2546 135.28 53.0591C135.008 52.9535 134.76 52.7952 134.549 52.5932C134.338 52.3912 134.17 52.1495 134.053 51.8821C133.992 51.7314 133.962 51.5699 133.965 51.4072L133.961 51.167L133.969 51.0171C133.979 50.81 133.975 50.6024 133.955 50.396C133.917 49.9574 133.848 49.522 133.75 49.093C133.556 48.2134 133.3 47.3291 133.057 46.416Z" fill="#282828"/>
<path d="M131.469 49.4976C131.087 50.8821 130.548 52.2186 129.863 53.4812C129.193 54.7624 128.384 55.9659 127.45 57.0701C126.516 58.1951 125.408 59.1636 124.169 59.939C122.926 60.7095 121.503 61.1422 120.042 61.1941C121.379 60.7923 122.636 60.159 123.755 59.323C124.849 58.4809 125.846 57.5184 126.726 56.4539C127.63 55.3907 128.466 54.2714 129.228 53.1025C129.996 51.9285 130.758 50.7378 131.469 49.4976Z" fill="#282828"/>
<path d="M144.013 89.5542C145.094 89.0799 146.117 88.4813 147.061 87.7705C147.997 87.0716 148.884 86.3105 149.718 85.4924C150.578 84.6985 151.349 83.8108 152.15 82.9419L153.315 81.5962C153.695 81.137 154.073 80.6743 154.491 80.231C154.252 80.7861 153.975 81.3225 153.699 81.8623C153.386 82.3774 153.078 82.9006 152.734 83.3994C152.04 84.3991 151.25 85.3294 150.377 86.1772C149.5 87.0319 148.521 87.7755 147.462 88.3914C146.412 89.0287 145.234 89.4258 144.013 89.5542Z" fill="#282828"/>
<path d="M126.887 56.7611C126.035 55.4987 124.981 54.3851 123.768 53.4647C123.516 53.2416 123.21 53.0875 122.88 53.0176C122.55 52.9476 122.208 52.9642 121.887 53.0656C121.319 53.4514 120.911 54.0311 120.74 54.6959C120.507 55.4048 120.338 56.1336 120.237 56.8732C120.186 57.2411 120.141 57.6239 120.108 57.9777C120.11 58.3146 120.139 58.7103 120.173 59.0785C120.32 60.5881 120.6 62.0818 121.009 63.5424C121.763 66.5142 122.933 69.3643 124.486 72.0079C126.059 74.6506 127.941 77.0967 130.092 79.2948C131.17 80.3856 132.291 81.4359 133.429 82.4594C134.61 83.4342 135.739 84.4811 136.969 85.3761C137.562 85.8554 138.216 86.2443 138.836 86.6827C139.492 87.0599 140.122 87.4882 140.805 87.8085C142.125 88.5259 143.529 89.0762 144.985 89.4469C147.893 90.2183 150.983 89.894 153.668 88.5355C156.365 87.0956 158.631 84.9639 160.233 82.359C160.239 82.3478 160.249 82.3393 160.261 82.3355C160.273 82.3316 160.286 82.3327 160.297 82.3385C160.307 82.345 160.315 82.3549 160.319 82.3666C160.323 82.3783 160.322 82.3909 160.317 82.4022C158.924 85.2307 156.735 87.5904 154.019 89.191C152.627 89.9802 151.097 90.4934 149.511 90.7025C147.921 90.8904 146.309 90.7879 144.755 90.4C143.212 90.0335 141.727 89.4562 140.341 88.6845C139.634 88.3331 138.991 87.8783 138.32 87.472C137.69 87.0077 137.024 86.59 136.426 86.087C135.174 85.1461 134.077 84.047 132.918 83.0145C132.326 82.5116 131.825 81.9113 131.283 81.358C130.76 80.7846 130.194 80.2533 129.708 79.6469C127.681 77.3042 125.841 74.8067 124.203 72.1771C122.536 69.5481 121.208 66.7187 120.251 63.7562C119.784 62.2574 119.479 60.7127 119.341 59.1488C119.315 58.7482 119.291 58.3744 119.3 57.9398C119.346 57.528 119.401 57.1449 119.465 56.7506C119.59 55.9643 119.789 55.1912 120.057 54.4413C120.177 54.0274 120.379 53.6418 120.65 53.3067C120.922 52.9717 121.257 52.694 121.637 52.4899C122.064 52.3225 122.536 52.3129 122.969 52.4628C123.363 52.5977 123.731 52.7992 124.057 53.0585C125.253 54.0777 126.242 55.3182 126.968 56.7118C126.971 56.7172 126.973 56.7232 126.974 56.7294C126.975 56.7356 126.974 56.7418 126.973 56.7478C126.971 56.7538 126.968 56.7595 126.964 56.7644C126.961 56.7693 126.956 56.7734 126.95 56.7765C126.94 56.782 126.927 56.7834 126.916 56.7806C126.904 56.7778 126.894 56.7709 126.887 56.7611Z" fill="#282828"/>
<path d="M129.779 52.7301C128.25 51.789 126.546 51.1707 124.769 50.9132C123.019 50.5935 121.213 50.9171 119.683 51.8244C118.961 52.3257 118.354 52.9747 117.903 53.7284L116.35 55.9591C115.322 57.4751 114.171 58.904 112.908 60.2311C112.879 60.2601 112.844 60.2827 112.805 60.2973C112.766 60.312 112.725 60.3184 112.684 60.3161L112.661 60.3146C106.263 59.9357 99.8441 59.7839 93.4418 59.8271C90.24 59.8537 87.0415 59.9821 83.8615 60.2319C80.7059 60.4064 77.5815 60.9488 74.5518 61.8478L74.4982 61.8625L74.4249 61.8781C72.748 62.3073 71.1507 63.0026 69.6939 63.9374C68.9361 64.3965 68.2069 64.9012 67.5103 65.4487L66.4549 66.2609C66.1143 66.5463 65.7933 66.8574 65.4615 67.154C62.8182 69.5696 60.4698 72.2894 58.4653 75.2565C54.4419 81.2406 51.1535 87.6872 48.6709 94.4572C48.0572 96.156 47.3852 97.833 46.819 99.5485L45.1987 104.724C44.6503 106.428 44.16 108.234 43.5213 109.96C42.9003 111.703 42.1737 113.388 41.4781 115.061L39.3365 120.089L38.2213 122.594C37.8412 123.461 37.4176 124.308 36.952 125.131C36.8575 125.285 36.7501 125.431 36.6312 125.566C36.699 125.569 36.7049 125.413 36.7087 125.476C36.6978 125.573 36.7019 125.672 36.7209 125.769C36.7922 126.122 36.9142 126.464 37.0832 126.783C37.4569 127.497 37.9558 128.137 38.5562 128.675C39.7824 129.776 41.3158 130.477 42.9513 130.684L42.3084 132.244C41.2997 131.456 40.345 130.602 39.4506 129.686C38.9605 129.192 38.5331 128.64 38.1782 128.042C38.0712 127.848 37.9863 127.642 37.925 127.428C37.8927 127.287 37.8709 127.145 37.8597 127.001C37.8596 126.812 37.8918 126.625 37.9547 126.447C38.0264 126.256 38.1417 126.084 38.2913 125.946C38.3608 125.881 38.4339 125.82 38.5102 125.764C38.5765 125.725 38.641 125.695 38.7082 125.663C38.9333 125.56 39.1735 125.493 39.4198 125.465C40.1233 125.415 40.8305 125.465 41.52 125.613C42.1643 125.73 42.781 125.886 43.3953 126.048L45.2268 126.63L46.9983 127.341C51.6255 129.428 55.7293 132.2 60.0014 134.639C64.2457 137.118 68.6353 139.339 73.1464 141.29C77.6725 143.217 82.2984 144.901 87.0043 146.335L87.0099 146.336C87.1389 146.376 87.2505 146.459 87.326 146.571C87.4016 146.683 87.4367 146.817 87.4256 146.952C87.0181 151.55 86.853 156.166 86.931 160.782C86.9629 163.077 87.1591 165.367 87.5179 167.634C87.6885 168.74 88.0063 169.819 88.463 170.841C88.6754 171.301 88.9934 171.704 89.3911 172.019C89.4929 172.063 89.5916 172.11 89.6901 172.163C89.7941 172.195 89.905 172.193 90.0113 172.217C90.2504 172.246 90.5768 172.229 90.8554 172.236L118.675 172.312C127.948 172.358 137.221 172.307 146.493 172.297L174.312 172.203L173.992 172.344C175.886 170.349 177.959 168.532 180.185 166.916C182.406 165.276 184.819 163.913 187.37 162.856C189.949 161.771 192.719 161.215 195.516 161.221C196.935 161.247 198.346 161.451 199.714 161.83L203.568 163.122C204.856 163.54 206.148 163.947 207.442 164.324C208.687 164.744 209.974 165.022 211.281 165.153C212.732 165.317 214.136 165.772 215.406 166.492C216.075 166.849 216.679 167.315 217.193 167.872C217.481 168.18 217.704 168.542 217.848 168.938C217.993 169.334 218.056 169.754 218.035 170.175C218.071 170.892 218.046 171.611 217.962 172.324C217.873 173.151 217.524 173.93 216.963 174.546C216.36 175.141 215.565 175.503 214.72 175.569C213.977 175.649 213.226 175.625 212.488 175.499C211.786 175.389 211.091 175.23 210.41 175.025L208.465 174.437C207.843 174.259 207.211 174.121 206.572 174.024C206.042 173.915 205.496 173.921 204.968 174.04L205.161 172.716C207.734 174.518 210.756 175.573 213.892 175.763C215.477 175.847 217.066 175.756 218.631 175.491C220.247 175.27 221.85 174.999 223.478 174.727C224.298 174.598 225.113 174.455 226.014 174.397C226.508 174.356 227.006 174.385 227.492 174.484C228.078 174.609 228.608 174.922 229.002 175.374C229.341 175.777 229.6 176.24 229.767 176.74C230.244 178.08 230.316 179.531 229.972 180.912C229.73 181.829 229.299 182.684 228.706 183.425C228.114 184.165 227.373 184.773 226.532 185.21C224.956 186.02 223.24 186.523 221.476 186.693L222.246 186.114C221.834 187.053 221.323 187.947 220.722 188.778C220.124 189.617 219.428 190.382 218.649 191.057C217.83 191.742 216.898 192.281 215.895 192.649C214.863 192.997 213.772 193.135 212.686 193.056L213.509 192.718C211.838 194.665 210.198 196.576 208.316 198.417C208.076 198.646 207.822 198.876 207.539 199.105C207.248 199.326 206.944 199.529 206.627 199.712C206.033 200.047 205.416 200.338 204.78 200.585C203.54 201.067 202.259 201.434 200.952 201.682C198.364 202.165 195.721 202.286 193.1 202.043C192.446 201.998 191.801 201.892 191.151 201.818L189.225 201.481L187.42 201.185L185.582 200.994C180.581 200.736 175.567 200.898 170.592 201.478C165.583 201.986 160.588 202.741 155.618 203.622C153.152 204.06 150.71 204.639 148.222 205.187C145.744 205.738 143.258 206.274 140.766 206.777C135.778 207.773 130.769 208.681 125.73 209.402C115.654 210.898 105.487 211.702 95.3017 211.809C94.0286 211.814 92.756 211.861 91.4831 211.831L87.6645 211.745C85.1179 211.727 82.5766 211.546 80.035 211.395C77.4902 211.287 74.9589 210.992 72.4249 210.745C71.1522 210.604 69.9056 210.527 68.6076 210.325C67.3223 210.126 66.0499 209.851 64.797 209.503C59.7361 208.137 55.1455 205.413 51.5226 201.625C47.8949 197.816 45.601 192.932 44.9852 187.708C43.8702 177.583 43.4224 167.444 43.1685 157.3C42.9471 147.156 42.9193 137.013 43.0853 126.871C43.0855 126.845 43.0963 126.82 43.1152 126.801C43.1342 126.782 43.1597 126.772 43.1862 126.772C43.2128 126.773 43.2381 126.784 43.2567 126.802C43.2752 126.821 43.2855 126.847 43.2853 126.873C43.3278 137.011 43.5612 147.144 43.9857 157.273C44.4342 167.391 44.9877 177.527 46.2454 187.545C46.8911 192.47 49.1198 197.052 52.5958 200.6C56.0594 204.151 60.4264 206.689 65.2261 207.94C66.4185 208.261 67.6288 208.511 68.8507 208.69C70.0601 208.869 71.3472 208.942 72.5948 209.068C75.1084 209.291 77.6175 209.562 80.1414 209.648C82.6616 209.775 85.1802 209.934 87.7052 209.929L91.49 209.982C92.7515 210.001 94.0134 209.943 95.2749 209.927L99.0593 209.85L102.84 209.655C105.362 209.555 107.877 209.334 110.393 209.131C112.912 208.968 115.416 208.632 117.928 208.388C120.432 208.076 122.939 207.767 125.435 207.393C130.433 206.668 135.403 205.759 140.355 204.76C142.831 204.255 145.3 203.718 147.771 203.164C150.232 202.617 152.724 202.021 155.249 201.568C160.261 200.671 165.297 199.899 170.376 199.374C175.477 198.769 180.622 198.618 185.75 198.922L187.693 199.134L189.638 199.463L191.456 199.79C192.065 199.861 192.671 199.965 193.282 200.01C195.715 200.248 198.169 200.147 200.575 199.712C201.76 199.493 202.924 199.167 204.051 198.737C204.598 198.528 205.13 198.281 205.642 197.996C205.875 197.863 206.099 197.716 206.315 197.557C206.526 197.388 206.743 197.194 206.963 196.987C208.716 195.291 210.397 193.361 212.034 191.469C212.13 191.359 212.249 191.271 212.382 191.212C212.516 191.153 212.662 191.125 212.808 191.129L212.856 191.131C213.671 191.191 214.49 191.091 215.266 190.836C216.051 190.549 216.782 190.129 217.426 189.596C218.087 189.026 218.678 188.381 219.187 187.672C219.704 186.964 220.146 186.205 220.507 185.406L220.509 185.401C220.577 185.247 220.683 185.113 220.817 185.013C220.952 184.912 221.11 184.848 221.277 184.826C222.791 184.689 224.265 184.27 225.626 183.593C226.252 183.282 226.804 182.842 227.248 182.302C227.691 181.762 228.015 181.134 228.198 180.459C228.378 179.779 228.416 179.069 228.309 178.373C228.242 177.73 228.017 177.113 227.653 176.577C227.51 176.398 227.307 176.277 227.081 176.237C226.76 176.176 226.432 176.158 226.107 176.184C225.367 176.222 224.558 176.349 223.755 176.469C222.139 176.721 220.499 176.981 218.857 177.188C217.176 177.451 215.471 177.529 213.773 177.419C210.31 177.177 206.985 175.966 204.177 173.925L204.162 173.914C204.052 173.832 203.966 173.722 203.914 173.595C203.862 173.469 203.846 173.33 203.867 173.195C203.889 173.059 203.947 172.932 204.035 172.828C204.124 172.723 204.239 172.645 204.369 172.601C205.158 172.365 205.993 172.332 206.798 172.504C207.501 172.618 208.197 172.776 208.879 172.979L210.829 173.591C211.447 173.784 212.077 173.935 212.715 174.043C213.945 174.253 215.284 174.23 215.941 173.544C216.635 172.867 216.678 171.53 216.646 170.194C216.652 170.042 216.646 169.889 216.628 169.738C216.626 169.628 216.602 169.519 216.556 169.418C216.468 169.178 216.333 168.957 216.16 168.768C215.751 168.324 215.272 167.951 214.743 167.663C213.647 167.03 212.438 166.619 211.183 166.454C209.786 166.302 208.411 165.994 207.083 165.534C205.773 165.137 204.477 164.713 203.185 164.279L199.324 162.94C198.074 162.589 196.786 162.392 195.489 162.355C192.839 162.326 190.211 162.826 187.759 163.828C182.804 165.925 178.335 169.023 174.633 172.927L174.619 172.941C174.579 172.981 174.531 173.014 174.478 173.036C174.425 173.058 174.369 173.069 174.312 173.069L146.495 172.975C137.223 172.964 127.951 172.914 118.679 172.959L90.8636 173.035C90.5634 173.03 90.3076 173.053 89.9709 173.027C89.7912 173.011 89.613 172.981 89.4378 172.939L88.9503 172.713C88.4203 172.326 87.9937 171.815 87.7085 171.224C87.1992 170.136 86.8394 168.983 86.6388 167.798C86.2396 165.489 86.0066 163.155 85.9416 160.813C85.7983 156.157 85.9007 151.496 86.2486 146.85L86.6697 147.468C81.898 146.085 77.2042 144.447 72.6085 142.56C68.0183 140.647 63.5474 138.459 59.22 136.009C54.8734 133.621 50.7361 130.846 46.3277 128.888L44.6561 128.226L42.9528 127.692C42.3715 127.542 41.7887 127.397 41.2163 127.297C40.6962 127.185 40.1637 127.142 39.6325 127.17C39.5615 127.188 39.4374 127.203 39.4546 127.213L39.443 127.21C39.4607 127.205 39.4767 127.196 39.4888 127.182C39.4972 127.155 39.5554 127.115 39.5657 127.055C39.5958 126.818 39.5646 127.04 39.6967 127.222C39.9824 127.681 40.3205 128.106 40.7042 128.488C41.542 129.337 42.435 130.129 43.3772 130.859L43.3854 130.865C43.5357 130.984 43.6431 131.148 43.6912 131.333C43.7392 131.518 43.7252 131.714 43.6513 131.89C43.5774 132.067 43.4477 132.214 43.282 132.31C43.1164 132.405 42.924 132.444 42.7343 132.42C40.7365 132.175 38.8613 131.325 37.3609 129.983C36.6017 129.307 35.9703 128.499 35.497 127.599C35.239 127.115 35.056 126.594 34.954 126.054C34.8875 125.704 34.8967 125.344 34.9811 124.997C35.0503 124.739 35.1791 124.502 35.3572 124.303C35.377 124.247 35.3638 124.298 35.4281 124.182C35.8208 123.504 36.2189 122.645 36.5946 121.844L37.7094 119.374L39.867 114.382C40.5751 112.703 41.2966 111.052 41.9043 109.373C42.5363 107.691 43.0065 105.988 43.5793 104.235L45.2442 99.0136C45.8259 97.282 46.5152 95.5849 47.1456 93.8694C49.7097 86.992 53.093 80.4485 57.2224 74.3804C58.2747 72.8682 59.4031 71.4105 60.6031 70.0127C61.8258 68.6251 63.1345 67.3158 64.5216 66.0925C64.8708 65.7881 65.2082 65.4707 65.5673 65.1777L66.6826 64.341C67.4226 63.7753 68.1962 63.2549 68.999 62.7824C70.6176 61.7697 72.3948 61.0358 74.2563 60.6113L74.1298 60.6416C77.2716 59.7443 80.5082 59.2204 83.7725 59.0808C86.9958 58.8689 90.2185 58.7817 93.4372 58.7959C99.8763 58.8096 106.298 59.1357 112.711 59.6472L112.464 59.7304C113.719 58.4596 114.869 57.0895 115.904 55.6335L117.498 53.4465C117.999 52.6559 118.662 51.9798 119.442 51.4621C120.231 50.9534 121.13 50.6391 122.064 50.5449C122.979 50.4363 123.905 50.4545 124.815 50.5991C126.623 50.9002 128.351 51.5692 129.891 52.5647C129.913 52.5788 129.929 52.6012 129.935 52.6268C129.941 52.6525 129.936 52.6794 129.922 52.7018C129.908 52.7241 129.886 52.74 129.86 52.7461C129.835 52.7522 129.808 52.7479 129.785 52.7341L129.779 52.7301Z" fill="#282828"/>
<path d="M82.8176 69.6973C84.0643 70.0508 85.1957 70.7272 86.0973 71.658C87.0264 72.5741 87.7695 73.6613 88.2856 74.8596C88.8028 76.0512 89.0936 77.3287 89.1431 78.6267C89.1679 79.2656 89.1351 79.9053 89.0453 80.5383C88.9364 81.1664 88.7704 81.7832 88.5492 82.3811C88.3273 81.7625 88.2272 81.1655 88.0642 80.582C87.8893 80.0022 87.7844 79.425 87.59 78.8733C87.2798 77.7775 86.8995 76.7028 86.4515 75.6558C86.0021 74.6147 85.4766 73.6082 84.8794 72.6443C84.2538 71.6202 83.5652 70.636 82.8176 69.6973Z" fill="#282828"/>
<path d="M87.1797 93.6631C87.565 98.1021 87.753 102.54 87.8715 106.978C88.0025 111.415 88.0165 115.852 88.008 120.289C87.962 124.725 87.8908 129.161 87.7033 133.597C87.5283 138.032 87.2821 142.467 86.8373 146.901C86.4496 142.462 86.2605 138.024 86.1426 133.587C86.0121 129.149 85.998 124.712 86.0091 120.276C86.0576 115.839 86.1287 111.403 86.3168 106.968C86.4924 102.532 86.7373 98.0969 87.1797 93.6631Z" fill="#282828"/>
<path d="M178.728 64.3365C182.39 66.628 185.986 69.0147 189.514 71.4967C191.28 72.7359 193.031 73.9976 194.768 75.2816L197.352 77.256C197.806 77.5958 198.233 77.9695 198.63 78.3739L199.244 79.0152L199.761 79.6707C201.101 81.3982 202.323 83.2139 203.419 85.1056C204.524 86.9693 205.599 88.8454 206.644 90.7337C208.71 94.5274 210.838 98.2787 213.027 101.988C214.122 103.844 215.238 105.688 216.375 107.519L218.075 110.265C218.579 111.163 219.178 112.004 219.862 112.774C220.586 113.484 221.449 114.189 222.2 115.073C223.089 116 223.624 117.209 223.712 118.49C223.645 119.803 223.073 121.039 222.116 121.941C221.706 122.354 221.276 122.746 220.827 123.116C220.424 123.44 220.033 123.781 219.65 124.132C218.881 124.839 218.173 125.581 217.453 126.38C216.72 127.19 215.961 127.976 215.19 128.753C213.635 130.305 211.984 131.759 210.247 133.104C208.475 134.476 206.547 135.632 204.502 136.547C203.43 137.001 202.303 137.313 201.15 137.475C199.939 137.655 198.703 137.547 197.541 137.161C197.356 137.106 197.198 136.983 197.098 136.817L197.092 136.807C196.341 135.563 195.519 134.323 194.688 133.11C193.858 131.891 192.988 130.701 192.079 129.54C191.166 128.389 190.191 127.288 189.158 126.244C188.163 125.169 186.944 124.326 185.587 123.774L185.58 123.772C185.556 123.763 185.537 123.746 185.525 123.724C185.513 123.702 185.51 123.676 185.517 123.651C185.524 123.627 185.539 123.606 185.561 123.593C185.582 123.579 185.608 123.575 185.633 123.58C187.115 123.962 188.485 124.69 189.631 125.705C190.807 126.655 191.908 127.694 192.926 128.812C194.972 131.027 196.852 133.391 198.551 135.882L198.101 135.528C200.006 135.916 201.986 135.628 203.701 134.713C205.573 133.821 207.332 132.71 208.943 131.403C210.612 130.108 212.207 128.721 213.723 127.249C214.489 126.516 215.248 125.772 215.981 125.003C216.725 124.221 217.526 123.423 218.364 122.695C218.785 122.329 219.216 121.973 219.662 121.633C220.066 121.296 220.449 121.008 220.787 120.665C221.442 120.101 221.87 119.318 221.991 118.462C221.939 117.574 221.585 116.73 220.987 116.071C220.375 115.283 219.601 114.569 218.85 113.712C218.652 113.488 218.467 113.253 218.295 113.008L217.862 112.275L217.082 110.843L215.557 107.988C214.551 106.08 213.524 104.186 212.474 102.306C210.37 98.5472 208.153 94.8514 205.75 91.2765C203.368 87.7066 200.952 84.0926 198.372 80.7945L197.884 80.1849L197.376 79.6649C197.027 79.2917 196.648 78.9473 196.244 78.6349L193.73 76.6376L188.654 72.652C185.263 69.998 181.915 67.2801 178.611 64.4984C178.591 64.4821 178.579 64.459 178.575 64.4338C178.572 64.4086 178.579 64.3832 178.594 64.3626C178.609 64.3421 178.631 64.328 178.656 64.3231C178.681 64.3183 178.707 64.3231 178.728 64.3366L178.728 64.3365Z" fill="#282828"/>
<path d="M192.115 96.6299C190.365 103.209 188.712 109.803 187.331 116.424C186.621 119.705 186.125 123.03 185.846 126.376C185.752 127.985 185.742 129.761 185.601 131.483C185.463 133.239 185.169 134.979 184.723 136.683C183.672 140.05 181.988 143.186 179.762 145.923C178.733 147.295 177.643 148.622 176.622 149.955C176.131 150.616 175.633 151.273 175.192 151.982C174.719 152.665 174.292 153.384 173.867 154.104C172.192 157.031 170.695 160.056 169.383 163.163C167.999 166.257 166.805 169.436 165.639 172.635C167.124 165.948 169.429 159.469 172.502 153.347C173.296 151.799 174.205 150.313 175.221 148.902C176.23 147.508 177.263 146.177 178.236 144.801C180.284 142.227 181.831 139.291 182.797 136.146C183.226 134.563 183.514 132.945 183.656 131.311C183.815 129.645 183.81 128.018 183.963 126.235C184.32 122.809 184.939 119.414 185.814 116.082C187.493 109.469 189.598 102.971 192.115 96.6299Z" fill="#282828"/>
<path d="M221.376 121.395C223.577 123.104 225.662 124.924 227.779 126.619C228.315 127.032 228.848 127.438 229.372 127.794L230.244 128.313C230.564 128.516 230.869 128.729 231.16 128.952C232.283 129.857 233.316 130.868 234.245 131.971C236.09 134.155 237.54 136.643 238.532 139.324C239.57 141.98 239.864 144.869 239.381 147.679C239.089 144.98 238.318 142.354 237.104 139.926C235.921 137.531 234.448 135.292 232.718 133.258C231.885 132.236 230.963 131.291 229.962 130.433C229.72 130.218 229.471 130.02 229.22 129.837L228.353 129.235C227.784 128.793 227.244 128.315 226.737 127.802C224.756 125.836 222.962 123.691 221.376 121.395Z" fill="#282828"/>
<path d="M199.298 136.643C201.265 139.28 202.609 142.329 203.229 145.56C203.299 145.972 203.358 146.388 203.413 146.805C203.452 147.209 203.456 147.686 203.507 148.033C203.584 148.74 203.753 149.434 204.008 150.097C204.566 151.515 205.281 152.865 206.139 154.124C206.99 155.426 207.926 156.671 208.94 157.851C209.43 158.458 209.972 159.023 210.493 159.607C211.058 160.144 211.573 160.742 212.155 161.263C214.373 163.516 217.03 165.289 219.961 166.473C218.329 166.307 216.74 165.844 215.274 165.107C213.809 164.361 212.423 163.469 211.136 162.446C208.546 160.404 206.295 157.964 204.467 155.218C203.539 153.813 202.785 152.299 202.223 150.712C201.951 149.861 201.795 148.978 201.76 148.086C201.734 147.635 201.745 147.31 201.745 146.914L201.688 145.768C201.33 142.628 200.525 139.555 199.298 136.643Z" fill="#282828"/>
<path d="M221.376 162.307C221.576 161.019 222.023 159.781 222.692 158.662C223.348 157.531 224.145 156.487 225.064 155.556C225.994 154.642 227.026 153.838 228.139 153.159C228.692 152.822 229.263 152.516 229.85 152.243C230.449 151.997 231.048 151.758 231.659 151.558C230.597 152.294 229.552 153.001 228.559 153.771C227.568 154.531 226.626 155.352 225.737 156.228C224.86 157.111 224.05 158.058 223.314 159.062C222.562 160.077 221.913 161.164 221.376 162.307Z" fill="#282828"/>
<path d="M224.986 164.59C227.208 161.038 229.642 157.623 232.274 154.364C233.591 152.73 234.959 151.135 236.379 149.577C237.823 148.028 239.353 146.561 240.961 145.182C242.6 143.743 244.444 142.556 246.433 141.661C247.508 141.208 248.667 140.986 249.833 141.01C251.029 141.041 252.197 141.375 253.228 141.981C255.148 143.218 256.617 145.042 257.418 147.181C257.834 148.199 258.136 149.26 258.316 150.346C258.538 151.469 258.516 152.626 258.249 153.74L257.929 153.039C260.179 154.186 262.345 155.43 264.494 156.723C266.638 158.018 268.754 159.361 270.793 160.821C272.876 162.24 274.807 163.873 276.553 165.691C277.436 166.629 278.185 167.685 278.78 168.828C279.433 170.046 279.587 171.47 279.211 172.799L279.222 172.763C278.939 173.863 278.33 174.853 277.475 175.603C277.011 175.975 276.47 176.241 275.892 176.382C275.313 176.523 274.711 176.535 274.127 176.419C273.044 176.198 272.015 175.768 271.096 175.154C270.213 174.577 269.38 173.928 268.603 173.215L269.943 172.636C269.906 174.007 269.612 175.359 269.078 176.622C268.554 177.898 267.77 179.051 266.776 180.007C265.78 180.948 264.614 181.69 263.339 182.194C262.8 182.427 262.274 182.691 261.765 182.984C261.531 183.118 261.306 183.268 261.092 183.431C261.011 183.493 260.936 183.561 260.866 183.635C260.812 183.681 260.827 183.736 260.875 183.557L260.535 182.6C261.159 183.141 261.674 183.795 262.054 184.527C262.46 185.279 262.672 186.12 262.672 186.975C262.672 187.829 262.46 188.67 262.054 189.422C261.686 190.137 261.2 190.784 260.618 191.339C259.448 192.44 257.962 193.147 256.37 193.36C255.631 193.449 254.886 193.484 254.141 193.464C253.34 193.463 252.544 193.336 251.782 193.089L252.49 193.091C250.161 193.812 247.767 194.306 245.343 194.564C242.924 194.811 240.486 194.798 238.07 194.525C236.813 194.405 235.578 194.114 234.4 193.658C233.745 193.405 233.153 193.014 232.663 192.511C232.173 192.008 231.797 191.405 231.562 190.744C231.216 189.419 231.375 188.014 232.009 186.801C232.292 186.213 232.658 185.67 233.096 185.187C233.564 184.604 234.235 184.219 234.974 184.11L234.891 184.119C235.24 184.067 235.592 184.038 235.944 184.031C236.291 184.024 236.638 184.036 236.983 184.069C237.688 184.126 238.378 184.31 239.018 184.613L238.502 185.215C238.184 184.651 237.936 184.05 237.762 183.426C237.584 182.805 237.504 182.16 237.525 181.514C237.548 180.862 237.733 180.226 238.062 179.662C238.396 179.119 238.85 178.659 239.389 178.317C239.411 178.303 239.438 178.298 239.464 178.303C239.49 178.308 239.513 178.323 239.528 178.346C239.541 178.367 239.546 178.392 239.542 178.417C239.538 178.442 239.525 178.464 239.506 178.48C239.037 178.844 238.658 179.31 238.398 179.842C238.151 180.366 238.034 180.942 238.058 181.52C238.086 182.102 238.204 182.675 238.41 183.219C238.609 183.763 238.872 184.282 239.194 184.764C239.243 184.836 239.268 184.921 239.265 185.008C239.262 185.095 239.231 185.179 239.177 185.247C239.123 185.316 239.049 185.365 238.965 185.389C238.882 185.412 238.793 185.409 238.711 185.378L238.679 185.366C238.113 185.159 237.518 185.045 236.916 185.028C236.609 185.017 236.302 185.024 235.996 185.049C235.695 185.072 235.397 185.114 235.102 185.174L235.062 185.181L235.019 185.184C234.6 185.33 234.237 185.603 233.982 185.966C233.65 186.379 233.379 186.838 233.177 187.329C232.75 188.253 232.678 189.301 232.974 190.275C233.161 190.719 233.441 191.118 233.795 191.444C234.15 191.771 234.57 192.017 235.028 192.166C236.071 192.517 237.155 192.727 238.253 192.789C240.54 192.964 242.839 192.893 245.111 192.579C247.379 192.298 249.615 191.801 251.789 191.096C252.01 191.022 252.249 191.02 252.472 191.09L252.497 191.098C253.672 191.357 254.883 191.406 256.075 191.243C257.226 191.095 258.301 190.59 259.15 189.799C259.983 189.074 260.506 188.056 260.609 186.956C260.614 186.43 260.491 185.911 260.251 185.442C260.005 184.95 259.673 184.504 259.273 184.126L259.201 184.06C259.081 183.949 258.992 183.808 258.945 183.651C258.898 183.494 258.893 183.328 258.933 183.169C259.012 182.838 259.181 182.535 259.421 182.294C259.568 182.141 259.728 182.001 259.898 181.875C260.186 181.662 260.488 181.469 260.801 181.297C261.386 180.976 261.988 180.688 262.606 180.435C263.682 180.042 264.672 179.444 265.521 178.674C266.355 177.9 267.028 176.967 267.501 175.932C267.981 174.893 268.27 173.777 268.353 172.636L268.357 172.576C268.366 172.426 268.418 172.281 268.507 172.159C268.596 172.037 268.718 171.944 268.858 171.889C268.999 171.834 269.152 171.821 269.3 171.851C269.448 171.88 269.584 171.952 269.693 172.057C270.384 172.735 271.126 173.358 271.913 173.921C272.65 174.477 273.486 174.886 274.377 175.125C274.782 175.234 275.206 175.252 275.618 175.178C276.031 175.103 276.421 174.937 276.761 174.692C277.462 174.128 277.979 173.368 278.246 172.509L278.257 172.472C278.608 171.383 278.522 170.201 278.018 169.174C277.518 168.072 276.843 167.058 276.019 166.17C274.341 164.355 272.471 162.727 270.441 161.315C266.349 158.496 261.99 156.085 257.428 154.115C257.305 154.06 257.205 153.965 257.145 153.844C257.085 153.724 257.068 153.587 257.098 153.455L257.108 153.414C257.259 152.476 257.214 151.518 256.977 150.598C256.761 149.632 256.438 148.694 256.013 147.8C255.25 146.035 253.972 144.542 252.345 143.518C251.542 143.082 250.649 142.837 249.736 142.801C248.823 142.766 247.914 142.941 247.08 143.314C245.251 144.121 243.549 145.188 242.025 146.482C240.425 147.775 238.897 149.154 237.449 150.615C235.974 152.064 234.547 153.57 233.16 155.117C230.405 158.225 227.723 161.418 225.15 164.704C225.143 164.714 225.133 164.723 225.121 164.73C225.11 164.736 225.097 164.741 225.084 164.743C225.071 164.744 225.058 164.744 225.045 164.74C225.033 164.737 225.021 164.731 225.01 164.723C224.991 164.708 224.977 164.686 224.973 164.662C224.968 164.637 224.973 164.612 224.986 164.59Z" fill="#282828"/>
<path d="M245.068 149.354C245.079 151.206 245.315 153.049 245.77 154.843C246.006 155.692 246.382 156.495 246.882 157.22C247.354 157.902 248.065 158.381 248.874 158.564C249.709 158.764 250.58 158.754 251.41 158.536C252.271 158.336 253.088 157.977 253.817 157.476C255.332 156.424 256.641 155.102 257.679 153.577C256.944 155.352 255.771 156.912 254.27 158.111C253.497 158.755 252.589 159.218 251.613 159.464C250.637 159.71 249.619 159.734 248.633 159.534C247.602 159.283 246.704 158.654 246.115 157.771C245.579 156.934 245.205 156.003 245.014 155.027C244.673 153.15 244.691 151.225 245.068 149.354Z" fill="#282828"/>
<path d="M259.79 167.043C261.691 167.112 263.54 167.682 265.15 168.696C265.961 169.187 266.713 169.77 267.391 170.434C268.069 171.089 268.66 171.829 269.148 172.635C268.437 172.019 267.753 171.408 267.025 170.853C266.309 170.292 265.56 169.775 264.781 169.306C264.005 168.831 263.2 168.406 262.37 168.034C261.532 167.65 260.67 167.319 259.79 167.043Z" fill="#282828"/>
<path d="M238.849 184.989C239.29 185.435 239.798 185.809 240.355 186.097C240.896 186.411 241.446 186.706 242.002 186.994C243.114 187.566 244.242 188.113 245.377 188.651C247.638 189.749 249.928 190.798 252.14 192.094C249.654 191.515 247.241 190.662 244.943 189.552C243.787 189.002 242.671 188.37 241.604 187.662C240.483 187.007 239.538 186.09 238.849 184.989Z" fill="#282828"/>
<path d="M256.48 171.38C256.872 171.594 257.214 171.888 257.484 172.243C257.64 172.432 257.752 172.653 257.813 172.89C257.874 173.127 257.882 173.374 257.836 173.615C257.694 174.092 257.397 174.508 256.992 174.798C256.626 175.079 256.226 175.312 255.801 175.491C255.606 175.573 255.417 175.669 255.236 175.778C255.064 175.862 254.899 175.958 254.74 176.065L254.309 176.443C254.179 176.584 254.059 176.735 253.951 176.894C253.495 177.528 253.222 178.276 253.162 179.055C253.048 179.824 253.163 180.61 253.494 181.313C253.824 182.017 254.355 182.607 255.02 183.01C255.184 183.121 255.365 183.204 255.556 183.255C255.745 183.316 255.929 183.401 256.125 183.452C256.529 183.53 256.939 183.58 257.351 183.6C257.774 183.612 258.198 183.597 258.62 183.556C259.041 183.482 259.468 183.419 259.904 183.363C259.502 183.522 259.09 183.675 258.672 183.816C258.244 183.934 257.809 184.026 257.369 184.09C256.916 184.129 256.461 184.131 256.008 184.097C255.779 184.058 255.553 184.005 255.33 183.94C255.098 183.896 254.875 183.817 254.667 183.706C253.784 183.305 253.068 182.608 252.645 181.736C252.235 180.87 252.07 179.909 252.167 178.956C252.264 178.003 252.619 177.094 253.195 176.328C253.341 176.138 253.501 175.958 253.675 175.791L254.245 175.344C254.647 175.113 255.069 174.921 255.508 174.771C256.272 174.596 256.939 174.133 257.369 173.477C257.433 173.298 257.456 173.107 257.438 172.918C257.419 172.729 257.358 172.546 257.261 172.383C257.056 172.009 256.793 171.67 256.48 171.38Z" fill="#282828"/>
<path d="M248.378 152.208C248.494 152.733 248.655 153.248 248.858 153.747C249.026 154.221 249.325 154.637 249.721 154.947C249.918 155.088 250.144 155.184 250.382 155.229C250.62 155.274 250.865 155.267 251.1 155.208C251.358 155.161 251.612 155.096 251.861 155.013C252.111 154.917 252.357 154.806 252.624 154.718C252.415 154.897 252.186 155.052 251.961 155.223C251.711 155.357 251.45 155.471 251.182 155.565C250.894 155.663 250.587 155.693 250.286 155.653C249.984 155.612 249.696 155.503 249.444 155.333C248.984 154.957 248.658 154.443 248.514 153.867C248.362 153.328 248.316 152.764 248.378 152.208Z" fill="#282828"/>
<path d="M249.291 151.558C249.827 151.406 250.383 151.331 250.941 151.337C251.509 151.339 252.073 151.429 252.614 151.603C253.178 151.788 253.669 152.144 254.02 152.622C254.323 153.118 254.428 153.711 254.312 154.281C254.248 153.758 254.046 153.261 253.728 152.842C253.385 152.466 252.944 152.192 252.455 152.051C251.428 151.741 250.363 151.575 249.291 151.558Z" fill="#282828"/>
<path d="M256.937 181.651C257.135 181.245 257.436 180.898 257.811 180.647C258.011 180.508 258.237 180.411 258.475 180.362C258.713 180.313 258.958 180.312 259.196 180.36C259.651 180.506 260.05 180.788 260.339 181.169C260.458 181.362 260.583 181.548 260.685 181.744C260.761 181.954 260.85 182.155 260.909 182.366C260.616 182.033 260.358 181.701 260.066 181.411C259.794 181.134 259.457 180.932 259.086 180.822C258.715 180.735 258.325 180.785 257.989 180.964C257.611 181.148 257.257 181.379 256.937 181.651Z" fill="#282828"/>
<path d="M239.381 183.867C239.407 183.084 239.607 182.316 239.966 181.62C240.061 181.424 240.195 181.251 240.359 181.109C240.524 180.967 240.716 180.86 240.923 180.796C241.142 180.754 241.368 180.762 241.583 180.819C241.799 180.876 241.998 180.981 242.167 181.126C242.497 181.375 242.776 181.683 242.992 182.035C243.212 182.408 243.286 182.849 243.2 183.273C243.083 183.656 242.882 184.008 242.613 184.304C242.344 184.601 242.014 184.834 241.645 184.989C242.241 184.557 242.665 183.926 242.84 183.21C242.871 182.876 242.794 182.542 242.619 182.255C242.423 181.965 242.175 181.712 241.888 181.51C241.775 181.399 241.638 181.314 241.488 181.263C241.338 181.213 241.179 181.196 241.021 181.216C240.709 181.32 240.444 181.532 240.274 181.814C239.881 182.453 239.58 183.144 239.381 183.867Z" fill="#282828"/>
<path d="M227.182 178.073C227.135 178.856 226.916 179.618 226.539 180.304C226.439 180.497 226.3 180.668 226.132 180.805C225.964 180.942 225.769 181.044 225.56 181.103C225.34 181.14 225.115 181.126 224.901 181.063C224.687 181 224.49 180.89 224.325 180.74C224.002 180.483 223.731 180.168 223.524 179.811C223.314 179.432 223.251 178.989 223.348 178.567C223.476 178.188 223.686 177.841 223.962 177.552C224.239 177.263 224.575 177.038 224.949 176.893C224.341 177.309 223.9 177.928 223.707 178.64C223.667 178.973 223.736 179.309 223.903 179.6C224.092 179.896 224.333 180.155 224.615 180.364C224.724 180.478 224.859 180.566 225.007 180.621C225.156 180.676 225.315 180.696 225.473 180.68C225.788 180.585 226.058 180.38 226.236 180.103C226.645 179.474 226.964 178.791 227.182 178.073Z" fill="#282828"/>
<path d="M234.341 191.009C234.545 190.469 234.832 189.965 235.192 189.513C235.375 189.274 235.595 189.065 235.844 188.894C235.987 188.787 236.153 188.717 236.329 188.69C236.505 188.662 236.685 188.678 236.854 188.736C237.152 188.906 237.376 189.18 237.482 189.506C237.589 189.785 237.657 190.077 237.683 190.374C237.753 190.947 237.727 191.528 237.607 192.094C237.546 191.537 237.451 190.984 237.323 190.439C237.262 190.179 237.182 189.924 237.084 189.676C236.97 189.458 236.834 189.222 236.662 189.171C236.337 188.993 235.831 189.395 235.461 189.758C235.067 190.156 234.693 190.574 234.341 191.009Z" fill="#282828"/>
<path d="M221.372 164.649L217.332 169.1C217.332 169.1 217.362 174.79 214.482 175.03C214.482 175.03 213.022 176.35 214.062 176.62C214.992 176.85 218.342 176.02 219.792 176.19C219.792 176.19 226.662 174.83 227.832 175.57C228.184 175.808 228.48 176.12 228.7 176.485C228.919 176.849 229.056 177.257 229.102 177.68L229.662 177.62L251.332 178.91L260.732 164.649L221.372 164.649ZM249.292 174.629L218.882 174.12L222.852 167.73H253.322L249.292 174.629Z" fill="#282828"/>
<path d="M196.452 175.032C197.624 174.178 198.949 173.557 200.356 173.204C201.785 172.836 203.266 172.708 204.737 172.825C204.869 172.836 204.992 172.898 205.078 172.999C205.164 173.099 205.207 173.23 205.197 173.362C205.187 173.494 205.125 173.617 205.025 173.703C204.925 173.79 204.794 173.833 204.662 173.824C204.641 173.822 204.621 173.82 204.601 173.816C203.235 173.546 201.834 173.505 200.455 173.694C199.047 173.879 197.688 174.333 196.452 175.032Z" fill="#282828"/>
<path d="M204.669 185.362C207.483 185.414 210.296 185.512 213.11 185.779C213.806 185.842 214.535 185.955 215.207 186.034C215.886 186.107 216.571 186.121 217.252 186.074C218.602 185.982 219.927 185.664 221.172 185.134L221.205 185.119C221.326 185.066 221.464 185.063 221.588 185.111C221.712 185.159 221.811 185.254 221.865 185.375C221.918 185.497 221.922 185.634 221.874 185.758C221.826 185.882 221.73 185.981 221.609 186.035L221.581 186.046C220.203 186.549 218.749 186.812 217.282 186.824C216.558 186.83 215.834 186.773 215.12 186.652C214.401 186.524 213.746 186.381 213.046 186.275C210.278 185.845 207.473 185.58 204.669 185.362Z" fill="#282828"/>
<path d="M206.837 193.122C207.791 192.779 208.755 192.458 209.729 192.162C210.715 191.851 211.719 191.605 212.736 191.425C212.868 191.404 213.002 191.436 213.11 191.514C213.218 191.592 213.291 191.71 213.312 191.841C213.333 191.972 213.301 192.107 213.223 192.215C213.145 192.323 213.028 192.395 212.896 192.417C212.87 192.421 212.843 192.423 212.816 192.423H212.807C211.812 192.434 210.819 192.511 209.834 192.651C208.834 192.78 207.834 192.94 206.837 193.122Z" fill="#282828"/>
<path d="M210.603 167.854C211.115 168.385 211.717 168.821 212.38 169.143C213.053 169.453 213.758 169.687 214.483 169.84C214.1 169.929 213.704 169.949 213.314 169.9C212.919 169.847 212.533 169.736 212.171 169.569C211.815 169.385 211.491 169.146 211.211 168.86C210.931 168.578 210.722 168.233 210.603 167.854Z" fill="#282828"/>
<path d="M225.867 185.538C225.602 185.539 225.347 185.435 225.159 185.248C224.971 185.061 224.864 184.807 224.863 184.542C224.862 184.277 224.966 184.022 225.152 183.834C225.339 183.645 225.593 183.539 225.858 183.538L238.526 183.418C238.658 183.414 238.789 183.437 238.912 183.485C239.035 183.534 239.147 183.606 239.241 183.699C239.335 183.791 239.41 183.902 239.461 184.024C239.511 184.146 239.536 184.277 239.535 184.409C239.536 184.54 239.512 184.67 239.463 184.792C239.413 184.914 239.341 185.025 239.249 185.119C239.157 185.213 239.047 185.287 238.926 185.339C238.805 185.39 238.676 185.417 238.544 185.418L225.877 185.538H225.867Z" fill="#282828"/>
<path d="M260.676 185.213C260.411 185.214 260.156 185.108 259.968 184.921C259.781 184.734 259.675 184.479 259.675 184.214C259.675 183.949 259.78 183.694 259.967 183.507C260.155 183.319 260.409 183.214 260.674 183.213L295.592 183.167H295.594C295.859 183.167 296.113 183.272 296.301 183.46C296.489 183.647 296.594 183.902 296.595 184.167C296.595 184.432 296.49 184.686 296.302 184.874C296.115 185.062 295.86 185.167 295.595 185.167L260.677 185.213H260.676Z" fill="#282828"/>
<path d="M492.488 184.905C492.223 184.905 491.969 184.8 491.781 184.612C491.593 184.425 491.488 184.17 491.488 183.905C491.488 183.64 491.593 183.386 491.78 183.198C491.968 183.01 492.222 182.905 492.487 182.905L524.583 182.866H524.583C524.849 182.866 525.103 182.971 525.291 183.158C525.478 183.346 525.584 183.6 525.584 183.865C525.584 184.13 525.479 184.385 525.292 184.572C525.104 184.76 524.85 184.866 524.585 184.866L492.49 184.905H492.488Z" fill="#282828"/>
<path d="M309.692 184.389H307.318C307.255 184.389 307.194 184.365 307.149 184.32C307.104 184.276 307.078 184.215 307.077 184.152C307.076 184.121 307.082 184.09 307.094 184.061C307.105 184.033 307.122 184.006 307.144 183.984C307.166 183.962 307.192 183.945 307.22 183.933C307.249 183.921 307.28 183.915 307.311 183.915H309.692C309.724 183.914 309.755 183.92 309.784 183.932C309.813 183.944 309.839 183.961 309.861 183.983C309.883 184.006 309.901 184.032 309.913 184.061C309.925 184.09 309.931 184.121 309.931 184.152C309.931 184.183 309.925 184.214 309.913 184.243C309.901 184.272 309.883 184.298 309.861 184.32C309.839 184.342 309.813 184.36 309.784 184.372C309.755 184.383 309.724 184.389 309.692 184.389Z" fill="#282828"/>
<path d="M1.41651 187.63C1.1513 187.632 0.896456 187.527 0.708049 187.341C0.519643 187.154 0.413107 186.9 0.411876 186.635C0.410645 186.37 0.514822 186.115 0.701488 185.927C0.888154 185.738 1.14202 185.632 1.40724 185.63L45.4346 185.221C45.6976 185.226 45.9488 185.331 46.1366 185.515C46.3243 185.699 46.4343 185.949 46.4439 186.211C46.4451 186.343 46.4205 186.473 46.3714 186.595C46.3223 186.717 46.2496 186.828 46.1576 186.922C46.0657 187.015 45.9561 187.09 45.8352 187.141C45.7143 187.193 45.5845 187.22 45.4531 187.221L1.42579 187.63H1.41651Z" fill="#282828"/>
<path d="M167.465 49.212C167.835 49.1992 168.185 49.0433 168.442 48.7772C168.699 48.511 168.843 48.1555 168.843 47.7854C168.843 47.4154 168.699 47.0598 168.442 46.7937C168.185 46.5276 167.835 46.3717 167.465 46.3589C167.095 46.3717 166.745 46.5276 166.487 46.7937C166.23 47.0598 166.087 47.4154 166.087 47.7854C166.087 48.1555 166.23 48.511 166.487 48.7772C166.745 49.0433 167.095 49.1992 167.465 49.212Z" fill="#282828"/>
</svg>
