<svg width="262" height="372" viewBox="0 0 262 372" fill="none" xmlns="http://www.w3.org/2000/svg">
<path d="M193.902 172.981L219.962 183.881C218.612 184.251 217.283 184.671 215.942 185.061L211.973 186.341C209.322 187.191 206.692 188.121 204.072 189.051C201.453 190.001 198.833 190.951 196.243 191.981C193.692 192.981 191.132 194.001 188.623 195.111C187.223 186.131 185.123 176.541 182.373 174.311L193.902 172.981Z" fill="#282828"/>
<path d="M219.962 183.881V202.401C215.143 204.641 204.342 208.181 190.712 212.241C190.712 212.241 190.002 203.981 188.623 195.131C191.272 194.391 193.902 193.561 196.502 192.701C199.152 191.851 201.783 190.921 204.402 189.991C207.022 189.041 209.643 188.091 212.232 187.061L216.112 185.521C217.393 184.971 218.692 184.461 219.962 183.881Z" fill="#282828"/>
<path d="M32.9526 193.671C33.9424 193.371 34.9126 193.041 35.8726 192.651L34.5425 197.931C33.2488 196.656 31.8762 195.464 30.4326 194.361C31.2725 194.151 32.1226 193.931 32.9526 193.671Z" fill="#282828"/>
<path d="M121.462 213.891C107.552 211.651 69.5023 199.271 62.6522 194.061C57.6122 190.221 51.8421 183.931 51.0921 168.931C49.9925 175.761 48.8627 182.591 47.7025 189.421L47.6625 189.661C48.5134 189.181 49.4296 188.828 50.3822 188.612C51.4529 188.338 52.5622 188.251 53.6625 188.352C52.7245 188.935 51.6925 189.351 50.6122 189.582C49.639 189.826 48.634 189.921 47.6322 189.862L44.9022 205.711C47.3924 207.401 49.8622 209.102 52.3021 210.852L56.1424 213.591L59.9525 216.382C62.4925 218.242 65.0423 220.081 67.5423 222.001C70.0423 223.911 72.5721 225.771 75.0521 227.721L75.0624 227.732C75.1174 227.782 75.1558 227.848 75.1722 227.922C77.0921 227.372 79.0326 226.862 80.9622 226.332L87.1322 224.751C91.2523 223.711 95.3822 222.751 99.5023 221.751C103.652 220.821 107.783 219.851 111.932 218.971C116.082 218.081 120.232 217.212 124.412 216.452C120.332 217.612 116.212 218.671 112.102 219.711C107.993 220.761 103.852 221.711 99.7323 222.721C95.5921 223.641 91.4623 224.611 87.3123 225.501L81.0824 226.811C79.1121 227.191 77.1522 227.592 75.1824 227.952C75.1824 227.962 75.2024 227.972 75.2024 227.982C75.5623 232.012 75.9021 236.042 76.1424 240.082C75.512 236.142 74.9822 232.192 74.4725 228.232C71.9422 226.442 69.4725 224.582 66.9725 222.762C64.4222 220.922 61.9222 219.002 59.4124 217.112L55.6424 214.262L51.9222 211.362C49.5521 209.532 47.2122 207.651 44.8924 205.751L44.0921 210.411C44.072 210.524 44.0081 210.624 43.9144 210.69C43.8207 210.755 43.7048 210.781 43.5921 210.762C43.5677 210.76 43.544 210.753 43.5223 210.742L32.6824 206.971C32.5732 206.93 32.4826 206.851 32.4274 206.748C32.3722 206.645 32.3561 206.525 32.3822 206.411L34.5023 198.072C32.6503 197.059 30.8726 195.916 29.1825 194.651C27.8524 195.611 26.5423 196.581 25.2024 197.531C23.7424 198.541 22.302 199.582 20.8221 200.582C22.1824 199.432 23.5623 198.311 24.9422 197.181C26.2225 196.131 27.5223 195.112 28.8221 194.082C28.8319 194.008 28.8558 193.936 28.8924 193.871C28.1224 190.911 27.4422 187.932 26.7322 184.952C25.9822 181.872 25.2922 178.772 24.6224 175.672C23.9222 172.572 23.2523 169.472 22.6321 166.352C21.9822 163.242 21.3821 160.132 20.8221 157.002C21.6824 160.062 22.5022 163.132 23.262 166.212C24.0623 169.282 24.802 172.372 25.5223 175.462C26.262 178.552 26.9823 181.642 27.6424 184.742C28.2923 187.682 28.9524 190.622 29.552 193.572C30.6224 193.322 31.6922 193.092 32.7723 192.902C33.8123 192.722 34.8523 192.582 35.9124 192.492L37.0823 187.902L41.8421 169.392L41.8523 169.362V169.352C42.4498 167.734 42.9211 166.072 43.262 164.382C43.6527 162.737 43.6425 161.022 43.2322 159.382C42.9813 158.602 42.5254 157.904 41.9124 157.362C41.5902 157.091 41.2494 156.844 40.8924 156.622L40.3324 156.252L40.0423 156.012C40.0023 156.002 39.9725 155.972 39.8622 155.932C38.1842 155.549 36.479 155.299 34.7621 155.182C27.8021 154.552 20.8124 154.182 13.8324 153.802C17.3221 153.852 20.8221 153.952 24.3221 154.082C27.8221 154.212 31.3124 154.352 34.8124 154.622C35.6825 154.692 36.5624 154.772 37.4325 154.872C38.3315 154.941 39.2219 155.095 40.0921 155.332C40.2369 155.378 40.3724 155.449 40.4925 155.542L40.7123 155.722L41.2523 156.062C41.6415 156.293 42.0125 156.554 42.3621 156.842C43.0792 157.454 43.6181 158.249 43.9222 159.142C44.4008 160.897 44.4522 162.742 44.0721 164.522C43.7481 166.258 43.2798 167.963 42.6722 169.622L38.012 188.132L33.3924 206.232L43.3324 209.752L47.1424 189.322C48.4325 182.502 49.749 175.685 51.0921 168.872C50.8702 162.308 51.3328 155.739 52.4725 149.272L34.1624 147.352C32.3176 147.182 30.5707 146.445 29.1624 145.242C27.6638 145.023 26.1782 144.722 24.7123 144.342C24.3324 144.252 23.9525 144.152 23.5721 144.032C23.3822 143.972 23.1922 143.912 22.9925 143.842C22.9701 143.832 22.9465 143.825 22.9222 143.822H22.8924C22.8246 143.829 22.7577 143.842 22.6922 143.862C21.9864 144.082 21.3032 144.37 20.6522 144.722C19.2723 145.392 17.9125 146.132 16.5326 146.832C15.1625 147.562 13.7621 148.252 12.3422 148.912C14.7807 146.945 17.4185 145.239 20.2123 143.822C20.9416 143.451 21.7053 143.153 22.4926 142.932C22.6209 142.906 22.7514 142.893 22.8822 142.892C23.0398 142.901 23.1951 142.934 23.3422 142.992C23.5024 143.072 23.6825 143.132 23.8524 143.202L24.9423 143.602C26.3324 144.092 27.7226 144.612 29.1024 145.182C27.6523 143.802 26.6122 141.572 27.2226 137.932L28.1523 113.242L24.4023 112.472C24.4023 112.472 21.6425 113.092 27.0922 97.3515L35.8022 72.3015C35.8022 72.3015 1.59221 76.5215 0.352495 77.7615C-0.887735 79.0015 7.54243 162.562 19.2026 202.482C19.2026 202.482 72.2622 240.422 75.4824 241.662C77.0522 242.252 106.462 235.202 138.592 226.732C138.592 226.731 135.362 216.131 121.462 213.891ZM9.32213 96.5214C8.51207 91.6014 7.7323 86.6814 7.05214 81.7414C8.13222 86.6114 9.11219 91.5014 10.0721 96.3914C11.0326 101.281 11.9125 106.191 12.8324 111.091C13.6722 116.001 14.5624 120.911 15.3622 125.831L16.5521 133.211C16.9125 135.681 17.3021 138.141 17.6322 140.611C17.0824 138.181 16.5922 135.741 16.0624 133.301L14.6024 125.961C13.6424 121.071 12.7723 116.161 11.8524 111.261C11.0121 106.351 10.1224 101.451 9.32213 96.5214V96.5214Z" fill="#282828"/>
<path d="M101.772 38.5815C99.9525 38.5815 97.6322 39.5715 95.3221 40.0715C93.0121 40.5715 87.7225 39.5715 87.2225 38.0915C86.7225 36.6015 83.6024 24.3215 83.0921 24.9015C82.5921 25.4814 81.6024 26.5115 81.6024 26.5115C81.6024 26.5115 81.4325 41.4715 81.7621 43.0815C82.1024 44.7015 88.2123 52.8015 97.3021 51.9715C106.392 51.1415 107.722 40.4015 107.722 40.4015C107.722 40.4015 103.582 38.5815 101.772 38.5815ZM103.272 43.0215C102.605 43.4327 101.824 43.6217 101.042 43.5615C100.283 43.5035 99.5471 43.2707 98.8924 42.8815C98.2556 42.5126 97.7116 42.0029 97.3021 41.3915C98.4892 42.0061 99.7759 42.4056 101.102 42.5715C101.723 42.6181 102.347 42.5329 102.932 42.3215C103.567 42.0755 104.173 41.7638 104.743 41.3915C104.424 42.068 103.912 42.6351 103.272 43.0215V43.0215Z" fill="#282828"/>
<path d="M81.6019 26.5159C81.6019 26.5159 89.867 18.7467 89.2058 9.15915C89.2058 9.15915 91.3547 7.17552 94.826 10.4816C94.826 10.4816 97.8015 11.3081 101.273 7.67142C104.744 4.03477 106.562 9.32442 106.562 9.32442C106.562 9.32442 108.381 14.9447 108.877 13.457C109.373 11.9693 110.199 4.86126 102.761 2.54703C96.9761 0.823925 90.9295 0.152086 84.9079 0.563414C82.9243 0.894014 78.7917 4.20005 78.7917 8.82851C78.7917 13.457 76.8081 19.2425 76.9734 21.0609C77.1387 22.8793 81.6019 26.5159 81.6019 26.5159Z" fill="#282828"/>
<path d="M89.0405 24.5323C90.6436 23.9197 92.3647 23.6786 94.0745 23.8269C94.9346 23.9008 95.7816 24.0855 96.5945 24.3765C97.4026 24.6738 98.1482 25.119 98.7932 25.6894C98.0308 25.3594 97.2428 25.0922 96.437 24.8903C95.6399 24.7076 94.8309 24.5814 94.0161 24.5128C92.3593 24.3996 90.6964 24.4061 89.0405 24.5323Z" fill="#282828"/>
<path d="M103.091 24.9022C103.754 24.1759 104.57 23.6063 105.481 23.2349C106.384 22.8076 107.401 22.6828 108.381 22.8791C107.487 23.1641 106.608 23.4947 105.747 23.8696C104.885 24.2236 104.036 24.6088 103.091 24.9022Z" fill="#282828"/>
<path d="M95.3218 28.0448C95.5897 28.0355 95.8434 27.9226 96.0296 27.7299C96.2158 27.5372 96.3199 27.2796 96.3199 27.0117C96.3199 26.7437 96.2158 26.4861 96.0296 26.2934C95.8434 26.1007 95.5897 25.9878 95.3218 25.9785C95.054 25.9878 94.8002 26.1007 94.614 26.2934C94.4278 26.4861 94.3237 26.7437 94.3237 27.0117C94.3237 27.2796 94.4278 27.5372 94.614 27.7299C94.8002 27.9226 95.054 28.0355 95.3218 28.0448V28.0448Z" fill="#282828"/>
<path d="M105.901 27.3837C106.169 27.3744 106.423 27.2615 106.609 27.0688C106.795 26.876 106.899 26.6185 106.899 26.3505C106.899 26.0825 106.795 25.825 106.609 25.6323C106.423 25.4395 106.169 25.3266 105.901 25.3174C105.633 25.3266 105.38 25.4395 105.193 25.6323C105.007 25.825 104.903 26.0825 104.903 26.3505C104.903 26.6185 105.007 26.876 105.193 27.0688C105.38 27.2615 105.633 27.3744 105.901 27.3837V27.3837Z" fill="#282828"/>
<path d="M76.9734 21.0608C76.612 21.2109 76.289 21.4404 76.0282 21.7322C75.7674 22.024 75.5756 22.3707 75.4668 22.7466C75.2583 23.4893 75.2596 24.2753 75.4707 25.0173C75.9519 26.5352 76.5192 28.0245 77.1699 29.4778C77.7514 30.9972 78.21 32.5609 78.5415 34.1537C78.6754 34.9014 79.0452 35.5865 79.5967 36.1089C79.8916 36.3653 80.2375 36.5563 80.6116 36.6693C80.9858 36.7822 81.3796 36.8147 81.7671 36.7645C81.3659 36.8816 80.9434 36.9071 80.531 36.8391C80.1186 36.7711 79.7267 36.6113 79.3843 36.3715C78.7098 35.8332 78.2308 35.0883 78.0208 34.2513C77.617 32.7113 77.1177 31.1979 76.5259 29.7199C76.2505 28.9687 75.9693 28.2189 75.6692 27.4756C75.3391 26.7198 75.0986 25.9279 74.9527 25.1161C74.7857 24.2849 74.8548 23.4234 75.1521 22.6294C75.3105 22.2428 75.558 21.8992 75.8746 21.6266C76.1911 21.3539 76.5676 21.1601 76.9734 21.0608V21.0608Z" fill="#282828"/>
<path d="M103.918 32.3015C104.312 33.3473 104.3 34.5032 103.884 35.5404C103.654 36.0956 103.228 36.5464 102.686 36.8062C102.154 37.0191 101.561 37.0242 101.025 36.8204C101.522 36.7569 102 36.5911 102.43 36.3335C102.798 36.0585 103.082 35.688 103.254 35.2624C103.599 34.3072 103.822 33.3124 103.918 32.3015V32.3015Z" fill="#282828"/>
<path d="M108.877 13.457C108.736 15.7269 108.732 18.0031 108.863 20.2734C108.932 21.3993 109.061 22.5206 109.252 23.6324C109.453 24.7232 109.77 25.8406 109.962 26.9801C110.35 29.2685 110.325 31.608 109.888 33.8876C109.412 36.1335 108.685 38.3186 107.719 40.4013C108.431 38.2439 108.981 36.0367 109.365 33.7978C109.712 31.574 109.684 29.3079 109.283 27.0933C109.117 25.9796 108.828 24.8931 108.635 23.738C108.447 22.6001 108.347 21.4493 108.336 20.2959C108.293 18.0041 108.474 15.7136 108.877 13.457V13.457Z" fill="#282828"/>
<path d="M81.7671 43.0828C81.6301 44.4053 81.1372 45.666 80.3409 46.7308C79.9351 47.2717 79.4375 47.7372 78.8708 48.1062C78.2971 48.4612 77.6382 48.6547 76.9636 48.6663C77.5361 48.407 78.0714 48.0724 78.5552 47.6712C79.0106 47.2614 79.4245 46.8076 79.791 46.3166C80.1645 45.8176 80.5084 45.2972 80.821 44.758C81.1351 44.2121 81.4588 43.6609 81.7671 43.0828Z" fill="#282828"/>
<path d="M81.1187 44.8492C76.0952 45.8695 71.1793 47.3622 66.4366 49.3075C63.978 50.2001 61.4072 50.7465 58.7982 50.9311C56.2628 51.0791 53.7378 51.3692 51.2349 51.8002C50.6703 51.9233 50.1285 52.1342 49.6292 52.4251C49.0555 52.7806 48.4506 53.0832 47.8221 53.3291C46.6787 53.7537 45.6254 54.3895 44.7171 55.2034C42.9832 57.0073 41.558 59.0841 40.4983 61.3507C39.8975 62.4687 39.418 63.6536 38.8902 64.8143C38.4129 65.9983 37.9332 67.1841 37.4854 68.3827C37.063 69.5911 36.615 70.7918 36.2127 72.0087L35.0652 75.6803L35.0626 75.6892L35.0577 75.7032C32.6668 81.685 30.4942 87.7499 28.5398 93.8978C27.5718 96.9688 26.6573 100.058 25.8763 103.171C25.491 104.728 25.1277 106.29 24.8558 107.854C24.7175 108.626 24.6224 109.405 24.5711 110.187C24.5487 110.558 24.5546 110.93 24.5887 111.3C24.5967 111.559 24.6745 111.811 24.814 112.029L24.5298 111.884C30.2098 113 35.8938 114.113 41.5855 115.164L50.1163 116.755L54.3853 117.476C55.7709 117.717 57.1678 117.888 58.5706 117.989L58.9854 117.994C58.9864 117.971 58.9754 117.996 59.0005 117.98C59.0287 117.952 59.0603 117.927 59.0947 117.906C59.2844 117.686 59.4424 117.44 59.5645 117.177C59.8553 116.557 60.0959 115.914 60.2837 115.256C60.6675 113.884 60.9746 112.493 61.2036 111.088C61.6853 108.26 61.9419 105.388 62.1411 102.513C62.322 99.6364 62.3808 96.7525 62.3174 93.8616C62.2754 90.9736 62.1038 88.0847 61.78 85.2077C61.7783 85.19 61.7835 85.1724 61.7945 85.1585C61.8055 85.1445 61.8214 85.1353 61.839 85.1328C61.8565 85.1303 61.8744 85.1347 61.8888 85.145C61.9033 85.1553 61.9132 85.1708 61.9165 85.1882C62.4009 88.0477 62.7351 90.9357 62.9392 93.8352C63.1172 96.7361 63.1699 99.643 63.0972 102.556C63.0257 105.473 62.7864 108.383 62.3804 111.272C62.1776 112.732 61.8933 114.179 61.5288 115.606C61.3366 116.345 61.084 117.068 60.7737 117.765C60.5984 118.163 60.3641 118.532 60.0789 118.86C59.9771 118.954 59.8663 119.046 59.7549 119.132C59.6056 119.222 59.445 119.292 59.2774 119.341C59.0428 119.364 58.8323 119.363 58.6077 119.37C57.1207 119.283 55.6396 119.114 54.1712 118.864L49.8694 118.159C47.012 117.654 44.1565 117.148 41.3125 116.586C35.6267 115.452 29.9509 114.277 24.2849 113.062L24.2376 113.052C24.1464 113.032 24.0636 112.985 24.0005 112.916C23.6357 112.501 23.4296 111.97 23.4187 111.417C23.3876 110.983 23.3899 110.548 23.4256 110.114C23.4982 109.289 23.617 108.469 23.7816 107.657C24.096 106.051 24.503 104.479 24.9539 102.923C25.8531 99.8106 26.8797 96.7477 27.9376 93.6978C29.0135 90.6542 30.0963 87.6156 31.2106 84.5884L34.5851 75.5178L34.5775 75.5404C35.8654 70.5399 37.5385 65.6467 39.5819 60.9046C40.608 58.4654 42.076 56.2369 43.912 54.3313C44.9119 53.414 46.0735 52.6903 47.3375 52.1969C47.9033 51.969 48.4515 51.6996 48.9777 51.391C49.5915 51.0372 50.2578 50.7836 50.9515 50.6397C53.516 50.2281 56.1021 49.9651 58.6969 49.8519C59.9662 49.7404 61.2301 49.605 62.4716 49.3775C63.7153 49.186 64.9391 48.8826 66.1283 48.4711C70.9567 46.6467 75.9795 45.3857 81.0971 44.7131C81.1151 44.7105 81.1335 44.7152 81.1481 44.7262C81.1627 44.7372 81.1723 44.7535 81.1749 44.7716C81.1768 44.7892 81.1721 44.8068 81.1617 44.8211C81.1513 44.8355 81.136 44.8455 81.1187 44.8492V44.8492Z" fill="#282828"/>
<path d="M97.3358 59.1794C97.2228 59.781 97.1942 60.3953 97.2508 61.0048C97.2874 61.6215 97.3274 62.2374 97.386 62.8531L97.7635 66.543C98.0347 69.0017 98.3577 71.455 98.6582 73.9108L99.1365 77.5912C99.4382 78.8855 99.2403 80.246 98.5825 81.4008C98.366 81.6752 98.0975 81.9043 97.7924 82.0748C97.4872 82.2453 97.1515 82.3538 96.8043 82.3943C96.4571 82.4348 96.1053 82.4064 95.7691 82.3106C95.433 82.2149 95.119 82.0538 94.8452 81.8365C94.5709 81.6218 94.3434 81.3532 94.1769 81.0473C94.0104 80.7413 93.9084 80.4045 93.8772 80.0575L93.6777 78.213C93.4011 75.755 93.1069 73.298 92.7319 70.8546C92.5529 69.6343 92.3095 68.4244 92.0027 67.2298C91.9275 66.9389 91.824 66.6559 91.6936 66.3852C91.6677 66.325 91.6281 66.2716 91.5781 66.2293C91.5281 66.1869 91.4689 66.1567 91.4053 66.1411L90.9805 65.9573C90.4131 65.7125 89.8389 65.4824 89.262 65.2592C86.957 64.3611 84.6355 63.5024 82.2925 62.7153C81.1306 62.3475 79.9238 61.8223 78.8074 62.1901C78.2885 62.4394 77.8577 62.8405 77.5719 63.3402C77.2861 63.8399 77.1589 64.4146 77.207 64.9882C77.206 65.0532 77.1792 65.115 77.1325 65.1602C77.0859 65.2054 77.0232 65.2302 76.9582 65.2292C76.9157 65.2282 76.8742 65.2163 76.8376 65.1946C76.801 65.1729 76.7706 65.1422 76.7492 65.1054C76.1 63.9767 75.3698 62.8964 74.5644 61.8732C73.7855 60.8468 72.8741 59.9281 71.854 59.1411C71.3551 58.7657 70.7978 58.4753 70.2043 58.2813C69.5529 58.0755 68.9263 57.7977 68.3364 57.453C67.1335 56.7654 66.1167 55.7942 65.3748 54.6239C65.3647 54.6078 65.3568 54.5904 65.3513 54.5722L65.3449 54.5508C65.1595 53.8625 65.2493 53.1291 65.5954 52.506C65.9146 51.9307 66.333 51.4163 66.8311 50.9865C67.7873 50.1687 68.8411 49.4723 69.9685 48.9134C72.1785 47.7926 74.4922 46.8896 76.8772 46.2171C76.9378 46.1996 77.0022 46.2009 77.0621 46.2207C77.1219 46.2406 77.1743 46.2782 77.2124 46.3284C77.2505 46.3787 77.2725 46.4393 77.2754 46.5023C77.2784 46.5653 77.2622 46.6277 77.229 46.6813L77.22 46.6959C76.838 47.3401 76.5907 48.0551 76.4929 48.7976C76.4368 49.1755 76.406 49.5568 76.4009 49.9388C76.4341 50.3204 76.4312 50.7072 76.4991 51.0865C76.7565 52.6263 77.333 54.0952 78.1915 55.3991C78.611 56.0629 79.0651 56.7042 79.5521 57.3202C80.0843 57.9002 80.5836 58.5127 81.139 59.0735C81.7127 59.6156 82.2576 60.1922 82.8572 60.7086L84.6807 62.2348C84.6844 62.2375 84.6874 62.2408 84.6898 62.2447C84.6921 62.2486 84.6937 62.2529 84.6944 62.2573C84.695 62.2618 84.6948 62.2664 84.6938 62.2708C84.6927 62.2751 84.6907 62.2793 84.688 62.2829C84.6823 62.29 84.6741 62.2946 84.6651 62.2959C84.6561 62.2972 84.647 62.2951 84.6395 62.2899L82.7459 60.8401C82.1211 60.3477 81.5482 59.7922 80.9451 59.2699C80.3553 58.7332 79.8394 58.119 79.2852 57.5432C78.7734 56.9262 78.2946 56.2826 77.8509 55.615C76.9279 54.2783 76.2946 52.7634 75.9915 51.1676C75.9109 50.7679 75.9022 50.3551 75.8594 49.9482C75.8547 49.5368 75.8781 49.1255 75.9293 48.7172C76.0198 47.8788 76.2849 47.0687 76.7073 46.3388L77.0499 46.8176C74.7269 47.5357 72.4678 48.4463 70.2962 49.5399C69.2251 50.0753 68.224 50.7407 67.3157 51.5212C66.8641 51.831 66.5061 52.2589 66.2808 52.7582C66.0555 53.2575 65.9716 53.8091 66.0381 54.3528L66.0084 54.2799C66.68 55.3437 67.5969 56.2309 68.6822 56.8673C69.2261 57.1925 69.8045 57.4561 70.4068 57.6532C71.0643 57.8753 71.681 58.2036 72.2322 58.6251C73.2945 59.4531 74.2331 60.4285 75.0196 61.5219C75.8194 62.5854 76.5407 63.7058 77.1778 64.8741L76.7203 64.9914C76.7373 64.3327 76.9008 63.6861 77.1988 63.0984C77.3459 62.7941 77.5531 62.5227 77.8079 62.3006C78.0627 62.0785 78.3599 61.9103 78.6815 61.8061C80.0184 61.4197 81.2584 62.0257 82.4024 62.3955C84.7405 63.222 87.0506 64.1178 89.3445 65.0532L91.0645 65.7572L91.494 65.9371C91.5794 65.9635 91.6587 66.0069 91.727 66.0645C91.7954 66.1222 91.8515 66.193 91.8919 66.2728C92.0347 66.5576 92.1487 66.856 92.232 67.1636C92.576 68.3653 92.7906 69.587 93.0204 70.8056C93.4691 73.2447 93.8363 75.6959 94.1822 78.1496L94.4347 79.9909C94.4612 80.2622 94.543 80.5252 94.6751 80.7636C94.8071 81.002 94.9866 81.2109 95.2025 81.3773C95.6307 81.713 96.1744 81.8656 96.7148 81.8017C97.2552 81.7378 97.7483 81.4626 98.0865 81.0363C98.386 80.5537 98.5688 80.0079 98.6204 79.4423C98.6821 78.85 98.6609 78.2519 98.5574 77.6654L98.1199 73.9757C97.8286 71.5157 97.596 69.0487 97.387 66.5794C97.2805 65.345 97.1939 64.1083 97.1455 62.8687C97.1155 62.2496 97.104 61.6287 97.0957 61.0085C97.0656 60.3824 97.1261 59.7553 97.2754 59.1465C97.2782 59.1381 97.2841 59.1311 97.292 59.1271C97.2998 59.123 97.3089 59.1222 97.3174 59.1249C97.3258 59.1275 97.3329 59.1333 97.337 59.1411C97.3412 59.1489 97.3421 59.158 97.3396 59.1665L97.3358 59.1794Z" fill="#282828"/>
<path d="M100.434 51.2013C100.919 51.8868 101.346 52.611 101.713 53.3665C101.896 53.7464 102.028 54.151 102.189 54.545C102.32 54.9535 102.417 55.3723 102.479 55.7971C102.632 56.6676 102.56 57.5628 102.27 58.3978C101.945 59.2532 101.326 59.9653 100.525 60.407C100.494 60.4238 100.459 60.4343 100.424 60.4378C100.389 60.4414 100.353 60.438 100.319 60.4277C100.285 60.4175 100.254 60.4007 100.226 60.3783C100.199 60.3559 100.176 60.3283 100.159 60.2971C100.143 60.2669 100.133 60.2338 100.129 60.1997L100.128 60.1902C100.017 58.9902 99.761 57.808 99.3669 56.6692C99.1695 56.1069 98.8582 55.5914 98.4526 55.1548C98.2545 54.9571 97.9995 54.8264 97.7233 54.7811C97.5882 54.798 97.4578 54.8418 97.3398 54.9099C97.2218 54.978 97.1186 55.069 97.0363 55.1776C96.3515 56.1652 95.8561 57.2714 95.5754 58.4399C95.2268 59.5974 94.9345 60.7813 94.6799 61.9581L94.6848 61.8456L94.9965 63.9928C95.0099 64.0851 94.9869 64.1789 94.9324 64.2546C94.8778 64.3302 94.796 64.3817 94.7042 64.3982C94.6124 64.4146 94.5178 64.3948 94.4404 64.3428C94.363 64.2908 94.3088 64.2107 94.2893 64.1195L94.2878 64.1115C94.0976 63.1011 93.9876 62.0772 93.9587 61.0495C93.904 60.0303 93.9294 59.0135 93.976 58.0001C94.0621 55.9755 94.2724 53.9581 94.6057 51.9593C94.6072 51.9503 94.6122 51.9422 94.6197 51.9369C94.6272 51.9315 94.6364 51.9293 94.6455 51.9308C94.6537 51.9324 94.6612 51.9368 94.6665 51.9434C94.6718 51.9499 94.6745 51.9582 94.6743 51.9666C94.6081 53.9863 94.5753 56.0013 94.5759 58.0114C94.5489 60.0047 94.6882 61.9969 94.9924 63.9671L94.2834 64.0859L94.0334 61.9307L94.0322 61.9196C94.0283 61.8856 94.0303 61.8511 94.0383 61.8178C94.3249 60.6192 94.6823 59.4386 95.1086 58.2822C95.4995 57.0991 96.09 55.9915 96.8544 55.0076C96.9614 54.8765 97.0941 54.7686 97.2443 54.6907C97.3946 54.6128 97.5592 54.5664 97.728 54.5545C98.0571 54.6078 98.3608 54.7643 98.5952 55.0014C99.0398 55.4464 99.3872 55.9789 99.6157 56.565C100.11 57.7037 100.467 58.8967 100.682 60.1192L100.285 59.9025C100.93 59.4953 101.427 58.8905 101.7 58.1781C101.979 57.4404 102.066 56.6435 101.951 55.8632C101.93 55.4642 101.805 55.0737 101.745 54.6736C101.62 54.2872 101.524 53.8887 101.374 53.5069C101.21 53.1316 101.082 52.7377 100.908 52.3629L100.375 51.2371C100.373 51.2331 100.372 51.2287 100.371 51.2242C100.371 51.2197 100.371 51.2151 100.373 51.2108C100.374 51.2065 100.376 51.2024 100.379 51.1989C100.382 51.1954 100.386 51.1925 100.39 51.1904C100.397 51.1867 100.406 51.1858 100.414 51.1878C100.422 51.1898 100.429 51.1946 100.434 51.2013V51.2013Z" fill="#282828"/>
<path d="M95.446 67.6346C95.7138 67.6254 95.9675 67.5125 96.1537 67.3197C96.3399 67.127 96.4439 66.8695 96.4439 66.6015C96.4439 66.3335 96.3399 66.076 96.1537 65.8833C95.9675 65.6905 95.7138 65.5776 95.446 65.5684C95.1781 65.5776 94.9244 65.6905 94.7382 65.8833C94.552 66.076 94.448 66.3335 94.448 66.6015C94.448 66.8695 94.552 67.127 94.7382 67.3197C94.9244 67.5125 95.1781 67.6254 95.446 67.6346V67.6346Z" fill="#282828"/>
<path d="M96.1898 73.3378C96.4577 73.3285 96.7114 73.2156 96.8976 73.0228C97.0838 72.8301 97.1878 72.5726 97.1878 72.3046C97.1878 72.0367 97.0838 71.7791 96.8976 71.5864C96.7114 71.3937 96.4577 71.2808 96.1898 71.2715C95.922 71.2808 95.6683 71.3937 95.4821 71.5864C95.2959 71.7791 95.1919 72.0367 95.1919 72.3046C95.1919 72.5726 95.2959 72.8301 95.4821 73.0228C95.6683 73.2156 95.922 73.3285 96.1898 73.3378Z" fill="#282828"/>
<path d="M96.8096 78.7926C97.0774 78.7833 97.3312 78.6705 97.5174 78.4777C97.7036 78.285 97.8077 78.0275 97.8077 77.7595C97.8077 77.4915 97.7036 77.2339 97.5174 77.0412C97.3312 76.8485 97.0774 76.7356 96.8096 76.7263C96.5418 76.7356 96.288 76.8485 96.1018 77.0412C95.9156 77.2339 95.8115 77.4915 95.8115 77.7595C95.8115 78.0275 95.9156 78.285 96.1018 78.4777C96.288 78.6705 96.5418 78.7833 96.8096 78.7926V78.7926Z" fill="#282828"/>
<path d="M103.398 49.2632C107.528 49.366 111.653 49.64 115.767 50.063C117.825 50.2623 119.875 50.5509 121.919 50.8987C123.999 51.1886 126.034 51.7424 127.974 52.5466C128.228 52.6727 128.466 52.8286 128.684 53.0109C128.884 53.1921 129.073 53.3849 129.251 53.5883C129.593 53.9576 129.965 54.311 130.334 54.6751C131.098 55.3995 131.787 56.1986 132.392 57.0605C133.548 58.8142 134.407 60.7467 134.933 62.7801C135.971 66.7918 136.614 70.8953 136.854 75.0321C136.354 70.9429 135.542 66.8978 134.426 62.9321C133.862 60.9758 133.003 59.1169 131.878 57.4196C131.288 56.5966 130.617 55.835 129.874 55.1463C129.505 54.7896 129.125 54.4353 128.761 54.0509C128.461 53.677 128.083 53.3718 127.655 53.1559C125.782 52.3669 123.818 51.8155 121.809 51.5145C119.788 51.1396 117.746 50.8674 115.705 50.5868C111.617 50.0558 107.51 49.6494 103.398 49.2632Z" fill="#282828"/>
<path d="M46.7231 58.0012C48.6267 57.5982 50.6097 57.8274 52.3711 58.6539C54.1372 59.5018 55.6457 60.8046 56.7415 62.4286C57.2889 63.2272 57.7657 64.072 58.1667 64.9532C58.5465 65.8364 58.8787 66.7392 59.1619 67.6579C59.3691 68.5945 59.6252 69.5179 59.7889 70.4572C59.8968 71.4075 60.0272 72.351 60.1126 73.2963C59.8724 72.3722 59.6768 71.4462 59.4588 70.5272C59.23 69.6116 58.9202 68.7187 58.657 67.8179C58.3048 66.9492 57.9935 66.0628 57.5989 65.2186C57.1947 64.3815 56.7195 63.5805 56.1788 62.8243C55.1643 61.2725 53.7752 60.0011 52.1397 59.1277C50.475 58.2534 48.5985 57.8631 46.7231 58.0012V58.0012Z" fill="#282828"/>
<path d="M71.1877 101.563C71.6626 102.827 72.1628 104.078 72.7446 105.292C73.2949 106.52 73.8989 107.721 74.5391 108.901C75.8058 111.264 77.2535 113.526 78.8694 115.665C80.4622 117.818 82.2739 119.799 84.2754 121.577L85.804 122.882C86.3274 123.299 86.8928 123.66 87.4346 124.056L88.2502 124.65C88.5327 124.83 88.8281 124.991 89.1169 125.163L90.8586 126.193C88.3596 125.128 86.0267 123.709 83.9312 121.98C81.8427 120.233 79.9604 118.253 78.3206 116.08C76.7033 113.896 75.281 111.575 74.0703 109.143C72.8572 106.719 71.8914 104.18 71.1877 101.563V101.563Z" fill="#282828"/>
<path d="M28.1537 113.241C28.1237 117.361 28.0328 121.478 27.9657 125.596C27.91 129.714 27.7706 133.83 27.6766 137.947L27.6739 137.982L27.6681 138.02C27.4165 139.665 27.6265 141.348 28.2748 142.881C28.9628 144.362 30.1975 145.519 31.7201 146.11C32.1115 146.237 32.4945 146.384 32.89 146.499L34.1171 146.737C34.9664 146.862 35.8431 146.954 36.7096 147.049C38.4481 147.234 40.1902 147.398 41.9357 147.542C48.9144 148.129 55.9157 148.43 62.9132 148.587C69.9078 148.747 76.9059 148.516 83.8746 147.894C90.799 147.225 97.8324 146.164 104.123 143.151C104.185 143.122 104.255 143.116 104.32 143.135C104.386 143.154 104.442 143.196 104.478 143.254C104.974 144.027 105.661 144.658 106.472 145.087C107.3 145.524 108.215 145.772 109.15 145.814C110.098 145.85 111.046 145.75 111.966 145.517C112.423 145.383 112.88 145.243 113.334 145.093L114.662 144.542L113.364 145.167C112.917 145.343 112.464 145.509 112.009 145.67C111.08 145.961 110.112 146.108 109.139 146.106C108.14 146.119 107.152 145.89 106.261 145.439C105.369 144.988 104.599 144.328 104.018 143.515L104.372 143.618C101.229 145.256 97.8828 146.473 94.421 147.236C90.9811 148.026 87.4986 148.618 83.9909 149.009C76.9828 149.725 69.9385 150.026 62.8948 149.911C55.8565 149.866 48.8311 149.419 41.8258 148.794C40.074 148.635 38.3238 148.455 36.575 148.254C35.6983 148.15 34.8297 148.053 33.9449 147.915L32.5902 147.641C32.1456 147.509 31.7076 147.34 31.2676 147.188C29.4926 146.46 28.073 145.066 27.3126 143.304C26.6204 141.57 26.4311 139.676 26.7664 137.839L26.7579 137.912C26.9759 133.8 27.1488 129.686 27.4053 125.575C27.65 121.464 27.8715 117.351 28.1537 113.241Z" fill="#282828"/>
<path d="M53.6682 118.078C53.7827 120.342 53.8474 122.606 53.926 124.871L53.7707 124.634C61.7369 127.49 70.1 129.086 78.5581 129.363C82.7627 129.491 86.9688 129.162 91.1023 128.381L94.1802 127.715C95.1968 127.457 96.1826 127.092 97.1867 126.786L98.6911 126.315C99.1814 126.129 99.6575 125.907 100.142 125.705L103.043 124.462L102.797 124.834C102.911 124.147 103.18 123.494 103.586 122.927C103.962 122.377 104.431 121.897 104.972 121.509C106.029 120.76 107.244 120.263 108.523 120.058C109.144 119.95 109.771 119.874 110.4 119.83C111.028 119.831 111.655 119.776 112.278 119.822C112.9 119.874 113.525 119.873 114.141 119.968L115.985 120.242L114.128 120.138C113.511 120.107 112.892 120.136 112.277 120.131C111.661 120.127 111.051 120.224 110.44 120.264C109.837 120.347 109.238 120.462 108.646 120.607C107.485 120.883 106.394 121.397 105.441 122.116C104.535 122.796 103.919 123.792 103.716 124.907L103.712 124.938C103.702 125.01 103.675 125.079 103.632 125.138C103.59 125.197 103.534 125.246 103.47 125.279C99.6592 127.303 95.5825 128.781 91.3598 129.667C87.1359 130.522 82.8254 130.873 78.5188 130.711C74.2273 130.554 69.9597 129.999 65.771 129.053C63.6848 128.564 61.6152 128.013 59.5779 127.359C57.529 126.734 55.5211 125.982 53.5659 125.107L53.5539 125.102C53.5098 125.082 53.4726 125.049 53.447 125.008C53.4215 124.967 53.4087 124.919 53.4103 124.871C53.4892 122.606 53.5537 120.342 53.6682 118.078Z" fill="#282828"/>
<path d="M33.6643 130.087C34.7438 128.599 36.1206 127.353 37.7073 126.425C39.2953 125.485 41.0144 124.786 42.8081 124.352C43.7104 124.169 44.623 124.042 45.5408 123.97C46.4547 123.881 47.3743 123.866 48.2906 123.926C49.2068 123.946 50.1096 124.131 51.0144 124.229C51.907 124.421 52.793 124.638 53.6682 124.871C52.7593 124.79 51.8684 124.641 50.9705 124.564C50.0689 124.535 49.1746 124.411 48.2771 124.456C46.4897 124.447 44.7069 124.637 42.9615 125.023C41.2222 125.418 39.5434 126.044 37.9693 126.883C36.3727 127.715 34.9193 128.796 33.6643 130.087Z" fill="#282828"/>
<path d="M103.256 124.871C103.531 125.47 103.856 126.045 104.228 126.59C104.579 127.123 105.031 127.582 105.558 127.942C105.688 128.02 105.825 128.086 105.967 128.141C106.159 128.213 106.333 128.327 106.475 128.474C106.603 128.64 106.687 128.834 106.72 129.04C106.753 129.247 106.735 129.458 106.666 129.655C106.441 130.328 106.075 130.946 105.592 131.467L105.588 131.471L105.569 131.49C105.054 131.975 104.667 132.578 104.44 133.248C104.336 133.564 104.303 133.899 104.345 134.229C104.386 134.559 104.501 134.876 104.681 135.156C105.015 135.699 105.748 136.228 106.029 137.062C106.116 137.277 106.155 137.509 106.143 137.741C106.131 137.973 106.069 138.199 105.96 138.404C105.724 138.784 105.369 139.075 104.95 139.232L105.042 139.168C104.5 139.741 104.086 140.422 103.826 141.167C103.7 141.539 103.661 141.935 103.713 142.323C103.8 142.716 103.984 143.081 104.248 143.384C103.925 143.116 103.683 142.761 103.552 142.361C103.447 141.945 103.44 141.51 103.532 141.091C103.62 140.674 103.77 140.274 103.979 139.902C104.178 139.526 104.413 139.17 104.681 138.84C104.697 138.82 104.717 138.804 104.74 138.792L104.773 138.776C105.065 138.64 105.305 138.416 105.461 138.135C105.522 137.999 105.554 137.851 105.555 137.702C105.555 137.553 105.524 137.405 105.463 137.268C105.239 136.625 104.633 136.225 104.13 135.51C103.887 135.152 103.728 134.744 103.666 134.316C103.617 133.888 103.663 133.454 103.801 133.046C104.078 132.27 104.545 131.575 105.159 131.025L105.136 131.048C105.562 130.599 105.899 130.073 106.129 129.498C106.183 129.387 106.208 129.263 106.203 129.139C106.197 129.015 106.161 128.895 106.098 128.788C106.013 128.693 105.91 128.617 105.794 128.564C105.632 128.488 105.476 128.399 105.328 128.297C104.775 127.88 104.326 127.341 104.016 126.722C103.694 126.135 103.44 125.514 103.256 124.871V124.871Z" fill="#282828"/>
<path d="M115.572 125.566C115.551 125.986 115.53 126.4 115.509 126.813C114.676 126.806 113.836 126.772 113.002 126.682C112.021 126.603 111.049 126.439 110.096 126.193C111.049 125.947 112.021 125.784 113.002 125.704C113.856 125.615 114.717 125.58 115.572 125.566Z" fill="#282828"/>
<path d="M115.351 130.202C115.323 130.622 115.31 131.035 115.289 131.441C114.525 131.428 113.767 131.393 113.002 131.311C112.021 131.231 111.049 131.067 110.096 130.821C111.049 130.576 112.021 130.412 113.002 130.332C113.788 130.25 114.566 130.215 115.351 130.202Z" fill="#282828"/>
<path d="M115.144 134.665C115.131 135.085 115.11 135.498 115.096 135.905C114.401 135.884 113.698 135.849 113.002 135.774C112.021 135.694 111.049 135.531 110.096 135.285C111.049 135.039 112.021 134.875 113.002 134.796C113.719 134.72 114.435 134.685 115.144 134.665Z" fill="#282828"/>
<path d="M113.002 140.127C113.65 140.058 114.297 140.023 114.938 140.003C114.917 140.423 114.903 140.829 114.89 141.222C114.263 141.208 113.629 141.174 113.002 141.105C112.021 141.025 111.049 140.862 110.096 140.616C111.049 140.37 112.021 140.206 113.002 140.127V140.127Z" fill="#282828"/>
<path d="M91.7719 150.378C91.7719 150.378 79.3627 138.114 74.7298 146.067C70.097 154.021 73.2818 159.855 76.724 163.792C80.9175 168.588 81.1283 170.024 82.3725 171.445C83.6167 172.865 97.6625 190.037 115.169 189.072C125.381 188.509 125.207 183.067 123.289 178.63C121.895 175.487 119.655 172.794 116.819 170.85C111.227 166.941 98.7299 157.89 91.7719 150.378Z" fill="#282828"/>
<path d="M87.5396 146.874C90.208 147 92.8694 147.179 95.531 147.353L103.511 147.894C106.168 148.105 108.829 148.259 111.488 148.401C112.817 148.483 114.148 148.531 115.478 148.553C116.141 148.552 116.81 148.6 117.471 148.552L118.468 148.504L119.454 148.349C116.828 148.882 114.145 149.077 111.47 148.93C108.797 148.898 106.13 148.738 103.464 148.581C100.802 148.372 98.1404 148.163 95.4859 147.878C92.8313 147.595 90.1797 147.282 87.5396 146.874Z" fill="#282828"/>
<path d="M114.097 169.266C114.021 169.266 113.948 169.241 113.888 169.196C113.828 169.15 113.784 169.085 113.764 169.013C113.744 168.94 113.749 168.862 113.777 168.792C113.805 168.722 113.856 168.663 113.921 168.625C114.46 168.307 127.178 160.84 131.937 162.392C132.024 162.421 132.095 162.483 132.136 162.564C132.177 162.646 132.184 162.74 132.155 162.826C132.127 162.913 132.066 162.985 131.984 163.026C131.903 163.067 131.809 163.075 131.722 163.047C127.261 161.585 114.401 169.141 114.271 169.219C114.218 169.25 114.158 169.266 114.097 169.266V169.266Z" fill="#282828"/>
<path d="M190.136 118.63L190.143 118.63L190.168 118.635L220.168 129.753L220.195 129.764C223.177 131.159 226.015 132.844 228.666 134.796C231.344 136.751 233.703 139.108 235.658 141.785C236.665 143.135 237.456 144.634 238.002 146.226C238.53 147.795 238.942 149.401 239.237 151.03C239.906 154.341 239.675 157.77 238.568 160.962C237.948 162.55 237.036 164.008 235.879 165.262C234.714 166.496 233.354 167.529 231.853 168.321C230.362 169.108 228.772 169.692 227.126 170.057C226.308 170.23 225.479 170.352 224.646 170.425L222.211 170.691C215.719 171.385 209.229 172.09 202.731 172.723C189.737 173.994 176.738 175.24 163.711 176.199C160.455 176.442 157.197 176.669 153.935 176.856C150.666 177.019 147.422 177.247 144.099 177.101C142.393 176.961 140.771 176.301 139.451 175.21C138.155 174.164 137.016 172.938 136.067 171.569C134.193 168.857 132.685 165.911 131.581 162.805C131.565 162.764 131.561 162.72 131.568 162.677C131.574 162.633 131.591 162.593 131.618 162.558C131.644 162.523 131.679 162.496 131.719 162.478C131.759 162.46 131.802 162.453 131.846 162.457L131.855 162.457C133.25 162.637 134.662 162.632 136.056 162.444C136.711 162.318 137.405 162.056 137.595 161.5C137.713 160.856 137.585 160.191 137.239 159.636C136.553 158.4 135.752 157.231 134.845 156.147C133.958 155.031 133.04 153.936 132.129 152.833C131.218 151.73 130.313 150.62 129.437 149.486C128.606 148.346 127.602 147.343 126.461 146.514C125.926 146.088 125.298 145.794 124.628 145.657C123.959 145.52 123.266 145.544 122.607 145.726C121.325 146.243 120.279 147.214 119.67 148.455L119.663 148.468C119.64 148.51 119.606 148.543 119.565 148.565C119.524 148.587 119.477 148.597 119.43 148.592C119.383 148.587 119.339 148.569 119.303 148.54C119.266 148.51 119.24 148.47 119.226 148.426C118.775 147.039 118.54 145.591 118.528 144.132C118.524 143.389 118.642 142.65 118.876 141.944C119.118 141.21 119.578 140.568 120.195 140.103L120.16 140.134C120.725 139.639 121.373 139.25 122.074 138.983C122.74 138.705 123.421 138.462 124.113 138.254C125.489 137.834 126.88 137.493 128.277 137.183C131.072 136.57 133.886 136.079 136.707 135.632C142.348 134.747 148.013 134.046 153.683 133.41C165.026 132.138 176.389 131.127 187.774 130.29L187.279 130.76C187.997 126.226 188.927 121.85 189.806 117.408L192.542 104.142L198.04 77.615L198.294 78.3086C197.679 77.967 197.013 77.7268 196.321 77.5973C195.569 77.4253 194.797 77.2832 194.016 77.1693C192.456 76.9327 190.871 76.7716 189.286 76.6301C186.112 76.3511 182.919 76.1865 179.727 76.0418C173.338 75.7583 166.937 75.6267 160.536 75.5512C147.732 75.4028 134.919 75.5151 122.115 75.6925L122.578 75.4892C122.151 76.0242 121.821 76.6299 121.603 77.2789C121.341 77.9686 121.121 78.6896 120.923 79.4197C120.53 80.8824 120.222 82.3823 119.944 83.8878C119.395 86.9028 118.978 89.952 118.61 93.0069C117.882 99.1195 117.353 105.263 116.897 111.41C116.446 117.56 116.068 123.716 115.762 129.877C115.422 136.029 115.196 142.199 114.965 148.358L114.965 148.364C114.962 148.443 114.928 148.518 114.87 148.572C114.813 148.626 114.736 148.656 114.657 148.654L88.4055 147.972C88.3874 147.971 88.3702 147.963 88.3577 147.95C88.3452 147.937 88.3383 147.92 88.3386 147.902C88.339 147.883 88.3464 147.866 88.3594 147.853C88.3724 147.841 88.3898 147.834 88.4079 147.834L114.667 148.047L114.359 148.343C114.516 142.169 114.694 136.006 114.972 129.834C115.221 123.673 115.541 117.51 115.931 111.344C116.33 105.182 116.8 99.0232 117.473 92.8759C117.814 89.8026 118.204 86.7321 118.73 83.6714C118.998 82.1414 119.295 80.6136 119.688 79.0929C119.887 78.3326 120.109 77.5742 120.388 76.8189C120.656 76.0005 121.076 75.2394 121.624 74.5749C121.679 74.5132 121.745 74.4634 121.82 74.4285C121.895 74.3937 121.976 74.3745 122.058 74.3722L122.087 74.3714C128.499 74.2058 134.907 74.147 141.318 74.0997C147.728 74.059 154.139 74.0661 160.551 74.1209C166.963 74.1862 173.376 74.3075 179.791 74.5817C182.999 74.7254 186.206 74.9151 189.414 75.2073C191.018 75.3573 192.622 75.5268 194.229 75.7771C195.032 75.898 195.837 76.0484 196.645 76.237C197.53 76.4054 198.377 76.7353 199.143 77.2102C199.246 77.2798 199.327 77.3788 199.374 77.4945C199.421 77.6103 199.432 77.7375 199.407 77.8597L199.397 77.9042L193.789 104.401L190.972 117.646C190.056 122.052 189.073 126.505 188.338 130.883L188.333 130.911C188.313 131.029 188.254 131.137 188.165 131.217C188.076 131.298 187.963 131.346 187.843 131.353C176.472 132.086 165.102 132.992 153.765 134.159C148.098 134.758 142.436 135.421 136.805 136.268C133.99 136.696 131.181 137.167 128.402 137.758C127.013 138.057 125.631 138.386 124.277 138.791C123.602 138.988 122.937 139.221 122.286 139.487C121.651 139.724 121.061 140.068 120.543 140.505L120.533 140.514L120.507 140.536C119.974 140.935 119.576 141.487 119.366 142.119C119.147 142.77 119.035 143.453 119.035 144.139C119.04 145.542 119.258 146.935 119.682 148.272L119.237 148.243C119.909 146.892 121.06 145.841 122.465 145.294C123.189 145.095 123.951 145.07 124.687 145.221C125.423 145.371 126.113 145.694 126.701 146.162C127.87 147.026 128.904 148.059 129.771 149.226C130.648 150.35 131.556 151.452 132.471 152.549C133.386 153.647 134.311 154.738 135.209 155.857C136.143 156.963 136.968 158.156 137.673 159.42C138.089 160.091 138.228 160.897 138.061 161.668C137.909 162.062 137.615 162.385 137.238 162.575C136.897 162.749 136.532 162.872 136.155 162.941C134.713 163.147 133.25 163.16 131.805 162.982L132.079 162.635C133.173 165.685 134.681 168.571 136.56 171.211C137.489 172.518 138.599 173.686 139.858 174.679C141.082 175.673 142.582 176.265 144.154 176.375C147.355 176.477 150.638 176.214 153.882 176.011C157.134 175.787 160.385 175.521 163.634 175.241C176.632 174.089 189.624 172.843 202.609 171.505L222.088 169.528C223.7 169.332 225.369 169.257 226.882 168.937C228.428 168.601 229.923 168.06 231.326 167.328C234.158 165.908 236.375 163.506 237.563 160.57C238.613 157.562 238.839 154.327 238.218 151.202C237.942 149.617 237.556 148.052 237.062 146.521C236.562 145.017 235.832 143.599 234.897 142.319C233.023 139.695 230.754 137.378 228.17 135.449C225.583 133.499 222.809 131.81 219.89 130.405L219.916 130.416L190.119 118.764L190.143 118.768L190.136 118.768C190.118 118.768 190.101 118.761 190.088 118.748C190.075 118.735 190.067 118.718 190.067 118.699C190.067 118.681 190.075 118.664 190.088 118.651C190.101 118.638 190.118 118.631 190.136 118.631L190.136 118.63Z" fill="#282828"/>
<path d="M122.101 75.0321C117.059 80.735 114.662 148.35 114.662 148.35H119.456C119.456 148.35 117.452 142.413 120.352 140.32C125.62 134.892 187.809 130.822 187.809 130.822C187.946 129.63 188.876 124.891 190.143 118.699C193.353 102.934 198.719 77.7597 198.719 77.7597C193.264 73.5444 122.101 75.0321 122.101 75.0321ZM157.31 106.026C151.284 106.026 146.4 104.58 146.4 102.803C146.4 101.026 151.284 99.5795 157.31 99.5795C163.337 99.5795 168.22 101.026 168.22 102.803C168.22 104.58 163.337 106.026 157.31 106.026V106.026Z" fill="#282828"/>
<path d="M52.6094 148.921C51.811 153.67 51.3928 158.475 51.3587 163.29C51.2835 168.09 51.743 172.884 52.7286 177.583C53.7823 182.218 55.6096 186.798 58.8225 190.27C60.4622 191.972 62.3639 193.4 64.4554 194.5L66.0171 195.369C66.5411 195.654 67.0913 195.895 67.6272 196.16C68.7022 196.684 69.7808 197.202 70.8924 197.657C75.2933 199.564 79.8167 201.211 84.3821 202.726C88.9441 204.253 93.5501 205.654 98.1712 207.007C107.408 209.746 116.734 212.132 126.086 214.519C128.481 215.156 130.724 216.265 132.683 217.782C134.642 219.299 136.278 221.192 137.495 223.351C138.096 224.426 138.593 225.555 138.98 226.724C139.335 227.895 139.602 229.09 139.78 230.301L140.966 237.435C142.598 246.939 144.178 256.452 145.874 265.945L156.066 322.9L155.588 322.487C162.702 322.59 169.835 322.496 176.936 322.116C180.486 321.926 184.032 321.659 187.541 321.198C189.286 320.974 191.019 320.66 192.732 320.258C193.571 320.06 194.397 319.809 195.204 319.505C195.95 319.247 196.636 318.842 197.224 318.316L197.049 318.795C196.542 306.598 195.936 294.4 195.304 282.206C194.664 270.012 193.873 257.828 193.074 245.645C192.238 233.465 191.28 221.291 189.962 209.157C189.302 203.09 188.528 197.036 187.556 191.015C187.062 188.007 186.514 185.005 185.777 182.049C185.421 180.57 184.977 179.114 184.446 177.688C184.181 176.978 183.856 176.292 183.473 175.638C183.313 175.304 183.088 175.004 182.812 174.757C182.535 174.509 182.212 174.319 181.862 174.196L181.857 174.195C181.839 174.192 181.823 174.181 181.813 174.166C181.803 174.151 181.799 174.132 181.803 174.115C181.806 174.097 181.817 174.081 181.832 174.071C181.847 174.061 181.865 174.057 181.883 174.06C182.259 174.178 182.607 174.369 182.907 174.623C183.208 174.876 183.455 175.188 183.634 175.538C184.038 176.194 184.384 176.883 184.67 177.598C185.237 179.022 185.718 180.48 186.11 181.962C186.917 184.916 187.534 187.915 188.099 190.921C189.212 196.936 190.013 202.999 190.762 209.064C192.228 221.2 193.334 233.373 194.317 245.553C195.321 257.732 196.041 269.93 196.732 282.129C197.422 294.328 197.98 306.534 198.404 318.746L198.404 318.767C198.407 318.851 198.393 318.935 198.363 319.014C198.333 319.092 198.287 319.164 198.229 319.225C197.501 319.909 196.636 320.43 195.691 320.755C194.827 321.076 193.944 321.34 193.046 321.547C191.285 321.952 189.504 322.265 187.71 322.485C184.143 322.935 180.57 323.184 176.998 323.356C169.849 323.66 162.708 323.668 155.562 323.484C155.446 323.481 155.336 323.438 155.249 323.363C155.162 323.287 155.103 323.184 155.084 323.071L145.425 266.023C143.813 256.516 142.084 247.029 140.408 237.532L139.113 230.417C138.923 229.244 138.647 228.086 138.286 226.954C137.897 225.839 137.403 224.764 136.812 223.742C135.624 221.704 134.042 219.924 132.157 218.507C130.272 217.09 128.123 216.064 125.836 215.489C116.457 213.288 107.099 210.87 97.8269 208.185C93.1858 206.855 88.5837 205.384 84.0071 203.835C79.4307 202.287 74.8921 200.605 70.4556 198.653C69.3374 198.188 68.2456 197.656 67.157 197.117C66.614 196.844 66.0601 196.598 65.5261 196.304L63.9331 195.406C61.757 194.243 59.7888 192.727 58.1087 190.92C54.7845 187.216 52.9939 182.474 51.9866 177.746C51.0408 172.986 50.6672 168.13 50.8738 163.281C51.0237 158.45 51.559 153.639 52.4744 148.894C52.4779 148.876 52.4884 148.86 52.5035 148.85C52.5187 148.839 52.5373 148.836 52.5552 148.839C52.573 148.843 52.5885 148.854 52.5985 148.869C52.6086 148.884 52.6125 148.903 52.6094 148.921V148.921Z" fill="#282828"/>
<path d="M166.732 331.788C166.732 331.788 160.781 331.168 160.781 334.019C160.781 336.871 161.277 357.699 163.757 358.319C166.236 358.938 238.887 383.982 258.227 363.65C258.227 363.65 271.617 356.211 246.325 347.533C221.034 338.854 205.165 330.176 205.165 330.176C205.165 330.176 181.114 330.92 180.618 333.399C180.122 335.879 183.841 344.805 183.841 344.805C183.841 344.805 167.972 348.524 166.732 331.788Z" fill="#282828"/>
<path d="M166.733 332.132C166.704 332.132 166.675 332.129 166.647 332.122C166.559 332.099 166.483 332.042 166.436 331.963C166.39 331.884 166.376 331.79 166.399 331.702C166.726 330.269 166.768 328.786 166.521 327.337C166.275 325.888 165.745 324.501 164.963 323.257C164.937 323.22 164.918 323.179 164.908 323.134C164.899 323.09 164.898 323.045 164.906 323C164.914 322.956 164.93 322.913 164.954 322.875C164.979 322.837 165.01 322.804 165.047 322.778C165.085 322.752 165.126 322.734 165.17 322.724C165.215 322.714 165.26 322.713 165.305 322.721C165.349 322.729 165.392 322.746 165.43 322.77C165.468 322.794 165.501 322.826 165.527 322.863C166.376 324.184 166.95 325.663 167.215 327.211C167.479 328.76 167.429 330.345 167.066 331.874C167.047 331.948 167.004 332.013 166.944 332.06C166.883 332.107 166.809 332.132 166.733 332.132Z" fill="#282828"/>
<path d="M202.19 330.52L202.178 330.519C194.682 330.269 187.354 322.45 187.046 322.118C187.015 322.085 186.991 322.046 186.976 322.003C186.96 321.961 186.953 321.916 186.954 321.871C186.956 321.826 186.967 321.781 186.985 321.74C187.004 321.699 187.031 321.662 187.064 321.631C187.097 321.6 187.136 321.576 187.179 321.561C187.221 321.545 187.266 321.538 187.311 321.539C187.357 321.541 187.401 321.552 187.442 321.57C187.483 321.589 187.52 321.616 187.551 321.649C187.625 321.729 194.994 329.591 202.201 329.832C202.292 329.835 202.377 329.873 202.439 329.939C202.501 330.004 202.535 330.091 202.534 330.182C202.532 330.272 202.495 330.358 202.431 330.421C202.367 330.485 202.28 330.52 202.19 330.52V330.52Z" fill="#282828"/>
<path d="M29.3125 145.261C29.2622 145.251 29.2124 145.251 29.1626 145.241L29.1025 145.181C29.1741 145.204 29.2442 145.23 29.3125 145.261V145.261Z" fill="white"/>
<path d="M51.0923 168.871V168.931C51.1226 168.751 51.1523 168.581 51.1826 168.401C51.1523 168.561 51.1226 168.711 51.0923 168.871Z" fill="white"/>
<path d="M188.623 195.111V195.131C188.583 195.141 188.552 195.151 188.512 195.161C188.552 195.141 188.583 195.131 188.623 195.111Z" fill="white"/>
<path d="M19.3035 202.476L20.481 223.186L21.5552 243.899C21.9216 250.803 22.4067 257.703 22.5264 264.616C22.5794 268.073 22.6321 271.53 22.5957 274.99L22.5383 280.18C22.478 281.912 22.4563 283.642 22.3616 285.375C22.3602 285.401 22.3491 285.425 22.3307 285.444C22.3122 285.462 22.2876 285.472 22.2618 285.473C22.2359 285.474 22.2107 285.465 22.1909 285.449C22.1712 285.432 22.1584 285.409 22.155 285.383C21.9329 283.662 21.784 281.938 21.5962 280.215L21.1565 275.043C20.8653 271.595 20.6633 268.144 20.4614 264.692C20.0713 257.789 20.0466 250.872 19.9033 243.96L19.4485 223.224L19.0969 202.484C19.0965 202.457 19.1067 202.431 19.1253 202.411C19.1439 202.392 19.1695 202.38 19.1965 202.379C19.2235 202.378 19.2498 202.388 19.2698 202.406C19.2898 202.424 19.3019 202.449 19.3035 202.476V202.476Z" fill="#282828"/>
<path d="M75.5889 241.656L76.1675 262.746L76.6428 283.837C76.8096 290.867 77.095 297.896 77.0147 304.929C76.9678 308.445 76.9207 311.961 76.7844 315.478L76.5769 320.753C76.4666 322.512 76.395 324.27 76.2503 326.029C76.2481 326.055 76.2364 326.079 76.2174 326.097C76.1984 326.114 76.1735 326.124 76.1476 326.124C76.1217 326.125 76.0967 326.115 76.0774 326.098C76.0581 326.08 76.046 326.056 76.0435 326.031C75.8714 324.274 75.772 322.517 75.634 320.76L75.344 315.489C75.1526 311.975 75.0506 308.46 74.9485 304.945C74.7581 297.915 74.9334 290.882 74.9898 283.85L75.1346 262.754L75.3824 241.658C75.3827 241.631 75.3936 241.605 75.4128 241.586C75.432 241.567 75.4578 241.556 75.4848 241.556C75.5119 241.555 75.5379 241.566 75.5574 241.585C75.5768 241.603 75.5881 241.629 75.5889 241.656L75.5889 241.656Z" fill="#282828"/>
<path d="M22.2583 285.496C27.0969 285.496 31.0193 284.756 31.0193 283.843C31.0193 282.93 27.0969 282.19 22.2583 282.19C17.4198 282.19 13.4973 282.93 13.4973 283.843C13.4973 284.756 17.4198 285.496 22.2583 285.496Z" fill="#282828"/>
<path d="M75.8162 326.367C80.6548 326.367 84.5772 325.626 84.5772 324.714C84.5772 323.801 80.6548 323.061 75.8162 323.061C70.9776 323.061 67.0552 323.801 67.0552 324.714C67.0552 325.626 70.9776 326.367 75.8162 326.367Z" fill="#282828"/>
<path d="M134.081 228.015L134.852 237.691L135.519 247.37C135.728 250.597 136.115 253.818 136.083 257.054C136.106 260.304 135.915 263.553 135.511 266.779C135.508 266.803 135.496 266.826 135.477 266.842C135.459 266.859 135.436 266.868 135.411 266.869C135.386 266.87 135.362 266.862 135.343 266.847C135.323 266.832 135.31 266.81 135.304 266.786C134.664 263.599 134.234 260.373 134.018 257.13C133.747 253.905 133.896 250.665 133.867 247.431L133.819 237.729L133.875 228.023C133.875 227.996 133.885 227.971 133.904 227.952C133.922 227.932 133.947 227.921 133.974 227.92C134.001 227.919 134.027 227.929 134.047 227.946C134.067 227.964 134.079 227.989 134.081 228.015Z" fill="#282828"/>
<path d="M211.055 205.858L211.632 226.702L212.105 247.546C212.271 254.495 212.556 261.442 212.475 268.392C212.428 271.867 212.381 275.342 212.244 278.818L212.036 284.032C211.926 285.77 211.854 287.508 211.709 289.246C211.707 289.272 211.695 289.296 211.676 289.314C211.657 289.331 211.632 289.341 211.606 289.341C211.58 289.342 211.555 289.332 211.536 289.315C211.517 289.298 211.505 289.274 211.502 289.248C211.33 287.512 211.231 285.775 211.093 284.039L210.804 278.829C210.613 275.356 210.511 271.882 210.409 268.408C210.219 261.46 210.395 254.509 210.452 247.559L210.599 226.71L210.849 205.859C210.849 205.832 210.86 205.806 210.879 205.787C210.898 205.768 210.924 205.757 210.951 205.757C210.978 205.757 211.004 205.767 211.024 205.786C211.043 205.805 211.055 205.831 211.055 205.858V205.858Z" fill="#282828"/>
<path d="M135.408 266.9C140.246 266.9 144.169 266.16 144.169 265.247C144.169 264.334 140.246 263.594 135.408 263.594C130.569 263.594 126.647 264.334 126.647 265.247C126.647 266.16 130.569 266.9 135.408 266.9Z" fill="#282828"/>
<path d="M211.275 289.584C216.114 289.584 220.036 288.844 220.036 287.931C220.036 287.018 216.114 286.278 211.275 286.278C206.437 286.278 202.514 287.018 202.514 287.931C202.514 288.844 206.437 289.584 211.275 289.584Z" fill="#282828"/>
<path d="M119.454 148.693H114.662C114.571 148.693 114.484 148.656 114.42 148.591C114.355 148.527 114.319 148.439 114.319 148.348C114.319 148.257 114.355 148.17 114.42 148.105C114.484 148.041 114.571 148.004 114.662 148.004H119.454C119.545 148.004 119.632 148.041 119.696 148.105C119.761 148.17 119.797 148.257 119.797 148.348C119.797 148.439 119.761 148.527 119.696 148.591C119.632 148.656 119.545 148.693 119.454 148.693V148.693Z" fill="#282828"/>
</svg>
