<svg width="318" height="386" viewBox="0 0 318 386" fill="none" xmlns="http://www.w3.org/2000/svg">
<path d="M79.2316 326.511L76.388 271.81C75.5045 266.969 74.7132 262.129 73.8756 257.288L71.5105 242.748C69.9369 233.048 68.483 223.339 67.0196 213.621C65.5932 203.903 64.176 194.185 62.86 184.458L60.8907 169.853C60.32 165.206 59.7035 160.568 59.1697 155.92C58.7004 155.782 58.2402 155.644 57.7801 155.488L57.7617 155.635L57.6422 156.997C57.5593 157.899 57.5316 158.81 57.4949 159.721C57.3937 161.534 57.366 163.356 57.3108 165.178C57.2464 168.813 57.2189 172.458 57.2096 176.102C57.1636 183.381 57.1728 190.667 57.2372 197.958C57.32 212.526 57.3937 227.094 57.5593 241.662L57.863 285.384L57.9734 307.24V329.097C75.3481 327.542 79.2316 326.511 79.2316 326.511ZM109.37 173.203C108.204 171.597 107.272 169.834 106.6 167.967C105.883 166.126 105.266 164.249 104.705 162.353C103.582 158.571 102.689 154.733 101.879 150.887C101.088 147.021 100.379 143.156 99.8089 139.263C99.2107 135.371 98.7475 131.463 98.4192 127.539C98.4192 127.539 91.5908 123.518 89.6951 121.622C88.3606 120.288 85.922 120.14 84.5876 120.177C84.1903 120.199 83.7931 120.134 83.423 119.988C83.0529 119.842 82.7188 119.618 82.4433 119.33C82.2808 119.194 82.155 119.019 82.0775 118.821C82.0001 118.624 81.9734 118.41 82 118.199C82.0265 117.989 82.1055 117.788 82.2295 117.616C82.3536 117.444 82.5189 117.306 82.7103 117.214C83.2221 116.853 83.8432 116.68 84.4679 116.726C86.0968 116.818 89.7043 117.131 91.4068 118.244C90.8279 117.777 90.2158 117.353 89.5754 116.974C69.9736 112.125 37.7549 115.741 37.7549 115.741C37.7549 115.741 37.1753 119.984 36.3008 127.742C37.1847 126.111 38.165 124.535 39.2367 123.021C39.7613 122.275 40.2857 121.53 40.8287 120.794C41.3793 120.03 41.9691 119.296 42.5956 118.594C42.47 119.549 42.2033 120.479 41.8043 121.355C41.428 122.227 40.9656 123.059 40.4239 123.84C39.8847 124.621 39.2714 125.348 38.5925 126.012C37.917 126.697 37.145 127.28 36.3008 127.742C32.9972 156.785 25.3958 235.101 27.6504 323.916C37.1358 328.249 47.5872 330.035 57.9734 329.097C57.6882 321.818 57.504 314.529 57.274 307.25L56.7679 285.393C56.4549 270.826 56.2985 256.248 56.1236 241.68C56.0593 227.103 55.9856 212.526 56.1236 197.949C56.2064 190.661 56.3169 183.381 56.5102 176.093C56.6205 172.448 56.7616 168.804 56.9335 165.16C57.0439 163.347 57.1175 161.525 57.274 159.703C57.3476 158.792 57.412 157.89 57.5408 156.979L57.7065 155.626L57.7341 155.469C57.3199 155.332 56.9058 155.193 56.4918 155.046C55.2585 154.577 54.0346 154.089 52.8383 153.518C51.6249 152.966 50.4531 152.326 49.332 151.604C50.6504 151.806 51.954 152.095 53.234 152.469C54.504 152.828 55.7463 153.261 56.9887 153.693C58.2127 154.163 59.4366 154.641 60.6422 155.184C61.8477 155.718 63.0257 156.307 64.2035 156.96C62.8694 156.857 61.5495 156.617 60.2649 156.242C59.9059 156.15 59.5562 156.04 59.2065 155.939C60.0348 160.531 60.7894 165.142 61.5901 169.743L63.9551 184.283C65.5287 193.983 66.9827 203.692 68.446 213.41C69.8633 223.128 71.2896 232.846 72.6057 242.582L74.5657 257.187C75.1733 262.055 75.8266 266.923 76.388 271.81L85.4618 325.986C85.4618 325.986 114.754 332.474 134.199 326.244C134.199 326.244 117.506 233.518 109.37 173.203ZM56.8782 132.453C56.7678 134.561 56.6389 136.659 56.418 138.757C56.2156 140.855 55.9579 142.954 55.5622 145.034C55.3598 142.917 55.3045 140.809 55.2953 138.702C55.2861 136.595 55.3598 134.487 55.4426 132.389C55.5622 130.282 55.691 128.184 55.9027 126.085C56.1144 123.987 56.3721 121.898 56.7678 119.809C56.9611 121.925 57.0162 124.033 57.0254 126.14C57.0347 128.248 56.9703 130.355 56.8782 132.453ZM56.7678 118.64C56.4879 118.63 56.223 118.511 56.0286 118.31C55.8342 118.108 55.7256 117.839 55.7256 117.559C55.7256 117.279 55.8342 117.01 56.0286 116.808C56.223 116.606 56.4879 116.488 56.7678 116.478C57.0477 116.488 57.3127 116.606 57.5071 116.808C57.7015 117.01 57.8101 117.279 57.8101 117.559C57.8101 117.839 57.7015 118.108 57.5071 118.31C57.3127 118.511 57.0477 118.63 56.7678 118.64ZM94.8577 135.803C93.8499 135.61 92.8544 135.358 91.8761 135.049C89.8959 134.39 88.046 133.39 86.4097 132.095C84.7979 130.742 83.4902 129.064 82.5722 127.171C81.64 125.32 81.2055 123.259 81.3114 121.189C81.7558 123.119 82.5144 124.963 83.5568 126.647C84.578 128.284 85.8514 129.75 87.33 130.99C88.0795 131.597 88.8731 132.148 89.7043 132.638C90.5313 133.149 91.3922 133.604 92.281 134C92.7234 134.216 93.1782 134.407 93.6431 134.57L95.0325 135.113C95.9804 135.417 96.9376 135.693 97.9039 136.052C96.8915 136.006 95.8793 135.923 94.8577 135.803ZM105.027 129.711C105.008 128.303 105.036 127.088 105.119 126.076L103.683 127.005C102.037 127.764 100.184 127.952 98.4192 127.539C99.2935 131.377 100.122 135.217 100.904 139.061L103.287 150.592C104.07 154.429 104.904 158.255 105.791 162.068C106.251 163.964 106.72 165.868 107.263 167.746C107.749 169.641 108.456 171.473 109.37 173.203C106.803 154.163 105.091 138.352 105.027 129.711H105.027Z" fill="#282828"/>
<path d="M102.367 114.131C102.26 111.211 101.03 108.446 98.9348 106.41C95.4929 104.477 97.8488 109.98 97.9777 110.293C97.9317 110.247 97.7384 110.045 97.4163 109.76C97.2139 108.756 97.0299 107.698 96.855 106.612L96.8273 106.447C96.3304 103.318 95.9071 99.8941 95.5666 96.3144C95.5681 96.2803 95.565 96.2462 95.5573 96.213C95.2495 89.4186 96.042 82.6191 97.9041 76.0776C99.2661 70.8137 102.312 70.6387 102.312 70.6387L120.718 91.1147L103.085 111.858C102.62 112.524 102.369 113.318 102.367 114.131Z" fill="#282828"/>
<path d="M317.738 222.539C317.738 222.539 303.225 260.656 276.261 255.475C273.52 254.96 270.726 254.783 267.942 254.951C262.467 251.914 257.055 248.794 251.635 245.693C246.224 242.564 240.859 239.389 235.576 236.067C230.266 232.791 225.067 229.349 220.042 225.686C218.781 224.766 217.502 223.873 216.306 222.879C215.1 221.904 213.839 220.983 212.671 219.962L209.155 216.87C208.088 215.747 206.996 214.631 205.879 213.52C209.523 218.655 214.281 222.898 219.168 226.827C220.392 227.812 221.616 228.806 222.904 229.708L226.723 232.468C229.328 234.226 231.932 235.975 234.601 237.631C239.938 240.935 245.377 244.064 250.945 246.944C256.503 249.852 262.154 252.549 267.942 254.951C243.076 256.34 216.84 282.034 214.042 287.62C210.931 293.841 149.227 227.481 135.092 185.645C130.905 173.258 119.944 151.705 105.211 130.024C105.141 129.925 105.079 129.82 105.027 129.711C104.714 129.159 104.226 128.156 103.683 127.005L105.119 126.076C106 125.359 106.713 124.457 107.208 123.435C107.686 123.978 108.008 124.3 108.008 124.3C108.008 124.3 133.417 105.637 139.123 98.8911C144.828 92.1547 139.123 85.409 139.123 85.409C139.123 85.409 122.272 59.2273 113.714 50.678C110.963 48.0949 107.574 46.2908 103.895 45.4509C123.478 49.2607 169.565 65.2459 218.192 132.426C282.482 221.26 317.738 222.539 317.738 222.539Z" fill="#282828"/>
<path d="M20.8957 381.515C21.5583 381.488 22.2208 381.47 22.8742 381.414C14.3893 382.279 4.00864 381.129 0.898193 371.402C1.61866 370.15 2.57122 369.048 3.70483 368.153C3.92496 367.948 4.18576 367.792 4.47025 367.695C4.75473 367.597 5.05654 367.561 5.35603 367.588C5.65553 367.615 5.946 367.704 6.20856 367.851C6.47111 367.997 6.69987 368.198 6.87994 368.438C7.74638 369.532 8.46424 370.736 9.01482 372.018C9.66817 373.325 10.331 374.659 11.0946 375.985C11.8873 377.367 12.9332 378.588 14.1776 379.583C15.4811 380.53 17.0046 381.128 18.604 381.322C19.3629 381.436 20.1284 381.501 20.8957 381.515Z" fill="#282828"/>
<path d="M68.4182 355.49C67.59 354.404 66.8446 352.453 66.6697 348.938C66.228 340.168 59.8412 345.082 59.8412 345.082C48.9729 350.834 45.9912 341.925 45.1814 340.518C44.3714 339.119 37.5892 338.327 34.8928 342.524C33.9132 343.869 32.7008 345.029 31.3128 345.947C32.5355 346.096 33.7295 346.424 34.856 346.923C35.9901 347.396 37.0674 347.994 38.0677 348.708C39.1002 349.423 40.0081 350.303 40.7548 351.312C41.5941 352.303 42.0222 353.577 41.9512 354.873C41.3662 353.874 40.6019 352.991 39.6966 352.269C38.8408 351.542 37.9295 350.861 36.9908 350.199L34.1566 348.174C33.1994 347.484 32.2516 346.775 31.3128 345.956C29.2248 347.411 27.0316 348.71 24.7514 349.84C25.9563 349.834 27.1497 350.075 28.2577 350.548C29.3757 351.004 30.4158 351.631 31.3405 352.407C32.2824 353.181 33.0719 354.124 33.6688 355.187C34.2854 356.232 34.6478 357.408 34.727 358.619C33.9173 357.708 33.2916 356.816 32.5 356.033C31.7656 355.245 30.9818 354.504 30.1533 353.815C28.5062 352.407 26.7023 351.211 24.7514 349.84C23.0212 350.714 21.7789 351.257 21.7789 351.257C20.3709 351.699 19.0549 352.159 17.8309 352.619C19.042 352.905 20.2004 353.38 21.2635 354.027C22.3432 354.653 23.3389 355.414 24.2268 356.291C25.1462 357.175 25.9059 358.212 26.4722 359.355C27.0729 360.499 27.3014 361.803 27.1258 363.083C26.614 362.027 25.9841 361.033 25.2484 360.119C24.5292 359.231 23.7546 358.389 22.9293 357.598C21.3188 355.951 19.5335 354.45 17.8217 352.619C-1.88118 360.027 0.336604 369.202 0.336604 369.202C0.474969 369.946 0.659309 370.681 0.888591 371.402C1.30427 369.927 2.07172 368.576 3.12501 367.463C3.73261 366.827 4.55712 366.443 5.4349 366.386C6.34276 366.408 7.20948 366.77 7.86433 367.399C8.46649 367.938 8.98448 368.565 9.4011 369.258C9.82461 369.92 10.1742 370.555 10.5514 371.208C11.2695 372.516 11.9319 373.822 12.6773 375.037C13.3319 376.241 14.2023 377.314 15.2449 378.203C15.5118 378.387 15.7603 378.607 16.0457 378.783L16.9291 379.261C17.5649 379.528 18.2201 379.747 18.8891 379.915C21.7407 380.469 24.6457 380.7 27.549 380.605C31.8437 379.471 35.895 377.563 39.5034 374.973C48.8624 368.411 59.3167 368.761 66.3291 365.015C66.4764 364.932 66.6237 364.85 66.7709 364.776C67.5436 364.322 68.2087 363.705 68.7203 362.969C69.232 362.234 69.578 361.395 69.7346 360.513C69.8912 359.63 69.8546 358.724 69.6273 357.857C69.4001 356.99 68.9876 356.183 68.4182 355.49ZM55.2767 356.641C54.1448 357.506 52.9761 358.325 51.7706 359.079C50.565 359.834 49.3226 360.534 48.0526 361.168C46.7706 361.833 45.4345 362.387 44.0587 362.825C45.0548 361.781 46.1352 360.821 47.2889 359.954C48.4208 359.088 49.5895 358.27 50.795 357.515C51.9914 356.76 53.2338 356.07 54.513 355.426C55.7943 354.76 57.1305 354.206 58.5069 353.769C57.5131 354.816 56.4325 355.776 55.2767 356.641Z" fill="#282828"/>
<path d="M22.8743 381.414C23.0951 381.396 23.316 381.368 23.5368 381.35C23.4081 381.359 23.2883 381.378 23.1596 381.396C23.0675 381.405 22.9664 381.414 22.8743 381.414Z" fill="white"/>
<path d="M25.7361 381.01C25.6258 381.037 25.5061 381.055 25.3865 381.083C25.1473 381.129 24.908 381.166 24.6687 381.193C25.0275 381.138 25.3865 381.083 25.7361 381.01Z" fill="white"/>
<path d="M45.1833 340.522C45.2613 338.624 45.4034 336.768 45.4498 334.908C45.5272 333.045 45.4381 331.18 45.1833 329.333C45.9453 331.095 46.283 333.011 46.1692 334.927C46.1256 336.831 45.7932 338.718 45.1833 340.522Z" fill="#282828"/>
<path d="M64.6092 343.994C64.2721 342.689 64.0313 341.369 63.8121 340.045C63.5864 338.722 63.4256 337.391 63.285 336.056C63.163 334.72 63.0513 333.382 63.0276 332.038C62.9806 330.694 63.0175 329.348 63.1381 328.008L63.5803 332.001L64.0012 335.985C64.1232 337.315 64.2649 338.644 64.3594 339.979C64.464 341.313 64.5662 342.648 64.6092 343.994Z" fill="#282828"/>
<path d="M55.0288 11.6301C54.9756 13.763 54.7206 15.886 54.267 17.9707C54.0078 18.9777 53.8419 20.0065 53.7715 21.044C53.707 22.0956 53.7128 23.1502 53.7887 24.2009C53.4346 23.1818 53.2393 22.1142 53.2096 21.0357C53.1778 19.9518 53.2971 18.8688 53.5638 17.8177C54.0165 15.7588 54.4336 13.6846 55.0288 11.6301Z" fill="#282828"/>
<path d="M53.1 18.332C53.1 18.332 58.4197 16.7599 60.509 20.0917C60.509 20.0917 62.8502 19.6244 63.9484 20.7539C65.098 19.9413 66.4771 19.517 67.8847 19.5429C69.2922 19.5689 70.6548 20.0436 71.7737 20.898C71.7737 20.898 72.1089 26.4766 67.6915 26.6728C67.6915 26.6728 63.1915 25.7806 63.86 21.639C63.86 21.639 63.0585 20.0914 60.4207 20.9752C60.4207 20.9752 58.5156 26.0114 55.3032 24.3521C52.0908 22.6928 53.1 18.332 53.1 18.332Z" fill="#282828"/>
<path d="M60.0441 48.0098C61.7453 48.1774 63.4354 48.4429 65.106 48.805C66.8361 49.1374 68.542 49.5849 70.2125 50.1447L71.126 50.471L70.4673 51.0551C69.3211 52.0714 68.1172 53.0315 67.0399 54.1147C65.9615 55.2 64.9387 56.3391 63.9755 57.5277L63.7928 57.747L63.4759 57.5971C62.5865 57.1763 61.6941 56.7607 60.8238 56.3068L58.2253 54.9232C57.3584 54.4634 56.4957 53.9962 55.6491 53.5012C54.7996 53.0111 53.9661 52.4933 53.1335 51.9738L51.9961 51.264L53.1701 50.7368C55.4131 49.7104 57.7075 48.8002 60.0441 48.0098ZM60.0593 48.153C57.919 49.6067 55.8697 50.8402 53.7984 51.9934L53.8351 50.7565C54.702 51.2163 55.5679 51.6779 56.4179 52.1671C57.2707 52.6515 58.1074 53.1637 58.9399 53.6832L61.4399 55.2377C62.2689 55.7631 63.076 56.3268 63.8861 56.8854L63.387 56.9547C64.5494 55.96 65.6609 54.9072 66.717 53.8003C67.771 52.6944 68.6987 51.4654 69.6842 50.2926L69.9388 51.2029C68.2726 50.8997 66.6295 50.4811 65.0214 49.9502C63.3899 49.4371 61.7551 48.8754 60.0593 48.153Z" fill="#282828"/>
<path d="M70.0761 50.6741L63.6812 57.2411L68.4731 62.5991L78.8601 54.7561L70.0761 50.6741Z" fill="#282828"/>
<path d="M57.1804 32.6685C57.8609 33.8331 58.4271 35.0609 58.8709 36.3347C59.3314 37.605 59.6938 38.9089 59.9548 40.2346C60.2264 41.5599 60.3839 42.906 60.4258 44.2581C60.4816 45.607 60.3979 46.958 60.1762 48.2897C60.1101 47.6154 60.1395 46.95 60.0544 46.2847C60.0176 45.6199 59.9634 44.958 59.8734 44.2995C59.7119 42.9829 59.5225 41.6719 59.249 40.3753C58.9989 39.0744 58.6847 37.7859 58.345 36.5005C57.9991 35.2163 57.6053 33.9442 57.1804 32.6685Z" fill="#282828"/>
<path d="M74.9001 32.9204C74.9725 34.0332 75.1028 35.1285 75.2516 36.2121C75.3958 37.2896 75.623 38.3544 75.9312 39.3969C76.2132 40.4324 76.6441 41.4215 77.2103 42.3332C77.8005 43.2457 78.5816 44.0194 79.4996 44.6011C78.4103 44.2435 77.4534 43.5671 76.7528 42.6597C76.0586 41.7459 75.5455 40.7078 75.2411 39.6014C74.9233 38.5161 74.7397 37.396 74.6944 36.2661C74.631 35.1466 74.7 34.0236 74.9001 32.9204Z" fill="#282828"/>
<path d="M53.505 51.4342C51.8103 52.0783 50.1281 52.735 48.5001 53.5111C46.8593 54.2477 45.2575 55.0683 43.7011 55.9695C40.5756 57.7146 37.6577 59.808 35.0032 62.2096C29.62 67.0189 24.8687 72.4917 20.863 78.497C19.8744 80.0032 18.9774 81.5677 18.1768 83.1817C17.9872 83.5711 17.831 83.9758 17.7097 84.3916C17.6055 84.817 17.53 85.249 17.4837 85.6846C17.3889 86.5516 17.4128 87.4274 17.555 88.2879C17.6258 88.715 17.7245 89.137 17.8504 89.5513C17.9135 89.7624 17.9809 89.9539 18.0546 90.1505L18.3402 90.7681L19.4492 93.251C20.196 94.9032 20.8927 96.5744 21.6148 98.2359C24.5152 104.876 27.1109 111.631 29.5059 118.48L29.2255 118.292C29.9161 118.343 30.6022 118.443 31.279 118.589L33.2683 119.009L35.2499 119.428C35.9051 119.575 36.5695 119.677 37.2385 119.733V119.877C36.557 119.865 35.877 119.807 35.2034 119.703L33.1957 119.392L31.1959 119.081C30.5439 118.975 29.8856 118.915 29.2255 118.899L29.0347 118.899L28.9448 118.711C25.8234 112.157 22.9024 105.511 20.2863 98.7489C19.6293 97.0596 18.9468 95.3804 18.3145 93.6821L17.3547 91.1394L17.1233 90.5007C17.0514 90.2684 16.9822 90.0277 16.9292 89.801C16.5958 88.4213 16.5403 86.9891 16.7659 85.5877C16.8389 85.125 16.9432 84.6678 17.0779 84.2192C17.231 83.7712 17.4229 83.3374 17.6515 82.9228C18.5181 81.3038 19.4765 79.7632 20.4829 78.2489C22.5016 75.2295 24.5783 72.2503 26.7949 69.3607C28.9902 66.4382 31.4486 63.7228 34.1391 61.2486C35.5062 60.0177 36.9546 58.88 38.4744 57.8434C40.0005 56.8287 41.5864 55.9068 43.2234 55.0828C44.8558 54.2622 46.5294 53.5261 48.2374 52.8774C49.9474 52.2498 51.6923 51.7218 53.4634 51.2961L53.505 51.4342Z" fill="#282828"/>
<path d="M47.6786 59.7618C47.0131 64.4643 46.222 69.1397 45.389 73.8065C44.5407 78.4703 43.6794 83.1301 42.6103 87.7511C41.5803 92.3792 40.5351 97.0081 39.8236 101.695C39.4338 104.032 39.1088 106.38 38.8306 108.73C38.6923 109.905 38.5658 111.082 38.4657 112.255C38.3442 113.396 38.2989 114.543 38.3303 115.689L37.7412 115.168C42.0748 114.969 46.4069 114.866 50.7413 114.762C55.0753 114.65 59.4115 114.629 63.7483 114.676C68.0851 114.723 72.4219 114.857 76.7586 115.077C78.9259 115.21 81.0928 115.363 83.2564 115.583C84.3379 115.698 85.4176 115.839 86.493 116.02C87.5883 116.142 88.6545 116.451 89.6453 116.934L89.5651 117.053C89.081 116.836 88.5661 116.695 88.0389 116.636C87.5091 116.553 86.9754 116.488 86.438 116.443C85.3652 116.344 84.2858 116.3 83.2072 116.254C81.05 116.159 78.8875 116.131 76.7251 116.122C72.401 116.067 68.0733 116.119 63.7459 116.15L37.7725 116.319L37.1964 116.323L37.1834 115.798C37.181 114.573 37.2871 113.35 37.5003 112.143C37.673 110.962 37.8795 109.791 38.0815 108.62L39.3515 101.614C40.2356 96.9539 40.9067 92.257 41.6276 87.5661C42.3131 82.8689 43.2544 78.2194 44.2372 73.5797C45.2382 68.9435 46.3056 64.3207 47.5375 59.7329L47.6786 59.7618Z" fill="#282828"/>
<path d="M33.9224 151.568C32.7647 150.68 31.8105 149.554 31.1238 148.266C30.7713 147.627 30.453 146.971 30.1703 146.298L29.756 145.284L29.4242 144.244C28.5892 141.462 28.1089 138.586 27.9948 135.684C27.9337 134.241 27.964 132.799 27.9862 131.361C28.1154 129.928 28.1547 128.49 28.3639 127.069C28.5711 125.65 28.769 124.231 29.0575 122.829C29.3817 121.432 29.7001 120.038 30.0998 118.664C30.1038 120.103 30.0263 121.523 29.9546 122.939L29.796 127.179L29.7286 131.398C29.76 132.799 29.7432 134.203 29.8321 135.596L29.9456 137.687C29.9836 138.384 30.1036 139.069 30.1591 139.763C30.2071 140.461 30.3179 141.145 30.4338 141.829C30.5381 142.517 30.6486 143.203 30.807 143.877C31.2652 146.639 32.3291 149.266 33.9224 151.568Z" fill="#282828"/>
<path d="M34.5343 142.495C33.6444 142.472 32.7958 142.114 32.1582 141.493C31.5622 140.902 31.144 140.155 30.951 139.338C30.6551 137.801 30.6071 136.226 30.809 134.674L31.3792 125.515L31.2981 134.687C31.1841 136.179 31.2974 137.679 31.634 139.137C31.821 139.811 32.1941 140.42 32.7106 140.892C33.2007 141.327 33.8318 141.57 34.4872 141.575L34.5343 142.495Z" fill="#282828"/>
<path d="M87.5416 384.837C86.7768 384.908 86.0079 384.924 85.2409 384.884C83.6292 384.855 82.0517 384.414 80.658 383.604C79.3211 382.741 78.1596 381.633 77.2347 380.338C76.3327 379.095 75.5413 377.834 74.7499 376.601C74.0767 375.377 73.2409 374.251 72.265 373.251C71.8479 372.84 71.295 372.594 70.7098 372.561C70.0952 372.592 69.5142 372.851 69.081 373.288C68.0471 374.3 67.2108 375.495 66.6147 376.813C70.7007 386.135 81.0721 386.255 89.4006 384.562C88.7932 384.663 88.1674 384.746 87.5416 384.837ZM132.175 354.137C131.245 353.134 130.307 351.266 129.773 347.797C128.438 339.119 122.586 344.64 122.586 344.64C112.361 351.469 108.487 342.91 107.539 341.594C106.6 340.278 99.7628 340.186 97.5081 344.631C96.6704 346.064 95.5863 347.338 94.3056 348.395C95.532 348.421 96.7477 348.629 97.9131 349.012C99.0882 349.368 100.221 349.853 101.29 350.456C102.391 351.065 103.385 351.849 104.235 352.775C105.167 353.68 105.722 354.902 105.791 356.199C105.102 355.269 104.25 354.471 103.278 353.843C102.349 353.208 101.383 352.619 100.379 352.058L97.3516 350.327C96.3302 349.739 95.3178 349.131 94.2964 348.404C92.3698 350.061 90.3244 351.574 88.1765 352.932C89.3691 352.808 90.5745 352.927 91.7197 353.282C92.8786 353.626 93.9774 354.148 94.9774 354.827C95.9901 355.505 96.8724 356.359 97.5817 357.349C98.2977 358.33 98.7737 359.464 98.9713 360.662C98.0787 359.834 97.3608 359.006 96.4958 358.315C95.686 357.605 94.8315 356.947 93.9374 356.346C92.1522 355.113 90.2472 354.1 88.1673 352.941C86.5292 353.99 85.3513 354.653 85.3513 354.653C83.9984 355.242 82.7286 355.821 81.5506 356.411C82.7884 356.571 83.9932 356.925 85.1213 357.459C86.2571 357.974 87.3237 358.63 88.2961 359.41C89.3028 360.195 90.1628 361.151 90.8362 362.236C91.552 363.309 91.9126 364.581 91.8669 365.871C91.2505 364.871 90.5219 363.944 89.695 363.11C88.8902 362.303 88.0358 361.547 87.1368 360.846C85.3606 359.374 83.4373 358.058 81.5507 356.411C62.7035 365.77 65.8416 374.678 65.8416 374.678C66.0503 375.406 66.3085 376.12 66.6147 376.813C66.8788 375.303 67.5039 373.879 68.4368 372.662C68.9739 371.968 69.7525 371.502 70.6178 371.356C71.5268 371.289 72.4282 371.561 73.1485 372.119C73.7983 372.598 74.3749 373.168 74.8602 373.813C75.348 374.429 75.7529 375.028 76.1946 375.635C77.0505 376.859 77.8419 378.101 78.7069 379.233C79.4783 380.365 80.4517 381.344 81.5783 382.123C81.8635 382.279 82.1396 382.472 82.434 382.62L83.3635 383.006C84.0247 383.201 84.6979 383.351 85.3788 383.457C88.2793 383.715 91.1994 383.647 94.0847 383.255C98.2337 381.69 102.063 379.382 105.386 376.445C114.036 368.972 124.472 368.254 131.061 363.819C131.208 363.726 131.346 363.625 131.475 363.533C132.199 363.005 132.8 362.326 133.235 361.542C133.67 360.759 133.93 359.891 133.997 358.997C134.063 358.103 133.935 357.206 133.62 356.367C133.306 355.528 132.812 354.767 132.175 354.137ZM119.217 356.613C118.177 357.588 117.098 358.515 115.978 359.392C114.855 360.266 113.696 361.076 112.49 361.849C111.283 362.638 110.011 363.324 108.689 363.901C109.574 362.763 110.55 361.698 111.607 360.717C112.647 359.742 113.726 358.815 114.846 357.938C115.969 357.064 117.131 356.245 118.334 355.481C119.541 354.684 120.816 353.994 122.144 353.42C121.258 354.563 120.279 355.631 119.217 356.613Z" fill="#282828"/>
<path d="M90.2011 384.396C90.0632 384.424 89.9159 384.46 89.7778 384.497C89.6766 384.516 89.5846 384.534 89.4834 384.543C89.7227 384.497 89.962 384.451 90.2011 384.396Z" fill="white"/>
<path d="M88.1766 352.932L88.1674 352.941C88.1675 352.94 88.1673 352.939 88.1668 352.938C88.1664 352.937 88.1657 352.936 88.1648 352.935C88.164 352.934 88.1629 352.933 88.1618 352.933C88.1607 352.932 88.1594 352.932 88.1582 352.932H88.1766Z" fill="white"/>
<path d="M94.3055 348.395L94.2963 348.404C94.2964 348.403 94.2961 348.402 94.2957 348.401C94.2952 348.4 94.2946 348.399 94.2937 348.398C94.2928 348.397 94.2918 348.396 94.2907 348.396C94.2895 348.395 94.2883 348.395 94.2871 348.395H94.3055Z" fill="white"/>
<path d="M105.787 343.994L106.22 340.248C106.355 339.003 106.501 337.763 106.604 336.521C106.729 335.281 106.782 334.039 106.805 332.799C106.852 331.553 106.719 330.307 106.409 329.1C106.988 330.243 107.312 331.497 107.358 332.777C107.456 334.045 107.443 335.318 107.321 336.584C107.208 337.844 107.022 339.096 106.765 340.335C106.52 341.575 106.194 342.797 105.787 343.994Z" fill="#282828"/>
<path d="M127.221 345.944C126.784 344.514 126.436 343.064 126.105 341.611C125.766 340.159 125.49 338.695 125.226 337.229C124.979 335.76 124.741 334.288 124.58 332.805C124.394 331.323 124.285 329.832 124.254 328.339C124.565 329.801 124.846 331.26 125.128 332.72C125.417 334.179 125.673 335.642 125.935 337.105C126.181 338.572 126.438 340.036 126.647 341.51C126.864 342.982 127.076 344.456 127.221 345.944Z" fill="#282828"/>
<path d="M53.0423 11.8887C53.0423 11.8887 54.8853 13.8574 56.4244 8.65718C56.4244 8.65718 57.3234 6.3568 60.1003 8.22756C60.1003 8.22756 62.0821 9.44527 63.041 7.50144C63.2612 7.25154 63.5305 7.04976 63.8322 6.90872C64.1338 6.76769 64.4614 6.69044 64.7943 6.6818C65.1272 6.67317 65.4583 6.73333 65.7669 6.85854C66.0755 6.98374 66.3549 7.17129 66.5876 7.40944C66.5876 7.40944 67.2251 8.04673 68.6954 7.36498C70.1657 6.68323 72.5604 5.04212 73.5545 6.2568C74.5486 7.47148 73.173 8.16269 74.3407 9.55404C75.5083 10.9454 76.884 10.5729 76.5024 12.16C76.1208 13.7472 77.3579 14.7631 77.1719 16.3061C76.986 17.8491 76.4129 26.7789 75.1824 27.612C73.9362 28.6759 72.8295 29.8932 71.8887 31.2348C71.3776 31.8849 67.7616 32.3524 66.7454 31.0399C66.0118 30.1697 65.1061 29.4608 64.0852 28.9577C64.0852 28.9577 62.015 27.3487 60.4817 28.3429C60.4817 28.3429 57.3387 26.6268 55.4017 29.1103C55.4017 29.1103 53.9029 29.12 53.7387 27.8926C53.6589 26.6626 53.6757 25.4282 53.7887 24.2008C53.7887 24.2008 53.025 23.8696 53.0004 28.5837C52.9758 33.2978 55.4065 41.189 55.8452 41.5834C56.2838 41.9778 59.998 44.3564 67.763 41.9131C75.528 39.4698 76.7485 34.907 77.1207 33.7332C77.52 31.3324 77.7621 28.9081 77.8455 26.4757C77.8706 25.5859 77.5797 21.4777 80.1668 19.1865C80.1668 19.1865 81.8642 17.5077 82.7288 18.4226C82.7288 18.4226 84.5397 15.1568 84.0288 9.32476C83.9796 8.76736 83.8135 8.2266 83.5413 7.73773C83.269 7.24887 82.8967 6.82289 82.4488 6.48757C82.367 6.42635 82.2843 6.3653 82.2018 6.30525C81.4395 5.73071 80.9279 4.88456 80.7732 3.94262C80.7309 3.63032 80.6272 3.32948 80.4682 3.05737C80.3092 2.78525 80.098 2.54724 79.8468 2.357C79.5955 2.16677 79.3091 2.02806 79.0041 1.94885C78.699 1.86964 78.3813 1.85149 78.0693 1.89544C74.6236 1.93377 72.5023 0.837832 71.4457 1.20623C70.3891 1.57463 65.6683 -0.936407 61.4027 2.2069C59.4744 3.77051 57.2817 4.97624 54.9284 5.76701C54.1207 6.19631 50.2967 8.74635 53.0423 11.8887Z" fill="#282828"/>
<path d="M82.7289 18.4226C83.1906 18.7479 83.5062 19.2414 83.6078 19.797C83.6963 20.3689 83.6167 20.9543 83.3787 21.4818C82.9987 22.4648 82.673 23.468 82.4031 24.4868C82.0665 25.5425 81.5251 26.5215 80.8098 27.3678C80.4281 27.8027 79.9286 28.1177 79.3716 28.2746C78.8195 28.3925 78.2431 28.2931 77.7625 27.9969C78.2547 28.1507 78.7848 28.13 79.2636 27.9385C79.7093 27.7273 80.0939 27.406 80.3809 27.0049C80.9615 26.1578 81.4139 25.2295 81.7234 24.2502C81.9088 23.7559 82.0332 23.274 82.2062 22.7395C82.3832 22.2212 82.6065 21.7198 82.8731 21.2413C83.1474 20.8156 83.2811 20.3145 83.2552 19.8087C83.2293 19.303 83.0452 18.8181 82.7289 18.4226Z" fill="#282828"/>
<path d="M57.6376 20.9164C57.8431 20.9092 58.0378 20.8226 58.1807 20.6747C58.3236 20.5268 58.4034 20.3292 58.4034 20.1236C58.4034 19.918 58.3236 19.7204 58.1807 19.5725C58.0378 19.4246 57.8431 19.3379 57.6376 19.3308C57.4321 19.3379 57.2374 19.4246 57.0945 19.5725C56.9517 19.7204 56.8718 19.918 56.8718 20.1236C56.8718 20.3292 56.9517 20.5268 57.0945 20.6747C57.2374 20.8226 57.4321 20.9092 57.6376 20.9164Z" fill="#282828"/>
<path d="M67.4508 22.2152C67.6563 22.2081 67.8511 22.1214 67.9939 21.9735C68.1368 21.8256 68.2166 21.628 68.2166 21.4224C68.2166 21.2168 68.1368 21.0192 67.9939 20.8713C67.8511 20.7234 67.6563 20.6368 67.4508 20.6296C67.2453 20.6368 67.0506 20.7234 66.9078 20.8713C66.7649 21.0192 66.6851 21.2168 66.6851 21.4224C66.6851 21.628 66.7649 21.8256 66.9078 21.9735C67.0506 22.1214 67.2453 22.2081 67.4508 22.2152Z" fill="#282828"/>
<path d="M54.2522 16.2351C55.3856 15.957 56.5681 15.9454 57.7068 16.2012C58.2803 16.3276 58.8362 16.524 59.3618 16.786C59.8889 17.0529 60.3547 17.4266 60.7296 17.8831C59.7059 17.453 58.6422 17.1251 57.554 16.9044C56.477 16.6669 55.3866 16.4971 54.2522 16.2351Z" fill="#282828"/>
<path d="M64.2007 18.2294C65.4243 17.8198 66.7186 17.664 68.0044 17.7715C69.3064 17.8283 70.5672 18.2441 71.6474 18.9731C70.426 18.737 69.1913 18.5754 67.9502 18.4891C66.7176 18.3928 65.4836 18.3539 64.2007 18.2294Z" fill="#282828"/>
<path d="M59.0352 25.2771C59.2057 25.5186 59.4056 25.7379 59.6303 25.93C59.8326 26.102 60.0505 26.2547 60.2812 26.3861C60.7397 26.6665 61.26 26.8701 61.8374 27.2142C61.524 27.3204 61.1912 27.3564 60.8623 27.3196C60.5278 27.2809 60.2047 27.1738 59.9133 27.0049C59.6122 26.8279 59.3622 26.5758 59.1879 26.2731C59.0074 25.9743 58.9525 25.6162 59.0352 25.2771Z" fill="#282828"/>
<path d="M81.1709 18.436C79.6817 19.0895 78.1406 19.6177 76.5636 20.015C74.9947 20.4436 73.3925 20.739 71.7739 20.898C73.2625 20.243 74.8038 19.7148 76.3812 19.319C77.9504 18.892 79.5525 18.5966 81.1709 18.436Z" fill="#282828"/>
<path d="M68.4729 62.5991C68.4729 62.5991 54.4068 91.1158 54.248 98.1153L58.9901 104.807L68.0282 99.1523C68.0282 99.1523 70.4129 68.5617 68.4729 62.5991Z" fill="#282828"/>
<path d="M97.9443 110.307C97.3459 109.449 96.9486 108.467 96.7821 107.435C96.7412 107.154 96.7505 106.868 96.8098 106.591C96.8379 106.423 96.9103 106.267 97.0194 106.136C97.1286 106.006 97.2705 105.908 97.4305 105.851C97.7211 105.795 98.022 105.838 98.2859 105.972C98.5338 106.071 98.759 106.195 98.9888 106.313L98.9975 106.318L99.0049 106.324C99.5699 106.801 100.092 107.326 100.565 107.894C101.019 108.482 101.405 109.12 101.716 109.795C102.302 111.16 102.542 112.648 102.414 114.127L102.409 114.11L102.412 114.186H102.34L102.325 114.152L102.32 114.134C102.212 113.783 102.13 113.433 102.038 113.089C101.925 112.748 101.85 112.403 101.735 112.069C101.532 111.393 101.262 110.748 101.013 110.097C100.754 109.446 100.449 108.815 100.1 108.208C99.7837 107.574 99.3664 106.996 98.8644 106.496L98.8803 106.507C98.4754 106.271 97.9068 106.061 97.5766 106.24C97.3057 106.389 97.3814 106.906 97.4233 107.355C97.5434 108.3 97.8287 109.268 98.0108 110.28L97.9443 110.307Z" fill="#282828"/>
<path d="M92.8526 114.809C91.6977 113.77 90.5655 112.705 89.3784 111.749C89.0922 111.513 88.7877 111.3 88.4678 111.112C88.3285 111.028 88.1761 110.968 88.017 110.935L87.4577 110.828C86.7121 110.69 85.9586 110.597 85.2017 110.552C84.441 110.506 83.6581 110.533 82.8702 110.453C82.6559 110.455 82.4441 110.406 82.2523 110.31C82.0605 110.215 81.8943 110.075 81.7672 109.902C81.646 109.725 81.5736 109.519 81.5572 109.305C81.5409 109.091 81.5813 108.877 81.6743 108.683C82.046 107.951 82.6905 107.395 83.4687 107.135C84.2119 106.849 84.9885 106.66 85.7797 106.571L85.5416 106.922C85.4332 106.57 85.4098 106.197 85.4734 105.835C85.5054 105.639 85.5765 105.451 85.6822 105.282C85.788 105.114 85.9264 104.968 86.0893 104.854C86.7189 104.496 87.4532 104.369 88.1664 104.493C89.4637 104.682 90.724 105.07 91.9029 105.644C93.0685 106.202 94.1753 106.876 95.2066 107.654C96.231 108.428 97.1713 109.307 98.0121 110.277L97.9611 110.328C96.992 109.516 95.9696 108.769 94.9007 108.094C93.8492 107.414 92.744 106.822 91.5961 106.322C90.469 105.819 89.2886 105.445 88.0774 105.209C87.534 105.09 86.9667 105.154 86.4635 105.391C86.264 105.551 86.1186 105.768 86.0469 106.014C85.9753 106.259 85.9808 106.521 86.0629 106.763L86.1399 107.099L85.8246 107.114C85.067 107.13 84.3147 107.245 83.587 107.456C83.226 107.542 82.8873 107.704 82.5937 107.931C82.3001 108.158 82.0582 108.445 81.8842 108.773C81.8087 108.931 81.7771 109.106 81.7929 109.28C81.8086 109.454 81.8712 109.621 81.9738 109.763C82.0765 109.904 82.2155 110.016 82.3762 110.085C82.5369 110.154 82.7132 110.179 82.8867 110.156C83.6487 110.159 84.4161 110.055 85.2059 110.028C85.9991 109.99 86.794 110.046 87.5743 110.193C87.7706 110.222 87.9619 110.273 88.1548 110.317C88.3737 110.371 88.5825 110.461 88.7733 110.581C89.1148 110.798 89.4383 111.042 89.7407 111.311C90.9033 112.357 91.9632 113.512 92.9057 114.76L92.8526 114.809Z" fill="#282828"/>
<path d="M92.8631 114.819L92.8527 114.811L92.8591 114.816C90.9652 113.968 89 113.289 86.9867 112.787C85.9912 112.491 84.9656 112.308 83.9293 112.241C83.4117 112.21 82.8922 112.236 82.3803 112.319C82.1428 112.332 81.9103 112.392 81.6962 112.495C81.482 112.599 81.2904 112.744 81.1325 112.921C80.9473 113.249 81.2471 113.721 81.5631 114.019C81.9068 114.32 82.3389 114.502 82.7946 114.537C83.8657 114.554 84.93 114.711 85.9605 115.004C88.0176 115.614 89.8949 116.717 91.4293 118.217L91.3844 118.273C89.646 117.149 87.7466 116.296 85.7516 115.744C84.7614 115.467 83.7465 115.288 82.7214 115.21C82.1238 115.139 81.5703 114.86 81.1577 114.422C80.9508 114.203 80.7944 113.942 80.6994 113.657C80.6399 113.502 80.618 113.336 80.6354 113.171C80.6529 113.006 80.7091 112.848 80.7996 112.709C81.2127 112.304 81.7662 112.074 82.3446 112.068C82.8726 112.015 83.4034 111.995 83.9338 112.008C84.9971 111.98 86.0608 112.045 87.1128 112.201C89.2129 112.593 91.1935 113.466 92.8992 114.752L92.9054 114.757L92.906 114.758L92.914 114.768L92.8631 114.819Z" fill="#282828"/>
<path d="M107.241 123.449C106.563 125.13 105.294 126.506 103.673 127.317C102.85 127.709 101.963 127.951 101.054 128.032C100.152 128.103 99.2435 128.032 98.3632 127.82L98.3047 127.807L98.2736 127.786L92.0392 123.631C91.5231 123.279 91.0014 122.933 90.4943 122.561C89.9833 122.203 89.5076 121.72 89.043 121.415C87.993 120.837 86.8142 120.534 85.6158 120.534C85.3134 120.52 85.0106 120.52 84.7071 120.53C84.3656 120.55 84.0228 120.524 83.6884 120.451C82.9769 120.309 82.3481 119.897 81.9337 119.301C81.6903 118.971 81.5775 118.563 81.6171 118.155C81.6906 117.759 81.8996 117.401 82.2084 117.143C82.737 116.66 83.4251 116.388 84.1413 116.38C85.4092 116.442 86.6702 116.605 87.9126 116.866C89.1622 117.076 90.3572 117.534 91.4269 118.213L91.4438 118.244C91.446 118.233 91.4258 118.213 91.4159 118.217V118.29C91.3961 118.294 91.3667 118.266 91.3696 118.245L91.3864 118.275C90.2631 117.763 89.0622 117.443 87.8332 117.327C86.619 117.169 85.3965 117.082 84.1721 117.069C83.1249 117.113 81.8803 118.081 82.5686 118.869C82.8776 119.306 83.3364 119.614 83.8577 119.734C84.1314 119.801 84.4132 119.83 84.6948 119.82C85.0142 119.819 85.335 119.828 85.6546 119.852C86.9618 119.889 88.2337 120.285 89.3319 120.995C89.8762 121.422 90.2363 121.881 90.7238 122.271C91.201 122.664 91.6809 123.059 92.1885 123.418C94.2206 124.857 96.3512 126.151 98.5646 127.292L98.4753 127.258C100.139 127.592 101.864 127.436 103.44 126.81C104.216 126.466 104.929 125.997 105.552 125.422C106.19 124.839 106.737 124.165 107.175 123.421L107.241 123.449Z" fill="#282828"/>
<path d="M85.8572 106.487C86.7444 106.672 87.618 106.917 88.472 107.221C89.3235 107.515 90.1517 107.873 90.9494 108.292C92.5793 109.069 93.9449 110.308 94.8766 111.855C93.8627 110.397 92.4419 109.271 90.7917 108.615C89.9877 108.26 89.1581 107.966 88.31 107.736C87.4693 107.5 86.6138 107.32 85.749 107.199L85.8572 106.487Z" fill="#282828"/>
<path d="M96.8308 106.86L96.7786 106.631L96.7772 106.625C96.4054 104.919 96.0725 103.195 95.8218 101.461C95.6933 100.594 95.5804 99.724 95.4831 98.8516L95.3505 97.5418L95.2492 96.2901L95.2401 96.2285C94.9353 91.5755 95.1782 86.9027 95.9639 82.3063C96.3557 80.0007 96.8808 77.7533 97.4892 75.4827C97.8068 74.2966 98.3302 73.1756 99.0354 72.1705C99.4089 71.619 99.8874 71.1466 100.444 70.7803C101 70.414 101.623 70.161 102.277 70.0359L102.542 69.9945L102.761 70.2351C105.851 73.6275 108.939 77.0224 111.978 80.4606L116.556 85.6005L121.086 90.7835L121.375 91.1149L121.095 91.4357L112.13 101.681L103.25 111.998L103.262 111.983C102.956 112.461 102.749 112.995 102.651 113.554C102.554 114.114 102.57 114.687 102.697 115.24C102.935 116.383 103.354 117.48 103.938 118.491C105.108 120.541 106.546 122.425 108.215 124.093L107.835 124.064C115.114 118.532 122.34 112.913 129.328 107.036C131.067 105.559 132.794 104.068 134.477 102.541C135.327 101.783 136.146 101.002 136.945 100.206C137.361 99.8183 137.721 99.3979 138.099 98.9892C138.282 98.7821 138.485 98.5835 138.652 98.3694L139.132 97.7171C139.763 96.8552 140.25 95.8972 140.575 94.8799C140.859 93.862 140.97 92.8036 140.904 91.7488C140.681 89.6165 139.862 87.5902 138.54 85.9019L138.497 85.8466L138.481 85.8219C136.027 82.0307 133.528 78.2635 130.982 74.5203C128.445 70.777 125.829 67.0896 123.199 63.4161C120.549 59.7622 117.849 56.1301 114.891 52.7521C114.124 51.9453 113.393 51.0725 112.581 50.3526C111.764 49.6151 110.877 48.9585 109.933 48.3919C108.016 47.2581 105.951 46.3934 103.799 45.822L103.895 45.8342L103.876 45.8339L103.822 45.8333L103.78 45.8216C101.25 45.154 98.6616 44.7337 96.0505 44.5666C93.4276 44.384 90.794 44.4235 88.1778 44.6848L88.157 44.5423C90.778 44.1672 93.4261 44.0147 96.0728 44.0862C98.7342 44.1317 101.383 44.4649 103.972 45.08L103.876 45.0678L103.895 45.0676L103.939 45.0669L103.991 45.0799C106.238 45.6072 108.402 46.4412 110.422 47.5585C111.438 48.1287 112.396 48.796 113.284 49.551C114.188 50.3126 114.923 51.1761 115.732 51.9932C118.803 55.3761 121.578 58.975 124.309 62.6006C127.043 66.2253 129.628 69.9535 132.203 73.6854C134.767 77.4271 137.287 81.1973 139.764 84.996L139.706 84.9162C141.216 86.8575 142.136 89.192 142.357 91.6417C142.425 92.8744 142.282 94.1097 141.936 95.2947C141.555 96.4563 140.989 97.5485 140.258 98.5289L139.713 99.2521C139.525 99.4851 139.316 99.6871 139.118 99.9059C138.716 100.333 138.325 100.778 137.899 101.166C137.07 101.977 136.223 102.762 135.36 103.521C133.647 105.06 131.868 106.51 130.09 107.958C122.944 113.704 115.602 119.17 108.182 124.535L107.972 124.687L107.802 124.506C106.977 123.63 106.199 122.71 105.473 121.751C104.741 120.794 104.082 119.783 103.504 118.727C102.903 117.666 102.477 116.515 102.24 115.32C102.107 114.707 102.098 114.075 102.213 113.459C102.328 112.843 102.564 112.256 102.908 111.733L102.914 111.724L102.92 111.717L111.672 101.291L120.34 90.7939L120.349 91.4457L115.676 86.3909L111.052 81.293C107.956 77.9058 104.908 74.4753 101.863 71.0424L102.347 71.2417C101.887 71.3275 101.452 71.5157 101.074 71.7924C100.655 72.0966 100.284 72.4608 99.9709 72.8733C99.3389 73.7609 98.8667 74.7519 98.5753 75.8017C97.9533 77.9887 97.4326 80.2514 96.9728 82.4915C96.0849 87.0032 95.7164 91.6017 95.8742 96.1973L95.8651 96.1362C95.8799 96.2663 95.8879 96.3969 95.8891 96.5278L95.9001 96.8493L95.9288 97.5011L96.0055 98.8047C96.0652 99.6735 96.1409 100.541 96.2329 101.408C96.418 103.143 96.6602 104.869 96.9322 106.599L96.9309 106.593L96.9706 106.824L96.8308 106.86Z" fill="#282828"/>
<path d="M79.5199 44.6702C78.0284 45.938 76.5371 47.0806 75.0232 48.1522C73.5334 49.237 71.9861 50.2406 70.3881 51.1586L70.3188 50.1512C71.7387 50.9264 73.1298 51.7636 74.5682 52.4991C76.0124 53.224 77.4936 53.8725 79.0058 54.4421L78.6045 54.5221L80.7613 51.8305C81.4873 50.9399 82.247 50.0802 83.0058 49.2195C84.5119 47.4878 86.0543 45.7893 87.633 44.1241L88.1629 45.3308L79.5199 44.6702ZM79.4794 44.5321L88.1645 43.8906L89.8794 43.7639L88.6945 45.0975C87.1704 46.8127 85.6115 48.4961 84.0177 50.1475C83.2259 50.9777 82.435 51.8089 81.6104 52.6092L79.1152 54.9904L78.914 55.1824L78.7137 55.0704C77.3033 54.2818 75.8526 53.5677 74.3673 52.9312C72.8777 52.306 71.3408 51.7824 69.8328 51.1969L68.8953 50.8329L69.7634 50.1893C71.3049 49.0841 72.9034 48.0606 74.5522 47.1229C76.1796 46.1702 77.8295 45.2886 79.4794 44.5321L79.4794 44.5321Z" fill="#282828"/>
<path d="M42.6206 85.1747C41.8338 85.8623 41.0103 86.5068 40.1537 87.1053C39.328 87.661 38.5815 88.326 37.9345 89.0822C37.2371 89.8164 36.7041 90.6908 36.371 91.6471C36.0618 92.6228 36.006 93.6611 36.2088 94.6643C36.7058 96.6113 37.3466 98.6466 37.7898 100.661C38.2403 102.697 38.5706 104.758 38.7791 106.833L38.6894 106.854C37.9545 104.902 37.3351 102.909 36.8343 100.885C36.5851 99.8765 36.3856 98.856 36.1796 97.8371C35.943 96.8106 35.7853 95.7676 35.7078 94.717C35.6824 93.6537 35.8092 92.5923 36.0841 91.5648C36.3171 90.5128 36.7395 89.5118 37.3306 88.6108C37.9682 87.7268 38.8044 87.0047 39.7719 86.5027C40.6789 85.9837 41.6134 85.5144 42.5714 85.0969L42.6206 85.1747Z" fill="#282828"/>
</svg>
