<svg width="440" height="362" viewBox="0 0 440 362" fill="none" xmlns="http://www.w3.org/2000/svg">
<path d="M147.261 141.176C146.931 141.306 146.576 141.361 146.221 141.337C145.398 141.181 144.606 140.89 143.877 140.477C141.976 136.402 140.079 132.327 138.185 128.252C129.837 110.146 121.498 92.0408 113.348 73.8407L101.142 46.5357C97.1709 37.3931 93.1054 28.2885 89.2102 19.0984C93.6917 28.0142 98.0029 37.0056 102.409 45.9496L115.333 72.9236C123.946 90.9063 132.352 108.983 140.766 127.061C142.194 130.162 143.621 133.263 145.049 136.364C144.33 136.383 143.858 136.525 143.792 136.742C143.688 137.073 144.661 137.432 146.533 139.598C146.779 140.127 147.016 140.647 147.261 141.176Z" fill="#282828"/>
<path d="M189.741 236.214C185.269 227.308 180.948 218.317 176.552 209.372L163.627 182.399C159.6 173.993 155.616 165.572 151.677 157.136C152.802 157.316 153.861 157.467 154.778 157.59C154.787 157.58 154.787 157.58 154.787 157.59C158.418 165.541 162.02 173.505 165.594 181.481L177.8 208.786C181.78 217.929 185.846 227.034 189.741 236.214Z" fill="#282828"/>
<path d="M190.791 135.934L203.34 137.84C207.497 138.459 211.607 139.131 215.722 139.781L215.192 140.112L216.117 136.805C216.149 136.691 216.22 136.592 216.318 136.525C216.416 136.459 216.535 136.429 216.652 136.442L216.663 136.443L220.067 136.806C221.266 136.873 222.444 137.147 223.548 137.616C225.803 138.605 227.587 140.429 228.527 142.705C228.759 143.267 228.94 143.849 229.065 144.445C229.128 144.742 229.176 145.043 229.212 145.344C229.253 145.63 229.274 145.885 229.331 146.151C229.502 147.192 229.896 148.184 230.487 149.058C231.127 149.89 231.945 150.569 232.881 151.044C233.817 151.52 234.848 151.78 235.898 151.806L235.365 151.998C238.489 149.179 241.911 146.708 245.57 144.629C249.176 142.519 252.92 140.656 256.777 139.051C258.717 138.284 260.645 137.489 262.624 136.834C264.58 136.113 266.578 135.523 268.571 134.922C270.558 134.298 272.594 133.852 274.602 133.31C276.627 132.834 278.669 132.438 280.697 131.982L280.496 132.128C280.991 131.206 281.388 130.235 281.681 129.231C281.994 128.238 282.137 127.2 282.103 126.16C282.077 125.141 281.737 124.155 281.13 123.336C280.46 122.559 279.593 121.977 278.619 121.651L278.598 121.642C278.573 121.631 278.55 121.616 278.53 121.596C275.648 118.786 272.712 116.031 269.797 113.254C266.879 110.481 263.944 107.725 260.993 104.988L252.108 96.8102C249.129 94.1255 246.152 91.3524 243.06 88.9005L243.05 88.8926C242.934 88.8004 242.859 88.6657 242.842 88.5181C242.825 88.3706 242.867 88.2224 242.959 88.106C242.987 88.0711 243.019 88.0395 243.054 88.0119L250.559 82.1753L250.328 82.8478L243.747 58.4284L244.925 58.8669C241.659 61.1262 238.424 63.4449 235.19 65.7574C231.956 68.0701 228.748 70.4171 225.566 72.7982C222.392 75.1876 219.247 77.616 216.195 80.1423C214.672 81.4071 213.178 82.7049 211.737 84.0408C211.018 84.7089 210.314 85.3932 209.667 86.1068C209.025 86.7525 208.484 87.491 208.062 88.2976L208.11 88.0609C208.022 89.7749 207.829 91.482 207.533 93.1726C207.246 94.8673 206.828 96.537 206.282 98.1667C205.744 99.833 204.955 101.407 203.941 102.835C202.89 104.341 201.337 105.425 199.56 105.891L199.703 105.836C198.615 106.565 197.658 107.471 196.871 108.518C196.447 109.035 196.079 109.602 195.7 110.157C195.371 110.745 194.987 111.303 194.699 111.917C193.466 114.347 192.561 116.93 192.007 119.599C191.658 120.922 191.504 122.286 191.262 123.635C191.091 124.993 190.971 126.362 190.851 127.73C190.81 129.099 190.735 130.482 190.721 131.845L190.791 135.934ZM190.678 136.036L190.425 131.862C190.39 130.469 190.418 129.096 190.412 127.709C190.485 126.329 190.558 124.945 190.684 123.565C190.885 122.194 190.979 120.803 191.308 119.449C191.811 116.699 192.677 114.028 193.884 111.506C194.168 110.865 194.552 110.27 194.883 109.65C195.264 109.058 195.637 108.456 196.072 107.897C196.918 106.714 197.963 105.688 199.162 104.866C199.193 104.846 199.227 104.831 199.262 104.821L199.305 104.81C200.805 104.371 202.104 103.421 202.977 102.124C203.894 100.785 204.602 99.3148 205.076 97.763C205.577 96.1906 205.954 94.5816 206.205 92.9506C206.466 91.3194 206.628 89.6739 206.691 88.0231L206.692 87.9959C206.694 87.9236 206.71 87.8525 206.738 87.7859C207.204 86.8072 207.825 85.9103 208.577 85.1299C209.257 84.3587 209.972 83.6442 210.701 82.9468C212.154 81.5488 213.678 80.2465 215.209 78.958C218.284 76.3969 221.436 73.9473 224.615 71.5377C230.982 66.7261 237.462 62.0792 244.057 57.5971L244.061 57.5938C244.229 57.4796 244.436 57.4367 244.636 57.4747C244.835 57.5127 245.012 57.6285 245.126 57.7965C245.175 57.8695 245.212 57.9504 245.234 58.0356L251.567 82.5206L251.569 82.5293C251.6 82.6506 251.595 82.7785 251.553 82.8967C251.512 83.015 251.436 83.1183 251.336 83.1935L243.729 88.8959L243.724 88.0075C246.897 90.6159 249.765 93.396 252.719 96.1517L261.455 104.498L278.863 121.25L278.774 121.196C279.841 121.543 280.793 122.172 281.53 123.017C282.213 123.916 282.601 125.004 282.643 126.132C282.69 127.233 282.55 128.333 282.23 129.387C281.934 130.439 281.528 131.457 281.019 132.423C281 132.459 280.974 132.49 280.942 132.514C280.911 132.539 280.874 132.556 280.835 132.566L280.817 132.57C278.802 133.044 276.784 133.506 274.781 134.02C272.797 134.607 270.786 135.096 268.828 135.762C266.863 136.406 264.895 137.035 262.973 137.795C261.027 138.488 259.136 139.318 257.235 140.12C253.466 141.789 249.796 143.672 246.242 145.76C244.479 146.821 242.741 147.925 241.08 149.132C239.412 150.301 237.818 151.573 236.308 152.941L236.286 152.962C236.218 153.025 236.137 153.073 236.049 153.103C235.961 153.133 235.868 153.143 235.775 153.134C234.557 153.027 233.368 152.709 232.259 152.194C231.124 151.65 230.152 150.818 229.44 149.781C228.755 148.753 228.301 147.589 228.108 146.369C228.049 146.076 228.023 145.761 227.985 145.482C227.956 145.217 227.916 144.953 227.863 144.692C227.758 144.17 227.605 143.658 227.406 143.164C226.6 141.162 225.05 139.551 223.082 138.668C222.086 138.234 221.024 137.97 219.94 137.887L216.545 137.45L217.091 137.089L216.094 140.375L216.09 140.385C216.057 140.494 215.985 140.587 215.888 140.646C215.791 140.706 215.675 140.727 215.563 140.706C211.376 139.936 207.183 139.189 203.037 138.389L190.678 136.036Z" fill="#282828"/>
<path d="M243.392 88.454C242.183 87.8118 241.015 87.1136 239.849 86.4142C238.678 85.7217 237.535 84.9895 236.382 84.275L232.948 82.0981C232.379 81.7294 231.798 81.3835 231.213 81.0466C230.65 80.6734 230.031 80.3917 229.38 80.2117C230.744 80.4101 232.055 80.8777 233.237 81.5875C234.46 82.205 235.632 82.9076 236.788 83.6299C237.938 84.3646 239.075 85.1161 240.171 85.927C241.273 86.73 242.361 87.5523 243.392 88.454Z" fill="#282828"/>
<path d="M250.669 81.8424C250.72 81.7736 250.791 81.7216 250.872 81.693C250.953 81.6643 251.04 81.6603 251.124 81.6814C251.267 81.7029 251.409 81.7385 251.545 81.7878C251.809 81.8839 252.067 81.9972 252.316 82.1268C252.814 82.3799 253.287 82.6699 253.756 82.9639C254.692 83.5568 255.6 84.1864 256.499 84.827C258.293 86.1148 260.021 87.4843 261.75 88.8516C265.216 91.5791 268.529 94.4783 271.858 97.3702C271.932 97.4348 271.991 97.5157 272.029 97.6067C272.067 97.6977 272.083 97.7962 272.076 97.8945L272.075 97.9146C271.966 99.4171 271.901 100.92 271.867 102.41C271.803 103.865 271.928 105.323 272.24 106.745C272.435 107.419 272.734 108.057 273.126 108.638L273.405 109.124C273.45 109.197 273.514 109.256 273.592 109.293C273.863 109.422 274.158 109.496 274.458 109.508C275.916 109.541 277.372 109.357 278.776 108.961L278.787 108.958C278.882 108.936 278.981 108.943 279.072 108.979C279.163 109.015 279.24 109.078 279.294 109.16L279.644 109.694C279.769 109.86 279.906 110.008 280.038 110.162C280.147 110.286 280.282 110.385 280.433 110.452C280.584 110.519 280.748 110.552 280.914 110.548C281.265 110.453 281.568 110.23 281.763 109.923C282.015 109.583 282.221 109.21 282.374 108.815L282.377 108.808C282.402 108.747 282.444 108.694 282.498 108.657C282.552 108.62 282.616 108.601 282.682 108.6C282.747 108.6 282.811 108.62 282.866 108.656C282.92 108.693 282.963 108.745 282.987 108.806L283.225 109.395C283.317 109.577 283.42 109.753 283.531 109.924C283.615 110.072 283.738 110.194 283.886 110.278C284.034 110.361 284.202 110.403 284.372 110.399C284.743 110.3 285.069 110.081 285.301 109.776C285.58 109.457 285.821 109.107 286.02 108.734C286.036 108.703 286.058 108.676 286.085 108.654C286.112 108.631 286.143 108.615 286.176 108.604C286.209 108.594 286.244 108.59 286.279 108.593C286.313 108.597 286.347 108.607 286.378 108.623C286.419 108.645 286.454 108.678 286.479 108.717C286.685 109.066 286.922 109.396 287.188 109.702C287.299 109.839 287.437 109.953 287.594 110.035C287.75 110.118 287.922 110.168 288.098 110.182C288.273 110.15 288.44 110.079 288.584 109.976C288.729 109.872 288.85 109.737 288.937 109.582C289.16 109.249 289.336 108.886 289.458 108.505C289.472 108.462 289.497 108.425 289.531 108.396C289.565 108.367 289.606 108.348 289.65 108.341C289.693 108.333 289.738 108.338 289.78 108.355C289.821 108.371 289.857 108.399 289.884 108.434C290.177 108.912 290.631 109.27 291.165 109.442C291.648 109.527 292.109 109.128 292.427 108.653C292.745 108.168 292.946 107.614 293.012 107.037C293.078 106.459 293.057 105.817 293.076 105.212C293.083 104 292.941 102.791 292.653 101.614C292.52 101.058 292.28 100.534 291.944 100.072C291.818 99.8791 291.648 99.7191 291.447 99.6048C291.247 99.4905 291.023 99.4252 290.793 99.4143L290.743 99.4205C290.723 99.4228 290.703 99.4223 290.683 99.4189C290.495 99.3904 290.319 99.3069 290.177 99.1789C290.091 99.1071 290.009 99.0298 289.933 98.9476C289.786 98.7952 289.661 98.6445 289.538 98.4921C289.294 98.1874 289.068 97.8801 288.85 97.5697C288.412 96.9494 287.999 96.3204 287.593 95.6881C286.786 94.4198 286.022 93.1317 285.265 91.8386C284.538 90.518 283.727 89.3145 282.918 88.0493L280.514 84.2899C278.887 81.7913 277.268 79.2878 275.604 76.8167C273.967 74.3272 272.327 71.8398 270.627 69.3985C268.957 66.9338 267.176 64.5558 265.423 62.1624C263.691 59.7808 261.75 57.5588 259.622 55.523C258.615 54.5362 257.401 53.7849 256.069 53.3233C255.415 53.224 254.747 53.3008 254.132 53.5458C253.45 53.7853 252.787 54.0796 252.152 54.426C249.563 55.8815 247.123 57.5854 244.865 59.5136C244.857 59.5203 244.849 59.5255 244.839 59.5287C244.83 59.532 244.82 59.5334 244.81 59.5329C244.8 59.5323 244.79 59.5297 244.781 59.5254C244.772 59.521 244.764 59.5149 244.757 59.5074C244.745 59.4924 244.738 59.4731 244.739 59.4535C244.74 59.4339 244.748 59.4153 244.762 59.4014C246.895 57.2799 249.247 55.3902 251.778 53.7639C252.435 53.363 253.123 53.0161 253.837 52.7268C254.603 52.3839 255.449 52.2589 256.281 52.3657C257.811 52.7847 259.22 53.5605 260.392 54.6293C262.645 56.6537 264.711 58.8766 266.566 61.2711C268.44 63.6181 270.204 66.0458 271.914 68.5022C272.78 69.7241 273.629 70.9566 274.46 72.1996C275.301 73.4373 276.145 74.6718 276.95 75.9319C278.578 78.4404 280.159 80.9769 281.747 83.5085L284.103 87.3341C284.879 88.5981 285.685 89.9041 286.363 91.22C287.073 92.5266 287.802 93.8211 288.55 95.1036C288.922 95.744 289.301 96.381 289.696 96.9989C289.894 97.3079 290.097 97.6112 290.307 97.8994C290.412 98.0424 290.52 98.1836 290.627 98.3049C290.674 98.3619 290.726 98.4158 290.78 98.4664C290.819 98.5152 290.881 98.5135 290.754 98.5008L290.645 98.5054C291.038 98.4953 291.427 98.5884 291.773 98.7755C292.118 98.9626 292.409 99.2371 292.616 99.5717C292.994 100.13 293.258 100.759 293.392 101.42C293.65 102.669 293.752 103.945 293.695 105.219C293.652 105.853 293.645 106.457 293.568 107.114C293.482 107.775 293.242 108.407 292.867 108.958C292.674 109.243 292.432 109.491 292.153 109.69C291.842 109.91 291.459 110.001 291.084 109.944C290.419 109.748 289.852 109.31 289.493 108.718L289.919 108.647C289.776 109.075 289.573 109.48 289.316 109.85C289.187 110.061 289.016 110.242 288.812 110.381C288.607 110.52 288.376 110.613 288.133 110.655C287.885 110.651 287.642 110.595 287.417 110.491C287.193 110.387 286.993 110.237 286.831 110.05C286.531 109.721 286.262 109.364 286.029 108.984L286.488 108.968C286.276 109.386 286.016 109.778 285.714 110.137C285.405 110.549 284.963 110.842 284.463 110.966C284.188 110.992 283.912 110.942 283.663 110.822C283.415 110.702 283.204 110.516 283.052 110.286C282.915 110.085 282.788 109.877 282.672 109.671L282.378 109.033L282.99 109.024C282.836 109.491 282.619 109.934 282.344 110.342C282.056 110.82 281.595 111.17 281.057 111.318C280.769 111.356 280.475 111.328 280.199 111.236C279.923 111.144 279.671 110.991 279.463 110.787C279.286 110.607 279.103 110.425 278.945 110.233L278.515 109.641L279.033 109.84C277.534 110.34 275.967 110.608 274.386 110.635C273.926 110.632 273.471 110.533 273.051 110.344C272.783 110.218 272.554 110.023 272.389 109.778L272.078 109.291C271.601 108.625 271.239 107.883 271.006 107.098C270.636 105.561 270.471 103.981 270.516 102.401C270.506 100.857 270.628 99.3289 270.761 97.8073L270.978 98.3514C269.356 96.8754 267.72 95.4105 266.07 93.9567L261.122 89.6051C259.47 88.1585 257.795 86.7403 256.097 85.3503C255.251 84.6529 254.396 83.9662 253.515 83.3172C253.075 82.9928 252.626 82.6823 252.166 82.3932C251.94 82.2472 251.704 82.1161 251.46 82.0008C251.238 81.8996 250.917 81.7789 250.802 81.9172L250.792 81.9291C250.78 81.9437 250.763 81.9532 250.744 81.9557C250.725 81.9581 250.706 81.9535 250.691 81.9426C250.675 81.9316 250.664 81.9153 250.66 81.8967C250.656 81.8782 250.659 81.8588 250.669 81.8425V81.8424Z" fill="#282828"/>
<path d="M250.647 81.5465C251.713 80.3462 252.88 79.2394 254.135 78.2384C254.758 77.7392 255.385 77.2457 256.037 76.7827C256.68 76.3079 257.361 75.8821 258.045 75.4495C257.034 76.7021 255.884 77.836 254.617 78.8295C253.381 79.8566 252.052 80.7662 250.647 81.5465Z" fill="#282828"/>
<path d="M290.717 98.9631C290.258 98.9072 290.131 99.4199 290.046 99.7802C289.969 100.183 289.919 100.59 289.895 101C289.839 101.824 289.842 102.663 289.835 103.5L289.818 106.026C289.797 106.872 289.78 107.721 289.687 108.579C289.271 106.917 289.064 105.209 289.072 103.495C289.071 102.631 289.149 101.768 289.307 100.919C289.39 100.485 289.52 100.061 289.695 99.6561C289.798 99.4509 289.929 99.2611 290.084 99.0919C290.158 98.9994 290.261 98.9358 290.377 98.9122C290.493 98.8886 290.613 98.9066 290.717 98.9631Z" fill="#282828"/>
<path d="M285.909 100.088C286.235 101.523 286.42 102.986 286.462 104.456C286.537 105.925 286.467 107.398 286.252 108.854C285.924 107.42 285.739 105.957 285.699 104.486C285.626 103.017 285.696 101.544 285.909 100.088Z" fill="#282828"/>
<path d="M278.718 106.44C278.822 106.421 278.955 106.402 279.087 106.374C279.049 107.376 279.012 108.388 278.955 109.4C278.953 109.413 278.946 109.426 278.936 109.435C278.925 109.444 278.912 109.448 278.898 109.447C278.887 109.445 278.877 109.44 278.87 109.431C278.862 109.422 278.859 109.411 278.86 109.4C278.804 108.416 278.756 107.433 278.718 106.44Z" fill="#282828"/>
<path d="M289.799 100.058C289.802 100.064 289.803 100.071 289.803 100.078C289.804 100.085 289.802 100.091 289.799 100.098C289.797 100.104 289.793 100.11 289.788 100.114C289.783 100.119 289.777 100.122 289.771 100.125C289.763 100.128 289.754 100.129 289.746 100.127C289.737 100.126 289.729 100.121 289.724 100.115C289.437 99.8273 289.124 99.5677 288.788 99.3398C288.511 99.1487 288.178 99.0555 287.842 99.075C287.529 99.1365 287.242 99.2915 287.02 99.5193C286.76 99.7591 286.535 100.033 286.348 100.333L286.32 100.37C286.287 100.425 286.244 100.472 286.193 100.51C286.142 100.547 286.084 100.575 286.023 100.589C285.961 100.604 285.897 100.607 285.835 100.597C285.772 100.587 285.712 100.565 285.658 100.531C285.597 100.497 285.545 100.448 285.507 100.389C285.338 100.082 285.109 99.8131 284.833 99.5984C284.556 99.3838 284.238 99.2282 283.899 99.1412C283.527 99.1358 283.16 99.2336 282.84 99.4239C282.519 99.6141 282.258 99.8893 282.084 100.219C282.066 100.248 282.04 100.271 282.009 100.285C281.994 100.294 281.978 100.297 281.961 100.295C281.954 100.294 281.947 100.29 281.942 100.285C281.926 100.288 281.909 100.284 281.895 100.276C281.872 100.262 281.852 100.242 281.838 100.219C281.603 99.7272 281.21 99.3279 280.723 99.0844C280.529 99.0171 280.32 99.0148 280.125 99.078C279.93 99.1412 279.762 99.2663 279.645 99.4344C279.5 99.6026 279.39 99.7988 279.323 100.011C279.29 100.123 279.265 100.236 279.248 100.351V100.777L279.21 102.375C279.078 102.384 278.955 102.394 278.832 102.394C278.747 102.394 278.662 102.403 278.577 102.403L278.529 100.777L278.52 100.342C278.518 100.171 278.531 100 278.558 99.8314C278.627 99.4819 278.779 99.1543 279.002 98.8765C279.245 98.589 279.578 98.3924 279.948 98.3185C280.135 98.288 280.326 98.2966 280.51 98.3438C280.694 98.391 280.866 98.4758 281.016 98.5928C281.414 98.9535 281.736 99.3908 281.961 99.8787C282.152 99.5733 282.377 99.2909 282.633 99.0371C282.966 98.6787 283.421 98.4565 283.909 98.4132C284.413 98.3894 284.911 98.5396 285.318 98.8386C285.507 98.9806 285.686 99.1317 285.857 99.2829C286.017 99.091 286.198 98.9167 286.396 98.7631C286.798 98.4289 287.31 98.254 287.833 98.2715C288.082 98.2891 288.325 98.3568 288.548 98.4705C288.77 98.5842 288.968 98.7416 289.128 98.9332C289.425 99.2595 289.653 99.6421 289.799 100.058Z" fill="#282828"/>
<path d="M282.51 102.29C282.273 102.28 282.037 102.271 281.782 102.271C281.788 101.606 281.842 100.943 281.942 100.285C281.944 100.238 281.95 100.19 281.961 100.144C281.98 100.191 281.99 100.238 282.009 100.285C282.221 100.941 282.388 101.611 282.51 102.29Z" fill="#282828"/>
<path d="M282.68 108.917C282.321 107.837 282.08 106.721 281.961 105.589C282.264 105.476 282.557 105.353 282.831 105.22C282.922 106.454 282.871 107.695 282.68 108.917Z" fill="#282828"/>
<path d="M236.475 155.491L235.832 152.465C235.832 152.465 246.403 140.392 278.907 132.563L280.76 132.28C282.043 133.107 283.281 134.004 284.467 134.965C282.302 135.324 280.127 135.74 277.962 136.128C275.816 136.629 273.651 137.102 271.514 137.641L268.328 138.539L266.73 138.992L265.16 139.512L263.251 140.146C263.152 140.103 263.043 140.093 262.939 140.117C262.875 140.134 262.815 140.163 262.763 140.204C262.71 140.245 262.667 140.296 262.636 140.354L262.012 140.562C260.972 140.931 259.951 141.337 258.911 141.725C256.216 142.812 253.55 143.994 250.95 145.299C250.685 144.467 250.449 143.625 250.26 142.765C250.324 143.667 250.451 144.565 250.638 145.45C249.4 146.083 248.161 146.745 246.96 147.454L244.143 149.203C243.245 149.846 242.299 150.423 241.429 151.104C239.638 152.4 237.979 153.87 236.475 155.491Z" fill="#282828"/>
<path d="M377.197 209.25C377.197 209.25 376.829 202.291 315.279 228.67C315.279 228.67 299.594 213.92 298.8 176.717C298.743 174.107 298.828 171.498 298.961 168.898C299.135 164.955 298.792 161.008 297.94 157.155C297.694 157.41 297.448 157.684 297.183 157.94C296.912 158.182 296.628 158.409 296.332 158.62C295.738 159.056 295.09 159.412 294.404 159.679C293.693 159.922 292.951 160.062 292.201 160.095C291.432 160.13 290.663 160.024 289.931 159.783C289.877 159.762 289.828 159.728 289.79 159.684C289.752 159.639 289.726 159.586 289.714 159.528L289.705 159.49C289.428 158.065 289.068 156.657 288.627 155.274C288.211 153.884 287.729 152.503 287.256 151.123L285.752 146.991L284.202 142.888L284.193 142.86C284.166 142.789 284.169 142.712 284.199 142.643C284.229 142.574 284.284 142.52 284.353 142.491H284.363C285.308 142.15 286.254 141.81 287.208 141.508C288.163 141.186 289.118 140.865 290.083 140.571C288.409 138.514 286.527 136.635 284.467 134.965L278.038 136.487C275.92 137.064 273.783 137.593 271.665 138.208C268.961 139.03 266.257 139.862 263.591 140.789C263.676 141.139 263.837 141.763 264.064 142.633C264.092 142.754 264.072 142.882 264.009 142.989C263.945 143.096 263.843 143.175 263.723 143.209C263.683 143.22 263.642 143.226 263.6 143.228C263.495 143.229 263.393 143.193 263.311 143.128C263.228 143.063 263.17 142.971 263.147 142.869C262.939 142.056 262.787 141.46 262.693 141.101C261.52 141.517 260.348 141.961 259.194 142.434C256.472 143.493 253.793 144.662 251.158 145.942C251.205 146.074 251.243 146.216 251.29 146.348C251.691 147.514 252.171 148.652 252.728 149.752C253.817 151.943 255.243 153.949 256.954 155.699C257.808 156.564 258.735 157.355 259.724 158.062C260.743 158.735 261.815 159.323 262.929 159.821C265.197 160.806 267.589 161.474 270.039 161.807C269.755 161.797 269.462 161.778 269.178 161.759C269.219 161.814 269.251 161.874 269.273 161.939L269.878 164.076C269.896 164.135 269.903 164.197 269.896 164.258C269.89 164.319 269.871 164.379 269.841 164.433C269.811 164.487 269.77 164.534 269.721 164.572C269.673 164.609 269.617 164.637 269.557 164.652C269.514 164.668 269.469 164.674 269.424 164.671C269.322 164.67 269.224 164.636 269.142 164.575C269.061 164.514 269.001 164.428 268.971 164.331L268.366 162.194C268.342 162.111 268.341 162.023 268.365 161.939C268.388 161.856 268.434 161.78 268.498 161.721C268.394 161.712 268.28 161.712 268.167 161.702C267.538 161.693 266.912 161.627 266.295 161.504C265.048 161.289 263.825 160.95 262.645 160.492C261.451 160.051 260.307 159.484 259.232 158.8C256.042 156.648 253.554 153.607 252.075 150.055C251.536 148.784 251.103 147.472 250.78 146.131C249.589 146.717 248.416 147.322 247.253 147.965L244.407 149.619C243.49 150.215 242.535 150.764 241.647 151.416C239.805 152.618 238.074 153.982 236.475 155.491C238.328 159.055 240.087 162.657 241.826 166.279C243.557 169.9 245.221 173.549 246.894 177.199C247.206 177.898 247.518 178.598 247.83 179.298C247.906 179.307 250.562 185.462 251.735 188.223C253.304 191.91 254.845 195.616 256.301 199.36C256.301 199.36 279.38 264.569 312.348 266.034C312.348 266.034 329.934 264.569 377.197 245.886C377.197 245.886 382.691 213.646 377.197 209.25ZM264.262 147.19C264.054 146.405 263.865 145.686 263.695 145.034C263.667 144.913 263.687 144.785 263.75 144.678C263.813 144.57 263.915 144.491 264.035 144.457C264.096 144.441 264.158 144.438 264.22 144.446C264.282 144.455 264.341 144.475 264.395 144.507C264.448 144.539 264.495 144.581 264.533 144.631C264.57 144.68 264.597 144.737 264.612 144.798C264.782 145.45 264.971 146.169 265.179 146.944C265.195 147.004 265.199 147.067 265.19 147.129C265.182 147.19 265.161 147.25 265.13 147.303C265.098 147.357 265.056 147.404 265.006 147.441C264.956 147.478 264.899 147.505 264.839 147.521C264.799 147.531 264.758 147.538 264.716 147.539C264.613 147.539 264.512 147.504 264.43 147.441C264.348 147.378 264.289 147.289 264.262 147.19ZM265.406 151.492L264.83 149.336C264.798 149.214 264.817 149.085 264.881 148.977C264.944 148.869 265.049 148.791 265.17 148.76C265.292 148.728 265.421 148.746 265.529 148.81C265.637 148.874 265.715 148.978 265.747 149.099L266.314 151.236C266.332 151.297 266.337 151.36 266.33 151.422C266.323 151.485 266.304 151.545 266.273 151.6C266.242 151.654 266.2 151.702 266.151 151.741C266.101 151.779 266.044 151.807 265.983 151.822C265.943 151.831 265.901 151.834 265.86 151.832C265.758 151.833 265.657 151.8 265.575 151.739C265.493 151.677 265.434 151.59 265.406 151.492H265.406ZM265.983 153.628C265.952 153.508 265.97 153.38 266.031 153.273C266.093 153.165 266.195 153.086 266.314 153.052C266.435 153.021 266.564 153.038 266.673 153.099C266.783 153.161 266.864 153.263 266.9 153.383L267.477 155.491L266.569 155.774L265.983 153.628ZM268.347 160.388C268.303 160.399 268.259 160.406 268.214 160.407C268.111 160.407 268.01 160.372 267.928 160.309C267.847 160.246 267.787 160.157 267.76 160.057L267.165 157.921C267.147 157.86 267.142 157.797 267.15 157.735C267.157 157.673 267.176 157.613 267.207 157.558C267.238 157.504 267.279 157.456 267.329 157.417C267.379 157.379 267.435 157.351 267.496 157.335C267.555 157.318 267.618 157.313 267.679 157.32C267.741 157.328 267.8 157.348 267.854 157.379C267.907 157.409 267.954 157.451 267.992 157.5C268.03 157.549 268.057 157.605 268.072 157.665L268.668 159.802C268.703 159.922 268.689 160.052 268.628 160.162C268.568 160.271 268.467 160.353 268.347 160.388H268.347ZM270.663 168.935C270.56 168.936 270.46 168.904 270.378 168.842C270.296 168.781 270.237 168.694 270.209 168.595L269.585 166.468C269.552 166.347 269.568 166.219 269.628 166.11C269.687 166 269.787 165.918 269.907 165.881C269.966 165.862 270.029 165.856 270.091 165.862C270.153 165.868 270.214 165.887 270.268 165.917C270.323 165.947 270.371 165.988 270.41 166.037C270.448 166.086 270.477 166.142 270.493 166.203L271.117 168.33C271.135 168.39 271.14 168.452 271.134 168.514C271.127 168.576 271.109 168.636 271.079 168.69C271.049 168.745 271.008 168.793 270.96 168.832C270.911 168.871 270.855 168.899 270.795 168.916C270.753 168.931 270.708 168.937 270.663 168.935ZM271.921 173.19C271.82 173.188 271.722 173.156 271.641 173.097C271.56 173.037 271.499 172.954 271.467 172.859L270.833 170.732C270.815 170.672 270.808 170.609 270.814 170.547C270.82 170.485 270.838 170.424 270.867 170.369C270.897 170.314 270.937 170.265 270.985 170.225C271.033 170.185 271.089 170.156 271.149 170.137C271.209 170.119 271.272 170.113 271.334 170.12C271.396 170.126 271.456 170.144 271.511 170.174C271.566 170.204 271.615 170.244 271.654 170.293C271.694 170.341 271.723 170.397 271.741 170.457L272.374 172.585C272.41 172.704 272.397 172.832 272.339 172.942C272.28 173.052 272.181 173.134 272.062 173.171C272.017 173.186 271.969 173.193 271.921 173.19L271.921 173.19ZM273.206 177.435C273.106 177.437 273.008 177.405 272.928 177.345C272.847 177.285 272.789 177.201 272.762 177.104L272.11 174.986C272.091 174.927 272.084 174.864 272.089 174.801C272.094 174.739 272.112 174.678 272.141 174.623C272.17 174.567 272.21 174.518 272.258 174.478C272.306 174.437 272.361 174.407 272.421 174.389C272.481 174.37 272.544 174.363 272.606 174.369C272.668 174.374 272.729 174.392 272.784 174.422C272.84 174.451 272.889 174.491 272.929 174.539C272.969 174.587 272.999 174.643 273.017 174.703L273.66 176.83C273.696 176.949 273.683 177.077 273.625 177.187C273.566 177.297 273.467 177.379 273.348 177.416C273.303 177.432 273.254 177.438 273.206 177.435V177.435ZM274.521 181.68C274.421 181.68 274.324 181.648 274.244 181.588C274.164 181.528 274.105 181.445 274.076 181.349L273.414 179.231C273.394 179.172 273.386 179.109 273.391 179.046C273.396 178.983 273.413 178.922 273.442 178.867C273.472 178.811 273.512 178.762 273.561 178.722C273.609 178.682 273.666 178.653 273.726 178.636C273.845 178.6 273.974 178.613 274.083 178.671C274.193 178.73 274.276 178.829 274.313 178.948L274.974 181.065C274.993 181.124 275 181.187 274.994 181.248C274.988 181.31 274.971 181.37 274.941 181.424C274.912 181.479 274.873 181.527 274.825 181.566C274.777 181.605 274.722 181.634 274.662 181.652C274.617 181.67 274.569 181.68 274.521 181.68L274.521 181.68ZM275.872 185.906C275.772 185.906 275.673 185.874 275.592 185.815C275.51 185.755 275.45 185.671 275.419 185.575C275.192 184.876 274.965 184.167 274.738 183.467C274.719 183.407 274.711 183.345 274.717 183.282C274.722 183.22 274.74 183.159 274.769 183.104C274.798 183.048 274.838 182.999 274.886 182.959C274.934 182.919 274.99 182.89 275.05 182.871C275.169 182.835 275.298 182.846 275.409 182.903C275.52 182.959 275.605 183.056 275.646 183.174C275.863 183.883 276.09 184.583 276.317 185.282C276.337 185.341 276.345 185.404 276.341 185.466C276.336 185.528 276.32 185.588 276.291 185.644C276.263 185.7 276.224 185.749 276.177 185.789C276.129 185.829 276.074 185.859 276.014 185.878C275.969 185.896 275.921 185.906 275.872 185.906V185.906ZM277.243 190.114C277.144 190.114 277.046 190.083 276.965 190.026C276.883 189.968 276.822 189.886 276.79 189.792L276.099 187.684C276.061 187.565 276.072 187.436 276.128 187.324C276.185 187.213 276.284 187.129 276.402 187.09C276.521 187.051 276.651 187.061 276.762 187.117C276.874 187.174 276.958 187.272 276.997 187.391L277.688 189.49C277.708 189.549 277.717 189.611 277.713 189.673C277.709 189.736 277.692 189.796 277.664 189.852C277.635 189.908 277.596 189.957 277.548 189.997C277.5 190.037 277.445 190.067 277.385 190.085C277.34 190.104 277.292 190.113 277.243 190.114V190.114ZM278.662 194.33C278.562 194.331 278.464 194.3 278.383 194.243C278.301 194.185 278.24 194.103 278.208 194.009C277.971 193.309 277.735 192.6 277.499 191.9C277.477 191.842 277.468 191.779 277.471 191.717C277.474 191.655 277.49 191.594 277.517 191.537C277.544 191.481 277.582 191.431 277.629 191.389C277.675 191.348 277.73 191.316 277.789 191.296C277.848 191.276 277.911 191.268 277.973 191.272C278.035 191.277 278.096 191.293 278.152 191.321C278.207 191.35 278.257 191.389 278.297 191.436C278.338 191.483 278.368 191.539 278.387 191.598C278.624 192.298 278.87 192.997 279.106 193.706C279.128 193.777 279.134 193.852 279.123 193.926C279.111 193.999 279.083 194.069 279.04 194.13C278.997 194.19 278.94 194.24 278.874 194.275C278.809 194.309 278.736 194.329 278.662 194.33ZM280.108 198.519C280.011 198.518 279.917 198.488 279.837 198.432C279.758 198.376 279.698 198.298 279.664 198.207C279.418 197.507 279.172 196.808 278.936 196.108C278.914 196.049 278.904 195.987 278.907 195.925C278.91 195.862 278.925 195.801 278.952 195.744C278.978 195.688 279.016 195.637 279.062 195.595C279.108 195.553 279.163 195.521 279.222 195.5C279.281 195.48 279.343 195.471 279.405 195.475C279.468 195.478 279.529 195.494 279.585 195.522C279.641 195.549 279.691 195.588 279.732 195.635C279.773 195.682 279.805 195.737 279.824 195.796C280.07 196.495 280.307 197.195 280.552 197.885C280.574 197.944 280.585 198.006 280.582 198.068C280.58 198.13 280.565 198.191 280.539 198.248C280.512 198.304 280.475 198.355 280.428 198.396C280.382 198.438 280.328 198.47 280.269 198.49C280.217 198.509 280.163 198.519 280.108 198.519V198.519ZM281.602 202.698C281.505 202.696 281.412 202.665 281.332 202.609C281.253 202.554 281.192 202.476 281.158 202.386C280.912 201.695 280.657 200.996 280.411 200.296C280.389 200.238 280.379 200.176 280.382 200.114C280.385 200.052 280.4 199.991 280.426 199.934C280.452 199.878 280.49 199.828 280.536 199.786C280.582 199.744 280.636 199.712 280.694 199.691C280.812 199.652 280.941 199.66 281.053 199.712C281.166 199.765 281.254 199.859 281.299 199.975C281.545 200.674 281.801 201.374 282.046 202.064C282.068 202.122 282.078 202.184 282.075 202.247C282.072 202.309 282.057 202.37 282.031 202.426C282.005 202.482 281.967 202.533 281.921 202.575C281.875 202.616 281.821 202.649 281.763 202.669C281.711 202.689 281.657 202.698 281.602 202.698V202.698ZM283.152 206.858C283.057 206.858 282.963 206.829 282.884 206.775C282.805 206.721 282.743 206.644 282.708 206.555C282.453 205.865 282.188 205.165 281.933 204.475C281.91 204.417 281.9 204.355 281.901 204.292C281.903 204.23 281.917 204.168 281.942 204.111C281.968 204.054 282.004 204.002 282.05 203.959C282.095 203.916 282.149 203.883 282.207 203.861C282.265 203.839 282.327 203.828 282.39 203.831C282.452 203.833 282.513 203.848 282.57 203.875C282.626 203.901 282.677 203.939 282.718 203.985C282.76 204.031 282.792 204.085 282.812 204.144C283.077 204.834 283.332 205.525 283.597 206.215C283.638 206.333 283.632 206.462 283.581 206.576C283.531 206.69 283.438 206.781 283.323 206.829C283.268 206.848 283.21 206.857 283.152 206.858V206.858ZM284.93 210.961C284.875 210.98 284.818 210.989 284.76 210.989C284.665 210.991 284.571 210.964 284.492 210.912C284.413 210.859 284.351 210.784 284.315 210.696C284.041 210.016 283.777 209.325 283.502 208.626C283.48 208.567 283.469 208.505 283.47 208.442C283.472 208.38 283.486 208.318 283.511 208.261C283.537 208.204 283.573 208.152 283.619 208.109C283.664 208.066 283.717 208.032 283.776 208.01C283.834 207.987 283.897 207.977 283.959 207.978C284.022 207.98 284.084 207.994 284.141 208.02C284.198 208.045 284.249 208.082 284.292 208.128C284.335 208.173 284.369 208.227 284.391 208.285C284.656 208.975 284.921 209.666 285.195 210.347C285.218 210.404 285.23 210.466 285.229 210.528C285.228 210.59 285.215 210.652 285.191 210.709C285.166 210.766 285.13 210.818 285.086 210.861C285.041 210.904 284.988 210.938 284.93 210.961L284.93 210.961ZM286.613 215.064C286.553 215.09 286.489 215.103 286.424 215.102C286.33 215.102 286.239 215.075 286.161 215.022C286.084 214.97 286.024 214.896 285.989 214.809C285.705 214.138 285.422 213.448 285.148 212.757C285.1 212.642 285.101 212.513 285.149 212.398C285.197 212.283 285.288 212.192 285.404 212.145C285.519 212.097 285.648 212.097 285.763 212.145C285.878 212.192 285.969 212.283 286.017 212.398C286.301 213.088 286.585 213.769 286.868 214.45C286.914 214.565 286.913 214.694 286.865 214.809C286.818 214.924 286.727 215.015 286.613 215.064V215.064ZM288.371 219.139C288.312 219.165 288.247 219.178 288.182 219.177C288.091 219.177 288.002 219.152 287.925 219.103C287.848 219.055 287.786 218.985 287.748 218.903C287.454 218.232 287.152 217.551 286.859 216.861C286.809 216.745 286.807 216.615 286.853 216.498C286.899 216.381 286.99 216.288 287.105 216.238C287.22 216.187 287.35 216.185 287.467 216.231C287.584 216.277 287.678 216.367 287.729 216.482C288.022 217.173 288.315 217.844 288.608 218.515C288.634 218.572 288.649 218.633 288.651 218.695C288.653 218.757 288.643 218.819 288.621 218.877C288.599 218.935 288.565 218.988 288.523 219.033C288.48 219.078 288.428 219.114 288.371 219.139H288.371ZM290.234 223.167C290.169 223.197 290.098 223.213 290.026 223.214C289.937 223.212 289.85 223.185 289.775 223.137C289.7 223.088 289.639 223.02 289.601 222.94C289.288 222.288 288.977 221.607 288.665 220.926C288.638 220.871 288.622 220.81 288.619 220.748C288.616 220.686 288.625 220.624 288.646 220.566C288.667 220.508 288.7 220.455 288.742 220.409C288.784 220.364 288.835 220.328 288.891 220.302C288.948 220.275 289.01 220.26 289.073 220.258C289.136 220.255 289.199 220.265 289.258 220.287C289.317 220.309 289.371 220.343 289.417 220.386C289.463 220.429 289.499 220.481 289.525 220.538C289.827 221.21 290.14 221.881 290.461 222.533C290.515 222.648 290.521 222.778 290.478 222.897C290.436 223.016 290.348 223.113 290.234 223.167ZM292.229 227.138C292.157 227.167 292.08 227.183 292.002 227.185C291.916 227.185 291.831 227.162 291.758 227.117C291.684 227.071 291.625 227.007 291.586 226.93C291.246 226.287 290.915 225.625 290.574 224.944C290.547 224.889 290.531 224.828 290.527 224.766C290.523 224.704 290.532 224.642 290.552 224.583C290.572 224.524 290.604 224.47 290.645 224.423C290.686 224.376 290.736 224.338 290.792 224.311C290.848 224.284 290.908 224.268 290.97 224.264C291.033 224.26 291.095 224.268 291.154 224.289C291.212 224.309 291.267 224.34 291.313 224.381C291.36 224.423 291.398 224.473 291.425 224.528C291.756 225.2 292.097 225.852 292.427 226.495C292.485 226.607 292.497 226.737 292.46 226.857C292.423 226.977 292.34 227.078 292.229 227.138ZM294.385 231.014C294.311 231.051 294.23 231.07 294.148 231.071C294.066 231.073 293.986 231.053 293.914 231.013C293.843 230.973 293.783 230.915 293.742 230.844C293.373 230.211 293.004 229.568 292.635 228.896C292.576 228.786 292.562 228.657 292.598 228.536C292.633 228.416 292.715 228.315 292.825 228.255C292.935 228.194 293.065 228.181 293.185 228.216C293.306 228.251 293.407 228.333 293.467 228.443C293.827 229.104 294.195 229.747 294.555 230.362C294.618 230.471 294.636 230.601 294.605 230.723C294.573 230.846 294.494 230.95 294.385 231.014L294.385 231.014ZM296.786 234.739C296.708 234.793 296.616 234.822 296.521 234.824C296.445 234.825 296.369 234.806 296.301 234.769C296.234 234.733 296.176 234.681 296.134 234.616C295.718 234.03 295.311 233.406 294.895 232.754C294.828 232.647 294.806 232.519 294.834 232.396C294.862 232.273 294.937 232.167 295.043 232.099C295.149 232.032 295.278 232.009 295.401 232.036C295.524 232.063 295.631 232.138 295.699 232.243C296.096 232.886 296.502 233.501 296.909 234.087C296.979 234.19 297.005 234.316 296.982 234.438C296.959 234.561 296.888 234.669 296.786 234.739L296.786 234.739ZM299.566 238.19C299.472 238.274 299.35 238.318 299.224 238.313C299.099 238.307 298.981 238.253 298.895 238.162C298.422 237.632 297.93 237.056 297.457 236.432C297.419 236.383 297.39 236.327 297.373 236.266C297.356 236.206 297.351 236.143 297.359 236.081C297.366 236.019 297.386 235.96 297.417 235.905C297.448 235.851 297.489 235.803 297.539 235.765C297.588 235.727 297.645 235.699 297.705 235.683C297.765 235.667 297.828 235.663 297.89 235.671C297.952 235.679 298.012 235.7 298.066 235.732C298.12 235.763 298.167 235.805 298.204 235.855C298.668 236.451 299.14 237.018 299.594 237.529C299.636 237.574 299.669 237.627 299.69 237.684C299.711 237.742 299.721 237.804 299.718 237.865C299.716 237.927 299.701 237.987 299.675 238.043C299.648 238.099 299.611 238.149 299.566 238.19L299.566 238.19ZM302.979 240.961C302.912 241.067 302.807 241.143 302.685 241.173C302.563 241.203 302.435 241.185 302.326 241.121C301.677 240.721 301.067 240.262 300.502 239.75C300.455 239.71 300.416 239.661 300.389 239.606C300.361 239.551 300.344 239.491 300.34 239.429C300.335 239.368 300.343 239.306 300.363 239.247C300.383 239.189 300.414 239.135 300.454 239.089C300.537 238.994 300.655 238.935 300.78 238.927C300.906 238.918 301.03 238.959 301.126 239.041C301.651 239.513 302.217 239.938 302.818 240.308C302.872 240.34 302.918 240.383 302.955 240.433C302.992 240.483 303.019 240.54 303.034 240.601C303.049 240.662 303.052 240.725 303.042 240.786C303.033 240.848 303.011 240.907 302.979 240.961H302.979ZM306.742 242.625C306.713 242.625 306.685 242.615 306.657 242.615C305.908 242.478 305.169 242.292 304.444 242.057C304.325 242.018 304.227 241.934 304.17 241.822C304.113 241.71 304.103 241.581 304.142 241.462C304.183 241.344 304.267 241.247 304.379 241.19C304.49 241.134 304.618 241.123 304.737 241.159C305.421 241.38 306.119 241.554 306.827 241.679C306.943 241.701 307.046 241.766 307.118 241.861C307.189 241.955 307.222 242.073 307.212 242.19C307.201 242.308 307.147 242.418 307.06 242.498C306.973 242.578 306.86 242.623 306.742 242.625ZM311.148 243.022H311.138C310.353 243.012 309.606 242.974 308.897 242.908C308.835 242.904 308.774 242.887 308.719 242.859C308.663 242.831 308.613 242.792 308.573 242.744C308.532 242.697 308.502 242.641 308.483 242.582C308.464 242.522 308.457 242.46 308.462 242.398C308.467 242.336 308.484 242.275 308.512 242.22C308.541 242.165 308.58 242.116 308.627 242.076C308.675 242.037 308.73 242.007 308.79 241.989C308.849 241.971 308.911 241.965 308.973 241.972C309.663 242.029 310.391 242.067 311.157 242.076C311.281 242.082 311.398 242.135 311.485 242.225C311.571 242.315 311.619 242.434 311.62 242.558C311.618 242.682 311.567 242.8 311.479 242.887C311.39 242.973 311.271 243.022 311.148 243.022L311.148 243.022ZM315.62 242.87C314.854 242.927 314.107 242.974 313.379 243.003H313.36C313.236 243.003 313.117 242.954 313.029 242.867C312.941 242.781 312.89 242.663 312.887 242.539C312.885 242.415 312.931 242.296 313.016 242.205C313.101 242.115 313.217 242.062 313.341 242.057C314.06 242.029 314.788 241.982 315.544 241.925C315.668 241.917 315.79 241.959 315.883 242.04C315.977 242.122 316.035 242.237 316.045 242.36C316.055 242.484 316.016 242.607 315.936 242.702C315.857 242.798 315.743 242.858 315.62 242.87ZM320.054 242.36C319.307 242.473 318.569 242.568 317.841 242.653H317.785C317.669 242.652 317.557 242.61 317.47 242.534C317.383 242.457 317.327 242.352 317.312 242.237C317.299 242.112 317.335 241.987 317.413 241.888C317.491 241.789 317.604 241.724 317.728 241.707C318.447 241.632 319.175 241.537 319.912 241.424C320.037 241.408 320.163 241.442 320.264 241.518C320.365 241.594 320.432 241.706 320.451 241.83C320.468 241.953 320.436 242.078 320.362 242.177C320.287 242.276 320.177 242.342 320.054 242.36L320.054 242.36ZM324.45 241.613C323.713 241.754 322.975 241.887 322.257 242.01C322.229 242.018 322.2 242.021 322.172 242.019C322.061 242.019 321.955 241.979 321.87 241.909C321.786 241.838 321.729 241.74 321.708 241.632C321.689 241.508 321.718 241.381 321.79 241.278C321.863 241.176 321.973 241.106 322.096 241.083C322.815 240.96 323.542 240.828 324.271 240.686C324.394 240.665 324.522 240.692 324.626 240.763C324.73 240.833 324.802 240.941 324.828 241.064C324.851 241.187 324.824 241.314 324.753 241.417C324.682 241.52 324.573 241.59 324.45 241.613L324.45 241.613ZM328.809 240.696C328.081 240.856 327.353 241.017 326.634 241.168C326.6 241.176 326.565 241.179 326.53 241.178C326.413 241.179 326.3 241.137 326.213 241.059C326.126 240.982 326.071 240.874 326.059 240.758C326.047 240.642 326.079 240.525 326.149 240.431C326.219 240.338 326.321 240.273 326.436 240.251C327.154 240.1 327.873 239.939 328.591 239.769C328.714 239.742 328.841 239.764 328.947 239.831C329.053 239.898 329.129 240.003 329.157 240.125C329.186 240.247 329.165 240.375 329.1 240.482C329.035 240.589 328.93 240.666 328.809 240.696ZM333.13 239.627C332.402 239.816 331.683 239.996 330.974 240.176C330.937 240.187 330.899 240.193 330.86 240.195C330.744 240.195 330.632 240.152 330.545 240.075C330.458 239.998 330.402 239.892 330.388 239.777C330.375 239.662 330.403 239.545 330.469 239.45C330.535 239.354 330.634 239.286 330.747 239.259C331.456 239.079 332.175 238.899 332.893 238.72C332.953 238.703 333.015 238.698 333.077 238.706C333.138 238.713 333.197 238.733 333.251 238.764C333.305 238.795 333.352 238.836 333.389 238.885C333.427 238.934 333.454 238.991 333.47 239.051C333.486 239.111 333.49 239.174 333.481 239.235C333.473 239.297 333.452 239.356 333.42 239.41C333.389 239.464 333.347 239.511 333.297 239.548C333.247 239.585 333.19 239.612 333.13 239.627L333.13 239.627ZM337.413 238.455C336.703 238.663 335.985 238.862 335.276 239.06C335.235 239.068 335.194 239.071 335.153 239.07C335.038 239.07 334.928 239.028 334.842 238.953C334.755 238.878 334.7 238.774 334.685 238.66C334.67 238.547 334.696 238.432 334.76 238.337C334.823 238.241 334.919 238.173 335.03 238.143C335.739 237.954 336.448 237.755 337.157 237.547C337.217 237.53 337.28 237.525 337.342 237.532C337.403 237.539 337.463 237.558 337.518 237.588C337.572 237.618 337.62 237.659 337.658 237.708C337.697 237.757 337.725 237.813 337.742 237.873C337.759 237.932 337.764 237.995 337.756 238.057C337.749 238.119 337.729 238.178 337.699 238.232C337.668 238.287 337.627 238.334 337.578 238.372C337.529 238.411 337.473 238.439 337.413 238.455L337.413 238.455ZM341.677 237.197C340.968 237.415 340.258 237.632 339.549 237.84C339.506 237.851 339.462 237.858 339.417 237.859C339.314 237.861 339.214 237.828 339.132 237.766C339.05 237.705 338.991 237.618 338.963 237.519C338.945 237.459 338.94 237.397 338.946 237.335C338.953 237.273 338.972 237.213 339.001 237.159C339.031 237.104 339.072 237.056 339.12 237.017C339.169 236.979 339.225 236.95 339.285 236.933C339.994 236.725 340.693 236.507 341.402 236.299C341.521 236.263 341.65 236.275 341.76 236.334C341.87 236.392 341.952 236.492 341.989 236.611C342.025 236.73 342.013 236.859 341.954 236.969C341.896 237.079 341.796 237.161 341.677 237.197ZM345.922 235.855C345.222 236.082 344.513 236.309 343.813 236.536C343.768 236.551 343.719 236.557 343.671 236.554C343.559 236.556 343.45 236.517 343.364 236.444C343.278 236.372 343.221 236.272 343.203 236.161C343.184 236.05 343.206 235.936 343.265 235.84C343.323 235.745 343.414 235.673 343.52 235.638C344.229 235.41 344.929 235.184 345.638 234.957C345.757 234.92 345.886 234.931 345.997 234.988C346.108 235.044 346.193 235.142 346.234 235.259C346.253 235.319 346.26 235.382 346.255 235.444C346.249 235.506 346.232 235.567 346.203 235.623C346.174 235.678 346.134 235.727 346.086 235.767C346.037 235.807 345.982 235.837 345.922 235.855L345.922 235.855ZM350.138 234.456L348.04 235.165C347.991 235.18 347.939 235.186 347.888 235.184C347.775 235.185 347.666 235.147 347.579 235.075C347.493 235.002 347.435 234.902 347.417 234.79C347.398 234.679 347.42 234.565 347.479 234.469C347.538 234.373 347.63 234.301 347.737 234.266L349.836 233.557C349.955 233.517 350.085 233.525 350.199 233.58C350.312 233.635 350.399 233.732 350.441 233.851C350.477 233.971 350.467 234.101 350.41 234.213C350.354 234.326 350.257 234.413 350.138 234.456L350.138 234.456ZM354.336 232.99C353.646 233.236 352.946 233.482 352.237 233.728C352.189 233.746 352.138 233.756 352.086 233.756C351.987 233.756 351.891 233.725 351.811 233.668C351.732 233.61 351.672 233.528 351.642 233.435C351.62 233.376 351.61 233.314 351.613 233.252C351.616 233.19 351.631 233.129 351.657 233.073C351.683 233.016 351.721 232.966 351.767 232.924C351.813 232.882 351.867 232.85 351.925 232.829C352.634 232.593 353.325 232.338 354.015 232.092C354.133 232.051 354.263 232.059 354.376 232.113C354.49 232.167 354.577 232.264 354.619 232.382C354.661 232.5 354.655 232.63 354.602 232.744C354.549 232.858 354.454 232.946 354.336 232.99ZM358.515 231.468C357.825 231.723 357.135 231.979 356.426 232.234C356.374 232.252 356.32 232.262 356.265 232.262C356.168 232.263 356.072 232.234 355.993 232.178C355.913 232.122 355.853 232.042 355.821 231.95C355.779 231.832 355.786 231.703 355.839 231.59C355.892 231.477 355.987 231.389 356.104 231.345C356.804 231.09 357.504 230.835 358.184 230.579C358.302 230.537 358.432 230.543 358.545 230.596C358.659 230.649 358.746 230.745 358.789 230.863C358.812 230.92 358.823 230.982 358.822 231.044C358.82 231.106 358.807 231.167 358.781 231.224C358.755 231.28 358.719 231.331 358.673 231.373C358.627 231.415 358.574 231.447 358.515 231.468L358.515 231.468ZM362.666 229.899C361.995 230.163 361.295 230.428 360.595 230.693C360.54 230.711 360.483 230.721 360.425 230.721C360.329 230.721 360.236 230.692 360.156 230.638C360.077 230.584 360.016 230.508 359.981 230.419C359.94 230.3 359.945 230.171 359.996 230.057C360.047 229.943 360.14 229.852 360.255 229.804C360.964 229.539 361.654 229.274 362.335 229.019C362.393 228.998 362.454 228.987 362.516 228.989C362.577 228.991 362.638 229.006 362.694 229.031C362.75 229.057 362.801 229.093 362.843 229.138C362.885 229.183 362.918 229.236 362.94 229.293C362.962 229.351 362.972 229.413 362.97 229.474C362.968 229.536 362.954 229.597 362.928 229.653C362.903 229.709 362.866 229.76 362.821 229.802C362.776 229.844 362.724 229.877 362.666 229.899V229.899ZM366.807 228.282C366.136 228.547 365.455 228.821 364.746 229.095C364.69 229.122 364.628 229.135 364.566 229.133C364.472 229.132 364.379 229.103 364.302 229.049C364.224 228.995 364.165 228.919 364.131 228.83C364.086 228.713 364.089 228.584 364.138 228.469C364.188 228.354 364.28 228.263 364.396 228.216C365.105 227.941 365.795 227.667 366.467 227.402C366.582 227.359 366.71 227.362 366.823 227.411C366.936 227.461 367.026 227.553 367.072 227.667C367.096 227.725 367.109 227.787 367.108 227.849C367.108 227.912 367.095 227.974 367.071 228.031C367.046 228.088 367.01 228.14 366.964 228.183C366.919 228.227 366.865 228.26 366.807 228.282L366.807 228.282ZM370.939 226.627C370.277 226.892 369.587 227.176 368.877 227.459C368.821 227.484 368.76 227.497 368.698 227.497C368.589 227.497 368.483 227.458 368.399 227.389C368.315 227.32 368.258 227.224 368.237 227.117C368.216 227.01 368.232 226.899 368.283 226.803C368.335 226.707 368.418 226.631 368.518 226.589C369.237 226.296 369.917 226.022 370.579 225.748C370.695 225.703 370.824 225.705 370.939 225.755C371.053 225.804 371.143 225.896 371.19 226.011C371.237 226.126 371.237 226.255 371.19 226.371C371.143 226.486 371.053 226.578 370.939 226.627H370.939ZM375.042 224.916C374.418 225.181 373.728 225.474 372.99 225.776C372.934 225.802 372.873 225.815 372.811 225.814C372.717 225.814 372.626 225.786 372.549 225.734C372.471 225.681 372.411 225.607 372.376 225.521C372.351 225.464 372.339 225.403 372.338 225.341C372.338 225.279 372.35 225.217 372.374 225.16C372.398 225.103 372.433 225.051 372.477 225.007C372.521 224.964 372.573 224.929 372.631 224.907C373.368 224.604 374.049 224.311 374.673 224.046C374.79 223.998 374.921 223.998 375.037 224.046C375.154 224.094 375.247 224.185 375.297 224.301C375.322 224.358 375.335 224.42 375.336 224.482C375.336 224.544 375.324 224.606 375.3 224.663C375.276 224.72 375.241 224.772 375.197 224.816C375.152 224.859 375.1 224.893 375.042 224.916L375.042 224.916ZM379.136 223.157C378.729 223.337 378.03 223.64 377.094 224.046C377.034 224.073 376.97 224.086 376.904 224.084C376.795 224.085 376.688 224.047 376.604 223.978C376.519 223.909 376.461 223.812 376.439 223.704C376.418 223.597 376.435 223.485 376.487 223.389C376.539 223.293 376.623 223.217 376.725 223.176C377.651 222.779 378.351 222.477 378.758 222.297C378.814 222.271 378.875 222.257 378.938 222.255C379 222.253 379.062 222.264 379.12 222.286C379.178 222.308 379.231 222.342 379.276 222.385C379.321 222.427 379.357 222.479 379.382 222.536C379.407 222.593 379.421 222.654 379.422 222.716C379.423 222.778 379.412 222.84 379.389 222.898C379.366 222.956 379.332 223.009 379.288 223.053C379.245 223.098 379.193 223.133 379.136 223.157ZM290.083 140.571C289.175 141.016 288.258 141.422 287.341 141.838C286.518 142.217 285.696 142.566 284.864 142.916C285.441 144.164 286.017 145.412 286.528 146.689C287.105 148.05 287.634 149.421 288.126 150.811C288.636 152.191 289.09 153.6 289.506 155.018C289.902 156.367 290.208 157.741 290.423 159.131C290.994 159.336 291.594 159.451 292.201 159.471C292.893 159.486 293.584 159.4 294.252 159.216C294.929 159.025 295.58 158.751 296.19 158.403C296.808 158.038 297.393 157.62 297.94 157.155C296.654 151.089 293.963 145.409 290.083 140.571ZM251.196 188.459L247.461 180.271C247.424 180.253 246.204 177.511 246.204 177.511L241.287 166.524C239.671 162.856 238.045 159.188 236.475 155.491C236.475 155.491 166.19 237.094 128.087 300.837C128.087 300.837 136.634 307.303 145.503 313.336V313.326L146.732 311.482C146.767 311.431 146.812 311.386 146.865 311.352C146.917 311.318 146.976 311.294 147.037 311.283C147.099 311.271 147.162 311.272 147.223 311.286C147.284 311.299 147.342 311.324 147.394 311.36C147.446 311.394 147.49 311.438 147.524 311.489C147.559 311.541 147.582 311.599 147.594 311.66C147.605 311.72 147.604 311.783 147.591 311.844C147.578 311.904 147.553 311.961 147.517 312.012L146.288 313.856L146.278 313.865C153.785 318.933 161.339 323.547 163.987 323.547C163.987 323.547 202.458 260.9 209.047 251.38C215.647 241.849 252.274 207.416 256.301 199.36C254.562 195.749 252.879 192.099 251.196 188.459ZM149.984 308.334L148.755 310.168C148.712 310.234 148.653 310.289 148.584 310.327C148.515 310.365 148.437 310.385 148.358 310.386C148.266 310.385 148.177 310.355 148.103 310.301C148.051 310.267 148.005 310.223 147.97 310.172C147.935 310.121 147.911 310.063 147.898 310.002C147.886 309.942 147.886 309.879 147.898 309.818C147.911 309.757 147.935 309.699 147.97 309.648L149.2 307.805C149.271 307.701 149.38 307.629 149.504 307.604C149.627 307.579 149.756 307.604 149.861 307.672C149.913 307.707 149.958 307.753 149.992 307.805C150.026 307.857 150.05 307.916 150.061 307.978C150.072 308.039 150.072 308.102 150.058 308.163C150.045 308.225 150.02 308.283 149.984 308.334ZM152.461 304.656L151.223 306.49C151.181 306.555 151.124 306.608 151.056 306.645C150.988 306.681 150.912 306.7 150.835 306.699C150.741 306.703 150.648 306.676 150.57 306.623C150.467 306.554 150.394 306.446 150.369 306.324C150.345 306.202 150.369 306.075 150.438 305.97L151.677 304.127C151.746 304.023 151.853 303.951 151.976 303.926C152.098 303.901 152.225 303.926 152.329 303.994C152.433 304.066 152.505 304.175 152.53 304.299C152.554 304.422 152.53 304.551 152.461 304.656H152.461ZM154.929 300.978L153.691 302.812C153.648 302.877 153.591 302.929 153.523 302.965C153.455 303.002 153.38 303.021 153.303 303.02C153.209 303.025 153.116 302.998 153.038 302.945C152.934 302.874 152.863 302.764 152.838 302.641C152.813 302.517 152.837 302.389 152.906 302.283L154.144 300.449C154.214 300.345 154.321 300.273 154.443 300.248C154.565 300.224 154.692 300.248 154.797 300.317C154.901 300.388 154.972 300.497 154.997 300.621C155.022 300.744 154.998 300.873 154.929 300.978L154.929 300.978ZM157.397 297.291L156.158 299.135C156.116 299.199 156.058 299.251 155.991 299.288C155.923 299.324 155.847 299.343 155.771 299.343C155.677 299.342 155.585 299.316 155.506 299.267C155.402 299.196 155.33 299.087 155.305 298.963C155.281 298.839 155.305 298.711 155.374 298.605L156.612 296.771C156.646 296.719 156.69 296.674 156.741 296.639C156.792 296.604 156.85 296.58 156.911 296.567C156.972 296.554 157.035 296.554 157.096 296.566C157.157 296.578 157.215 296.601 157.266 296.636C157.318 296.67 157.363 296.714 157.397 296.766C157.432 296.817 157.456 296.875 157.468 296.936C157.48 296.997 157.48 297.06 157.468 297.121C157.456 297.182 157.431 297.24 157.397 297.291L157.397 297.291ZM159.864 293.613L158.626 295.457C158.592 295.509 158.548 295.553 158.496 295.587C158.445 295.622 158.387 295.645 158.326 295.657C158.265 295.668 158.202 295.667 158.142 295.654C158.081 295.641 158.024 295.616 157.974 295.58C157.87 295.511 157.797 295.403 157.772 295.281C157.748 295.159 157.772 295.032 157.841 294.927L159.08 293.093C159.113 293.041 159.157 292.996 159.208 292.961C159.26 292.927 159.317 292.902 159.378 292.89C159.439 292.878 159.501 292.878 159.562 292.89C159.623 292.902 159.681 292.926 159.732 292.961C159.836 293.03 159.908 293.137 159.933 293.26C159.958 293.382 159.933 293.509 159.864 293.613L159.864 293.613ZM162.332 289.935L161.103 291.779C161.058 291.843 160.998 291.895 160.929 291.931C160.86 291.967 160.784 291.986 160.706 291.987C160.621 291.986 160.537 291.962 160.464 291.917C160.392 291.873 160.332 291.809 160.293 291.734C160.253 291.658 160.234 291.573 160.239 291.488C160.243 291.403 160.271 291.321 160.318 291.25L161.547 289.406C161.618 289.304 161.727 289.234 161.849 289.211C161.971 289.188 162.098 289.214 162.201 289.284C162.304 289.353 162.376 289.461 162.4 289.583C162.425 289.705 162.4 289.831 162.332 289.936V289.935ZM164.8 286.257L163.571 288.092C163.527 288.158 163.469 288.212 163.399 288.25C163.33 288.288 163.253 288.309 163.174 288.309C163.079 288.307 162.987 288.278 162.909 288.224C162.857 288.19 162.813 288.146 162.778 288.094C162.744 288.043 162.72 287.985 162.709 287.924C162.697 287.863 162.698 287.801 162.711 287.74C162.725 287.679 162.75 287.622 162.786 287.572L164.015 285.728C164.086 285.624 164.195 285.552 164.319 285.528C164.443 285.503 164.571 285.527 164.677 285.596C164.729 285.631 164.773 285.676 164.807 285.728C164.841 285.781 164.865 285.839 164.876 285.901C164.888 285.962 164.887 286.026 164.874 286.087C164.861 286.148 164.835 286.206 164.8 286.257V286.257ZM167.267 282.58L166.038 284.414C166.005 284.466 165.961 284.512 165.909 284.547C165.858 284.582 165.8 284.607 165.739 284.62C165.678 284.633 165.615 284.633 165.554 284.622C165.493 284.61 165.434 284.586 165.382 284.552C165.33 284.517 165.286 284.473 165.251 284.421C165.216 284.369 165.192 284.311 165.18 284.25C165.168 284.188 165.169 284.125 165.181 284.064C165.194 284.003 165.218 283.945 165.254 283.894L166.483 282.05C166.554 281.946 166.663 281.874 166.787 281.85C166.91 281.825 167.039 281.849 167.145 281.918C167.196 281.953 167.241 281.998 167.275 282.05C167.309 282.103 167.333 282.162 167.344 282.223C167.355 282.285 167.355 282.348 167.341 282.409C167.328 282.47 167.303 282.528 167.267 282.58L167.267 282.58ZM169.744 278.892L168.506 280.736C168.461 280.799 168.401 280.851 168.332 280.888C168.263 280.924 168.187 280.943 168.109 280.944C168.018 280.947 167.928 280.92 167.854 280.868C167.75 280.797 167.678 280.688 167.653 280.564C167.628 280.441 167.653 280.312 167.721 280.207L168.96 278.372C169.029 278.268 169.136 278.196 169.259 278.171C169.381 278.146 169.508 278.171 169.612 278.24C169.716 278.309 169.789 278.416 169.814 278.539C169.838 278.661 169.813 278.788 169.745 278.892H169.744ZM172.212 275.214L170.974 277.058C170.93 277.121 170.873 277.173 170.805 277.209C170.738 277.246 170.663 277.265 170.586 277.266C170.492 277.266 170.401 277.24 170.321 277.19C170.217 277.119 170.145 277.01 170.121 276.886C170.096 276.763 170.12 276.635 170.189 276.529L171.427 274.694C171.497 274.591 171.604 274.519 171.726 274.494C171.848 274.469 171.975 274.494 172.079 274.563C172.183 274.632 172.255 274.739 172.28 274.861C172.305 274.983 172.281 275.11 172.212 275.214V275.214ZM174.68 271.536L173.441 273.38C173.399 273.444 173.341 273.497 173.274 273.533C173.206 273.569 173.13 273.588 173.054 273.588C172.958 273.589 172.866 273.559 172.789 273.503C172.685 273.434 172.613 273.327 172.588 273.204C172.563 273.082 172.588 272.955 172.657 272.851L173.895 271.007C173.966 270.905 174.074 270.835 174.197 270.812C174.319 270.789 174.445 270.815 174.548 270.885C174.651 270.955 174.723 271.062 174.748 271.184C174.772 271.306 174.748 271.432 174.68 271.536V271.536ZM177.148 267.859L175.909 269.702C175.875 269.754 175.831 269.799 175.779 269.833C175.728 269.867 175.67 269.891 175.609 269.903C175.548 269.914 175.485 269.913 175.425 269.9C175.364 269.887 175.307 269.861 175.257 269.825C175.153 269.756 175.08 269.649 175.055 269.526C175.031 269.404 175.055 269.277 175.124 269.173L176.363 267.329C176.397 267.278 176.441 267.234 176.493 267.199C176.544 267.165 176.602 267.142 176.663 267.13C176.724 267.119 176.786 267.12 176.847 267.133C176.907 267.146 176.964 267.171 177.015 267.206C177.119 267.275 177.191 267.383 177.216 267.505C177.241 267.628 177.216 267.755 177.147 267.859L177.148 267.859ZM179.615 264.181L178.386 266.015C178.343 266.081 178.284 266.136 178.215 266.174C178.146 266.212 178.068 266.232 177.989 266.233C177.894 266.232 177.802 266.202 177.724 266.147C177.62 266.078 177.548 265.971 177.523 265.849C177.498 265.726 177.523 265.599 177.592 265.495L178.83 263.651C178.9 263.548 179.007 263.476 179.129 263.452C179.252 263.427 179.378 263.451 179.483 263.519C179.587 263.59 179.659 263.7 179.683 263.823C179.708 263.947 179.684 264.075 179.615 264.181L179.615 264.181ZM182.083 260.503L180.854 262.337C180.81 262.402 180.751 262.455 180.682 262.492C180.612 262.528 180.535 262.547 180.457 262.545C180.363 262.548 180.27 262.522 180.192 262.47C180.14 262.435 180.096 262.391 180.062 262.34C180.027 262.288 180.004 262.23 179.992 262.169C179.981 262.109 179.982 262.046 179.995 261.986C180.008 261.925 180.033 261.868 180.069 261.817L181.298 259.973C181.332 259.921 181.377 259.876 181.429 259.841C181.481 259.806 181.539 259.781 181.601 259.769C181.662 259.756 181.725 259.756 181.787 259.769C181.848 259.781 181.907 259.805 181.959 259.84C182.011 259.876 182.055 259.921 182.09 259.973C182.124 260.025 182.148 260.084 182.159 260.146C182.171 260.207 182.17 260.271 182.157 260.332C182.144 260.393 182.119 260.451 182.083 260.503H182.083ZM184.55 256.816L183.321 258.659C183.276 258.723 183.217 258.775 183.148 258.811C183.079 258.847 183.002 258.867 182.924 258.867C182.831 258.864 182.74 258.838 182.66 258.792C182.608 258.757 182.563 258.711 182.529 258.659C182.495 258.607 182.471 258.548 182.46 258.486C182.448 258.425 182.449 258.362 182.463 258.3C182.476 258.239 182.501 258.181 182.537 258.13L183.766 256.296C183.837 256.192 183.946 256.12 184.07 256.095C184.193 256.071 184.322 256.095 184.428 256.163C184.479 256.197 184.524 256.242 184.558 256.293C184.593 256.345 184.616 256.403 184.628 256.464C184.639 256.524 184.638 256.587 184.625 256.648C184.612 256.708 184.586 256.765 184.55 256.816L184.55 256.816ZM187.018 253.138L185.789 254.982C185.744 255.045 185.684 255.097 185.615 255.133C185.546 255.169 185.47 255.189 185.392 255.19C185.302 255.188 185.213 255.162 185.137 255.114C185.084 255.079 185.039 255.035 185.004 254.983C184.969 254.931 184.945 254.872 184.933 254.811C184.92 254.749 184.92 254.686 184.933 254.624C184.945 254.563 184.969 254.504 185.004 254.452L186.233 252.618C186.305 252.514 186.414 252.442 186.537 252.417C186.661 252.393 186.789 252.417 186.895 252.485C186.947 252.519 186.991 252.564 187.026 252.615C187.06 252.667 187.084 252.725 187.095 252.786C187.107 252.847 187.106 252.909 187.093 252.97C187.079 253.03 187.054 253.087 187.018 253.138V253.138ZM189.495 249.46L188.257 251.304C188.214 251.367 188.156 251.419 188.088 251.455C188.021 251.491 187.945 251.511 187.869 251.512C187.774 251.512 187.681 251.483 187.604 251.426C187.5 251.357 187.428 251.25 187.403 251.128C187.378 251.005 187.403 250.878 187.472 250.774L188.711 248.931C188.782 248.829 188.89 248.759 189.012 248.736C189.134 248.713 189.261 248.739 189.364 248.809C189.467 248.878 189.538 248.986 189.563 249.107C189.588 249.229 189.563 249.356 189.495 249.46V249.46ZM191.963 245.782L190.724 247.626C190.681 247.689 190.623 247.741 190.556 247.777C190.488 247.813 190.413 247.833 190.337 247.834C190.242 247.835 190.149 247.805 190.072 247.749C189.968 247.68 189.896 247.572 189.871 247.45C189.846 247.328 189.871 247.2 189.94 247.096L191.178 245.253C191.212 245.201 191.256 245.157 191.308 245.123C191.359 245.088 191.417 245.065 191.478 245.053C191.539 245.042 191.602 245.043 191.662 245.056C191.723 245.069 191.78 245.094 191.83 245.13C191.934 245.199 192.007 245.306 192.032 245.429C192.056 245.551 192.032 245.678 191.963 245.782L191.963 245.782ZM194.43 242.104L193.192 243.938C193.151 244.004 193.094 244.058 193.026 244.094C192.958 244.131 192.881 244.149 192.804 244.147C192.71 244.151 192.617 244.124 192.54 244.071C192.436 244.002 192.364 243.894 192.339 243.772C192.314 243.65 192.339 243.523 192.407 243.419L193.646 241.575C193.715 241.471 193.823 241.399 193.945 241.374C194.067 241.35 194.194 241.374 194.298 241.442C194.402 241.514 194.474 241.623 194.499 241.747C194.523 241.87 194.499 241.999 194.43 242.105L194.43 242.104ZM197.229 238.748L195.773 240.421C195.732 240.474 195.678 240.516 195.617 240.544C195.557 240.572 195.49 240.585 195.423 240.582C195.333 240.583 195.244 240.558 195.168 240.51C195.091 240.462 195.03 240.393 194.992 240.311C194.954 240.229 194.941 240.138 194.954 240.048C194.966 239.959 195.005 239.875 195.064 239.807L196.511 238.133C196.592 238.038 196.708 237.98 196.833 237.97C196.958 237.961 197.081 238.001 197.176 238.082C197.271 238.164 197.33 238.279 197.34 238.404C197.35 238.529 197.31 238.653 197.229 238.748ZM200.132 235.401L198.676 237.074C198.633 237.125 198.579 237.166 198.519 237.194C198.458 237.222 198.392 237.236 198.326 237.235C198.211 237.237 198.1 237.196 198.014 237.122C197.919 237.039 197.861 236.922 197.852 236.796C197.843 236.67 197.884 236.546 197.967 236.45L199.413 234.777C199.497 234.684 199.614 234.628 199.739 234.619C199.864 234.61 199.988 234.65 200.084 234.73C200.179 234.813 200.238 234.93 200.246 235.056C200.255 235.182 200.214 235.306 200.132 235.401L200.132 235.401ZM203.034 232.054L201.578 233.728C201.535 233.778 201.482 233.819 201.421 233.847C201.361 233.875 201.295 233.889 201.228 233.888C201.114 233.89 201.003 233.849 200.916 233.775C200.821 233.692 200.763 233.575 200.754 233.449C200.745 233.323 200.787 233.199 200.869 233.103L202.316 231.43C202.398 231.335 202.516 231.276 202.641 231.267C202.767 231.258 202.892 231.3 202.987 231.383C203.082 231.466 203.141 231.583 203.15 231.709C203.158 231.835 203.117 231.959 203.034 232.054ZM205.937 228.707L204.481 230.381C204.438 230.431 204.384 230.472 204.324 230.5C204.263 230.528 204.197 230.542 204.131 230.541C204.017 230.543 203.906 230.502 203.819 230.428C203.724 230.345 203.666 230.228 203.657 230.102C203.648 229.976 203.689 229.852 203.772 229.756L205.218 228.083C205.301 227.988 205.418 227.929 205.544 227.92C205.67 227.911 205.794 227.953 205.89 228.036C205.985 228.119 206.043 228.236 206.052 228.362C206.061 228.488 206.02 228.612 205.937 228.707H205.937ZM208.839 225.36L207.383 227.034C207.34 227.084 207.287 227.125 207.226 227.153C207.166 227.181 207.1 227.195 207.033 227.194C206.919 227.196 206.808 227.155 206.721 227.081C206.627 226.998 206.568 226.881 206.559 226.755C206.551 226.629 206.592 226.505 206.674 226.409L208.121 224.736C208.204 224.641 208.321 224.582 208.447 224.573C208.573 224.564 208.697 224.606 208.792 224.689C208.887 224.772 208.946 224.889 208.955 225.015C208.964 225.141 208.922 225.265 208.839 225.36H208.839ZM211.742 222.004L210.286 223.677C210.247 223.726 210.198 223.766 210.143 223.795C210.088 223.824 210.028 223.842 209.965 223.846C209.903 223.851 209.841 223.842 209.782 223.821C209.723 223.8 209.669 223.767 209.624 223.724C209.577 223.684 209.539 223.635 209.511 223.58C209.483 223.525 209.466 223.465 209.462 223.403C209.458 223.342 209.466 223.28 209.485 223.221C209.505 223.163 209.536 223.109 209.577 223.062L211.023 221.389C211.106 221.294 211.223 221.236 211.349 221.227C211.475 221.218 211.599 221.26 211.695 221.342C211.741 221.382 211.78 221.431 211.808 221.486C211.836 221.541 211.852 221.602 211.857 221.663C211.861 221.725 211.853 221.787 211.833 221.845C211.814 221.904 211.783 221.958 211.742 222.004V222.004ZM214.644 218.657L213.188 220.33C213.15 220.379 213.101 220.419 213.046 220.448C212.991 220.477 212.93 220.495 212.868 220.499C212.806 220.504 212.743 220.495 212.685 220.474C212.626 220.453 212.572 220.42 212.527 220.377C212.48 220.337 212.441 220.288 212.413 220.233C212.386 220.178 212.369 220.118 212.365 220.056C212.36 219.995 212.368 219.933 212.388 219.875C212.408 219.816 212.439 219.762 212.479 219.716L213.926 218.042C214.009 217.947 214.126 217.889 214.252 217.88C214.378 217.871 214.502 217.913 214.597 217.995C214.644 218.035 214.683 218.084 214.71 218.139C214.738 218.194 214.755 218.254 214.759 218.316C214.764 218.378 214.756 218.44 214.736 218.498C214.716 218.557 214.685 218.611 214.644 218.657L214.644 218.657ZM217.547 215.31L216.091 216.983C216.049 217.036 215.996 217.078 215.935 217.106C215.875 217.133 215.808 217.147 215.741 217.144C215.651 217.145 215.562 217.12 215.486 217.072C215.409 217.024 215.348 216.955 215.31 216.873C215.272 216.791 215.259 216.7 215.271 216.61C215.284 216.521 215.323 216.437 215.382 216.369L216.828 214.695C216.911 214.6 217.029 214.542 217.154 214.533C217.28 214.524 217.404 214.566 217.5 214.648C217.547 214.688 217.585 214.737 217.613 214.792C217.641 214.847 217.657 214.908 217.662 214.969C217.666 215.031 217.658 215.093 217.639 215.151C217.619 215.21 217.588 215.264 217.547 215.31L217.547 215.31ZM220.45 211.963L218.994 213.636C218.952 213.689 218.899 213.731 218.838 213.759C218.777 213.786 218.711 213.8 218.644 213.797C218.553 213.798 218.465 213.773 218.388 213.725C218.312 213.677 218.251 213.608 218.213 213.526C218.175 213.444 218.161 213.353 218.174 213.263C218.187 213.174 218.225 213.09 218.285 213.022L219.731 211.348C219.771 211.301 219.821 211.262 219.876 211.234C219.931 211.206 219.992 211.189 220.054 211.184C220.115 211.179 220.178 211.187 220.237 211.206C220.296 211.225 220.35 211.256 220.398 211.296C220.445 211.337 220.484 211.386 220.512 211.441C220.54 211.497 220.557 211.557 220.562 211.619C220.566 211.681 220.559 211.743 220.54 211.802C220.521 211.861 220.49 211.916 220.45 211.963ZM223.352 208.616L221.896 210.289C221.814 210.383 221.699 210.44 221.575 210.449C221.451 210.458 221.329 210.417 221.234 210.337C221.139 210.254 221.081 210.136 221.072 210.011C221.063 209.885 221.105 209.761 221.187 209.665L222.634 207.992C222.716 207.896 222.834 207.838 222.959 207.829C223.085 207.82 223.21 207.862 223.305 207.945C223.4 208.027 223.459 208.145 223.468 208.27C223.476 208.396 223.435 208.521 223.352 208.616ZM226.255 205.269L224.799 206.942C224.756 206.993 224.702 207.034 224.642 207.062C224.581 207.089 224.515 207.104 224.449 207.103C224.334 207.104 224.224 207.064 224.137 206.99C224.042 206.907 223.984 206.789 223.975 206.664C223.966 206.538 224.007 206.414 224.09 206.318L225.536 204.645C225.619 204.55 225.736 204.491 225.862 204.482C225.988 204.473 226.112 204.515 226.207 204.598C226.303 204.68 226.361 204.798 226.37 204.923C226.379 205.049 226.337 205.174 226.255 205.269H226.255ZM229.157 201.922L227.701 203.595C227.657 203.645 227.603 203.684 227.543 203.712C227.483 203.74 227.418 203.755 227.351 203.756C227.237 203.757 227.126 203.717 227.04 203.643C226.945 203.56 226.886 203.443 226.877 203.317C226.869 203.191 226.91 203.067 226.992 202.971L228.439 201.298C228.522 201.203 228.639 201.145 228.764 201.137C228.89 201.128 229.014 201.17 229.109 201.252C229.204 201.335 229.262 201.451 229.271 201.577C229.281 201.703 229.24 201.827 229.157 201.922ZM232.06 198.575L230.604 200.248C230.522 200.342 230.407 200.399 230.283 200.408C230.159 200.417 230.036 200.376 229.942 200.296C229.847 200.213 229.789 200.096 229.78 199.97C229.771 199.844 229.812 199.72 229.895 199.624L231.341 197.951C231.382 197.904 231.432 197.865 231.488 197.836C231.544 197.808 231.605 197.792 231.667 197.787C231.73 197.782 231.793 197.79 231.852 197.81C231.912 197.83 231.967 197.861 232.014 197.902C232.061 197.943 232.1 197.993 232.128 198.049C232.156 198.105 232.172 198.167 232.177 198.229C232.181 198.292 232.173 198.354 232.153 198.414C232.133 198.473 232.101 198.528 232.06 198.575H232.06ZM234.962 195.219L233.506 196.901C233.461 196.952 233.405 196.992 233.344 197.02C233.282 197.047 233.215 197.062 233.147 197.062C233.036 197.062 232.929 197.022 232.845 196.949C232.75 196.866 232.691 196.749 232.683 196.623C232.674 196.497 232.715 196.373 232.797 196.278L234.244 194.604C234.327 194.509 234.444 194.451 234.57 194.442C234.695 194.433 234.82 194.474 234.915 194.557C234.962 194.597 235 194.646 235.028 194.701C235.056 194.756 235.073 194.816 235.077 194.878C235.081 194.94 235.074 195.002 235.054 195.06C235.034 195.119 235.003 195.173 234.962 195.219V195.219ZM237.865 191.872L236.409 193.545C236.367 193.597 236.313 193.64 236.253 193.669C236.192 193.698 236.126 193.714 236.059 193.715C236.002 193.717 235.944 193.706 235.891 193.685C235.837 193.664 235.788 193.632 235.747 193.592C235.7 193.552 235.662 193.503 235.634 193.448C235.606 193.393 235.59 193.333 235.585 193.271C235.581 193.21 235.589 193.148 235.608 193.089C235.628 193.031 235.659 192.977 235.7 192.931L237.146 191.257C237.229 191.162 237.347 191.104 237.472 191.095C237.598 191.086 237.722 191.127 237.818 191.21C237.865 191.25 237.903 191.299 237.931 191.354C237.959 191.409 237.975 191.469 237.98 191.531C237.984 191.593 237.976 191.655 237.957 191.713C237.937 191.772 237.906 191.826 237.865 191.872L237.865 191.872ZM240.768 188.525L239.312 190.198C239.269 190.249 239.215 190.29 239.155 190.318C239.094 190.346 239.028 190.36 238.962 190.359C238.871 190.36 238.783 190.335 238.706 190.287C238.63 190.239 238.569 190.17 238.531 190.088C238.493 190.006 238.479 189.914 238.492 189.825C238.505 189.736 238.543 189.652 238.603 189.584L240.049 187.91C240.132 187.815 240.249 187.757 240.375 187.748C240.501 187.739 240.625 187.78 240.72 187.863C240.767 187.903 240.806 187.952 240.834 188.007C240.862 188.062 240.878 188.122 240.883 188.184C240.887 188.246 240.879 188.308 240.859 188.366C240.84 188.425 240.808 188.479 240.767 188.525L240.768 188.525ZM243.67 185.178L242.214 186.851C242.17 186.903 242.115 186.944 242.053 186.972C241.991 187 241.923 187.014 241.855 187.012C241.765 187.011 241.678 186.985 241.603 186.936C241.528 186.887 241.468 186.818 241.431 186.736C241.395 186.655 241.382 186.564 241.395 186.476C241.408 186.387 241.446 186.304 241.505 186.237L242.951 184.563C243.034 184.468 243.152 184.41 243.277 184.401C243.403 184.392 243.527 184.434 243.623 184.516C243.67 184.556 243.708 184.605 243.736 184.66C243.764 184.715 243.781 184.776 243.785 184.837C243.789 184.899 243.782 184.961 243.762 185.019C243.742 185.078 243.711 185.132 243.67 185.178L243.67 185.178ZM246.573 181.831L245.117 183.504C245.071 183.554 245.016 183.595 244.954 183.622C244.892 183.65 244.825 183.664 244.757 183.665C244.668 183.664 244.58 183.638 244.505 183.589C244.43 183.541 244.371 183.471 244.334 183.39C244.297 183.308 244.284 183.217 244.297 183.129C244.31 183.04 244.349 182.957 244.408 182.89L245.854 181.207C245.938 181.114 246.055 181.057 246.18 181.048C246.305 181.039 246.429 181.079 246.525 181.159C246.62 181.242 246.679 181.36 246.688 181.486C246.696 181.612 246.655 181.736 246.573 181.831V181.831Z" fill="#282828"/>
<path d="M211.063 106.338C210.992 106.338 210.922 106.318 210.862 106.28C209.362 105.29 207.641 104.686 205.852 104.523C204.062 104.36 202.26 104.643 200.607 105.347C200.517 105.393 200.413 105.402 200.317 105.372C200.221 105.341 200.141 105.274 200.094 105.185C200.047 105.096 200.038 104.991 200.068 104.895C200.098 104.799 200.165 104.718 200.254 104.671C202.021 103.888 203.958 103.565 205.883 103.733C207.809 103.901 209.661 104.555 211.265 105.632C211.336 105.676 211.39 105.742 211.42 105.819C211.449 105.897 211.453 105.982 211.43 106.061C211.407 106.141 211.359 106.211 211.293 106.261C211.227 106.311 211.146 106.338 211.063 106.338Z" fill="#282828"/>
<path d="M216.604 136.947C216.769 134.957 217.011 133.014 217.209 131.06C217.434 129.108 217.586 127.161 217.84 125.178C218.161 127.15 218.203 129.157 217.967 131.141C217.778 133.129 217.319 135.082 216.604 136.947Z" fill="#282828"/>
<path d="M219.384 116.921C219.352 116.921 219.32 116.917 219.29 116.91C219.191 116.885 219.107 116.822 219.056 116.735C219.004 116.648 218.989 116.544 219.013 116.446C220.239 111.607 215.327 107.484 215.278 107.443C215.2 107.378 215.151 107.286 215.141 107.185C215.132 107.084 215.162 106.984 215.227 106.906C215.291 106.828 215.384 106.779 215.484 106.769C215.585 106.759 215.685 106.79 215.763 106.854C215.982 107.035 221.096 111.331 219.753 116.633C219.732 116.715 219.685 116.788 219.618 116.84C219.551 116.892 219.469 116.921 219.384 116.921Z" fill="#282828"/>
<path d="M167.2 72.0452C167.627 71.6934 168.166 71.5069 168.719 71.5197C169.272 71.5325 169.802 71.7438 170.212 72.115C170.212 72.115 171.919 68.0729 183.042 68.8388C183.042 68.8388 182.233 71.7804 181.246 71.9946C180.259 72.2088 184.107 76.1284 186.729 75.3526C186.729 75.3526 192.705 80.981 190.643 88.147C188.61 95.21 186.599 97.7497 182.332 94.3806C182.2 94.2758 182.059 94.1839 181.91 94.1061C180.765 93.5159 175.742 91.1184 174.757 93.9327C174.552 94.5548 174.602 95.2328 174.896 95.8183C176.224 98.5809 181.805 108.606 190.298 102.279C190.298 102.279 200.385 95.7784 195.678 86.5857C195.186 85.6537 194.578 84.7878 193.868 84.0088C193.172 83.2066 192.647 82.2708 192.326 81.2587C192.005 80.2466 191.894 79.1796 192 78.123C192.091 76.6295 192.723 75.2204 193.777 74.1586C194.805 73.1586 196.301 72.4866 197.939 74.3035C198.618 75.0598 199.089 75.9795 199.306 76.9724C199.459 77.4294 199.506 77.915 199.443 78.3928C199.381 78.8705 199.21 79.3278 198.945 79.7302L200.247 81.3083C200.525 80.1867 200.958 79.1094 201.534 78.1074C202.524 76.5475 202.977 74.7075 202.827 72.8663C202.546 69.9546 201.222 65.8034 196.768 61.5977C196.768 61.5977 190.256 53.5015 181.81 55.5412C173.363 57.5808 166.551 61.4363 167.2 72.0452Z" fill="#282828"/>
<path d="M183.985 80.8062C182.494 81.2089 181.011 81.5379 179.556 81.952C178.824 82.144 178.11 82.3831 177.404 82.6391C176.688 82.8833 176.016 83.2415 175.414 83.6998C175.886 83.0698 176.51 82.5695 177.227 82.2453C177.922 81.8927 178.652 81.6134 179.405 81.4119C180.15 81.2055 180.909 81.0512 181.676 80.9502C182.44 80.8399 183.213 80.7917 183.985 80.8062Z" fill="#282828"/>
<path d="M169.74 83.7499C170.338 83.6897 170.943 83.7735 171.502 83.9942C171.798 84.1131 172.064 84.2943 172.283 84.5255C172.502 84.7568 172.668 85.0326 172.77 85.3341C172.914 85.9384 172.924 86.5667 172.8 87.1754L172.528 88.9141C172.292 90.0318 172.219 91.1781 172.313 92.3168C172.336 92.5844 172.418 92.8435 172.555 93.0749C172.691 93.3063 172.877 93.5042 173.1 93.6538C173.613 93.9091 174.189 94.0062 174.757 93.9328C174.175 94.1186 173.548 94.1063 172.973 93.8978C172.693 93.7459 172.45 93.5329 172.262 93.2745C172.075 93.0161 171.948 92.719 171.891 92.4049C171.696 91.2166 171.725 90.0024 171.975 88.8245L172.276 87.0975C172.404 86.5602 172.432 86.0039 172.358 85.4565C172.125 84.3815 170.871 83.8589 169.74 83.7499Z" fill="#282828"/>
<path d="M167.2 72.0452L168.571 78.7651C168.83 79.8745 169.08 80.9847 169.375 82.0795C169.537 82.6216 169.697 83.1653 169.903 83.6868C170.081 84.2101 170.323 84.7093 170.623 85.173L170.591 85.1425C171.013 85.4741 171.405 85.8427 171.762 86.2438C171.941 86.4452 172.103 86.6605 172.248 86.8877C172.406 87.1097 172.48 87.381 172.456 87.6527C172.435 87.3924 172.328 87.1466 172.151 86.9541C171.986 86.7529 171.806 86.5651 171.611 86.3926C171.22 86.0486 170.81 85.7269 170.382 85.4291C170.37 85.4205 170.359 85.4101 170.35 85.3984C169.67 84.4394 169.171 83.3639 168.879 82.2253C168.543 81.1234 168.27 80.0035 168.059 78.871C167.611 76.6189 167.324 74.3379 167.2 72.0452Z" fill="#282828"/>
<path d="M177.321 90.1077C177.557 90.2267 177.76 90.4031 177.91 90.6209C178.06 90.8386 178.153 91.0906 178.181 91.3537C178.189 91.6293 178.104 91.8997 177.939 92.1202C177.859 92.224 177.77 92.3194 177.671 92.4051C177.564 92.4787 177.452 92.5421 177.347 92.6076C177.682 92.2794 177.88 91.8357 177.901 91.3667C177.89 91.14 177.828 90.9188 177.717 90.7205C177.605 90.5038 177.473 90.2986 177.321 90.1077Z" fill="#282828"/>
<path d="M198.945 79.7302C198.919 80.2865 198.876 80.8284 198.878 81.3603C198.878 81.6202 198.894 81.8797 198.926 82.1376C198.94 82.2591 198.963 82.3794 198.995 82.4975C199.05 82.6613 199.071 82.8348 199.055 83.0069C199.021 83.1757 198.954 83.3362 198.858 83.479C198.762 83.6218 198.638 83.7442 198.495 83.839C198.253 84.0109 197.986 84.1435 197.703 84.2321C197.168 84.4259 196.592 84.4815 196.03 84.3939C196.553 84.27 197.059 84.0821 197.536 83.8344C197.976 83.5974 198.464 83.2667 198.499 82.9322C198.536 82.8306 198.404 82.4798 198.398 82.1876C198.382 81.8997 198.399 81.6109 198.449 81.3271C198.533 80.7727 198.7 80.2342 198.945 79.7302Z" fill="#282828"/>
<path d="M200.247 81.3083C200.818 81.9297 201.392 82.5331 201.988 83.1091C202.576 83.6851 203.199 84.2251 203.852 84.7263C204.494 85.229 205.188 85.6601 205.924 86.0118C206.674 86.3534 207.478 86.5604 208.3 86.6232C207.451 86.7747 206.577 86.7022 205.764 86.4129C204.951 86.1243 204.19 85.7052 203.512 85.1721C202.834 84.6534 202.218 84.0597 201.674 83.4024C201.12 82.7606 200.642 82.0581 200.247 81.3083Z" fill="#282828"/>
<path d="M198.026 105.977C197.306 106.052 196.578 105.97 195.893 105.735C195.204 105.516 194.545 105.21 193.933 104.826C193.323 104.447 192.752 104.009 192.229 103.517L191.478 102.753C191.257 102.471 191.023 102.203 190.817 101.912L192.504 103.184C193.079 103.581 193.632 103.999 194.228 104.348C194.812 104.715 195.418 105.044 196.044 105.333C196.677 105.625 197.342 105.842 198.026 105.977Z" fill="#282828"/>
<path d="M179.276 85.6674C179.494 85.6599 179.701 85.5679 179.852 85.4108C180.004 85.2538 180.089 85.044 180.089 84.8256C180.089 84.6073 180.004 84.3975 179.852 84.2404C179.701 84.0834 179.494 83.9914 179.276 83.9839C179.057 83.9914 178.851 84.0834 178.699 84.2404C178.547 84.3975 178.462 84.6073 178.462 84.8256C178.462 85.044 178.547 85.2538 178.699 85.4108C178.851 85.5679 179.057 85.6599 179.276 85.6674Z" fill="#282828"/>
<path d="M153.067 331.952C151.119 329.191 146.921 329.994 144.056 330.987C142.641 331.505 141.129 331.704 139.629 331.568C138.128 331.432 136.676 330.966 135.377 330.202C129.799 326.761 130.111 320.615 130.584 317.874C130.829 316.571 130.643 315.223 130.054 314.035C127.132 308.514 120.146 315.321 120.146 315.321C121.218 315.903 122.168 316.687 122.944 317.628C123.75 318.563 124.381 319.636 124.807 320.795C125.246 321.953 125.48 323.178 125.497 324.416C125.536 325.641 125.301 326.859 124.807 327.981C124.687 325.703 124.225 323.455 123.436 321.315C123.045 320.265 122.568 319.25 122.008 318.28C121.469 317.287 120.788 316.361 120.146 315.321C120.146 315.321 116.714 314.65 111.901 313.685C112.713 314.56 113.409 315.535 113.972 316.588C114.551 317.634 115.023 318.737 115.38 319.878C115.754 321.048 115.93 322.272 115.901 323.499C115.889 324.129 115.77 324.752 115.551 325.343C115.331 325.936 114.935 326.447 114.416 326.808C114.876 325.786 114.999 324.643 114.766 323.546C114.575 322.45 114.313 321.366 113.981 320.303C113.329 318.138 112.516 316.002 111.901 313.685C109.311 313.165 106.313 312.56 103.241 311.936C104.169 312.736 104.961 313.681 105.585 314.735C106.231 315.783 106.736 316.912 107.089 318.091C107.435 319.297 107.566 320.555 107.476 321.807C107.372 323.058 106.917 324.254 106.162 325.258C106.356 324.115 106.416 322.954 106.342 321.797C106.215 320.681 105.994 319.577 105.68 318.498C105.363 317.392 104.991 316.304 104.564 315.236L103.241 311.936C98.0974 310.877 92.7367 309.771 88.6901 308.873C77.7511 306.462 76.9381 311.303 76.9381 311.303C77.3628 310.84 77.8733 310.464 78.4413 310.196C79.0299 309.898 79.7114 309.841 80.3417 310.036C80.9649 310.262 81.501 310.678 81.8734 311.227C82.2841 311.735 82.5895 312.32 82.7716 312.948C82.9562 313.577 83.0423 314.23 83.0269 314.886C82.9847 315.518 82.8994 316.147 82.7716 316.767C82.6184 317.954 82.6792 319.158 82.9511 320.322C83.589 322.643 84.8437 324.747 86.5818 326.411C88.3265 328.075 90.2774 329.508 92.3868 330.675L92.4247 330.694C96.4997 332.49 100.489 334.438 104.441 336.499C106.418 337.558 108.365 338.655 110.284 339.837L111.703 340.744L113.093 341.728C113.546 342.068 113.991 342.446 114.435 342.805C114.851 343.193 115.314 343.656 115.674 344.035C117.213 345.574 118.897 346.961 120.703 348.176C122.521 349.43 124.402 350.592 126.338 351.655C128.277 352.718 130.271 353.674 132.314 354.52C133.334 354.938 134.383 355.282 135.453 355.55C136.517 355.858 137.629 355.97 138.733 355.881C136.499 356.105 134.243 355.794 132.153 354.973C130.025 354.267 127.952 353.404 125.951 352.392C123.943 351.393 121.989 350.289 120.098 349.083C118.153 347.901 116.348 346.503 114.719 344.914C113.17 343.396 111.428 342.089 109.538 341.028C107.656 339.893 105.718 338.825 103.761 337.785C99.8466 335.724 95.8473 333.776 91.8291 331.914L91.8102 331.904L91.7723 331.885C89.5565 330.621 87.5266 329.055 85.7403 327.234C83.9286 325.37 82.663 323.045 82.0814 320.511C81.8294 319.236 81.8134 317.925 82.0341 316.644C82.1809 316.052 82.2977 315.452 82.384 314.848C82.4377 314.256 82.3961 313.659 82.261 313.08C82.1264 312.5 81.8825 311.952 81.5425 311.463C81.2391 310.955 80.787 310.553 80.2473 310.31C79.6574 310.163 79.039 310.178 78.4568 310.353C77.8746 310.528 77.3501 310.856 76.9382 311.302C69.0056 322.686 88.3876 334.485 104.565 341.056C120.741 347.618 124.41 354.028 124.41 354.028C130.177 362.717 135.443 362.159 139.112 359.738C140.513 358.754 141.668 357.459 142.488 355.956C143.308 354.452 143.77 352.78 143.839 351.069C144.132 346.729 148.179 342.352 148.179 342.352C148.179 342.352 156.187 336.376 153.067 331.952ZM137.552 343.099C136.776 345.15 133.921 343.76 129.09 344.157C124.93 344.507 122.651 339.837 123.417 337.785C124.192 335.724 127.984 335.251 131.888 336.717C135.784 338.182 138.327 341.038 137.552 343.099V343.099Z" fill="#282828"/>
<path d="M130.58 317.874C130.702 317.914 130.832 317.927 130.959 317.91C131.086 317.892 131.207 317.847 131.314 317.775C131.544 317.654 131.76 317.509 131.959 317.343C132.368 317.016 132.758 316.666 133.127 316.295C133.861 315.539 134.584 314.768 135.277 313.964C136.691 312.38 138.048 310.737 139.576 309.207C138.525 311.09 137.275 312.854 135.848 314.47C135.134 315.286 134.356 316.045 133.522 316.738C133.097 317.086 132.64 317.394 132.158 317.657C131.911 317.787 131.651 317.89 131.382 317.965C131.252 318.018 131.11 318.038 130.97 318.022C130.829 318.007 130.695 317.955 130.58 317.874Z" fill="#282828"/>
<path d="M148.885 330.062C150.028 328.307 151.259 326.611 152.574 324.981C153.877 323.347 155.197 321.748 156.591 320.165C155.656 322.052 154.509 323.827 153.172 325.454C151.878 327.111 150.444 328.652 148.885 330.062Z" fill="#282828"/>
<path d="M431.089 232.319C423.327 216.681 424.82 209.448 424.82 209.448C426.258 199.124 421.946 196.051 417.597 195.437C415.896 195.244 414.173 195.447 412.562 196.029C410.952 196.611 409.498 197.557 408.313 198.793C405.221 201.847 399.284 202.452 399.284 202.452C399.284 202.452 389.328 201.61 388.732 206.999C388.363 210.365 392.032 212.53 394.84 213.693C396.243 214.242 397.507 215.095 398.542 216.19C399.577 217.285 400.356 218.596 400.825 220.028C402.725 226.306 398.414 230.702 396.249 232.442C395.199 233.252 394.445 234.385 394.102 235.666C392.627 241.745 402.366 241.263 402.366 241.263C401.955 240.117 401.763 238.905 401.798 237.689C401.821 236.453 402.061 235.23 402.507 234.077C402.942 232.918 403.579 231.846 404.389 230.91C405.171 229.965 406.157 229.208 407.273 228.698C405.846 230.481 404.699 232.47 403.869 234.597C403.475 235.643 403.162 236.718 402.933 237.812C402.678 238.928 402.574 240.062 402.366 241.263C402.366 241.263 404.493 244.043 407.462 247.947C407.431 246.757 407.558 245.568 407.84 244.411C408.089 243.239 408.466 242.097 408.965 241.008C409.46 239.886 410.137 238.854 410.969 237.954C411.395 237.488 411.897 237.098 412.454 236.8C413.013 236.503 413.65 236.385 414.278 236.46C413.256 236.92 412.408 237.696 411.858 238.672C411.27 239.62 410.745 240.605 410.289 241.622C409.343 243.674 408.54 245.81 407.462 247.947V247.957C409.06 250.065 410.894 252.495 412.785 254.991C412.625 253.783 412.66 252.557 412.889 251.36C413.095 250.144 413.464 248.961 413.985 247.843C414.527 246.712 415.259 245.682 416.151 244.799C417.062 243.933 418.199 243.34 419.431 243.088C418.524 243.812 417.708 244.643 417.001 245.565C416.352 246.483 415.786 247.458 415.309 248.477C414.798 249.488 414.411 250.566 413.985 251.654L412.785 254.991V255.001C415.943 259.198 419.223 263.585 421.662 266.932C428.252 275.999 432.072 272.898 432.072 272.898C445.554 269.636 438.851 247.957 431.089 232.319ZM414.799 222.278C412.86 223.299 409.703 221.153 407.755 217.466C405.807 213.778 405.798 209.959 407.736 208.928C409.674 207.907 410.894 210.838 414.78 213.741C418.117 216.237 416.737 221.247 414.799 222.278ZM434.322 262.602C433.665 263.724 432.81 264.717 431.798 265.533C431.289 265.873 430.803 266.246 430.342 266.648C429.911 267.055 429.547 267.527 429.264 268.048C428.977 268.568 428.793 269.14 428.725 269.731C428.617 270.312 428.689 270.913 428.933 271.452C429.267 271.943 429.726 272.337 430.263 272.591C430.8 272.846 431.395 272.952 431.987 272.898C431.39 272.967 430.785 272.913 430.21 272.737C429.57 272.57 429.02 272.159 428.678 271.593C428.369 271.011 428.243 270.348 428.319 269.693C428.357 269.042 428.517 268.403 428.791 267.811C429.068 267.217 429.438 266.671 429.888 266.195C430.333 265.744 430.81 265.327 431.316 264.947C432.221 264.165 432.975 263.223 433.538 262.167C434.609 260.01 435.063 257.598 434.852 255.199C434.654 252.775 434.135 250.387 433.311 248.099C431.458 244.061 429.743 239.964 428.167 235.808C427.392 233.709 426.655 231.591 426.002 229.444L425.539 227.819L425.151 226.164C425.028 225.606 424.953 225.029 424.858 224.462C424.802 223.895 424.764 223.242 424.745 222.722C424.612 220.551 424.267 218.397 423.714 216.293C423.196 214.148 422.558 212.033 421.805 209.959C421.059 207.878 420.2 205.839 419.233 203.851C418.744 202.858 418.184 201.9 417.559 200.986C416.961 200.054 416.202 199.234 415.319 198.566C417.14 199.883 418.624 201.613 419.649 203.615C420.774 205.555 421.757 207.574 422.589 209.656C423.431 211.733 424.16 213.854 424.773 216.009C425.452 218.185 425.877 220.431 426.04 222.703C426.196 224.863 426.635 226.993 427.345 229.038C428.007 231.137 428.744 233.226 429.529 235.297C431.098 239.438 432.8 243.541 434.578 247.597V247.616L434.597 247.664C435.416 250.079 435.899 252.595 436.034 255.142C436.155 257.738 435.563 260.318 434.322 262.602Z" fill="#282828"/>
<path d="M397.355 233.801C395.737 233.652 394.112 233.585 392.487 233.6C390.869 233.609 389.253 233.665 387.64 233.767C386.024 233.851 384.413 234.012 382.796 234.157C381.181 234.32 379.563 234.494 377.926 234.639C378.705 234.379 379.498 234.172 380.288 233.945C381.087 233.764 381.885 233.567 382.693 233.426C384.31 233.128 385.942 232.927 387.583 232.824C389.226 232.724 390.875 232.738 392.517 232.866C394.162 232.976 395.787 233.29 397.355 233.801Z" fill="#282828"/>
<path d="M390.612 211.186C388.608 211.806 386.566 212.29 384.498 212.637C382.44 212.995 380.394 213.302 378.282 213.494C379.238 213.039 380.234 212.674 381.258 212.404C382.271 212.113 383.3 211.9 384.332 211.707C386.402 211.319 388.506 211.144 390.612 211.186Z" fill="#282828"/>
<path d="M273.244 98.0729C273.709 98.0314 274.177 98.0907 274.616 98.2467C275.056 98.4027 275.456 98.6518 275.791 98.9769C276.125 99.3301 276.353 99.771 276.447 100.248C276.544 100.715 276.57 101.194 276.525 101.669L276.512 101.55C276.692 101.741 276.925 101.874 277.18 101.932C277.487 102.014 277.802 102.058 278.119 102.064C278.763 102.103 279.437 102.01 280.13 101.993C280.822 101.97 281.498 101.896 282.203 101.916C282.565 101.912 282.928 101.945 283.284 102.012C283.689 102.072 284.071 102.24 284.388 102.5C284.561 102.657 284.691 102.856 284.766 103.078C284.841 103.299 284.858 103.537 284.815 103.767C284.718 104.185 284.477 104.555 284.134 104.813C283.561 105.254 282.92 105.599 282.236 105.833C281.585 106.084 280.915 106.28 280.232 106.418C279.893 106.491 279.549 106.556 279.209 106.607C279.037 106.631 278.87 106.661 278.682 106.68L278.415 106.695L278.272 106.696L278.185 106.689L278.122 106.676C278.092 106.654 278.056 106.689 277.957 106.548L277.971 106.573C277.986 106.639 278.137 106.664 278.115 106.656C278.126 106.658 278.136 106.656 278.146 106.652L278.116 106.662C278.083 106.676 278.05 106.692 278.019 106.709L277.808 106.833L277.381 107.114L276.531 107.704L274.851 108.927C275.345 108.438 275.856 107.97 276.375 107.508L277.165 106.825C277.299 106.712 277.438 106.605 277.582 106.5L277.809 106.346C277.852 106.319 277.896 106.294 277.941 106.272L278.033 106.235C278.064 106.228 278.095 106.224 278.127 106.223C278.167 106.224 278.205 106.235 278.24 106.252C278.275 106.27 278.306 106.296 278.331 106.326L278.346 106.351C278.258 106.229 278.245 106.269 278.235 106.253C278.228 106.251 278.229 106.252 278.235 106.252L278.276 106.251L278.388 106.244L278.632 106.214L279.115 106.114C279.446 106.042 279.769 105.959 280.094 105.866C280.737 105.682 281.371 105.465 281.993 105.216C282.6 104.995 283.167 104.679 283.673 104.278C283.881 104.122 284.031 103.9 284.096 103.649C284.117 103.541 284.108 103.431 284.072 103.328C284.036 103.225 283.974 103.134 283.891 103.063C283.372 102.764 282.778 102.62 282.179 102.647C281.519 102.614 280.83 102.673 280.156 102.681C279.485 102.682 278.794 102.764 278.074 102.707C277.708 102.678 277.347 102.604 277 102.484C276.795 102.428 276.604 102.332 276.437 102.201C276.271 102.071 276.131 101.909 276.027 101.724C276.012 101.696 276.007 101.664 276.011 101.633L276.014 101.605C276.081 101.184 276.085 100.754 276.027 100.331C275.968 99.9144 275.804 99.5192 275.551 99.1824C275.262 98.8508 274.908 98.5814 274.512 98.3907C274.115 98.2 273.684 98.0919 273.244 98.0729Z" fill="#282828"/>
<path d="M334.157 62.5872C340.642 60.544 347.156 58.6173 353.701 56.8072C360.239 54.9715 366.804 53.2431 373.375 51.5354C379.955 49.862 386.54 48.2116 393.153 46.6677C399.759 45.098 406.396 43.6467 413.063 42.314C406.579 44.3593 400.065 46.2869 393.52 48.0968C386.982 49.9319 380.417 51.6603 373.845 53.3658C367.265 55.0369 360.68 56.6875 354.067 58.2308C347.46 59.7997 340.824 61.2519 334.157 62.5872Z" fill="#282828"/>
<path d="M306.995 88.5776C313.479 86.5343 319.994 84.6076 326.538 82.7974C333.076 80.9619 339.642 79.2334 346.213 77.5258C352.792 75.8523 359.378 74.2019 365.991 72.658C372.597 71.0882 379.233 69.6369 385.901 68.3042C379.417 70.3497 372.902 72.2773 366.358 74.0872C359.82 75.9222 353.254 77.6507 346.683 79.3561C340.103 81.0273 333.517 82.6777 326.904 84.2211C320.298 85.79 313.661 87.2422 306.995 88.5776Z" fill="#282828"/>
<path d="M356.679 90.7981C360.24 89.3571 363.854 88.0952 367.485 86.8964C371.114 85.6862 374.773 84.5823 378.438 83.4989C382.113 82.4495 385.795 81.4229 389.507 80.5019C393.216 79.5697 396.944 78.7019 400.724 78.0146C397.164 79.4579 393.55 80.7207 389.919 81.9191C386.29 83.1287 382.631 84.2326 378.965 85.3138C375.289 86.3611 371.607 87.3877 367.895 88.3081C364.186 89.2398 360.458 90.1085 356.679 90.7981Z" fill="#282828"/>
<path d="M18.9735 61.2038C18.9735 61.2038 15.107 33.7352 1.54908 15.286C-12.0089 -3.16327 81.4543 1.15193 81.4543 1.15193L95.8105 33.3613C95.8105 33.3613 27.6153 35.9983 18.9735 61.2038Z" fill="#282828"/>
<path d="M189.27 150.508C189.539 149.359 189.825 148.215 190.115 147.072C190.408 145.929 190.68 144.781 190.99 143.644L192.811 136.809L192.813 136.803C192.841 136.698 192.904 136.605 192.992 136.54C193.08 136.475 193.187 136.441 193.296 136.445C195.081 136.509 196.738 136.707 198.446 136.907C200.139 137.12 201.827 137.358 203.514 137.606C205.197 137.874 206.879 138.141 208.554 138.452C210.232 138.744 211.898 139.097 213.57 139.423L213.591 139.427C213.702 139.449 213.799 139.512 213.865 139.603C213.93 139.694 213.959 139.807 213.944 139.918C213.484 143.376 212.865 146.791 212.234 150.208C211.594 153.622 210.936 157.034 210.06 160.403C209.637 162.091 209.163 163.769 208.591 165.423C208.043 167.102 207.326 168.721 206.451 170.256C205.992 171.046 205.432 171.773 204.786 172.42C204.077 173.108 203.173 173.562 202.197 173.72C200.396 173.82 198.589 173.645 196.841 173.2C190.068 171.534 183.436 169.338 177.007 166.632C173.793 165.311 170.596 163.952 167.417 162.556C164.254 161.121 161.09 159.692 157.977 158.149L158.039 158.165L154.779 157.656C154.77 157.655 154.762 157.652 154.754 157.647C154.747 157.643 154.74 157.637 154.735 157.629C154.73 157.622 154.726 157.614 154.724 157.606C154.722 157.597 154.722 157.588 154.723 157.58C154.726 157.563 154.735 157.548 154.749 157.537C154.762 157.527 154.779 157.522 154.796 157.523L158.078 157.771C158.095 157.772 158.111 157.775 158.126 157.781L158.14 157.787C161.361 159.071 164.57 160.386 167.803 161.635C171.02 162.924 174.25 164.175 177.494 165.389C180.729 166.621 183.978 167.807 187.24 168.948C190.505 170.068 193.783 171.178 197.116 171.963C198.727 172.396 200.391 172.602 202.06 172.576C202.808 172.474 203.507 172.144 204.062 171.632C204.657 171.065 205.181 170.427 205.62 169.732C207.365 166.775 208.691 163.59 209.56 160.268C210.491 156.932 211.239 153.549 211.801 150.133C212.357 146.715 212.738 143.263 213.038 139.825L213.412 140.32L208.367 139.572L203.33 138.796C201.653 138.532 199.976 138.27 198.296 138.038C196.63 137.811 194.91 137.555 193.296 137.455L193.781 137.092L191.641 143.834C191.291 144.959 190.902 146.074 190.534 147.194C190.164 148.314 189.79 149.432 189.399 150.546C189.393 150.562 189.381 150.576 189.366 150.583C189.351 150.591 189.333 150.593 189.317 150.588C189.3 150.583 189.286 150.572 189.277 150.558C189.269 150.543 189.266 150.525 189.27 150.508Z" fill="#282828"/>
<path d="M154.854 157.58L154.855 157.59L154.72 157.592C154.72 157.605 154.725 157.618 154.733 157.628C154.741 157.638 154.753 157.646 154.766 157.65C154.778 157.654 154.792 157.654 154.805 157.65C154.825 157.642 154.826 157.638 154.826 157.638L154.769 157.657C152.729 157.472 150.693 157.249 148.66 156.948C146.617 156.644 144.597 156.197 142.615 155.611C141.532 155.333 140.549 154.752 139.784 153.936C139.053 153.05 138.634 151.949 138.592 150.802C138.55 149.72 138.668 148.638 138.942 147.591C139.195 146.555 139.554 145.547 140.012 144.584L140.139 145.294C138.168 143.455 136.213 141.598 134.295 139.702L134.35 139.747C133.56 139.192 132.926 138.442 132.511 137.569C132.397 137.309 132.347 137.026 132.367 136.742C132.387 136.459 132.476 136.185 132.626 135.944C132.776 135.719 132.971 135.526 133.199 135.38C133.426 135.233 133.682 135.134 133.949 135.09C134.463 135.005 134.992 135.103 135.44 135.369L136.557 136.073C137.293 136.542 138.041 136.991 138.789 137.44C140.285 138.339 141.806 139.198 143.356 139.988C144.121 140.385 144.913 140.727 145.727 141.011C145.909 141.077 146.102 141.109 146.295 141.105C146.501 141.101 146.706 141.082 146.909 141.047C146.992 141.034 147.071 141.007 147.145 140.969C147.206 140.924 147.181 140.943 147.188 140.92C147.139 140.758 147.056 140.608 146.945 140.48C146.404 139.811 145.818 139.18 145.192 138.589C144.88 138.293 144.558 138.011 144.224 137.735C144.056 137.594 143.89 137.465 143.706 137.29C143.627 137.226 143.563 137.146 143.518 137.054C143.473 136.963 143.449 136.863 143.447 136.762C143.459 136.647 143.502 136.538 143.571 136.446C143.641 136.353 143.733 136.282 143.84 136.237C144.299 136.056 144.79 135.97 145.283 135.984C145.738 135.979 146.193 136.004 146.644 136.057C149.367 136.367 151.922 137.532 153.941 139.386C155.318 140.565 156.5 141.953 157.444 143.5L157.108 143.229C160.653 144.402 164.224 145.515 167.783 146.642C171.345 147.733 174.915 148.913 178.488 149.769C178.913 149.873 179.344 149.95 179.778 150C180.194 149.997 180.609 149.945 181.013 149.845C181.961 149.672 182.921 149.572 183.884 149.546C185.824 149.468 187.76 149.793 189.568 150.501C191.335 151.228 192.983 152.218 194.456 153.436C195.918 154.627 197.286 155.896 198.752 157.053C198.759 157.058 198.765 157.065 198.769 157.073C198.774 157.08 198.776 157.089 198.778 157.097C198.779 157.106 198.778 157.115 198.776 157.123C198.773 157.132 198.77 157.14 198.764 157.147C198.754 157.16 198.739 157.169 198.722 157.172C198.706 157.174 198.689 157.171 198.675 157.162C197.093 156.148 195.641 154.948 194.115 153.89C192.633 152.804 191.001 151.94 189.27 151.325C187.549 150.761 185.736 150.533 183.928 150.653C183.022 150.708 182.122 150.832 181.236 151.024L180.568 151.163C180.437 151.193 180.305 151.217 180.172 151.233C180.016 151.254 179.859 151.257 179.702 151.244C179.205 151.205 178.711 151.135 178.224 151.032C176.345 150.666 174.546 150.141 172.736 149.636C170.93 149.125 169.139 148.57 167.353 148.002C163.78 146.872 160.243 145.646 156.702 144.419L156.695 144.416C156.557 144.369 156.44 144.273 156.366 144.147C155.506 142.694 154.437 141.375 153.193 140.233C151.974 139.067 150.54 138.15 148.97 137.532C148.182 137.229 147.364 137.006 146.531 136.867C146.118 136.797 145.7 136.754 145.281 136.738C144.9 136.709 144.516 136.751 144.15 136.86C144.082 136.879 144.094 136.934 144.128 136.801C144.099 136.664 144.118 136.771 144.185 136.824C144.312 136.956 144.484 137.105 144.644 137.251C144.972 137.546 145.295 137.854 145.603 138.173C146.218 138.813 146.798 139.485 147.34 140.188C147.514 140.392 147.629 140.642 147.67 140.908C147.67 141.006 147.643 141.102 147.592 141.185C147.541 141.269 147.468 141.337 147.381 141.383C147.261 141.446 147.132 141.489 146.998 141.51C146.77 141.546 146.539 141.565 146.308 141.566C146.064 141.568 145.821 141.526 145.592 141.441C144.76 141.138 143.95 140.775 143.17 140.354C141.607 139.558 140.083 138.7 138.55 137.855L136.261 136.572L135.125 135.935C134.806 135.767 134.437 135.717 134.085 135.793C133.921 135.828 133.766 135.897 133.629 135.994C133.493 136.092 133.378 136.216 133.292 136.36C133.218 136.497 133.181 136.65 133.182 136.805C133.184 136.96 133.225 137.113 133.301 137.248C133.69 137.935 134.243 138.515 134.91 138.937L134.953 138.971L134.966 138.982C136.993 140.761 138.984 142.579 140.958 144.415C141.05 144.501 141.113 144.614 141.138 144.738C141.162 144.862 141.147 144.99 141.094 145.105L141.085 145.125C140.21 146.868 139.745 148.787 139.724 150.738C139.725 151.652 140.03 152.54 140.589 153.263C141.221 153.951 142.027 154.456 142.921 154.726C144.834 155.393 146.791 155.926 148.778 156.321C150.763 156.786 152.781 157.112 154.787 157.522L154.73 157.541C154.739 157.532 154.75 157.526 154.762 157.522C154.776 157.517 154.791 157.517 154.805 157.521C154.818 157.526 154.831 157.534 154.84 157.545C154.849 157.557 154.855 157.572 154.855 157.588C154.856 157.596 154.855 157.605 154.853 157.614C154.851 157.623 154.847 157.631 154.841 157.638C154.836 157.645 154.829 157.651 154.821 157.655C154.814 157.66 154.805 157.662 154.796 157.664C154.788 157.665 154.779 157.664 154.77 157.662C154.761 157.659 154.753 157.655 154.746 157.65C154.739 157.645 154.733 157.638 154.729 157.63C154.724 157.622 154.722 157.614 154.72 157.605L154.72 157.59L154.721 157.58C154.721 157.563 154.729 157.547 154.741 157.535C154.754 157.523 154.77 157.517 154.788 157.517C154.805 157.517 154.821 157.523 154.834 157.535C154.846 157.547 154.854 157.563 154.854 157.58L154.854 157.58Z" fill="#282828"/>
</svg>
