<svg width="69" height="44" viewBox="0 0 69 44" fill="none" xmlns="http://www.w3.org/2000/svg">
<g id="cs-logo">
<line id="logo-bottom" x1="6.5" y1="42.5" x2="63.5" y2="42.5" stroke="#282828" stroke-width="3" stroke-linecap="round"/>
<path id="logo-top" d="M4.60247 20.6651C4.49112 24.7279 4.60247 28.7908 4.60247 33C5.45616 33 6.49542 33 7.31199 33C7.31199 27.8025 7.27487 22.6782 7.31199 17.5906C7.34911 15.1382 8.31414 13.0885 10.2442 11.5512C12.8795 9.4283 15.886 9.02568 18.9295 10.4898C21.8618 11.8806 23.4949 14.3696 23.532 17.6272C23.6062 22.7148 23.532 27.8391 23.532 33C24.3486 33 25.425 33 26.4271 33C26.4271 27.8025 26.3529 22.7514 26.4271 17.7004C26.5013 13.0885 29.9903 9.64792 34.4443 9.64792C38.9354 9.64792 42.4615 13.0885 42.5358 17.7004C42.61 22.7514 42.5358 27.8025 42.5358 33C43.3523 33 44.503 33 45.3566 33C45.3566 27.8757 45.3566 22.8978 45.3566 17.92C45.3566 14.5892 46.8413 11.9172 49.8478 10.4898C52.8913 9.06228 56.0091 9.3551 58.6815 11.5878C60.7972 13.3447 61.6138 15.6872 61.6138 18.3958C61.5767 23.2639 61.6138 28.0953 61.6138 33C62.5788 33 63.6552 33 64.3975 33C64.3975 28.5346 64.5089 24.2155 64.3604 19.8965C64.2491 16.0533 65.0285 12.7591 69 10.38C54.8956 1.52227 39.9747 -1.80851 23.8289 0.936638C15.3292 2.36412 7.46046 5.47529 0 10.4898C4.26842 12.9421 4.71382 16.6389 4.60247 20.6651Z" fill="#282828"/>
</g>
</svg>
